{"asset":{"version":"2.0","generator":"Blockbench 4.6.5 glTF exporter"},"scenes":[{"nodes":[10],"name":"blockbench_export"}],"scene":0,"nodes":[{"translation":[0,-0.125,-0.5],"name":"megazing_default"},{"translation":[0,-0.125,-0.5],"name":"megazing_default2"},{"translation":[-0.5,-0.375,-1],"name":"bolt"},{"name":"ak47","children":[0,1,2]},{"translation":[0.375,-0.6875,0],"name":"RightHand"},{"translation":[-0.375,0.8125,-0.5],"name":"R","children":[4]},{"name":"bone2","children":[3,5]},{"translation":[-0.375,-0.6875,0],"name":"LeftHand"},{"translation":[0.375,0.8125,-0.5],"name":"l","children":[7]},{"translation":[0.5,0.375,1],"name":"bone","children":[6,8]},{"children":[9]}],"animations":[{"name":"reload_empty","samplers":[{"input":0,"output":1,"interpolation":"LINEAR"},{"input":2,"output":3,"interpolation":"LINEAR"},{"input":4,"output":5,"interpolation":"LINEAR"},{"input":6,"output":7,"interpolation":"LINEAR"},{"input":8,"output":9,"interpolation":"LINEAR"},{"input":10,"output":11,"interpolation":"LINEAR"},{"input":12,"output":13,"interpolation":"LINEAR"},{"input":14,"output":15,"interpolation":"LINEAR"},{"input":16,"output":17,"interpolation":"LINEAR"},{"input":18,"output":19,"interpolation":"LINEAR"},{"input":20,"output":21,"interpolation":"LINEAR"},{"input":22,"output":23,"interpolation":"LINEAR"},{"input":24,"output":25,"interpolation":"LINEAR"}],"channels":[{"sampler":0,"target":{"node":5,"path":"rotation"}},{"sampler":1,"target":{"node":5,"path":"translation"}},{"sampler":2,"target":{"node":5,"path":"scale"}},{"sampler":3,"target":{"node":8,"path":"rotation"}},{"sampler":4,"target":{"node":8,"path":"translation"}},{"sampler":5,"target":{"node":8,"path":"scale"}},{"sampler":6,"target":{"node":9,"path":"rotation"}},{"sampler":7,"target":{"node":9,"path":"translation"}},{"sampler":8,"target":{"node":0,"path":"rotation"}},{"sampler":9,"target":{"node":0,"path":"translation"}},{"sampler":10,"target":{"node":2,"path":"translation"}},{"sampler":11,"target":{"node":1,"path":"rotation"}},{"sampler":12,"target":{"node":1,"path":"translation"}}]}],"bufferViews":[{"buffer":0,"byteOffset":0,"byteLength":4},{"buffer":0,"byteOffset":4,"byteLength":16},{"buffer":0,"byteOffset":20,"byteLength":4},{"buffer":0,"byteOffset":24,"byteLength":12},{"buffer":0,"byteOffset":36,"byteLength":4},{"buffer":0,"byteOffset":40,"byteLength":12},{"buffer":0,"byteOffset":52,"byteLength":172},{"buffer":0,"byteOffset":224,"byteLength":688},{"buffer":0,"byteOffset":912,"byteLength":152},{"buffer":0,"byteOffset":1064,"byteLength":456},{"buffer":0,"byteOffset":1520,"byteLength":4},{"buffer":0,"byteOffset":1524,"byteLength":12},{"buffer":0,"byteOffset":1536,"byteLength":188},{"buffer":0,"byteOffset":1724,"byteLength":752},{"buffer":0,"byteOffset":2476,"byteLength":176},{"buffer":0,"byteOffset":2652,"byteLength":528},{"buffer":0,"byteOffset":3180,"byteLength":80},{"buffer":0,"byteOffset":3260,"byteLength":320},{"buffer":0,"byteOffset":3580,"byteLength":80},{"buffer":0,"byteOffset":3660,"byteLength":240},{"buffer":0,"byteOffset":3900,"byteLength":16},{"buffer":0,"byteOffset":3916,"byteLength":48},{"buffer":0,"byteOffset":3964,"byteLength":92},{"buffer":0,"byteOffset":4056,"byteLength":368},{"buffer":0,"byteOffset":4424,"byteLength":88},{"buffer":0,"byteOffset":4512,"byteLength":264}],"buffers":[{"byteLength":4776,"uri":"data:application/octet-stream;base64,"}],"accessors":[{"bufferView":0,"componentType":5126,"count":1,"max":[0],"min":[0],"type":"SCALAR"},{"bufferView":1,"componentType":5126,"count":1,"max":[-0.033414360135793686,0.7653152942657471,-0.6421758532524109,-0.02803802862763405],"min":[-0.033414360135793686,0.7653152942657471,-0.6421758532524109,-0.02803802862763405],"type":"VEC4"},{"bufferView":2,"componentType":5126,"count":1,"max":[0],"min":[0],"type":"SCALAR"},{"bufferView":3,"componentType":5126,"count":1,"max":[0.01875000074505806,-0.07500000298023224,-0.03750000149011612],"min":[0.01875000074505806,-0.07500000298023224,-0.03750000149011612],"type":"VEC3"},{"bufferView":4,"componentType":5126,"count":1,"max":[0],"min":[0],"type":"SCALAR"},{"bufferView":5,"componentType":5126,"count":1,"max":[1,1.5,1],"min":[1,1.5,1],"type":"VEC3"},{"bufferView":6,"componentType":5126,"count":43,"max":[3.200000047683716],"min":[0],"type":"SCALAR"},{"bufferView":7,"componentType":5126,"count":43,"max":[0.5965687036514282,-0.037191737443208694,0.6871296763420105,-0.43370988965034485],"min":[-0.05995802953839302,-0.720557451248169,-0.20734965801239014,-0.9130168557167053],"type":"VEC4"},{"bufferView":8,"componentType":5126,"count":38,"max":[3.0999999046325684],"min":[0],"type":"SCALAR"},{"bufferView":9,"componentType":5126,"count":38,"max":[0.30951687693595886,0.19276000559329987,-0.06624999642372131],"min":[-0.41167500615119934,-1.3890955448150635,-1.03125],"type":"VEC3"},{"bufferView":10,"componentType":5126,"count":1,"max":[0],"min":[0],"type":"SCALAR"},{"bufferView":11,"componentType":5126,"count":1,"max":[1,1.5,1],"min":[1,1.5,1],"type":"VEC3"},{"bufferView":12,"componentType":5126,"count":47,"max":[3.4000000953674316],"min":[0],"type":"SCALAR"},{"bufferView":13,"componentType":5126,"count":47,"max":[0.22417746484279633,0.08926479518413544,0,1],"min":[-0.000410784559790045,-0.023904191330075264,-0.4981645345687866,0.8368477821350098],"type":"VEC4"},{"bufferView":14,"componentType":5126,"count":44,"max":[3.3499999046325684],"min":[0],"type":"SCALAR"},{"bufferView":15,"componentType":5126,"count":44,"max":[0.512499988079071,0.38749998807907104,1.1087499856948853],"min":[0.5,0.3018749952316284,0.90625],"type":"VEC3"},{"bufferView":16,"componentType":5126,"count":20,"max":[2.299999952316284],"min":[0],"type":"SCALAR"},{"bufferView":17,"componentType":5126,"count":20,"max":[0.9167271852493286,0.3942949175834656,0.12273389846086502,1],"min":[0,-0.02180449850857258,-0.5184257626533508,-0.7848125100135803],"type":"VEC4"},{"bufferView":18,"componentType":5126,"count":20,"max":[2.3499999046325684],"min":[0],"type":"SCALAR"},{"bufferView":19,"componentType":5126,"count":20,"max":[2.011474370956421,-0.125,0.3670131266117096],"min":[0,-1.7343730926513672,-0.963485598564148],"type":"VEC3"},{"bufferView":20,"componentType":5126,"count":4,"max":[2.9000000953674316],"min":[2.700000047683716],"type":"SCALAR"},{"bufferView":21,"componentType":5126,"count":4,"max":[-0.5,-0.375,-0.625],"min":[-0.5,-0.375,-1],"type":"VEC3"},{"bufferView":22,"componentType":5126,"count":23,"max":[2.1500000953674316],"min":[0],"type":"SCALAR"},{"bufferView":23,"componentType":5126,"count":23,"max":[0.31251266598701477,0.2771008014678955,0.13708707690238953,1],"min":[0,-0.03164173662662506,-0.8314149379730225,0.36827510595321655],"type":"VEC4"},{"bufferView":24,"componentType":5126,"count":22,"max":[2.1500000953674316],"min":[0],"type":"SCALAR"},{"bufferView":25,"componentType":5126,"count":22,"max":[0.10437499731779099,-0.03750000149011612,-0.22812500596046448],"min":[-0.29499998688697815,-1.3456250429153442,-0.6662499904632568],"type":"VEC3"}]}