{"asset":{"version":"2.0","generator":"Blockbench 4.8.3 glTF exporter"},"scenes":[{"nodes":[15],"name":"blockbench_export"}],"scene":0,"nodes":[{"translation":[-0.375,-0.6875,0],"name":"LeftHand"},{"translation":[0.375,0.6875,-0.3125],"name":"l","children":[0]},{"translation":[0.375,-0.6875,0],"name":"RightHand"},{"translation":[-0.375,0.625,-0.25],"name":"R1","children":[2]},{"translation":[0.014062499999999978,0.021874999999999978,0],"name":"cylinder_bullets"},{"translation":[0,0.000003124999999992717,0.000003124999999992717],"name":"bullets"},{"name":"loader"},{"translation":[-0.7359375,0.15273437499999998,0.134765625],"name":"bone2","children":[5,6]},{"translation":[-0.014062499999999978,0.10312500000000002,-0.125],"name":"cylinder_group","children":[4,7]},{"translation":[0,0.533933125,0.4232156250000001],"name":"hammer"},{"translation":[0,-0.1875,-0.125],"name":"colt_python","children":[8,9]},{"translation":[0,0.0625,-0.0625],"name":"R2","children":[3,10]},{"translation":[0.5,0.5,0.8125],"name":"root","children":[1,11]},{"translation":[0.25,0.96875,1.9375],"name":"camera","mesh":0},{"name":"bone","children":[13]},{"children":[12,14]}],"bufferViews":[{"buffer":0,"byteOffset":0,"byteLength":288,"target":34962,"byteStride":12},{"buffer":0,"byteOffset":288,"byteLength":288,"target":34962,"byteStride":12},{"buffer":0,"byteOffset":576,"byteLength":192,"target":34962,"byteStride":8},{"buffer":0,"byteOffset":768,"byteLength":72,"target":34963},{"buffer":0,"byteOffset":840,"byteLength":20},{"buffer":0,"byteOffset":860,"byteLength":80},{"buffer":0,"byteOffset":940,"byteLength":20},{"buffer":0,"byteOffset":960,"byteLength":60},{"buffer":0,"byteOffset":1020,"byteLength":4},{"buffer":0,"byteOffset":1024,"byteLength":12},{"buffer":0,"byteOffset":1036,"byteLength":348},{"buffer":0,"byteOffset":1384,"byteLength":1392},{"buffer":0,"byteOffset":2776,"byteLength":344},{"buffer":0,"byteOffset":3120,"byteLength":1032},{"buffer":0,"byteOffset":4152,"byteLength":4},{"buffer":0,"byteOffset":4156,"byteLength":16},{"buffer":0,"byteOffset":4172,"byteLength":4},{"buffer":0,"byteOffset":4176,"byteLength":12},{"buffer":0,"byteOffset":4188,"byteLength":4},{"buffer":0,"byteOffset":4192,"byteLength":12},{"buffer":0,"byteOffset":4204,"byteLength":264},{"buffer":0,"byteOffset":4468,"byteLength":1056},{"buffer":0,"byteOffset":5524,"byteLength":256},{"buffer":0,"byteOffset":5780,"byteLength":768},{"buffer":0,"byteOffset":6548,"byteLength":260},{"buffer":0,"byteOffset":6808,"byteLength":1040},{"buffer":0,"byteOffset":7848,"byteLength":56},{"buffer":0,"byteOffset":7904,"byteLength":168}],"buffers":[{"byteLength":8072,"uri":"data:application/octet-stream;base64,"}],"accessors":[{"bufferView":0,"componentType":5126,"count":24,"max":[0.07500000298023224,0.04062499850988388,0],"min":[-0.07500000298023224,-0.04062499850988388,-0.0625],"type":"VEC3"},{"bufferView":1,"componentType":5126,"count":24,"max":[1,1,1],"min":[-1,-1,-1],"type":"VEC3"},{"bufferView":2,"componentType":5126,"count":24,"max":[1,1],"min":[0,0],"type":"VEC2"},{"bufferView":3,"componentType":5123,"count":36,"max":[23],"min":[0],"type":"SCALAR"},{"bufferView":4,"componentType":5126,"count":5,"max":[5.449999809265137],"min":[0],"type":"SCALAR"},{"bufferView":5,"componentType":5126,"count":5,"max":[0.22922249138355255,-0.784227728843689,0.5643830895423889,0.1605033278465271],"min":[-0.09004930406808853,-0.818812906742096,0.543840765953064,-0.2970789074897766],"type":"VEC4"},{"bufferView":6,"componentType":5126,"count":5,"max":[5.449999809265137],"min":[0],"type":"SCALAR"},{"bufferView":7,"componentType":5126,"count":5,"max":[-0.12343750149011612,-0.30156248807907104,0.2306250035762787],"min":[-0.6175000071525574,-1.0075000524520874,-0.21953125298023224],"type":"VEC3"},{"bufferView":8,"componentType":5126,"count":1,"max":[0],"min":[0],"type":"SCALAR"},{"bufferView":9,"componentType":5126,"count":1,"max":[1.75,2,1.75],"min":[1.75,2,1.75],"type":"VEC3"},{"bufferView":10,"componentType":5126,"count":87,"max":[5.449999809265137],"min":[0],"type":"SCALAR"},{"bufferView":11,"componentType":5126,"count":87,"max":[0.3882439136505127,0.1426927149295807,0.6700083613395691,1],"min":[-0.13910019397735596,-0.14994844794273376,-0.2827625274658203,0.7124611735343933],"type":"VEC4"},{"bufferView":12,"componentType":5126,"count":86,"max":[5.449999809265137],"min":[0],"type":"SCALAR"},{"bufferView":13,"componentType":5126,"count":86,"max":[0.984375,0.3543750047683716,0.10539118945598602],"min":[-0.005898437462747097,-0.33937498927116394,-0.33250001072883606],"type":"VEC3"},{"bufferView":14,"componentType":5126,"count":1,"max":[0],"min":[0],"type":"SCALAR"},{"bufferView":15,"componentType":5126,"count":1,"max":[-0.061580874025821686,0.7342168688774109,-0.6761120557785034,0.0024195231962949038],"min":[-0.061580874025821686,0.7342168688774109,-0.6761120557785034,0.0024195231962949038],"type":"VEC4"},{"bufferView":16,"componentType":5126,"count":1,"max":[0],"min":[0],"type":"SCALAR"},{"bufferView":17,"componentType":5126,"count":1,"max":[0.09375,-0.25,0],"min":[0.09375,-0.25,0],"type":"VEC3"},{"bufferView":18,"componentType":5126,"count":1,"max":[0],"min":[0],"type":"SCALAR"},{"bufferView":19,"componentType":5126,"count":1,"max":[1.75,2,1.75],"min":[1.75,2,1.75],"type":"VEC3"},{"bufferView":20,"componentType":5126,"count":66,"max":[5.699999809265137],"min":[0],"type":"SCALAR"},{"bufferView":21,"componentType":5126,"count":66,"max":[0.002487227087840438,0.2069544941186905,0.007893102243542671,1],"min":[-0.011759266257286072,-0.015154910273849964,-0.0953206866979599,0.9736444354057312],"type":"VEC4"},{"bufferView":22,"componentType":5126,"count":64,"max":[5.599999904632568],"min":[0],"type":"SCALAR"},{"bufferView":23,"componentType":5126,"count":64,"max":[0.516545832157135,0.574999988079071,0.90625],"min":[0.2750000059604645,0.4859375059604645,0.784375011920929],"type":"VEC3"},{"bufferView":24,"componentType":5126,"count":65,"max":[5.300000190734863],"min":[0],"type":"SCALAR"},{"bufferView":25,"componentType":5126,"count":65,"max":[0.9957121014595032,0.0987468883395195,0.14280016720294952,1],"min":[-0.9905887842178345,-0.11645626276731491,-0.13026930391788483,-0.9905012249946594],"type":"VEC4"},{"bufferView":26,"componentType":5126,"count":14,"max":[5.300000190734863],"min":[0],"type":"SCALAR"},{"bufferView":27,"componentType":5126,"count":14,"max":[0,0.03765625134110451,-0.0078125],"min":[-0.2018750011920929,-0.1875,-0.19499999284744263],"type":"VEC3"}],"materials":[{"pbrMetallicRoughness":{"baseColorFactor":[0.28627450980392155,0.3137254901960784,0.3803921568627451,1],"metallicFactor":0,"roughnessFactor":0.9},"extensions":{"KHR_materials_unlit":{}}}],"meshes":[{"primitives":[{"mode":4,"attributes":{"POSITION":0,"NORMAL":1,"TEXCOORD_0":2},"indices":3,"material":0}]}],"animations":[{"name":"inspect20","samplers":[{"input":4,"output":5,"interpolation":"LINEAR"},{"input":6,"output":7,"interpolation":"LINEAR"},{"input":8,"output":9,"interpolation":"LINEAR"},{"input":10,"output":11,"interpolation":"LINEAR"},{"input":12,"output":13,"interpolation":"LINEAR"},{"input":14,"output":15,"interpolation":"LINEAR"},{"input":16,"output":17,"interpolation":"LINEAR"},{"input":18,"output":19,"interpolation":"LINEAR"},{"input":20,"output":21,"interpolation":"LINEAR"},{"input":22,"output":23,"interpolation":"LINEAR"},{"input":24,"output":25,"interpolation":"LINEAR"},{"input":26,"output":27,"interpolation":"LINEAR"}],"channels":[{"sampler":0,"target":{"node":1,"path":"rotation"}},{"sampler":1,"target":{"node":1,"path":"translation"}},{"sampler":2,"target":{"node":1,"path":"scale"}},{"sampler":3,"target":{"node":11,"path":"rotation"}},{"sampler":4,"target":{"node":11,"path":"translation"}},{"sampler":5,"target":{"node":3,"path":"rotation"}},{"sampler":6,"target":{"node":3,"path":"translation"}},{"sampler":7,"target":{"node":3,"path":"scale"}},{"sampler":8,"target":{"node":12,"path":"rotation"}},{"sampler":9,"target":{"node":12,"path":"translation"}},{"sampler":10,"target":{"node":10,"path":"rotation"}},{"sampler":11,"target":{"node":10,"path":"translation"}}]}],"extensionsUsed":["KHR_materials_unlit"]}