{"asset":{"version":"2.0","generator":"Blockbench 4.8.3 glTF exporter"},"scenes":[{"nodes":[15],"name":"blockbench_export"}],"scene":0,"nodes":[{"translation":[-0.375,-0.6875,0],"name":"LeftHand"},{"translation":[0.375,0.6875,-0.3125],"name":"l","children":[0]},{"translation":[0.375,-0.6875,0],"name":"RightHand"},{"translation":[-0.375,0.625,-0.25],"name":"R1","children":[2]},{"translation":[0.014062499999999978,0.021874999999999978,0],"name":"cylinder_bullets"},{"translation":[0,0.000003124999999992717,0.000003124999999992717],"name":"bullets"},{"name":"loader"},{"translation":[-0.7359375,0.15273437499999998,0.134765625],"name":"bone2","children":[5,6]},{"translation":[-0.014062499999999978,0.10312500000000002,-0.125],"name":"cylinder_group","children":[4,7]},{"translation":[0,0.533933125,0.4232156250000001],"name":"hammer"},{"translation":[0,-0.1875,-0.125],"name":"colt_python","children":[8,9]},{"translation":[0,0.0625,-0.0625],"name":"R2","children":[3,10]},{"translation":[0.5,0.5,0.8125],"name":"root","children":[1,11]},{"translation":[0.25,0.96875,1.9375],"name":"camera","mesh":0},{"name":"bone","children":[13]},{"children":[12,14]}],"bufferViews":[{"buffer":0,"byteOffset":0,"byteLength":288,"target":34962,"byteStride":12},{"buffer":0,"byteOffset":288,"byteLength":288,"target":34962,"byteStride":12},{"buffer":0,"byteOffset":576,"byteLength":192,"target":34962,"byteStride":8},{"buffer":0,"byteOffset":768,"byteLength":72,"target":34963},{"buffer":0,"byteOffset":840,"byteLength":16},{"buffer":0,"byteOffset":856,"byteLength":64},{"buffer":0,"byteOffset":920,"byteLength":24},{"buffer":0,"byteOffset":944,"byteLength":72},{"buffer":0,"byteOffset":1016,"byteLength":8},{"buffer":0,"byteOffset":1024,"byteLength":24},{"buffer":0,"byteOffset":1048,"byteLength":52},{"buffer":0,"byteOffset":1100,"byteLength":208},{"buffer":0,"byteOffset":1308,"byteLength":56},{"buffer":0,"byteOffset":1364,"byteLength":168},{"buffer":0,"byteOffset":1532,"byteLength":8},{"buffer":0,"byteOffset":1540,"byteLength":24},{"buffer":0,"byteOffset":1564,"byteLength":152},{"buffer":0,"byteOffset":1716,"byteLength":608},{"buffer":0,"byteOffset":2324,"byteLength":160},{"buffer":0,"byteOffset":2484,"byteLength":480},{"buffer":0,"byteOffset":2964,"byteLength":4},{"buffer":0,"byteOffset":2968,"byteLength":12},{"buffer":0,"byteOffset":2980,"byteLength":212},{"buffer":0,"byteOffset":3192,"byteLength":848},{"buffer":0,"byteOffset":4040,"byteLength":204},{"buffer":0,"byteOffset":4244,"byteLength":612},{"buffer":0,"byteOffset":4856,"byteLength":16},{"buffer":0,"byteOffset":4872,"byteLength":64},{"buffer":0,"byteOffset":4936,"byteLength":16},{"buffer":0,"byteOffset":4952,"byteLength":48},{"buffer":0,"byteOffset":5000,"byteLength":8},{"buffer":0,"byteOffset":5008,"byteLength":24},{"buffer":0,"byteOffset":5032,"byteLength":32},{"buffer":0,"byteOffset":5064,"byteLength":128},{"buffer":0,"byteOffset":5192,"byteLength":148},{"buffer":0,"byteOffset":5340,"byteLength":444}],"buffers":[{"byteLength":5784,"uri":"data:application/octet-stream;base64,"}],"accessors":[{"bufferView":0,"componentType":5126,"count":24,"max":[0.07500000298023224,0.04062499850988388,0],"min":[-0.07500000298023224,-0.04062499850988388,-0.0625],"type":"VEC3"},{"bufferView":1,"componentType":5126,"count":24,"max":[1,1,1],"min":[-1,-1,-1],"type":"VEC3"},{"bufferView":2,"componentType":5126,"count":24,"max":[1,1],"min":[0,0],"type":"VEC2"},{"bufferView":3,"componentType":5123,"count":36,"max":[23],"min":[0],"type":"SCALAR"},{"bufferView":4,"componentType":5126,"count":4,"max":[2.5],"min":[2.200000047683716],"type":"SCALAR"},{"bufferView":5,"componentType":5126,"count":4,"max":[0,0,0,1],"min":[-0.3843414783477783,-0.6426876187324524,-0.2094464749097824,0.6287817358970642],"type":"VEC4"},{"bufferView":6,"componentType":5126,"count":6,"max":[2.700000047683716],"min":[2.200000047683716],"type":"SCALAR"},{"bufferView":7,"componentType":5126,"count":6,"max":[0,0.11687500029802322,0.7306249737739563],"min":[-0.6131250262260437,-1.246250033378601,0],"type":"VEC3"},{"bufferView":8,"componentType":5126,"count":2,"max":[2.5999999046325684],"min":[2.549999952316284],"type":"SCALAR"},{"bufferView":9,"componentType":5126,"count":2,"max":[1,1,1],"min":[0,0,0],"type":"VEC3"},{"bufferView":10,"componentType":5126,"count":13,"max":[2.950000047683716],"min":[0],"type":"SCALAR"},{"bufferView":11,"componentType":5126,"count":13,"max":[0.2867080271244049,-0.06459013372659683,0.5643830895423889,-0.016804294660687447],"min":[-0.20212332904338837,-0.8239023089408875,0.1409812569618225,-0.9842989444732666],"type":"VEC4"},{"bufferView":12,"componentType":5126,"count":14,"max":[2.950000047683716],"min":[0],"type":"SCALAR"},{"bufferView":13,"componentType":5126,"count":14,"max":[0.10906250029802322,-0.038750000298023224,-0.08203125],"min":[-0.16687500476837158,-0.3079456388950348,-0.4764062464237213],"type":"VEC3"},{"bufferView":14,"componentType":5126,"count":2,"max":[2.950000047683716],"min":[0],"type":"SCALAR"},{"bufferView":15,"componentType":5126,"count":2,"max":[1.75,2,1.75],"min":[1.75,2,1.75],"type":"VEC3"},{"bufferView":16,"componentType":5126,"count":38,"max":[2.450000047683716],"min":[0],"type":"SCALAR"},{"bufferView":17,"componentType":5126,"count":38,"max":[-0.061580874025821686,0.8044281005859375,-0.2791934907436371,0.40129566192626953],"min":[-0.792248547077179,0.06237040460109711,-0.7631445527076721,0.0024195231962949038],"type":"VEC4"},{"bufferView":18,"componentType":5126,"count":40,"max":[2.450000047683716],"min":[0],"type":"SCALAR"},{"bufferView":19,"componentType":5126,"count":40,"max":[0.10052275657653809,0.4247100055217743,0.7660887241363525],"min":[-0.2117837518453598,-0.4313368797302246,-0.75602126121521],"type":"VEC3"},{"bufferView":20,"componentType":5126,"count":1,"max":[0],"min":[0],"type":"SCALAR"},{"bufferView":21,"componentType":5126,"count":1,"max":[1.75,2,1.75],"min":[1.75,2,1.75],"type":"VEC3"},{"bufferView":22,"componentType":5126,"count":53,"max":[3.1500000953674316],"min":[0],"type":"SCALAR"},{"bufferView":23,"componentType":5126,"count":53,"max":[0.5913541316986084,0.28305116295814514,0.04468999058008194,1],"min":[-0.3085768222808838,-0.004362828563898802,-0.36549949645996094,0.6845259070396423],"type":"VEC4"},{"bufferView":24,"componentType":5126,"count":51,"max":[3.1500000953674316],"min":[0],"type":"SCALAR"},{"bufferView":25,"componentType":5126,"count":51,"max":[0.6223810315132141,0.5998638868331909,0.9906250238418579],"min":[0.40625,-0.2306250035762787,0.793749988079071],"type":"VEC3"},{"bufferView":26,"componentType":5126,"count":4,"max":[2.5999999046325684],"min":[0.20000000298023224],"type":"SCALAR"},{"bufferView":27,"componentType":5126,"count":4,"max":[0,0,0.7660444378852844,1],"min":[0,0,0,0.6427876353263855],"type":"VEC4"},{"bufferView":28,"componentType":5126,"count":4,"max":[2.200000047683716],"min":[1.100000023841858],"type":"SCALAR"},{"bufferView":29,"componentType":5126,"count":4,"max":[1,1,1],"min":[0,0,0],"type":"VEC3"},{"bufferView":30,"componentType":5126,"count":2,"max":[2.200000047683716],"min":[2.1500000953674316],"type":"SCALAR"},{"bufferView":31,"componentType":5126,"count":2,"max":[0,0.00000312499992105586,0.00000312499992105586],"min":[0,0.00000312499992105586,-0.06249687448143959],"type":"VEC3"},{"bufferView":32,"componentType":5126,"count":8,"max":[2.049999952316284],"min":[1.5],"type":"SCALAR"},{"bufferView":33,"componentType":5126,"count":8,"max":[0.11304327845573425,0.2150213122367859,0.017670538276433945,1],"min":[-0.04543386772274971,-0.04144199192523956,-0.15837930142879486,0.9700448513031006],"type":"VEC4"},{"bufferView":34,"componentType":5126,"count":37,"max":[2.049999952316284],"min":[0],"type":"SCALAR"},{"bufferView":35,"componentType":5126,"count":37,"max":[1.2321875095367432,0.8108593821525574,3.7847657203674316],"min":[-2.7853124141693115,-3.238515615463257,0.197265625],"type":"VEC3"}],"materials":[{"pbrMetallicRoughness":{"baseColorFactor":[0.28627450980392155,0.3137254901960784,0.3803921568627451,1],"metallicFactor":0,"roughnessFactor":0.9},"extensions":{"KHR_materials_unlit":{}}}],"meshes":[{"primitives":[{"mode":4,"attributes":{"POSITION":0,"NORMAL":1,"TEXCOORD_0":2},"indices":3,"material":0}]}],"animations":[{"name":"reload20","samplers":[{"input":4,"output":5,"interpolation":"LINEAR"},{"input":6,"output":7,"interpolation":"LINEAR"},{"input":8,"output":9,"interpolation":"LINEAR"},{"input":10,"output":11,"interpolation":"LINEAR"},{"input":12,"output":13,"interpolation":"LINEAR"},{"input":14,"output":15,"interpolation":"LINEAR"},{"input":16,"output":17,"interpolation":"LINEAR"},{"input":18,"output":19,"interpolation":"LINEAR"},{"input":20,"output":21,"interpolation":"LINEAR"},{"input":22,"output":23,"interpolation":"LINEAR"},{"input":24,"output":25,"interpolation":"LINEAR"},{"input":26,"output":27,"interpolation":"LINEAR"},{"input":28,"output":29,"interpolation":"LINEAR"},{"input":30,"output":31,"interpolation":"LINEAR"},{"input":32,"output":33,"interpolation":"LINEAR"},{"input":34,"output":35,"interpolation":"LINEAR"}],"channels":[{"sampler":0,"target":{"node":6,"path":"rotation"}},{"sampler":1,"target":{"node":6,"path":"translation"}},{"sampler":2,"target":{"node":6,"path":"scale"}},{"sampler":3,"target":{"node":1,"path":"rotation"}},{"sampler":4,"target":{"node":1,"path":"translation"}},{"sampler":5,"target":{"node":1,"path":"scale"}},{"sampler":6,"target":{"node":3,"path":"rotation"}},{"sampler":7,"target":{"node":3,"path":"translation"}},{"sampler":8,"target":{"node":3,"path":"scale"}},{"sampler":9,"target":{"node":12,"path":"rotation"}},{"sampler":10,"target":{"node":12,"path":"translation"}},{"sampler":11,"target":{"node":8,"path":"rotation"}},{"sampler":12,"target":{"node":4,"path":"scale"}},{"sampler":13,"target":{"node":5,"path":"translation"}},{"sampler":14,"target":{"node":7,"path":"rotation"}},{"sampler":15,"target":{"node":7,"path":"translation"}}]}],"extensionsUsed":["KHR_materials_unlit"]}