{"asset":{"version":"2.0","generator":"Blockbench 4.8.3 glTF exporter"},"scenes":[{"nodes":[15],"name":"blockbench_export"}],"scene":0,"nodes":[{"translation":[-0.375,-0.6875,0],"name":"LeftHand"},{"translation":[0.375,0.6875,-0.3125],"name":"l","children":[0]},{"translation":[0.375,-0.6875,0],"name":"RightHand"},{"translation":[-0.375,0.625,-0.25],"name":"R1","children":[2]},{"translation":[0.014062499999999978,0.021874999999999978,0],"name":"cylinder_bullets"},{"translation":[0,0.000003124999999992717,0.000003124999999992717],"name":"bullets"},{"name":"loader"},{"translation":[-0.7359375,0.15273437499999998,0.134765625],"name":"bone2","children":[5,6]},{"translation":[-0.014062499999999978,0.10312500000000002,-0.125],"name":"cylinder_group","children":[4,7]},{"translation":[0,0.533933125,0.4232156250000001],"name":"hammer"},{"translation":[0,-0.1875,-0.125],"name":"colt_python","children":[8,9]},{"translation":[0,0.0625,-0.0625],"name":"R2","children":[3,10]},{"translation":[0.5,0.5,0.8125],"name":"root","children":[1,11]},{"translation":[0.25,0.96875,1.9375],"name":"camera","mesh":0},{"name":"bone","children":[13]},{"children":[12,14]}],"bufferViews":[{"buffer":0,"byteOffset":0,"byteLength":288,"target":34962,"byteStride":12},{"buffer":0,"byteOffset":288,"byteLength":288,"target":34962,"byteStride":12},{"buffer":0,"byteOffset":576,"byteLength":192,"target":34962,"byteStride":8},{"buffer":0,"byteOffset":768,"byteLength":72,"target":34963},{"buffer":0,"byteOffset":840,"byteLength":32},{"buffer":0,"byteOffset":872,"byteLength":128},{"buffer":0,"byteOffset":1000,"byteLength":32},{"buffer":0,"byteOffset":1032,"byteLength":96},{"buffer":0,"byteOffset":1128,"byteLength":4},{"buffer":0,"byteOffset":1132,"byteLength":12},{"buffer":0,"byteOffset":1144,"byteLength":4},{"buffer":0,"byteOffset":1148,"byteLength":16},{"buffer":0,"byteOffset":1164,"byteLength":4},{"buffer":0,"byteOffset":1168,"byteLength":12},{"buffer":0,"byteOffset":1180,"byteLength":4},{"buffer":0,"byteOffset":1184,"byteLength":12},{"buffer":0,"byteOffset":1196,"byteLength":48},{"buffer":0,"byteOffset":1244,"byteLength":192},{"buffer":0,"byteOffset":1436,"byteLength":16},{"buffer":0,"byteOffset":1452,"byteLength":48},{"buffer":0,"byteOffset":1500,"byteLength":72},{"buffer":0,"byteOffset":1572,"byteLength":288},{"buffer":0,"byteOffset":1860,"byteLength":68},{"buffer":0,"byteOffset":1928,"byteLength":204}],"buffers":[{"byteLength":2132,"uri":"data:application/octet-stream;base64,"}],"accessors":[{"bufferView":0,"componentType":5126,"count":24,"max":[0.07500000298023224,0.04062499850988388,0],"min":[-0.07500000298023224,-0.04062499850988388,-0.0625],"type":"VEC3"},{"bufferView":1,"componentType":5126,"count":24,"max":[1,1,1],"min":[-1,-1,-1],"type":"VEC3"},{"bufferView":2,"componentType":5126,"count":24,"max":[1,1],"min":[0,0],"type":"VEC2"},{"bufferView":3,"componentType":5123,"count":36,"max":[23],"min":[0],"type":"SCALAR"},{"bufferView":4,"componentType":5126,"count":8,"max":[0.8500000238418579],"min":[0],"type":"SCALAR"},{"bufferView":5,"componentType":5126,"count":8,"max":[0.19470089673995972,-0.601676344871521,0.7841199040412903,0.1363309919834137],"min":[-0.14508260786533356,-0.8211553692817688,0.5520024299621582,-0.1921261101961136],"type":"VEC4"},{"bufferView":6,"componentType":5126,"count":8,"max":[0.8500000238418579],"min":[0],"type":"SCALAR"},{"bufferView":7,"componentType":5126,"count":8,"max":[-0.12343750149011612,-0.30156248807907104,0.1895931214094162],"min":[-0.9971887469291687,-1.1819918155670166,-0.24453124403953552],"type":"VEC3"},{"bufferView":8,"componentType":5126,"count":1,"max":[0],"min":[0],"type":"SCALAR"},{"bufferView":9,"componentType":5126,"count":1,"max":[1.75,2,1.75],"min":[1.75,2,1.75],"type":"VEC3"},{"bufferView":10,"componentType":5126,"count":1,"max":[0],"min":[0],"type":"SCALAR"},{"bufferView":11,"componentType":5126,"count":1,"max":[-0.061580874025821686,0.7342168688774109,-0.6761120557785034,0.0024195231962949038],"min":[-0.061580874025821686,0.7342168688774109,-0.6761120557785034,0.0024195231962949038],"type":"VEC4"},{"bufferView":12,"componentType":5126,"count":1,"max":[0],"min":[0],"type":"SCALAR"},{"bufferView":13,"componentType":5126,"count":1,"max":[0.09375,-0.25,0],"min":[0.09375,-0.25,0],"type":"VEC3"},{"bufferView":14,"componentType":5126,"count":1,"max":[0],"min":[0],"type":"SCALAR"},{"bufferView":15,"componentType":5126,"count":1,"max":[1.75,2,1.75],"min":[1.75,2,1.75],"type":"VEC3"},{"bufferView":16,"componentType":5126,"count":12,"max":[0.800000011920929],"min":[0],"type":"SCALAR"},{"bufferView":17,"componentType":5126,"count":12,"max":[0.8987074494361877,0.004118472337722778,0.02712295576930046,0.998011589050293],"min":[-0.6259234547615051,-0.03131965547800064,-0.016145113855600357,-1],"type":"VEC4"},{"bufferView":18,"componentType":5126,"count":4,"max":[0.75],"min":[0.05000000074505806],"type":"SCALAR"},{"bufferView":19,"componentType":5126,"count":4,"max":[0,-0.05624999850988388,-0.125],"min":[-0.25,-0.1875,-0.125],"type":"VEC3"},{"bufferView":20,"componentType":5126,"count":18,"max":[1],"min":[0],"type":"SCALAR"},{"bufferView":21,"componentType":5126,"count":18,"max":[0.2774222493171692,0.10641726851463318,0.04562697187066078,1],"min":[-0.33016765117645264,-0.0005193111137486994,-0.10080504417419434,0.940316915512085],"type":"VEC4"},{"bufferView":22,"componentType":5126,"count":17,"max":[1],"min":[0],"type":"SCALAR"},{"bufferView":23,"componentType":5126,"count":17,"max":[0.9750000238418579,0.5009494423866272,1.125],"min":[0.4981011152267456,-0.83203125,0.5249999761581421],"type":"VEC3"}],"materials":[{"pbrMetallicRoughness":{"baseColorFactor":[0.28627450980392155,0.3137254901960784,0.3803921568627451,1],"metallicFactor":0,"roughnessFactor":0.9},"extensions":{"KHR_materials_unlit":{}}}],"meshes":[{"primitives":[{"mode":4,"attributes":{"POSITION":0,"NORMAL":1,"TEXCOORD_0":2},"indices":3,"material":0}]}],"animations":[{"name":"draw20","samplers":[{"input":4,"output":5,"interpolation":"LINEAR"},{"input":6,"output":7,"interpolation":"LINEAR"},{"input":8,"output":9,"interpolation":"LINEAR"},{"input":10,"output":11,"interpolation":"LINEAR"},{"input":12,"output":13,"interpolation":"LINEAR"},{"input":14,"output":15,"interpolation":"LINEAR"},{"input":16,"output":17,"interpolation":"LINEAR"},{"input":18,"output":19,"interpolation":"LINEAR"},{"input":20,"output":21,"interpolation":"LINEAR"},{"input":22,"output":23,"interpolation":"LINEAR"}],"channels":[{"sampler":0,"target":{"node":1,"path":"rotation"}},{"sampler":1,"target":{"node":1,"path":"translation"}},{"sampler":2,"target":{"node":1,"path":"scale"}},{"sampler":3,"target":{"node":3,"path":"rotation"}},{"sampler":4,"target":{"node":3,"path":"translation"}},{"sampler":5,"target":{"node":3,"path":"scale"}},{"sampler":6,"target":{"node":10,"path":"rotation"}},{"sampler":7,"target":{"node":10,"path":"translation"}},{"sampler":8,"target":{"node":12,"path":"rotation"}},{"sampler":9,"target":{"node":12,"path":"translation"}}]}],"extensionsUsed":["KHR_materials_unlit"]}