{"asset":{"version":"2.0","generator":"Blockbench 4.6.5 glTF exporter"},"scenes":[{"nodes":[11],"name":"blockbench_export"}],"scene":0,"nodes":[{"translation":[-0.375,-0.6875,0],"name":"LeftHand"},{"translation":[0.375,0.875,-0.5625],"name":"l","children":[0]},{"translation":[-0.53176375,-0.1277125,-0.58203125],"name":"bolt"},{"translation":[-0.5,0.109375,-0.58203125],"name":"cockinghandle"},{"name":"fn_fal","children":[2,3]},{"name":"main","children":[4]},{"translation":[0,0.0023581249999999887,-0.408484375],"name":"magazine"},{"translation":[0.375,-0.6875,0],"name":"RightHand"},{"translation":[-0.375,0.8125,-0.5625],"name":"R","children":[7]},{"translation":[0,0.0625,0],"name":"body","children":[5,6,8]},{"translation":[0.5,0.3125,1.0625],"name":"bone","children":[1,9]},{"children":[10]}],"animations":[{"name":"reload_norm","samplers":[{"input":0,"output":1,"interpolation":"LINEAR"},{"input":2,"output":3,"interpolation":"LINEAR"},{"input":4,"output":5,"interpolation":"LINEAR"},{"input":6,"output":7,"interpolation":"LINEAR"},{"input":8,"output":9,"interpolation":"LINEAR"},{"input":10,"output":11,"interpolation":"LINEAR"},{"input":12,"output":13,"interpolation":"LINEAR"},{"input":14,"output":15,"interpolation":"LINEAR"},{"input":16,"output":17,"interpolation":"LINEAR"},{"input":18,"output":19,"interpolation":"LINEAR"},{"input":20,"output":21,"interpolation":"LINEAR"},{"input":22,"output":23,"interpolation":"LINEAR"}],"channels":[{"sampler":0,"target":{"node":8,"path":"rotation"}},{"sampler":1,"target":{"node":8,"path":"translation"}},{"sampler":2,"target":{"node":8,"path":"scale"}},{"sampler":3,"target":{"node":1,"path":"rotation"}},{"sampler":4,"target":{"node":1,"path":"translation"}},{"sampler":5,"target":{"node":1,"path":"scale"}},{"sampler":6,"target":{"node":10,"path":"rotation"}},{"sampler":7,"target":{"node":10,"path":"translation"}},{"sampler":8,"target":{"node":9,"path":"rotation"}},{"sampler":9,"target":{"node":9,"path":"translation"}},{"sampler":10,"target":{"node":6,"path":"rotation"}},{"sampler":11,"target":{"node":6,"path":"translation"}}]}],"bufferViews":[{"buffer":0,"byteOffset":0,"byteLength":4},{"buffer":0,"byteOffset":4,"byteLength":16},{"buffer":0,"byteOffset":20,"byteLength":4},{"buffer":0,"byteOffset":24,"byteLength":12},{"buffer":0,"byteOffset":36,"byteLength":4},{"buffer":0,"byteOffset":40,"byteLength":12},{"buffer":0,"byteOffset":52,"byteLength":124},{"buffer":0,"byteOffset":176,"byteLength":496},{"buffer":0,"byteOffset":672,"byteLength":128},{"buffer":0,"byteOffset":800,"byteLength":384},{"buffer":0,"byteOffset":1184,"byteLength":4},{"buffer":0,"byteOffset":1188,"byteLength":12},{"buffer":0,"byteOffset":1200,"byteLength":152},{"buffer":0,"byteOffset":1352,"byteLength":608},{"buffer":0,"byteOffset":1960,"byteLength":148},{"buffer":0,"byteOffset":2108,"byteLength":444},{"buffer":0,"byteOffset":2552,"byteLength":4},{"buffer":0,"byteOffset":2556,"byteLength":16},{"buffer":0,"byteOffset":2572,"byteLength":4},{"buffer":0,"byteOffset":2576,"byteLength":12},{"buffer":0,"byteOffset":2588,"byteLength":88},{"buffer":0,"byteOffset":2676,"byteLength":352},{"buffer":0,"byteOffset":3028,"byteLength":92},{"buffer":0,"byteOffset":3120,"byteLength":276}],"buffers":[{"byteLength":3396,"uri":"data:application/octet-stream;base64,"}],"accessors":[{"bufferView":0,"componentType":5126,"count":1,"max":[0],"min":[0],"type":"SCALAR"},{"bufferView":1,"componentType":5126,"count":1,"max":[-4.4964284092573954e-17,0.7343224883079529,-0.6788007616996765,4.156455854009121e-17],"min":[-4.4964284092573954e-17,0.7343224883079529,-0.6788007616996765,4.156455854009121e-17],"type":"VEC4"},{"bufferView":2,"componentType":5126,"count":1,"max":[0],"min":[0],"type":"SCALAR"},{"bufferView":3,"componentType":5126,"count":1,"max":[0.02500000037252903,-0.0625,-0.0625],"min":[0.02500000037252903,-0.0625,-0.0625],"type":"VEC3"},{"bufferView":4,"componentType":5126,"count":1,"max":[0],"min":[0],"type":"SCALAR"},{"bufferView":5,"componentType":5126,"count":1,"max":[1,1.5,1],"min":[1,1.5,1],"type":"VEC3"},{"bufferView":6,"componentType":5126,"count":31,"max":[2.3499999046325684],"min":[0],"type":"SCALAR"},{"bufferView":7,"componentType":5126,"count":31,"max":[0.2914336323738098,0.9045754671096802,-0.35987672209739685,0.5478290319442749],"min":[-0.14448872208595276,0.6716240644454956,-0.6145975589752197,-0.24844324588775635],"type":"VEC4"},{"bufferView":8,"componentType":5126,"count":32,"max":[2.3499999046325684],"min":[0],"type":"SCALAR"},{"bufferView":9,"componentType":5126,"count":32,"max":[-0.07500000298023224,0.15000000596046448,0.09611160308122635],"min":[-0.5269393920898438,-0.7314208745956421,-0.8999999761581421],"type":"VEC3"},{"bufferView":10,"componentType":5126,"count":1,"max":[0],"min":[0],"type":"SCALAR"},{"bufferView":11,"componentType":5126,"count":1,"max":[1,1.5,1],"min":[1,1.5,1],"type":"VEC3"},{"bufferView":12,"componentType":5126,"count":38,"max":[2.8499999046325684],"min":[0],"type":"SCALAR"},{"bufferView":13,"componentType":5126,"count":38,"max":[0.15787053108215332,0.056801192462444305,0.018760396167635918,1],"min":[-0.0004363319312687963,-0.0018288075225427747,-0.3209148943424225,0.9346615672111511],"type":"VEC4"},{"bufferView":14,"componentType":5126,"count":37,"max":[2.6500000953674316],"min":[0],"type":"SCALAR"},{"bufferView":15,"componentType":5126,"count":37,"max":[0.5681250095367432,0.3125,1.100000023841858],"min":[0.49947917461395264,0.22343750298023224,0.9712499976158142],"type":"VEC3"},{"bufferView":16,"componentType":5126,"count":1,"max":[0],"min":[0],"type":"SCALAR"},{"bufferView":17,"componentType":5126,"count":1,"max":[0,0,0,1],"min":[0,0,0,1],"type":"VEC4"},{"bufferView":18,"componentType":5126,"count":1,"max":[0],"min":[0],"type":"SCALAR"},{"bufferView":19,"componentType":5126,"count":1,"max":[0,0.0625,0],"min":[0,0.0625,0],"type":"VEC3"},{"bufferView":20,"componentType":5126,"count":22,"max":[2],"min":[0],"type":"SCALAR"},{"bufferView":21,"componentType":5126,"count":22,"max":[0.3338068723678589,0.008881811983883381,0,1],"min":[0,-0.004699244629591703,-0.11768869310617447,0.9426414966583252],"type":"VEC4"},{"bufferView":22,"componentType":5126,"count":23,"max":[2],"min":[0],"type":"SCALAR"},{"bufferView":23,"componentType":5126,"count":23,"max":[0.011770995333790779,0.0023581250570714474,0.07849361002445221],"min":[-0.421875,-0.8105746507644653,-0.5463231801986694],"type":"VEC3"}]}