{"asset":{"version":"2.0","generator":"Blockbench 4.6.5 glTF exporter"},"scenes":[{"nodes":[11],"name":"blockbench_export"}],"scene":0,"nodes":[{"translation":[-0.375,-0.6875,0],"name":"LeftHand"},{"translation":[0.375,0.875,-0.5625],"name":"l","children":[0]},{"translation":[-0.53176375,-0.1277125,-0.58203125],"name":"bolt"},{"translation":[-0.5,0.109375,-0.58203125],"name":"cockinghandle"},{"name":"fn_fal","children":[2,3]},{"name":"main","children":[4]},{"translation":[0,0.0023581249999999887,-0.408484375],"name":"magazine"},{"translation":[0.375,-0.6875,0],"name":"RightHand"},{"translation":[-0.375,0.8125,-0.5625],"name":"R","children":[7]},{"translation":[0,0.0625,0],"name":"body","children":[5,6,8]},{"translation":[0.5,0.3125,1.0625],"name":"bone","children":[1,9]},{"children":[10]}],"animations":[{"name":"reload_empty","samplers":[{"input":0,"output":1,"interpolation":"LINEAR"},{"input":2,"output":3,"interpolation":"LINEAR"},{"input":4,"output":5,"interpolation":"LINEAR"},{"input":6,"output":7,"interpolation":"LINEAR"},{"input":8,"output":9,"interpolation":"LINEAR"},{"input":10,"output":11,"interpolation":"LINEAR"},{"input":12,"output":13,"interpolation":"LINEAR"},{"input":14,"output":15,"interpolation":"LINEAR"},{"input":16,"output":17,"interpolation":"LINEAR"},{"input":18,"output":19,"interpolation":"LINEAR"},{"input":20,"output":21,"interpolation":"LINEAR"},{"input":22,"output":23,"interpolation":"LINEAR"},{"input":24,"output":25,"interpolation":"LINEAR"},{"input":26,"output":27,"interpolation":"LINEAR"}],"channels":[{"sampler":0,"target":{"node":8,"path":"rotation"}},{"sampler":1,"target":{"node":8,"path":"translation"}},{"sampler":2,"target":{"node":8,"path":"scale"}},{"sampler":3,"target":{"node":1,"path":"rotation"}},{"sampler":4,"target":{"node":1,"path":"translation"}},{"sampler":5,"target":{"node":1,"path":"scale"}},{"sampler":6,"target":{"node":10,"path":"rotation"}},{"sampler":7,"target":{"node":10,"path":"translation"}},{"sampler":8,"target":{"node":9,"path":"rotation"}},{"sampler":9,"target":{"node":9,"path":"translation"}},{"sampler":10,"target":{"node":6,"path":"rotation"}},{"sampler":11,"target":{"node":6,"path":"translation"}},{"sampler":12,"target":{"node":2,"path":"translation"}},{"sampler":13,"target":{"node":3,"path":"translation"}}]}],"bufferViews":[{"buffer":0,"byteOffset":0,"byteLength":4},{"buffer":0,"byteOffset":4,"byteLength":16},{"buffer":0,"byteOffset":20,"byteLength":4},{"buffer":0,"byteOffset":24,"byteLength":12},{"buffer":0,"byteOffset":36,"byteLength":4},{"buffer":0,"byteOffset":40,"byteLength":12},{"buffer":0,"byteOffset":52,"byteLength":152},{"buffer":0,"byteOffset":204,"byteLength":608},{"buffer":0,"byteOffset":812,"byteLength":148},{"buffer":0,"byteOffset":960,"byteLength":444},{"buffer":0,"byteOffset":1404,"byteLength":4},{"buffer":0,"byteOffset":1408,"byteLength":12},{"buffer":0,"byteOffset":1420,"byteLength":184},{"buffer":0,"byteOffset":1604,"byteLength":736},{"buffer":0,"byteOffset":2340,"byteLength":184},{"buffer":0,"byteOffset":2524,"byteLength":552},{"buffer":0,"byteOffset":3076,"byteLength":4},{"buffer":0,"byteOffset":3080,"byteLength":16},{"buffer":0,"byteOffset":3096,"byteLength":4},{"buffer":0,"byteOffset":3100,"byteLength":12},{"buffer":0,"byteOffset":3112,"byteLength":76},{"buffer":0,"byteOffset":3188,"byteLength":304},{"buffer":0,"byteOffset":3492,"byteLength":80},{"buffer":0,"byteOffset":3572,"byteLength":240},{"buffer":0,"byteOffset":3812,"byteLength":16},{"buffer":0,"byteOffset":3828,"byteLength":48},{"buffer":0,"byteOffset":3876,"byteLength":20},{"buffer":0,"byteOffset":3896,"byteLength":60}],"buffers":[{"byteLength":3956,"uri":"data:application/octet-stream;base64,"}],"accessors":[{"bufferView":0,"componentType":5126,"count":1,"max":[0],"min":[0],"type":"SCALAR"},{"bufferView":1,"componentType":5126,"count":1,"max":[-4.4964284092573954e-17,0.7343224883079529,-0.6788007616996765,4.156455854009121e-17],"min":[-4.4964284092573954e-17,0.7343224883079529,-0.6788007616996765,4.156455854009121e-17],"type":"VEC4"},{"bufferView":2,"componentType":5126,"count":1,"max":[0],"min":[0],"type":"SCALAR"},{"bufferView":3,"componentType":5126,"count":1,"max":[0.02500000037252903,-0.0625,-0.0625],"min":[0.02500000037252903,-0.0625,-0.0625],"type":"VEC3"},{"bufferView":4,"componentType":5126,"count":1,"max":[0],"min":[0],"type":"SCALAR"},{"bufferView":5,"componentType":5126,"count":1,"max":[1,1.5,1],"min":[1,1.5,1],"type":"VEC3"},{"bufferView":6,"componentType":5126,"count":38,"max":[3.0999999046325684],"min":[0],"type":"SCALAR"},{"bufferView":7,"componentType":5126,"count":38,"max":[0.3850998282432556,0.919268012046814,-0.29612287878990173,0.6187239289283752],"min":[-0.2917573153972626,0.6159288883209229,-0.6134151816368103,-0.42787179350852966],"type":"VEC4"},{"bufferView":8,"componentType":5126,"count":37,"max":[3.0999999046325684],"min":[0],"type":"SCALAR"},{"bufferView":9,"componentType":5126,"count":37,"max":[-0.06937500089406967,0.2627849876880646,0.05399845167994499],"min":[-0.6200848817825317,-0.5972104668617249,-0.8999999761581421],"type":"VEC3"},{"bufferView":10,"componentType":5126,"count":1,"max":[0],"min":[0],"type":"SCALAR"},{"bufferView":11,"componentType":5126,"count":1,"max":[1,1.5,1],"min":[1,1.5,1],"type":"VEC3"},{"bufferView":12,"componentType":5126,"count":46,"max":[3.5],"min":[0],"type":"SCALAR"},{"bufferView":13,"componentType":5126,"count":46,"max":[0.14307920634746552,0.031367167830467224,0.4433031976222992,1],"min":[-0.0017755200387910008,-0.0019558153580874205,-0.22398978471755981,0.8959660530090332],"type":"VEC4"},{"bufferView":14,"componentType":5126,"count":46,"max":[3.450000047683716],"min":[0],"type":"SCALAR"},{"bufferView":15,"componentType":5126,"count":46,"max":[0.5753124952316284,0.31257811188697815,1.1887500286102295],"min":[0.4994531273841858,0.19499999284744263,1.0356249809265137],"type":"VEC3"},{"bufferView":16,"componentType":5126,"count":1,"max":[0],"min":[0],"type":"SCALAR"},{"bufferView":17,"componentType":5126,"count":1,"max":[0,0,0,1],"min":[0,0,0,1],"type":"VEC4"},{"bufferView":18,"componentType":5126,"count":1,"max":[0],"min":[0],"type":"SCALAR"},{"bufferView":19,"componentType":5126,"count":1,"max":[0,0.0625,0],"min":[0,0.0625,0],"type":"VEC3"},{"bufferView":20,"componentType":5126,"count":19,"max":[2.25],"min":[0],"type":"SCALAR"},{"bufferView":21,"componentType":5126,"count":19,"max":[0.9984225034713745,0.23331458866596222,0.014413180761039257,1],"min":[0,-0.19562198221683502,-0.47658032178878784,-0.27897390723228455],"type":"VEC4"},{"bufferView":22,"componentType":5126,"count":20,"max":[2.25],"min":[0],"type":"SCALAR"},{"bufferView":23,"componentType":5126,"count":20,"max":[0,0.0023581250570714474,0.047126248478889465],"min":[-0.34221938252449036,-1.6057668924331665,-0.9788779020309448],"type":"VEC3"},{"bufferView":24,"componentType":5126,"count":4,"max":[2.799999952316284],"min":[0],"type":"SCALAR"},{"bufferView":25,"componentType":5126,"count":4,"max":[-0.5317637324333191,-0.12771250307559967,-0.37890625],"min":[-0.5317637324333191,-0.12771250307559967,-0.58203125],"type":"VEC3"},{"bufferView":26,"componentType":5126,"count":5,"max":[2.9000000953674316],"min":[0],"type":"SCALAR"},{"bufferView":27,"componentType":5126,"count":5,"max":[-0.5,0.109375,-0.39453125],"min":[-0.5,0.109375,-0.58203125],"type":"VEC3"}]}