{"asset":{"version":"2.0","generator":"Blockbench 4.6.5 glTF exporter"},"scenes":[{"nodes":[11],"name":"blockbench_export"}],"scene":0,"nodes":[{"translation":[-0.375,-0.6875,0],"name":"LeftHand"},{"translation":[0.375,0.875,-0.5625],"name":"l","children":[0]},{"translation":[-0.53176375,-0.1277125,-0.58203125],"name":"bolt"},{"translation":[-0.5,0.109375,-0.58203125],"name":"cockinghandle"},{"name":"fn_fal","children":[2,3]},{"name":"main","children":[4]},{"translation":[0,0.0023581249999999887,-0.408484375],"name":"magazine"},{"translation":[0.375,-0.6875,0],"name":"RightHand"},{"translation":[-0.375,0.8125,-0.5625],"name":"R","children":[7]},{"translation":[0,0.0625,0],"name":"body","children":[5,6,8]},{"translation":[0.5,0.3125,1.0625],"name":"bone","children":[1,9]},{"children":[10]}],"animations":[{"name":"inspect","samplers":[{"input":0,"output":1,"interpolation":"LINEAR"},{"input":2,"output":3,"interpolation":"LINEAR"},{"input":4,"output":5,"interpolation":"LINEAR"},{"input":6,"output":7,"interpolation":"LINEAR"},{"input":8,"output":9,"interpolation":"LINEAR"},{"input":10,"output":11,"interpolation":"LINEAR"},{"input":12,"output":13,"interpolation":"LINEAR"},{"input":14,"output":15,"interpolation":"LINEAR"}],"channels":[{"sampler":0,"target":{"node":8,"path":"rotation"}},{"sampler":1,"target":{"node":8,"path":"translation"}},{"sampler":2,"target":{"node":8,"path":"scale"}},{"sampler":3,"target":{"node":1,"path":"rotation"}},{"sampler":4,"target":{"node":1,"path":"translation"}},{"sampler":5,"target":{"node":1,"path":"scale"}},{"sampler":6,"target":{"node":10,"path":"rotation"}},{"sampler":7,"target":{"node":10,"path":"translation"}}]}],"bufferViews":[{"buffer":0,"byteOffset":0,"byteLength":4},{"buffer":0,"byteOffset":4,"byteLength":16},{"buffer":0,"byteOffset":20,"byteLength":4},{"buffer":0,"byteOffset":24,"byteLength":12},{"buffer":0,"byteOffset":36,"byteLength":4},{"buffer":0,"byteOffset":40,"byteLength":12},{"buffer":0,"byteOffset":52,"byteLength":216},{"buffer":0,"byteOffset":268,"byteLength":864},{"buffer":0,"byteOffset":1132,"byteLength":220},{"buffer":0,"byteOffset":1352,"byteLength":660},{"buffer":0,"byteOffset":2012,"byteLength":4},{"buffer":0,"byteOffset":2016,"byteLength":12},{"buffer":0,"byteOffset":2028,"byteLength":272},{"buffer":0,"byteOffset":2300,"byteLength":1088},{"buffer":0,"byteOffset":3388,"byteLength":280},{"buffer":0,"byteOffset":3668,"byteLength":840}],"buffers":[{"byteLength":4508,"uri":"data:application/octet-stream;base64,"}],"accessors":[{"bufferView":0,"componentType":5126,"count":1,"max":[0],"min":[0],"type":"SCALAR"},{"bufferView":1,"componentType":5126,"count":1,"max":[-4.4964284092573954e-17,0.7343224883079529,-0.6788007616996765,4.156455854009121e-17],"min":[-4.4964284092573954e-17,0.7343224883079529,-0.6788007616996765,4.156455854009121e-17],"type":"VEC4"},{"bufferView":2,"componentType":5126,"count":1,"max":[0],"min":[0],"type":"SCALAR"},{"bufferView":3,"componentType":5126,"count":1,"max":[0.02500000037252903,-0.0625,-0.0625],"min":[0.02500000037252903,-0.0625,-0.0625],"type":"VEC3"},{"bufferView":4,"componentType":5126,"count":1,"max":[0],"min":[0],"type":"SCALAR"},{"bufferView":5,"componentType":5126,"count":1,"max":[1,1.5,1],"min":[1,1.5,1],"type":"VEC3"},{"bufferView":6,"componentType":5126,"count":54,"max":[5],"min":[0],"type":"SCALAR"},{"bufferView":7,"componentType":5126,"count":54,"max":[0.057371001690626144,0.6828453540802002,-0.4711565375328064,0.5378246307373047],"min":[-0.1499277949333191,0.5693848133087158,-0.7637829184532166,0.3038409650325775],"type":"VEC4"},{"bufferView":8,"componentType":5126,"count":55,"max":[5],"min":[0],"type":"SCALAR"},{"bufferView":9,"componentType":5126,"count":55,"max":[0.23605196177959442,0.19884733855724335,-0.012968986295163631],"min":[-0.4185943603515625,-1.365051507949829,-0.8999999761581421],"type":"VEC3"},{"bufferView":10,"componentType":5126,"count":1,"max":[0],"min":[0],"type":"SCALAR"},{"bufferView":11,"componentType":5126,"count":1,"max":[1,1.5,1],"min":[1,1.5,1],"type":"VEC3"},{"bufferView":12,"componentType":5126,"count":68,"max":[5.550000190734863],"min":[0],"type":"SCALAR"},{"bufferView":13,"componentType":5126,"count":68,"max":[0.317343145608902,0.32954171299934387,0.5287874937057495,1],"min":[-0.0024986648932099342,-0.0030045497696846724,-0.3387182950973511,0.7679845094680786],"type":"VEC4"},{"bufferView":14,"componentType":5126,"count":70,"max":[5.400000095367432],"min":[0],"type":"SCALAR"},{"bufferView":15,"componentType":5126,"count":70,"max":[0.503710925579071,0.425378680229187,1.100000023841858],"min":[0.3142968714237213,0.203125,0.8246338963508606],"type":"VEC3"}]}