{"asset":{"version":"2.0","generator":"Blockbench 4.6.5 glTF exporter"},"scenes":[{"nodes":[9],"name":"blockbench_export"}],"scene":0,"nodes":[{"translation":[0.493688125,0.963275,-0.28859999999999997],"name":"slide"},{"translation":[-0.59257,-0.496985625,-0.14890000000000003],"name":"parts","children":[0]},{"translation":[-0.12930625,-0.067068125,0.1862418749999999],"name":"magazine"},{"name":"glcok17","children":[1,2]},{"translation":[0.375,-0.625,0],"name":"RightHand"},{"translation":[-0.375,0.875,-0.375],"name":"R","children":[4]},{"translation":[0.5,0.25,0.875],"name":"bone","children":[3,5]},{"translation":[-0.375,-0.625,0],"name":"LeftHand"},{"translation":[0.875,1.125,0.5],"name":"L","children":[7]},{"children":[6,8]}],"animations":[{"name":"inspect","samplers":[{"input":0,"output":1,"interpolation":"LINEAR"},{"input":2,"output":3,"interpolation":"LINEAR"},{"input":4,"output":5,"interpolation":"LINEAR"},{"input":6,"output":7,"interpolation":"LINEAR"},{"input":8,"output":9,"interpolation":"LINEAR"},{"input":10,"output":11,"interpolation":"LINEAR"},{"input":12,"output":13,"interpolation":"LINEAR"},{"input":14,"output":15,"interpolation":"LINEAR"},{"input":16,"output":17,"interpolation":"LINEAR"}],"channels":[{"sampler":0,"target":{"node":6,"path":"rotation"}},{"sampler":1,"target":{"node":6,"path":"translation"}},{"sampler":2,"target":{"node":5,"path":"rotation"}},{"sampler":3,"target":{"node":5,"path":"translation"}},{"sampler":4,"target":{"node":5,"path":"scale"}},{"sampler":5,"target":{"node":8,"path":"rotation"}},{"sampler":6,"target":{"node":8,"path":"translation"}},{"sampler":7,"target":{"node":8,"path":"scale"}},{"sampler":8,"target":{"node":3,"path":"translation"}}]}],"bufferViews":[{"buffer":0,"byteOffset":0,"byteLength":228},{"buffer":0,"byteOffset":228,"byteLength":912},{"buffer":0,"byteOffset":1140,"byteLength":220},{"buffer":0,"byteOffset":1360,"byteLength":660},{"buffer":0,"byteOffset":2020,"byteLength":4},{"buffer":0,"byteOffset":2024,"byteLength":16},{"buffer":0,"byteOffset":2040,"byteLength":4},{"buffer":0,"byteOffset":2044,"byteLength":12},{"buffer":0,"byteOffset":2056,"byteLength":4},{"buffer":0,"byteOffset":2060,"byteLength":12},{"buffer":0,"byteOffset":2072,"byteLength":232},{"buffer":0,"byteOffset":2304,"byteLength":928},{"buffer":0,"byteOffset":3232,"byteLength":236},{"buffer":0,"byteOffset":3468,"byteLength":708},{"buffer":0,"byteOffset":4176,"byteLength":4},{"buffer":0,"byteOffset":4180,"byteLength":12},{"buffer":0,"byteOffset":4192,"byteLength":16},{"buffer":0,"byteOffset":4208,"byteLength":48}],"buffers":[{"byteLength":4256,"uri":"data:application/octet-stream;base64,"}],"accessors":[{"bufferView":0,"componentType":5126,"count":57,"max":[4.25],"min":[0],"type":"SCALAR"},{"bufferView":1,"componentType":5126,"count":57,"max":[0.43376651406288147,0.33086130023002625,0.5184778571128845,1],"min":[-0.0030670862179249525,-0.21936079859733582,-0.4439299702644348,0.708275556564331],"type":"VEC4"},{"bufferView":2,"componentType":5126,"count":55,"max":[4.199999809265137],"min":[0],"type":"SCALAR"},{"bufferView":3,"componentType":5126,"count":55,"max":[0.5,0.4456250071525574,0.9312499761581421],"min":[0.39019250869750977,0.10625000298023224,0.875],"type":"VEC3"},{"bufferView":4,"componentType":5126,"count":1,"max":[0],"min":[0],"type":"SCALAR"},{"bufferView":5,"componentType":5126,"count":1,"max":[0.040091682225465775,-0.7649946212768555,0.6419066786766052,0.03364089876413345],"min":[0.040091682225465775,-0.7649946212768555,0.6419066786766052,0.03364089876413345],"type":"VEC4"},{"bufferView":6,"componentType":5126,"count":1,"max":[0],"min":[0],"type":"SCALAR"},{"bufferView":7,"componentType":5126,"count":1,"max":[0.0625,0.04374999925494194,-0.08749999850988388],"min":[0.0625,0.04374999925494194,-0.08749999850988388],"type":"VEC3"},{"bufferView":8,"componentType":5126,"count":1,"max":[0],"min":[0],"type":"SCALAR"},{"bufferView":9,"componentType":5126,"count":1,"max":[1.75,2,1.75],"min":[1.75,2,1.75],"type":"VEC3"},{"bufferView":10,"componentType":5126,"count":58,"max":[4.199999809265137],"min":[0],"type":"SCALAR"},{"bufferView":11,"componentType":5126,"count":58,"max":[0.1976032257080078,0.7545913457870483,-0.46042028069496155,0.622379720211029],"min":[-0.34619879722595215,0.5299085378646851,-0.5756195783615112,0.2613128423690796],"type":"VEC4"},{"bufferView":12,"componentType":5126,"count":59,"max":[4.199999809265137],"min":[0],"type":"SCALAR"},{"bufferView":13,"componentType":5126,"count":59,"max":[0.4463905990123749,0.15625,1.1980751752853394],"min":[-0.6769979000091553,-0.8659530878067017,0.6179081201553345],"type":"VEC3"},{"bufferView":14,"componentType":5126,"count":1,"max":[0],"min":[0],"type":"SCALAR"},{"bufferView":15,"componentType":5126,"count":1,"max":[1.75,2,1.75],"min":[1.75,2,1.75],"type":"VEC3"},{"bufferView":16,"componentType":5126,"count":4,"max":[2.75],"min":[0.20000000298023224],"type":"SCALAR"},{"bufferView":17,"componentType":5126,"count":4,"max":[0,0,0],"min":[-0.20624999701976776,0,0],"type":"VEC3"}]}