{"asset":{"version":"2.0","generator":"Blockbench 4.7.0 glTF exporter"},"scenes":[{"nodes":[12],"name":"blockbench_export"}],"scene":0,"nodes":[{"translation":[0.875,-0.5,-0.6875],"name":"9mm"},{"translation":[0,0.1875,-0.0625],"name":"extra_mag","children":[0]},{"translation":[-0.5,-0.5,-0.6875],"name":"9mm2"},{"translation":[0,0.1875,-0.0625],"name":"mb","children":[2]},{"translation":[-0.09888187500000001,0.403789375,-0.3125],"name":"slide"},{"translation":[0,-0.0625,0],"name":"g18","children":[1,3,4]},{"translation":[0.375,-0.6875,0],"name":"RightHand"},{"translation":[-0.375,0.8125,-0.25],"name":"R","children":[6]},{"translation":[0.5,0.375,0.75],"name":"bone","children":[5,7]},{"translation":[-0.375,-0.6875,0],"name":"LeftHand"},{"translation":[0.875,1.1875,0.5],"name":"l","children":[9]},{"name":"bone2","children":[8,10]},{"children":[11]}],"animations":[{"name":"reload_norm","samplers":[{"input":0,"output":1,"interpolation":"LINEAR"},{"input":2,"output":3,"interpolation":"LINEAR"},{"input":4,"output":5,"interpolation":"LINEAR"},{"input":6,"output":7,"interpolation":"LINEAR"},{"input":8,"output":9,"interpolation":"LINEAR"},{"input":10,"output":11,"interpolation":"LINEAR"},{"input":12,"output":13,"interpolation":"LINEAR"},{"input":14,"output":15,"interpolation":"LINEAR"},{"input":16,"output":17,"interpolation":"LINEAR"},{"input":18,"output":19,"interpolation":"LINEAR"},{"input":20,"output":21,"interpolation":"LINEAR"},{"input":22,"output":23,"interpolation":"LINEAR"},{"input":24,"output":25,"interpolation":"LINEAR"},{"input":26,"output":27,"interpolation":"LINEAR"},{"input":28,"output":29,"interpolation":"LINEAR"}],"channels":[{"sampler":0,"target":{"node":1,"path":"rotation"}},{"sampler":1,"target":{"node":1,"path":"translation"}},{"sampler":2,"target":{"node":7,"path":"rotation"}},{"sampler":3,"target":{"node":7,"path":"translation"}},{"sampler":4,"target":{"node":7,"path":"scale"}},{"sampler":5,"target":{"node":10,"path":"rotation"}},{"sampler":6,"target":{"node":10,"path":"translation"}},{"sampler":7,"target":{"node":10,"path":"scale"}},{"sampler":8,"target":{"node":3,"path":"rotation"}},{"sampler":9,"target":{"node":3,"path":"translation"}},{"sampler":10,"target":{"node":8,"path":"rotation"}},{"sampler":11,"target":{"node":8,"path":"translation"}},{"sampler":12,"target":{"node":2,"path":"translation"}},{"sampler":13,"target":{"node":11,"path":"rotation"}},{"sampler":14,"target":{"node":11,"path":"translation"}}]}],"bufferViews":[{"buffer":0,"byteOffset":0,"byteLength":72},{"buffer":0,"byteOffset":72,"byteLength":288},{"buffer":0,"byteOffset":360,"byteLength":80},{"buffer":0,"byteOffset":440,"byteLength":240},{"buffer":0,"byteOffset":680,"byteLength":28},{"buffer":0,"byteOffset":708,"byteLength":112},{"buffer":0,"byteOffset":820,"byteLength":28},{"buffer":0,"byteOffset":848,"byteLength":84},{"buffer":0,"byteOffset":932,"byteLength":4},{"buffer":0,"byteOffset":936,"byteLength":12},{"buffer":0,"byteOffset":948,"byteLength":116},{"buffer":0,"byteOffset":1064,"byteLength":464},{"buffer":0,"byteOffset":1528,"byteLength":128},{"buffer":0,"byteOffset":1656,"byteLength":384},{"buffer":0,"byteOffset":2040,"byteLength":4},{"buffer":0,"byteOffset":2044,"byteLength":12},{"buffer":0,"byteOffset":2056,"byteLength":32},{"buffer":0,"byteOffset":2088,"byteLength":128},{"buffer":0,"byteOffset":2216,"byteLength":44},{"buffer":0,"byteOffset":2260,"byteLength":132},{"buffer":0,"byteOffset":2392,"byteLength":120},{"buffer":0,"byteOffset":2512,"byteLength":480},{"buffer":0,"byteOffset":2992,"byteLength":116},{"buffer":0,"byteOffset":3108,"byteLength":348},{"buffer":0,"byteOffset":3456,"byteLength":8},{"buffer":0,"byteOffset":3464,"byteLength":24},{"buffer":0,"byteOffset":3488,"byteLength":8},{"buffer":0,"byteOffset":3496,"byteLength":32},{"buffer":0,"byteOffset":3528,"byteLength":116},{"buffer":0,"byteOffset":3644,"byteLength":348}],"buffers":[{"byteLength":3992,"uri":"data:application/octet-stream;base64,"}],"accessors":[{"bufferView":0,"componentType":5126,"count":18,"max":[1.2000000476837158],"min":[0],"type":"SCALAR"},{"bufferView":1,"componentType":5126,"count":18,"max":[0.11779208481311798,0.09317950904369354,0.01150287315249443,1],"min":[0,-0.005473029799759388,-0.6711876392364502,0.7263523936271667],"type":"VEC4"},{"bufferView":2,"componentType":5126,"count":20,"max":[1.2000000476837158],"min":[0],"type":"SCALAR"},{"bufferView":3,"componentType":5126,"count":20,"max":[0.4399999976158142,0.1875,0.26875001192092896],"min":[-0.24150878190994263,-1.149346947669983,-0.0625],"type":"VEC3"},{"bufferView":4,"componentType":5126,"count":7,"max":[1.25],"min":[0],"type":"SCALAR"},{"bufferView":5,"componentType":5126,"count":7,"max":[0.053043220192193985,-0.7365756034851074,0.674947202205658,0.04530317708849907],"min":[4.656143750651584e-17,-0.760405957698822,0.6478660106658936,-0.03215958923101425],"type":"VEC4"},{"bufferView":6,"componentType":5126,"count":7,"max":[1.25],"min":[0],"type":"SCALAR"},{"bufferView":7,"componentType":5126,"count":7,"max":[0.04374999925494194,-0.08749999850988388,-0.13124999403953552],"min":[0.04374999925494194,-0.11249999701976776,-0.15000000596046448],"type":"VEC3"},{"bufferView":8,"componentType":5126,"count":1,"max":[0],"min":[0],"type":"SCALAR"},{"bufferView":9,"componentType":5126,"count":1,"max":[1.75,2,1.75],"min":[1.75,2,1.75],"type":"VEC3"},{"bufferView":10,"componentType":5126,"count":29,"max":[1.899999976158142],"min":[0],"type":"SCALAR"},{"bufferView":11,"componentType":5126,"count":29,"max":[0.5149379968643188,0.9688838124275208,-0.11526083946228027,0.5362364649772644],"min":[-0.04477230831980705,0.7238227128982544,-0.47009003162384033,0.024352574720978737],"type":"VEC4"},{"bufferView":12,"componentType":5126,"count":32,"max":[1.899999976158142],"min":[0],"type":"SCALAR"},{"bufferView":13,"componentType":5126,"count":32,"max":[0.4937500059604645,0.5793750286102295,1.3634979724884033],"min":[-0.5450000166893005,-1.3393750190734863,0.40937501192092896],"type":"VEC3"},{"bufferView":14,"componentType":5126,"count":1,"max":[0],"min":[0],"type":"SCALAR"},{"bufferView":15,"componentType":5126,"count":1,"max":[1.75,2,1.75],"min":[1.75,2,1.75],"type":"VEC3"},{"bufferView":16,"componentType":5126,"count":8,"max":[1.5],"min":[0.699999988079071],"type":"SCALAR"},{"bufferView":17,"componentType":5126,"count":8,"max":[0.6212934851646423,0.06722186505794525,0.08387148380279541,1],"min":[-0.27681833505630493,-0.03605904430150986,-0.014392202720046043,0.7782413959503174],"type":"VEC4"},{"bufferView":18,"componentType":5126,"count":11,"max":[1.9500000476837158],"min":[0.5],"type":"SCALAR"},{"bufferView":19,"componentType":5126,"count":11,"max":[0,0.1875,2.346250057220459],"min":[-0.6477943658828735,-1.636875033378601,-0.49817436933517456],"type":"VEC3"},{"bufferView":20,"componentType":5126,"count":30,"max":[1.899999976158142],"min":[0],"type":"SCALAR"},{"bufferView":21,"componentType":5126,"count":30,"max":[0.17431235313415527,0.3388737142086029,0.02462606318295002,1],"min":[-0.0003376922686584294,-0.00331826857291162,-0.4322817027568817,0.8314035534858704],"type":"VEC4"},{"bufferView":22,"componentType":5126,"count":29,"max":[1.899999976158142],"min":[0],"type":"SCALAR"},{"bufferView":23,"componentType":5126,"count":29,"max":[0.643750011920929,0.7250000238418579,0.9931250214576721],"min":[0.5,0.3687500059604645,0.7437499761581421],"type":"VEC3"},{"bufferView":24,"componentType":5126,"count":2,"max":[0.6000000238418579],"min":[0.550000011920929],"type":"SCALAR"},{"bufferView":25,"componentType":5126,"count":2,"max":[-0.5,-0.41874998807907104,-0.6875],"min":[-0.5,-0.5,-0.706250011920929],"type":"VEC3"},{"bufferView":26,"componentType":5126,"count":2,"max":[1.75],"min":[0],"type":"SCALAR"},{"bufferView":27,"componentType":5126,"count":2,"max":[0,0,0,1],"min":[0,0,0,1],"type":"VEC4"},{"bufferView":28,"componentType":5126,"count":29,"max":[1.75],"min":[0],"type":"SCALAR"},{"bufferView":29,"componentType":5126,"count":29,"max":[0.11937499791383743,0.09276700019836426,0],"min":[0,-0.05999999865889549,0],"type":"VEC3"}]}