{"asset":{"version":"2.0","generator":"Blockbench 4.6.5 glTF exporter"},"scenes":[{"nodes":[9],"name":"blockbench_export"}],"scene":0,"nodes":[{"translation":[0.493688125,0.963275,-0.28859999999999997],"name":"slide"},{"translation":[-0.59257,-0.496985625,-0.14890000000000003],"name":"parts","children":[0]},{"translation":[-0.12930625,-0.067068125,0.1862418749999999],"name":"magazine"},{"name":"glcok17","children":[1,2]},{"translation":[0.375,-0.625,0],"name":"RightHand"},{"translation":[-0.375,0.875,-0.375],"name":"R","children":[4]},{"translation":[0.5,0.25,0.875],"name":"bone","children":[3,5]},{"translation":[-0.375,-0.625,0],"name":"LeftHand"},{"translation":[0.875,1.125,0.5],"name":"L","children":[7]},{"children":[6,8]}],"animations":[{"name":"reload_empty","samplers":[{"input":0,"output":1,"interpolation":"LINEAR"},{"input":2,"output":3,"interpolation":"LINEAR"},{"input":4,"output":5,"interpolation":"LINEAR"},{"input":6,"output":7,"interpolation":"LINEAR"},{"input":8,"output":9,"interpolation":"LINEAR"},{"input":10,"output":11,"interpolation":"LINEAR"},{"input":12,"output":13,"interpolation":"LINEAR"},{"input":14,"output":15,"interpolation":"LINEAR"},{"input":16,"output":17,"interpolation":"LINEAR"},{"input":18,"output":19,"interpolation":"LINEAR"},{"input":20,"output":21,"interpolation":"LINEAR"}],"channels":[{"sampler":0,"target":{"node":6,"path":"rotation"}},{"sampler":1,"target":{"node":6,"path":"translation"}},{"sampler":2,"target":{"node":2,"path":"rotation"}},{"sampler":3,"target":{"node":2,"path":"translation"}},{"sampler":4,"target":{"node":0,"path":"translation"}},{"sampler":5,"target":{"node":5,"path":"rotation"}},{"sampler":6,"target":{"node":5,"path":"translation"}},{"sampler":7,"target":{"node":5,"path":"scale"}},{"sampler":8,"target":{"node":8,"path":"rotation"}},{"sampler":9,"target":{"node":8,"path":"translation"}},{"sampler":10,"target":{"node":8,"path":"scale"}}]}],"bufferViews":[{"buffer":0,"byteOffset":0,"byteLength":116},{"buffer":0,"byteOffset":116,"byteLength":464},{"buffer":0,"byteOffset":580,"byteLength":128},{"buffer":0,"byteOffset":708,"byteLength":384},{"buffer":0,"byteOffset":1092,"byteLength":32},{"buffer":0,"byteOffset":1124,"byteLength":128},{"buffer":0,"byteOffset":1252,"byteLength":40},{"buffer":0,"byteOffset":1292,"byteLength":120},{"buffer":0,"byteOffset":1412,"byteLength":12},{"buffer":0,"byteOffset":1424,"byteLength":36},{"buffer":0,"byteOffset":1460,"byteLength":4},{"buffer":0,"byteOffset":1464,"byteLength":16},{"buffer":0,"byteOffset":1480,"byteLength":4},{"buffer":0,"byteOffset":1484,"byteLength":12},{"buffer":0,"byteOffset":1496,"byteLength":4},{"buffer":0,"byteOffset":1500,"byteLength":12},{"buffer":0,"byteOffset":1512,"byteLength":120},{"buffer":0,"byteOffset":1632,"byteLength":480},{"buffer":0,"byteOffset":2112,"byteLength":116},{"buffer":0,"byteOffset":2228,"byteLength":348},{"buffer":0,"byteOffset":2576,"byteLength":4},{"buffer":0,"byteOffset":2580,"byteLength":12}],"buffers":[{"byteLength":2592,"uri":"data:application/octet-stream;base64,"}],"accessors":[{"bufferView":0,"componentType":5126,"count":29,"max":[2.299999952316284],"min":[0],"type":"SCALAR"},{"bufferView":1,"componentType":5126,"count":29,"max":[0.24210691452026367,0.49183472990989685,0.37267714738845825,1],"min":[0,-0.008846602402627468,-0.4615649878978729,0.7215911746025085],"type":"VEC4"},{"bufferView":2,"componentType":5126,"count":32,"max":[2.25],"min":[0],"type":"SCALAR"},{"bufferView":3,"componentType":5126,"count":32,"max":[0.703125,0.4300000071525574,0.9437500238418579],"min":[0.5,0.05624999850988388,0.737500011920929],"type":"VEC3"},{"bufferView":4,"componentType":5126,"count":8,"max":[1.149999976158142],"min":[0.30000001192092896],"type":"SCALAR"},{"bufferView":5,"componentType":5126,"count":8,"max":[0.3338068723678589,0,0,1],"min":[-0.0915016159415245,0,0,0.9426414966583252],"type":"VEC4"},{"bufferView":6,"componentType":5126,"count":10,"max":[1.149999976158142],"min":[0.30000001192092896],"type":"SCALAR"},{"bufferView":7,"componentType":5126,"count":10,"max":[-0.05229375138878822,-0.06706812232732773,0.9174918532371521],"min":[-0.14287813007831573,-2.11706805229187,0.18624188005924225],"type":"VEC3"},{"bufferView":8,"componentType":5126,"count":3,"max":[1.7000000476837158],"min":[1.600000023841858],"type":"SCALAR"},{"bufferView":9,"componentType":5126,"count":3,"max":[0.4936881363391876,0.9632750153541565,-0.038600001484155655],"min":[0.4936881363391876,0.9632750153541565,-0.28859999775886536],"type":"VEC3"},{"bufferView":10,"componentType":5126,"count":1,"max":[0],"min":[0],"type":"SCALAR"},{"bufferView":11,"componentType":5126,"count":1,"max":[0.040091682225465775,-0.7649946212768555,0.6419066786766052,0.03364089876413345],"min":[0.040091682225465775,-0.7649946212768555,0.6419066786766052,0.03364089876413345],"type":"VEC4"},{"bufferView":12,"componentType":5126,"count":1,"max":[0],"min":[0],"type":"SCALAR"},{"bufferView":13,"componentType":5126,"count":1,"max":[0.0625,0.04374999925494194,-0.08749999850988388],"min":[0.0625,0.04374999925494194,-0.08749999850988388],"type":"VEC3"},{"bufferView":14,"componentType":5126,"count":1,"max":[0],"min":[0],"type":"SCALAR"},{"bufferView":15,"componentType":5126,"count":1,"max":[1.75,2,1.75],"min":[1.75,2,1.75],"type":"VEC3"},{"bufferView":16,"componentType":5126,"count":30,"max":[2.1500000953674316],"min":[0],"type":"SCALAR"},{"bufferView":17,"componentType":5126,"count":30,"max":[0.4713381826877594,0.9221043586730957,-0.09322802722454071,0.607011616230011],"min":[-0.321950227022171,0.5068382024765015,-0.8540982007980347,-0.20075061917304993],"type":"VEC4"},{"bufferView":18,"componentType":5126,"count":29,"max":[2.1500000953674316],"min":[0],"type":"SCALAR"},{"bufferView":19,"componentType":5126,"count":29,"max":[1.923437476158142,0.46406251192092896,1.53125],"min":[-0.7748242020606995,-1.1086719036102295,0.4020833373069763],"type":"VEC3"},{"bufferView":20,"componentType":5126,"count":1,"max":[0],"min":[0],"type":"SCALAR"},{"bufferView":21,"componentType":5126,"count":1,"max":[1.75,2,1.75],"min":[1.75,2,1.75],"type":"VEC3"}]}