{"asset":{"version":"2.0","generator":"Blockbench 4.6.5 glTF exporter"},"scenes":[{"nodes":[9],"name":"blockbench_export"}],"scene":0,"nodes":[{"translation":[0.493688125,0.963275,-0.28859999999999997],"name":"slide"},{"translation":[-0.59257,-0.496985625,-0.14890000000000003],"name":"parts","children":[0]},{"translation":[-0.12930625,-0.067068125,0.1862418749999999],"name":"magazine"},{"name":"glcok17","children":[1,2]},{"translation":[0.375,-0.625,0],"name":"RightHand"},{"translation":[-0.375,0.875,-0.375],"name":"R","children":[4]},{"translation":[0.5,0.25,0.875],"name":"bone","children":[3,5]},{"translation":[-0.375,-0.625,0],"name":"LeftHand"},{"translation":[0.875,1.125,0.5],"name":"L","children":[7]},{"children":[6,8]}],"animations":[{"name":"reload_norm","samplers":[{"input":0,"output":1,"interpolation":"LINEAR"},{"input":2,"output":3,"interpolation":"LINEAR"},{"input":4,"output":5,"interpolation":"LINEAR"},{"input":6,"output":7,"interpolation":"LINEAR"},{"input":8,"output":9,"interpolation":"LINEAR"},{"input":10,"output":11,"interpolation":"LINEAR"},{"input":12,"output":13,"interpolation":"LINEAR"},{"input":14,"output":15,"interpolation":"LINEAR"},{"input":16,"output":17,"interpolation":"LINEAR"},{"input":18,"output":19,"interpolation":"LINEAR"}],"channels":[{"sampler":0,"target":{"node":6,"path":"rotation"}},{"sampler":1,"target":{"node":6,"path":"translation"}},{"sampler":2,"target":{"node":2,"path":"rotation"}},{"sampler":3,"target":{"node":2,"path":"translation"}},{"sampler":4,"target":{"node":5,"path":"rotation"}},{"sampler":5,"target":{"node":5,"path":"translation"}},{"sampler":6,"target":{"node":5,"path":"scale"}},{"sampler":7,"target":{"node":8,"path":"rotation"}},{"sampler":8,"target":{"node":8,"path":"translation"}},{"sampler":9,"target":{"node":8,"path":"scale"}}]}],"bufferViews":[{"buffer":0,"byteOffset":0,"byteLength":108},{"buffer":0,"byteOffset":108,"byteLength":432},{"buffer":0,"byteOffset":540,"byteLength":104},{"buffer":0,"byteOffset":644,"byteLength":312},{"buffer":0,"byteOffset":956,"byteLength":56},{"buffer":0,"byteOffset":1012,"byteLength":224},{"buffer":0,"byteOffset":1236,"byteLength":56},{"buffer":0,"byteOffset":1292,"byteLength":168},{"buffer":0,"byteOffset":1460,"byteLength":4},{"buffer":0,"byteOffset":1464,"byteLength":16},{"buffer":0,"byteOffset":1480,"byteLength":4},{"buffer":0,"byteOffset":1484,"byteLength":12},{"buffer":0,"byteOffset":1496,"byteLength":4},{"buffer":0,"byteOffset":1500,"byteLength":12},{"buffer":0,"byteOffset":1512,"byteLength":104},{"buffer":0,"byteOffset":1616,"byteLength":416},{"buffer":0,"byteOffset":2032,"byteLength":96},{"buffer":0,"byteOffset":2128,"byteLength":288},{"buffer":0,"byteOffset":2416,"byteLength":4},{"buffer":0,"byteOffset":2420,"byteLength":12}],"buffers":[{"byteLength":2432,"uri":"data:application/octet-stream;base64,"}],"accessors":[{"bufferView":0,"componentType":5126,"count":27,"max":[2],"min":[0],"type":"SCALAR"},{"bufferView":1,"componentType":5126,"count":27,"max":[0.34373754262924194,0.3218516707420349,0.08471425622701645,1],"min":[-0.0003425722534302622,-0.008719773963093758,-0.3172376751899719,0.8303252458572388],"type":"VEC4"},{"bufferView":2,"componentType":5126,"count":26,"max":[1.9500000476837158],"min":[0],"type":"SCALAR"},{"bufferView":3,"componentType":5126,"count":26,"max":[0.6156250238418579,0.3137499988079071,1.1843750476837158],"min":[0.5,0.03394675999879837,0.8287500143051147],"type":"VEC3"},{"bufferView":4,"componentType":5126,"count":14,"max":[1.399999976158142],"min":[0],"type":"SCALAR"},{"bufferView":5,"componentType":5126,"count":14,"max":[0.4296228587627411,0.003921047784388065,0.0054061138071119785,1],"min":[-0.03462883457541466,-0.19726145267486572,-0.3238450586795807,0.8203696012496948],"type":"VEC4"},{"bufferView":6,"componentType":5126,"count":14,"max":[1.399999976158142],"min":[0],"type":"SCALAR"},{"bufferView":7,"componentType":5126,"count":14,"max":[-0.12930625677108765,-0.06706812232732773,1.2074918746948242],"min":[-0.7105562686920166,-2.2201931476593018,0.18624188005924225],"type":"VEC3"},{"bufferView":8,"componentType":5126,"count":1,"max":[0],"min":[0],"type":"SCALAR"},{"bufferView":9,"componentType":5126,"count":1,"max":[0.040091682225465775,-0.7649946212768555,0.6419066786766052,0.03364089876413345],"min":[0.040091682225465775,-0.7649946212768555,0.6419066786766052,0.03364089876413345],"type":"VEC4"},{"bufferView":10,"componentType":5126,"count":1,"max":[0],"min":[0],"type":"SCALAR"},{"bufferView":11,"componentType":5126,"count":1,"max":[0.0625,0.04374999925494194,-0.08749999850988388],"min":[0.0625,0.04374999925494194,-0.08749999850988388],"type":"VEC3"},{"bufferView":12,"componentType":5126,"count":1,"max":[0],"min":[0],"type":"SCALAR"},{"bufferView":13,"componentType":5126,"count":1,"max":[1.75,2,1.75],"min":[1.75,2,1.75],"type":"VEC3"},{"bufferView":14,"componentType":5126,"count":26,"max":[1.9500000476837158],"min":[0],"type":"SCALAR"},{"bufferView":15,"componentType":5126,"count":26,"max":[0.16731715202331543,0.8510826826095581,-0.3091859519481659,0.5485894083976746],"min":[-0.34395429491996765,0.6175429224967957,-0.7786098718643188,0.028440166264772415],"type":"VEC4"},{"bufferView":16,"componentType":5126,"count":24,"max":[1.9500000476837158],"min":[0],"type":"SCALAR"},{"bufferView":17,"componentType":5126,"count":24,"max":[0.45781248807907104,0.15625,0.9921875],"min":[-0.9078124761581421,-1.5109374523162842,0.3125],"type":"VEC3"},{"bufferView":18,"componentType":5126,"count":1,"max":[0],"min":[0],"type":"SCALAR"},{"bufferView":19,"componentType":5126,"count":1,"max":[1.75,2,1.75],"min":[1.75,2,1.75],"type":"VEC3"}]}