{"asset":{"version":"2.0","generator":"Blockbench 4.7.0 glTF exporter"},"scenes":[{"nodes":[9],"name":"blockbench_export"}],"scene":0,"nodes":[{"name":"bone2"},{"translation":[-0.375,-0.6875,0],"name":"LeftHand"},{"translation":[0.375,0.875,-0.5],"name":"l","children":[1]},{"translation":[0.375,-0.6875,0],"name":"RightHand"},{"translation":[-0.375,0.875,-0.5],"name":"r","children":[3]},{"translation":[0,-0.264173125,0.12600187500000004],"name":"magazine"},{"translation":[0,-0.264173125,0.12600187500000004],"name":"magazine2"},{"translation":[0,0.1875,-0.5],"name":"group2","children":[5,6]},{"translation":[0.5,0.3125,1],"name":"bone","children":[2,4,7]},{"children":[0,8]}],"animations":[{"name":"reload_empty","samplers":[{"input":0,"output":1,"interpolation":"LINEAR"},{"input":2,"output":3,"interpolation":"LINEAR"},{"input":4,"output":5,"interpolation":"LINEAR"},{"input":6,"output":7,"interpolation":"LINEAR"},{"input":8,"output":9,"interpolation":"LINEAR"},{"input":10,"output":11,"interpolation":"LINEAR"},{"input":12,"output":13,"interpolation":"LINEAR"},{"input":14,"output":15,"interpolation":"LINEAR"},{"input":16,"output":17,"interpolation":"LINEAR"},{"input":18,"output":19,"interpolation":"LINEAR"},{"input":20,"output":21,"interpolation":"LINEAR"},{"input":22,"output":23,"interpolation":"LINEAR"}],"channels":[{"sampler":0,"target":{"node":8,"path":"rotation"}},{"sampler":1,"target":{"node":8,"path":"translation"}},{"sampler":2,"target":{"node":2,"path":"rotation"}},{"sampler":3,"target":{"node":2,"path":"translation"}},{"sampler":4,"target":{"node":2,"path":"scale"}},{"sampler":5,"target":{"node":4,"path":"rotation"}},{"sampler":6,"target":{"node":4,"path":"translation"}},{"sampler":7,"target":{"node":4,"path":"scale"}},{"sampler":8,"target":{"node":5,"path":"rotation"}},{"sampler":9,"target":{"node":5,"path":"translation"}},{"sampler":10,"target":{"node":6,"path":"rotation"}},{"sampler":11,"target":{"node":6,"path":"translation"}}]}],"bufferViews":[{"buffer":0,"byteOffset":0,"byteLength":180},{"buffer":0,"byteOffset":180,"byteLength":720},{"buffer":0,"byteOffset":900,"byteLength":184},{"buffer":0,"byteOffset":1084,"byteLength":552},{"buffer":0,"byteOffset":1636,"byteLength":100},{"buffer":0,"byteOffset":1736,"byteLength":400},{"buffer":0,"byteOffset":2136,"byteLength":144},{"buffer":0,"byteOffset":2280,"byteLength":432},{"buffer":0,"byteOffset":2712,"byteLength":4},{"buffer":0,"byteOffset":2716,"byteLength":12},{"buffer":0,"byteOffset":2728,"byteLength":4},{"buffer":0,"byteOffset":2732,"byteLength":16},{"buffer":0,"byteOffset":2748,"byteLength":4},{"buffer":0,"byteOffset":2752,"byteLength":12},{"buffer":0,"byteOffset":2764,"byteLength":4},{"buffer":0,"byteOffset":2768,"byteLength":12},{"buffer":0,"byteOffset":2780,"byteLength":88},{"buffer":0,"byteOffset":2868,"byteLength":352},{"buffer":0,"byteOffset":3220,"byteLength":88},{"buffer":0,"byteOffset":3308,"byteLength":264},{"buffer":0,"byteOffset":3572,"byteLength":188},{"buffer":0,"byteOffset":3760,"byteLength":752},{"buffer":0,"byteOffset":4512,"byteLength":4},{"buffer":0,"byteOffset":4516,"byteLength":12}],"buffers":[{"byteLength":4528,"uri":"data:application/octet-stream;base64,"}],"accessors":[{"bufferView":0,"componentType":5126,"count":45,"max":[2.950000047683716],"min":[0],"type":"SCALAR"},{"bufferView":1,"componentType":5126,"count":45,"max":[0.2612200677394867,0.2075730264186859,0.29605621099472046,1],"min":[-0.0054330602288246155,-0.020052803680300713,-0.3830471336841583,0.8703004717826843],"type":"VEC4"},{"bufferView":2,"componentType":5126,"count":46,"max":[2.950000047683716],"min":[0],"type":"SCALAR"},{"bufferView":3,"componentType":5126,"count":46,"max":[0.7231249809265137,0.3128906190395355,1],"min":[0.4424999952316284,0.20624999701976776,0.731249988079071],"type":"VEC3"},{"bufferView":4,"componentType":5126,"count":25,"max":[2.450000047683716],"min":[0],"type":"SCALAR"},{"bufferView":5,"componentType":5126,"count":25,"max":[0.30450138449668884,-0.4109146296977997,0.7934868931770325,0.4542807638645172],"min":[-0.4709847569465637,-0.976058304309845,0.1909453570842743,-0.5885202884674072],"type":"VEC4"},{"bufferView":6,"componentType":5126,"count":36,"max":[2.450000047683716],"min":[0],"type":"SCALAR"},{"bufferView":7,"componentType":5126,"count":36,"max":[0.17243224382400513,0.21364125609397888,0.6031249761581421],"min":[-1.072761058807373,-1.2220367193222046,-0.8379193544387817],"type":"VEC3"},{"bufferView":8,"componentType":5126,"count":1,"max":[0],"min":[0],"type":"SCALAR"},{"bufferView":9,"componentType":5126,"count":1,"max":[1,1.5,1],"min":[1,1.5,1],"type":"VEC3"},{"bufferView":10,"componentType":5126,"count":1,"max":[0],"min":[0],"type":"SCALAR"},{"bufferView":11,"componentType":5126,"count":1,"max":[-4.6906692768028125e-17,-0.7660444378852844,0.6427876353263855,3.9359390979975894e-17],"min":[-4.6906692768028125e-17,-0.7660444378852844,0.6427876353263855,3.9359390979975894e-17],"type":"VEC4"},{"bufferView":12,"componentType":5126,"count":1,"max":[0],"min":[0],"type":"SCALAR"},{"bufferView":13,"componentType":5126,"count":1,"max":[0,-0.02500000037252903,-0.0625],"min":[0,-0.02500000037252903,-0.0625],"type":"VEC3"},{"bufferView":14,"componentType":5126,"count":1,"max":[0],"min":[0],"type":"SCALAR"},{"bufferView":15,"componentType":5126,"count":1,"max":[1,1.5,1],"min":[1,1.5,1],"type":"VEC3"},{"bufferView":16,"componentType":5126,"count":22,"max":[1.600000023841858],"min":[0],"type":"SCALAR"},{"bufferView":17,"componentType":5126,"count":22,"max":[0.007016351446509361,0.01659894920885563,0.8621035814285278,1],"min":[-0.1019187867641449,-0.003015670692548156,-0.7981064319610596,-0.8419348001480103],"type":"VEC4"},{"bufferView":18,"componentType":5126,"count":22,"max":[1.600000023841858],"min":[0],"type":"SCALAR"},{"bufferView":19,"componentType":5126,"count":22,"max":[0.7149999737739563,-0.26417312026023865,1.1760019063949585],"min":[-0.42124998569488525,-2.0529232025146484,0.028353750705718994],"type":"VEC3"},{"bufferView":20,"componentType":5126,"count":47,"max":[2.9000000953674316],"min":[0],"type":"SCALAR"},{"bufferView":21,"componentType":5126,"count":47,"max":[0.007477648556232452,0.013512931764125824,0.018712345510721207,1],"min":[-0.008569587953388691,-0.020537395030260086,-0.014182413928210735,0.9995896220207214],"type":"VEC4"},{"bufferView":22,"componentType":5126,"count":1,"max":[0],"min":[0],"type":"SCALAR"},{"bufferView":23,"componentType":5126,"count":1,"max":[0,-1.451673150062561,1.6885018348693848],"min":[0,-1.451673150062561,1.6885018348693848],"type":"VEC3"}]}