{"asset":{"version":"2.0","generator":"Blockbench 4.7.0 glTF exporter"},"scenes":[{"nodes":[9],"name":"blockbench_export"}],"scene":0,"nodes":[{"name":"bone2"},{"translation":[-0.375,-0.6875,0],"name":"LeftHand"},{"translation":[0.375,0.875,-0.5],"name":"l","children":[1]},{"translation":[0.375,-0.6875,0],"name":"RightHand"},{"translation":[-0.375,0.875,-0.5],"name":"r","children":[3]},{"translation":[0,-0.264173125,0.12600187500000004],"name":"magazine"},{"translation":[0,-0.264173125,0.12600187500000004],"name":"magazine2"},{"translation":[0,0.1875,-0.5],"name":"group2","children":[5,6]},{"translation":[0.5,0.3125,1],"name":"bone","children":[2,4,7]},{"children":[0,8]}],"animations":[{"name":"draw","samplers":[{"input":0,"output":1,"interpolation":"LINEAR"},{"input":2,"output":3,"interpolation":"LINEAR"},{"input":4,"output":5,"interpolation":"LINEAR"},{"input":6,"output":7,"interpolation":"LINEAR"},{"input":8,"output":9,"interpolation":"LINEAR"},{"input":10,"output":11,"interpolation":"LINEAR"},{"input":12,"output":13,"interpolation":"LINEAR"},{"input":14,"output":15,"interpolation":"LINEAR"}],"channels":[{"sampler":0,"target":{"node":8,"path":"rotation"}},{"sampler":1,"target":{"node":8,"path":"translation"}},{"sampler":2,"target":{"node":2,"path":"rotation"}},{"sampler":3,"target":{"node":2,"path":"translation"}},{"sampler":4,"target":{"node":2,"path":"scale"}},{"sampler":5,"target":{"node":4,"path":"rotation"}},{"sampler":6,"target":{"node":4,"path":"translation"}},{"sampler":7,"target":{"node":4,"path":"scale"}}]}],"bufferViews":[{"buffer":0,"byteOffset":0,"byteLength":52},{"buffer":0,"byteOffset":52,"byteLength":208},{"buffer":0,"byteOffset":260,"byteLength":52},{"buffer":0,"byteOffset":312,"byteLength":156},{"buffer":0,"byteOffset":468,"byteLength":32},{"buffer":0,"byteOffset":500,"byteLength":128},{"buffer":0,"byteOffset":628,"byteLength":32},{"buffer":0,"byteOffset":660,"byteLength":96},{"buffer":0,"byteOffset":756,"byteLength":4},{"buffer":0,"byteOffset":760,"byteLength":12},{"buffer":0,"byteOffset":772,"byteLength":4},{"buffer":0,"byteOffset":776,"byteLength":16},{"buffer":0,"byteOffset":792,"byteLength":4},{"buffer":0,"byteOffset":796,"byteLength":12},{"buffer":0,"byteOffset":808,"byteLength":4},{"buffer":0,"byteOffset":812,"byteLength":12}],"buffers":[{"byteLength":824,"uri":"data:application/octet-stream;base64,"}],"accessors":[{"bufferView":0,"componentType":5126,"count":13,"max":[0.800000011920929],"min":[0],"type":"SCALAR"},{"bufferView":1,"componentType":5126,"count":13,"max":[0.0424811951816082,0.169809490442276,0.2057069092988968,1],"min":[-0.1300014853477478,-0.005076732486486435,-0.014930909499526024,0.9549602270126343],"type":"VEC4"},{"bufferView":2,"componentType":5126,"count":13,"max":[0.800000011920929],"min":[0],"type":"SCALAR"},{"bufferView":3,"componentType":5126,"count":13,"max":[0.5,0.31377315521240234,1.2000000476837158],"min":[0.4124999940395355,-0.3499999940395355,0.893750011920929],"type":"VEC3"},{"bufferView":4,"componentType":5126,"count":8,"max":[0.44999998807907104],"min":[0],"type":"SCALAR"},{"bufferView":5,"componentType":5126,"count":8,"max":[0.20344382524490356,-0.6541996598243713,0.5963662266731262,-0.39440789818763733],"min":[0.1039520800113678,-0.6718318462371826,0.5297752618789673,-0.5296743512153625],"type":"VEC4"},{"bufferView":6,"componentType":5126,"count":8,"max":[0.44999998807907104],"min":[0],"type":"SCALAR"},{"bufferView":7,"componentType":5126,"count":8,"max":[-0.08124999701976776,0.16875000298023224,-0.78125],"min":[-0.37364500761032104,-0.12456054985523224,-0.8395833373069763],"type":"VEC3"},{"bufferView":8,"componentType":5126,"count":1,"max":[0],"min":[0],"type":"SCALAR"},{"bufferView":9,"componentType":5126,"count":1,"max":[1,1.5,1],"min":[1,1.5,1],"type":"VEC3"},{"bufferView":10,"componentType":5126,"count":1,"max":[0],"min":[0],"type":"SCALAR"},{"bufferView":11,"componentType":5126,"count":1,"max":[-4.6906692768028125e-17,-0.7660444378852844,0.6427876353263855,3.9359390979975894e-17],"min":[-4.6906692768028125e-17,-0.7660444378852844,0.6427876353263855,3.9359390979975894e-17],"type":"VEC4"},{"bufferView":12,"componentType":5126,"count":1,"max":[0],"min":[0],"type":"SCALAR"},{"bufferView":13,"componentType":5126,"count":1,"max":[0,-0.02500000037252903,-0.0625],"min":[0,-0.02500000037252903,-0.0625],"type":"VEC3"},{"bufferView":14,"componentType":5126,"count":1,"max":[0],"min":[0],"type":"SCALAR"},{"bufferView":15,"componentType":5126,"count":1,"max":[1,1.5,1],"min":[1,1.5,1],"type":"VEC3"}]}