{"asset":{"version":"2.0","generator":"Blockbench 4.7.0 glTF exporter"},"scenes":[{"nodes":[9],"name":"blockbench_export"}],"scene":0,"nodes":[{"name":"bone2"},{"translation":[-0.375,-0.6875,0],"name":"LeftHand"},{"translation":[0.375,0.875,-0.5],"name":"l","children":[1]},{"translation":[0.375,-0.6875,0],"name":"RightHand"},{"translation":[-0.375,0.875,-0.5],"name":"r","children":[3]},{"translation":[0,-0.264173125,0.12600187500000004],"name":"magazine"},{"translation":[0,-0.264173125,0.12600187500000004],"name":"magazine2"},{"translation":[0,0.1875,-0.5],"name":"group2","children":[5,6]},{"translation":[0.5,0.3125,1],"name":"bone","children":[2,4,7]},{"children":[0,8]}],"animations":[{"name":"inspect","samplers":[{"input":0,"output":1,"interpolation":"LINEAR"},{"input":2,"output":3,"interpolation":"LINEAR"},{"input":4,"output":5,"interpolation":"LINEAR"},{"input":6,"output":7,"interpolation":"LINEAR"},{"input":8,"output":9,"interpolation":"LINEAR"},{"input":10,"output":11,"interpolation":"LINEAR"},{"input":12,"output":13,"interpolation":"LINEAR"},{"input":14,"output":15,"interpolation":"LINEAR"}],"channels":[{"sampler":0,"target":{"node":8,"path":"rotation"}},{"sampler":1,"target":{"node":8,"path":"translation"}},{"sampler":2,"target":{"node":2,"path":"rotation"}},{"sampler":3,"target":{"node":2,"path":"translation"}},{"sampler":4,"target":{"node":2,"path":"scale"}},{"sampler":5,"target":{"node":4,"path":"rotation"}},{"sampler":6,"target":{"node":4,"path":"translation"}},{"sampler":7,"target":{"node":4,"path":"scale"}}]}],"bufferViews":[{"buffer":0,"byteOffset":0,"byteLength":348},{"buffer":0,"byteOffset":348,"byteLength":1392},{"buffer":0,"byteOffset":1740,"byteLength":364},{"buffer":0,"byteOffset":2104,"byteLength":1092},{"buffer":0,"byteOffset":3196,"byteLength":348},{"buffer":0,"byteOffset":3544,"byteLength":1392},{"buffer":0,"byteOffset":4936,"byteLength":340},{"buffer":0,"byteOffset":5276,"byteLength":1020},{"buffer":0,"byteOffset":6296,"byteLength":4},{"buffer":0,"byteOffset":6300,"byteLength":12},{"buffer":0,"byteOffset":6312,"byteLength":4},{"buffer":0,"byteOffset":6316,"byteLength":16},{"buffer":0,"byteOffset":6332,"byteLength":4},{"buffer":0,"byteOffset":6336,"byteLength":12},{"buffer":0,"byteOffset":6348,"byteLength":4},{"buffer":0,"byteOffset":6352,"byteLength":12}],"buffers":[{"byteLength":6364,"uri":"data:application/octet-stream;base64,"}],"accessors":[{"bufferView":0,"componentType":5126,"count":87,"max":[5.5],"min":[0],"type":"SCALAR"},{"bufferView":1,"componentType":5126,"count":87,"max":[0.34026405215263367,0.11384951323270798,0.5134247541427612,1],"min":[-0.014271636493504047,-0.0032263845205307007,-0.43710508942604065,0.7823548316955566],"type":"VEC4"},{"bufferView":2,"componentType":5126,"count":91,"max":[5.599999904632568],"min":[0],"type":"SCALAR"},{"bufferView":3,"componentType":5126,"count":91,"max":[0.5517361164093018,0.393767386674881,1.0046875476837158],"min":[0.45671212673187256,0.2521103620529175,0.8313512206077576],"type":"VEC3"},{"bufferView":4,"componentType":5126,"count":87,"max":[5.25],"min":[0],"type":"SCALAR"},{"bufferView":5,"componentType":5126,"count":87,"max":[0.4909885823726654,-0.17666608095169067,0.7814030647277832,-0.32069799304008484],"min":[-0.079618439078331,-0.6579421162605286,0.47055962681770325,-0.6182827949523926],"type":"VEC4"},{"bufferView":6,"componentType":5126,"count":85,"max":[5.099999904632568],"min":[0],"type":"SCALAR"},{"bufferView":7,"componentType":5126,"count":85,"max":[0.26361626386642456,0.16875000298023224,0.7335540652275085],"min":[-1.138949990272522,-2.0592761039733887,-0.8318905830383301],"type":"VEC3"},{"bufferView":8,"componentType":5126,"count":1,"max":[0],"min":[0],"type":"SCALAR"},{"bufferView":9,"componentType":5126,"count":1,"max":[1,1.5,1],"min":[1,1.5,1],"type":"VEC3"},{"bufferView":10,"componentType":5126,"count":1,"max":[0],"min":[0],"type":"SCALAR"},{"bufferView":11,"componentType":5126,"count":1,"max":[-4.6906692768028125e-17,-0.7660444378852844,0.6427876353263855,3.9359390979975894e-17],"min":[-4.6906692768028125e-17,-0.7660444378852844,0.6427876353263855,3.9359390979975894e-17],"type":"VEC4"},{"bufferView":12,"componentType":5126,"count":1,"max":[0],"min":[0],"type":"SCALAR"},{"bufferView":13,"componentType":5126,"count":1,"max":[0,-0.02500000037252903,-0.0625],"min":[0,-0.02500000037252903,-0.0625],"type":"VEC3"},{"bufferView":14,"componentType":5126,"count":1,"max":[0],"min":[0],"type":"SCALAR"},{"bufferView":15,"componentType":5126,"count":1,"max":[1,1.5,1],"min":[1,1.5,1],"type":"VEC3"}]}