{"asset":{"version":"2.0","generator":"Blockbench 4.7.0 glTF exporter"},"scenes":[{"nodes":[9],"name":"blockbench_export"}],"scene":0,"nodes":[{"name":"bone2"},{"translation":[-0.375,-0.6875,0],"name":"LeftHand"},{"translation":[0.375,0.875,-0.5],"name":"l","children":[1]},{"translation":[0.375,-0.6875,0],"name":"RightHand"},{"translation":[-0.375,0.875,-0.5],"name":"r","children":[3]},{"translation":[0,-0.264173125,0.12600187500000004],"name":"magazine"},{"translation":[0,-0.264173125,0.12600187500000004],"name":"magazine2"},{"translation":[0,0.1875,-0.5],"name":"group2","children":[5,6]},{"translation":[0.5,0.3125,1],"name":"bone","children":[2,4,7]},{"children":[0,8]}],"animations":[{"name":"reload_norm","samplers":[{"input":0,"output":1,"interpolation":"LINEAR"},{"input":2,"output":3,"interpolation":"LINEAR"},{"input":4,"output":5,"interpolation":"LINEAR"},{"input":6,"output":7,"interpolation":"LINEAR"},{"input":8,"output":9,"interpolation":"LINEAR"},{"input":10,"output":11,"interpolation":"LINEAR"},{"input":12,"output":13,"interpolation":"LINEAR"},{"input":14,"output":15,"interpolation":"LINEAR"},{"input":16,"output":17,"interpolation":"LINEAR"},{"input":18,"output":19,"interpolation":"LINEAR"},{"input":20,"output":21,"interpolation":"LINEAR"},{"input":22,"output":23,"interpolation":"LINEAR"}],"channels":[{"sampler":0,"target":{"node":8,"path":"rotation"}},{"sampler":1,"target":{"node":8,"path":"translation"}},{"sampler":2,"target":{"node":2,"path":"rotation"}},{"sampler":3,"target":{"node":2,"path":"translation"}},{"sampler":4,"target":{"node":2,"path":"scale"}},{"sampler":5,"target":{"node":4,"path":"rotation"}},{"sampler":6,"target":{"node":4,"path":"translation"}},{"sampler":7,"target":{"node":4,"path":"scale"}},{"sampler":8,"target":{"node":5,"path":"rotation"}},{"sampler":9,"target":{"node":5,"path":"translation"}},{"sampler":10,"target":{"node":6,"path":"rotation"}},{"sampler":11,"target":{"node":6,"path":"translation"}}]}],"bufferViews":[{"buffer":0,"byteOffset":0,"byteLength":168},{"buffer":0,"byteOffset":168,"byteLength":672},{"buffer":0,"byteOffset":840,"byteLength":168},{"buffer":0,"byteOffset":1008,"byteLength":504},{"buffer":0,"byteOffset":1512,"byteLength":100},{"buffer":0,"byteOffset":1612,"byteLength":400},{"buffer":0,"byteOffset":2012,"byteLength":132},{"buffer":0,"byteOffset":2144,"byteLength":396},{"buffer":0,"byteOffset":2540,"byteLength":4},{"buffer":0,"byteOffset":2544,"byteLength":12},{"buffer":0,"byteOffset":2556,"byteLength":4},{"buffer":0,"byteOffset":2560,"byteLength":16},{"buffer":0,"byteOffset":2576,"byteLength":4},{"buffer":0,"byteOffset":2580,"byteLength":12},{"buffer":0,"byteOffset":2592,"byteLength":4},{"buffer":0,"byteOffset":2596,"byteLength":12},{"buffer":0,"byteOffset":2608,"byteLength":100},{"buffer":0,"byteOffset":2708,"byteLength":400},{"buffer":0,"byteOffset":3108,"byteLength":108},{"buffer":0,"byteOffset":3216,"byteLength":324},{"buffer":0,"byteOffset":3540,"byteLength":96},{"buffer":0,"byteOffset":3636,"byteLength":384},{"buffer":0,"byteOffset":4020,"byteLength":100},{"buffer":0,"byteOffset":4120,"byteLength":300}],"buffers":[{"byteLength":4420,"uri":"data:application/octet-stream;base64,"}],"accessors":[{"bufferView":0,"componentType":5126,"count":42,"max":[2.700000047683716],"min":[0],"type":"SCALAR"},{"bufferView":1,"componentType":5126,"count":42,"max":[0.26106297969818115,0.12348683923482895,0.025902632623910904,1],"min":[-0.02103704772889614,-0.0018304951954632998,-0.3817847669124603,0.8893067240715027],"type":"VEC4"},{"bufferView":2,"componentType":5126,"count":42,"max":[2.6500000953674316],"min":[0],"type":"SCALAR"},{"bufferView":3,"componentType":5126,"count":42,"max":[0.557812511920929,0.3133573532104492,1.0066189765930176],"min":[0.49802201986312866,0.2381249964237213,0.7448958158493042],"type":"VEC3"},{"bufferView":4,"componentType":5126,"count":25,"max":[2.25],"min":[0],"type":"SCALAR"},{"bufferView":5,"componentType":5126,"count":25,"max":[0.1039520800113678,-0.6426382064819336,0.6910327672958374,-0.1125086098909378],"min":[-0.09940794855356216,-0.7360522150993347,0.5014705061912537,-0.5296743512153625],"type":"VEC4"},{"bufferView":6,"componentType":5126,"count":33,"max":[2.25],"min":[0],"type":"SCALAR"},{"bufferView":7,"componentType":5126,"count":33,"max":[0.03026374988257885,0.16875000298023224,0.5946571230888367],"min":[-0.5606909990310669,-1.173654556274414,-0.78125],"type":"VEC3"},{"bufferView":8,"componentType":5126,"count":1,"max":[0],"min":[0],"type":"SCALAR"},{"bufferView":9,"componentType":5126,"count":1,"max":[1,1.5,1],"min":[1,1.5,1],"type":"VEC3"},{"bufferView":10,"componentType":5126,"count":1,"max":[0],"min":[0],"type":"SCALAR"},{"bufferView":11,"componentType":5126,"count":1,"max":[-4.6906692768028125e-17,-0.7660444378852844,0.6427876353263855,3.9359390979975894e-17],"min":[-4.6906692768028125e-17,-0.7660444378852844,0.6427876353263855,3.9359390979975894e-17],"type":"VEC4"},{"bufferView":12,"componentType":5126,"count":1,"max":[0],"min":[0],"type":"SCALAR"},{"bufferView":13,"componentType":5126,"count":1,"max":[0,-0.02500000037252903,-0.0625],"min":[0,-0.02500000037252903,-0.0625],"type":"VEC3"},{"bufferView":14,"componentType":5126,"count":1,"max":[0],"min":[0],"type":"SCALAR"},{"bufferView":15,"componentType":5126,"count":1,"max":[1,1.5,1],"min":[1,1.5,1],"type":"VEC3"},{"bufferView":16,"componentType":5126,"count":25,"max":[2.5],"min":[0],"type":"SCALAR"},{"bufferView":17,"componentType":5126,"count":25,"max":[0.011834310367703438,0.02023804374039173,0.01604786142706871,1],"min":[-0.2327762246131897,-0.27966055274009705,-0.24341392517089844,0.9597296714782715],"type":"VEC4"},{"bufferView":18,"componentType":5126,"count":27,"max":[2.5],"min":[0],"type":"SCALAR"},{"bufferView":19,"componentType":5126,"count":27,"max":[0.08937499672174454,-0.26417312026023865,1.1560019254684448],"min":[-0.528124988079071,-1.4213067293167114,-0.053373124450445175],"type":"VEC3"},{"bufferView":20,"componentType":5126,"count":24,"max":[1.399999976158142],"min":[0],"type":"SCALAR"},{"bufferView":21,"componentType":5126,"count":24,"max":[0.17184312641620636,0.01796150580048561,0.15970417857170105,1],"min":[-0.22017979621887207,-0.3854500651359558,-0.4647727608680725,0.766298234462738],"type":"VEC4"},{"bufferView":22,"componentType":5126,"count":25,"max":[1.399999976158142],"min":[0],"type":"SCALAR"},{"bufferView":23,"componentType":5126,"count":25,"max":[0.06359098106622696,-0.2454231232404709,1.2510018348693848],"min":[-0.11256357282400131,-1.264173150062561,0.08287687599658966],"type":"VEC3"}]}