{"asset":{"version":"2.0","generator":"Blockbench 4.7.4 glTF exporter"},"scenes":[{"nodes":[13],"name":"blockbench_export"}],"scene":0,"nodes":[{"translation":[0.375,-0.6875,0],"name":"RightHand"},{"translation":[-0.375,0.6875,0],"name":"R","children":[0]},{"translation":[-0.019663125000000004,0.009140625000000013,0.012203749999999985],"name":"handle"},{"translation":[-0.0037499999999999756,0.188125,-0.691875],"name":"pull","children":[2]},{"translation":[0.13707749999999996,0.518205,2.09375],"name":"bolt2"},{"name":"bolt3","children":[4]},{"translation":[-0.5,-0.375,-0.49999999999999994],"name":"762x51"},{"translation":[0,-0.125,0],"name":"mb","children":[6]},{"translation":[0,0,0.053749999999999964],"name":"G3_default_body","children":[3,5,7]},{"translation":[0,0.03125,-0.4375],"name":"bone","children":[1,8]},{"translation":[-0.375,-0.6875,0],"name":"LeftHand"},{"translation":[0.375,0.71875,-0.4375],"name":"l","children":[10]},{"translation":[0.5,0.46875,0.9375],"name":"bone2","children":[9,11]},{"children":[12]}],"animations":[{"name":"reload_empty_baked","samplers":[{"input":0,"output":1,"interpolation":"LINEAR"},{"input":2,"output":3,"interpolation":"LINEAR"},{"input":4,"output":5,"interpolation":"LINEAR"},{"input":6,"output":7,"interpolation":"LINEAR"},{"input":8,"output":9,"interpolation":"LINEAR"},{"input":10,"output":11,"interpolation":"LINEAR"},{"input":12,"output":13,"interpolation":"LINEAR"},{"input":14,"output":15,"interpolation":"LINEAR"},{"input":16,"output":17,"interpolation":"LINEAR"},{"input":18,"output":19,"interpolation":"LINEAR"},{"input":20,"output":21,"interpolation":"LINEAR"},{"input":22,"output":23,"interpolation":"LINEAR"},{"input":24,"output":25,"interpolation":"LINEAR"},{"input":26,"output":27,"interpolation":"LINEAR"},{"input":28,"output":29,"interpolation":"LINEAR"},{"input":30,"output":31,"interpolation":"LINEAR"},{"input":32,"output":33,"interpolation":"LINEAR"}],"channels":[{"sampler":0,"target":{"node":11,"path":"rotation"}},{"sampler":1,"target":{"node":11,"path":"translation"}},{"sampler":2,"target":{"node":11,"path":"scale"}},{"sampler":3,"target":{"node":1,"path":"rotation"}},{"sampler":4,"target":{"node":1,"path":"translation"}},{"sampler":5,"target":{"node":1,"path":"scale"}},{"sampler":6,"target":{"node":12,"path":"rotation"}},{"sampler":7,"target":{"node":12,"path":"translation"}},{"sampler":8,"target":{"node":3,"path":"rotation"}},{"sampler":9,"target":{"node":3,"path":"translation"}},{"sampler":10,"target":{"node":2,"path":"rotation"}},{"sampler":11,"target":{"node":2,"path":"translation"}},{"sampler":12,"target":{"node":5,"path":"translation"}},{"sampler":13,"target":{"node":7,"path":"rotation"}},{"sampler":14,"target":{"node":7,"path":"translation"}},{"sampler":15,"target":{"node":6,"path":"rotation"}},{"sampler":16,"target":{"node":6,"path":"translation"}}]}],"bufferViews":[{"buffer":0,"byteOffset":0,"byteLength":188},{"buffer":0,"byteOffset":188,"byteLength":752},{"buffer":0,"byteOffset":940,"byteLength":216},{"buffer":0,"byteOffset":1156,"byteLength":648},{"buffer":0,"byteOffset":1804,"byteLength":4},{"buffer":0,"byteOffset":1808,"byteLength":12},{"buffer":0,"byteOffset":1820,"byteLength":4},{"buffer":0,"byteOffset":1824,"byteLength":16},{"buffer":0,"byteOffset":1840,"byteLength":4},{"buffer":0,"byteOffset":1844,"byteLength":12},{"buffer":0,"byteOffset":1856,"byteLength":4},{"buffer":0,"byteOffset":1860,"byteLength":12},{"buffer":0,"byteOffset":1872,"byteLength":288},{"buffer":0,"byteOffset":2160,"byteLength":1152},{"buffer":0,"byteOffset":3312,"byteLength":288},{"buffer":0,"byteOffset":3600,"byteLength":864},{"buffer":0,"byteOffset":4464,"byteLength":20},{"buffer":0,"byteOffset":4484,"byteLength":80},{"buffer":0,"byteOffset":4564,"byteLength":24},{"buffer":0,"byteOffset":4588,"byteLength":72},{"buffer":0,"byteOffset":4660,"byteLength":32},{"buffer":0,"byteOffset":4692,"byteLength":128},{"buffer":0,"byteOffset":4820,"byteLength":16},{"buffer":0,"byteOffset":4836,"byteLength":48},{"buffer":0,"byteOffset":4884,"byteLength":16},{"buffer":0,"byteOffset":4900,"byteLength":48},{"buffer":0,"byteOffset":4948,"byteLength":48},{"buffer":0,"byteOffset":4996,"byteLength":192},{"buffer":0,"byteOffset":5188,"byteLength":56},{"buffer":0,"byteOffset":5244,"byteLength":168},{"buffer":0,"byteOffset":5412,"byteLength":288},{"buffer":0,"byteOffset":5700,"byteLength":1152},{"buffer":0,"byteOffset":6852,"byteLength":16},{"buffer":0,"byteOffset":6868,"byteLength":48}],"buffers":[{"byteLength":6916,"uri":"data:application/octet-stream;base64,"}],"accessors":[{"bufferView":0,"componentType":5126,"count":47,"max":[3.25],"min":[0],"type":"SCALAR"},{"bufferView":1,"componentType":5126,"count":47,"max":[0.8933806419372559,0.8960556983947754,-0.2625773549079895,0.6496740579605103],"min":[-0.2367316633462906,0.29158833622932434,-0.6326801180839539,-0.23899872601032257],"type":"VEC4"},{"bufferView":2,"componentType":5126,"count":54,"max":[3.25],"min":[0],"type":"SCALAR"},{"bufferView":3,"componentType":5126,"count":54,"max":[-0.07562500238418579,0.30591124296188354,0.1561962515115738],"min":[-0.7513856291770935,-1.4333587884902954,-1.1725713014602661],"type":"VEC3"},{"bufferView":4,"componentType":5126,"count":1,"max":[0],"min":[0],"type":"SCALAR"},{"bufferView":5,"componentType":5126,"count":1,"max":[1,1.5,1],"min":[1,1.5,1],"type":"VEC3"},{"bufferView":6,"componentType":5126,"count":1,"max":[0],"min":[0],"type":"SCALAR"},{"bufferView":7,"componentType":5126,"count":1,"max":[-4.5504495898297635e-17,0.7431448101997375,-0.6691306233406067,4.09724328791237e-17],"min":[-4.5504495898297635e-17,0.7431448101997375,-0.6691306233406067,4.09724328791237e-17],"type":"VEC4"},{"bufferView":8,"componentType":5126,"count":1,"max":[0],"min":[0],"type":"SCALAR"},{"bufferView":9,"componentType":5126,"count":1,"max":[0.03125,-0.1875,0.4749999940395355],"min":[0.03125,-0.1875,0.4749999940395355],"type":"VEC3"},{"bufferView":10,"componentType":5126,"count":1,"max":[0],"min":[0],"type":"SCALAR"},{"bufferView":11,"componentType":5126,"count":1,"max":[1,1.5,1],"min":[1,1.5,1],"type":"VEC3"},{"bufferView":12,"componentType":5126,"count":72,"max":[3.549999952316284],"min":[0],"type":"SCALAR"},{"bufferView":13,"componentType":5126,"count":72,"max":[0.13732054829597473,0.048505280166864395,0.08364120870828629,1],"min":[-0.014642714522778988,-0.0088990218937397,-0.2122076451778412,0.9694716930389404],"type":"VEC4"},{"bufferView":14,"componentType":5126,"count":72,"max":[3.549999952316284],"min":[0],"type":"SCALAR"},{"bufferView":15,"componentType":5126,"count":72,"max":[0.5687500238418579,0.4712499976158142,0.9975000023841858],"min":[0.47312501072883606,0.38874998688697815,0.9018750190734863],"type":"VEC3"},{"bufferView":16,"componentType":5126,"count":5,"max":[2.950000047683716],"min":[0.30000001192092896],"type":"SCALAR"},{"bufferView":17,"componentType":5126,"count":5,"max":[0,0,0,1],"min":[0,0,-0.3420201539993286,0.9396926164627075],"type":"VEC4"},{"bufferView":18,"componentType":5126,"count":6,"max":[2.950000047683716],"min":[0.25],"type":"SCALAR"},{"bufferView":19,"componentType":5126,"count":6,"max":[-0.0037499999161809683,0.18812499940395355,-0.31687501072883606],"min":[-0.0037499999161809683,0.18812499940395355,-0.6918749809265137],"type":"VEC3"},{"bufferView":20,"componentType":5126,"count":8,"max":[3.049999952316284],"min":[0.20000000298023224],"type":"SCALAR"},{"bufferView":21,"componentType":5126,"count":8,"max":[0,0.7071067690849304,0,1],"min":[0,0,0,0.7071067690849304],"type":"VEC4"},{"bufferView":22,"componentType":5126,"count":4,"max":[2.950000047683716],"min":[0.25],"type":"SCALAR"},{"bufferView":23,"componentType":5126,"count":4,"max":[0.04283687472343445,0.009140624664723873,0.01220375020056963],"min":[-0.019663125276565552,0.009140624664723873,-0.019046250730752945],"type":"VEC3"},{"bufferView":24,"componentType":5126,"count":4,"max":[2.950000047683716],"min":[0.30000001192092896],"type":"SCALAR"},{"bufferView":25,"componentType":5126,"count":4,"max":[0,0,0.25],"min":[0,0,0],"type":"VEC3"},{"bufferView":26,"componentType":5126,"count":12,"max":[2.450000047683716],"min":[1.149999976158142],"type":"SCALAR"},{"bufferView":27,"componentType":5126,"count":12,"max":[0.7446028590202332,0.29880115389823914,0,1],"min":[-0.1393333226442337,-0.3104173541069031,-0.8556352257728577,-0.3989892303943634],"type":"VEC4"},{"bufferView":28,"componentType":5126,"count":14,"max":[2.450000047683716],"min":[1.149999976158142],"type":"SCALAR"},{"bufferView":29,"componentType":5126,"count":14,"max":[0.0024999999441206455,-0.125,1.3830006122589111],"min":[-0.5795581340789795,-2.416249990463257,-0.12437500059604645],"type":"VEC3"},{"bufferView":30,"componentType":5126,"count":72,"max":[3.549999952316284],"min":[0],"type":"SCALAR"},{"bufferView":31,"componentType":5126,"count":72,"max":[0.005590577609837055,0.00017937435768544674,0.011223177425563335,1],"min":[-0.02163848653435707,-0.006528336554765701,-0.01729911006987095,0.9997621774673462],"type":"VEC4"},{"bufferView":32,"componentType":5126,"count":4,"max":[3],"min":[1.649999976158142],"type":"SCALAR"},{"bufferView":33,"componentType":5126,"count":4,"max":[-0.5,-0.3125,-0.5],"min":[-0.5,-0.375,-0.5],"type":"VEC3"}]}