{"asset":{"version":"2.0","generator":"Blockbench 4.7.4 glTF exporter"},"scenes":[{"nodes":[13],"name":"blockbench_export"}],"scene":0,"nodes":[{"translation":[0.375,-0.6875,0],"name":"RightHand"},{"translation":[-0.375,0.6875,0],"name":"R","children":[0]},{"translation":[-0.019663125000000004,0.009140625000000013,0.012203749999999985],"name":"handle"},{"translation":[-0.0037499999999999756,0.188125,-0.691875],"name":"pull","children":[2]},{"translation":[0.13707749999999996,0.518205,2.09375],"name":"bolt2"},{"name":"bolt3","children":[4]},{"translation":[-0.5,-0.375,-0.49999999999999994],"name":"762x51"},{"translation":[0,-0.125,0],"name":"mb","children":[6]},{"translation":[0,0,0.053749999999999964],"name":"G3_default_body","children":[3,5,7]},{"translation":[0,0.03125,-0.4375],"name":"bone","children":[1,8]},{"translation":[-0.375,-0.6875,0],"name":"LeftHand"},{"translation":[0.375,0.71875,-0.4375],"name":"l","children":[10]},{"translation":[0.5,0.46875,0.9375],"name":"bone2","children":[9,11]},{"children":[12]}],"animations":[{"name":"inspect_baked","samplers":[{"input":0,"output":1,"interpolation":"LINEAR"},{"input":2,"output":3,"interpolation":"LINEAR"},{"input":4,"output":5,"interpolation":"LINEAR"},{"input":6,"output":7,"interpolation":"LINEAR"},{"input":8,"output":9,"interpolation":"LINEAR"},{"input":10,"output":11,"interpolation":"LINEAR"},{"input":12,"output":13,"interpolation":"LINEAR"},{"input":14,"output":15,"interpolation":"LINEAR"}],"channels":[{"sampler":0,"target":{"node":11,"path":"rotation"}},{"sampler":1,"target":{"node":11,"path":"translation"}},{"sampler":2,"target":{"node":11,"path":"scale"}},{"sampler":3,"target":{"node":1,"path":"rotation"}},{"sampler":4,"target":{"node":1,"path":"translation"}},{"sampler":5,"target":{"node":1,"path":"scale"}},{"sampler":6,"target":{"node":12,"path":"rotation"}},{"sampler":7,"target":{"node":12,"path":"translation"}}]}],"bufferViews":[{"buffer":0,"byteOffset":0,"byteLength":40},{"buffer":0,"byteOffset":40,"byteLength":160},{"buffer":0,"byteOffset":200,"byteLength":80},{"buffer":0,"byteOffset":280,"byteLength":240},{"buffer":0,"byteOffset":520,"byteLength":4},{"buffer":0,"byteOffset":524,"byteLength":12},{"buffer":0,"byteOffset":536,"byteLength":4},{"buffer":0,"byteOffset":540,"byteLength":16},{"buffer":0,"byteOffset":556,"byteLength":4},{"buffer":0,"byteOffset":560,"byteLength":12},{"buffer":0,"byteOffset":572,"byteLength":4},{"buffer":0,"byteOffset":576,"byteLength":12},{"buffer":0,"byteOffset":588,"byteLength":424},{"buffer":0,"byteOffset":1012,"byteLength":1696},{"buffer":0,"byteOffset":2708,"byteLength":420},{"buffer":0,"byteOffset":3128,"byteLength":1260}],"buffers":[{"byteLength":4388,"uri":"data:application/octet-stream;base64,"}],"accessors":[{"bufferView":0,"componentType":5126,"count":10,"max":[4.849999904632568],"min":[0],"type":"SCALAR"},{"bufferView":1,"componentType":5126,"count":10,"max":[0.25899165868759155,0.6833494305610657,-0.5254632234573364,0.5473142862319946],"min":[-0.12385528534650803,0.5765498876571655,-0.7840719819068909,0.17432181537151337],"type":"VEC4"},{"bufferView":2,"componentType":5126,"count":20,"max":[4.849999904632568],"min":[0],"type":"SCALAR"},{"bufferView":3,"componentType":5126,"count":20,"max":[0.3732199966907501,0.023749999701976776,0.36907249689102173],"min":[-0.5919374823570251,-1.00619375705719,-0.9012500047683716],"type":"VEC3"},{"bufferView":4,"componentType":5126,"count":1,"max":[0],"min":[0],"type":"SCALAR"},{"bufferView":5,"componentType":5126,"count":1,"max":[1,1.5,1],"min":[1,1.5,1],"type":"VEC3"},{"bufferView":6,"componentType":5126,"count":1,"max":[0],"min":[0],"type":"SCALAR"},{"bufferView":7,"componentType":5126,"count":1,"max":[-4.5504495898297635e-17,0.7431448101997375,-0.6691306233406067,4.09724328791237e-17],"min":[-4.5504495898297635e-17,0.7431448101997375,-0.6691306233406067,4.09724328791237e-17],"type":"VEC4"},{"bufferView":8,"componentType":5126,"count":1,"max":[0],"min":[0],"type":"SCALAR"},{"bufferView":9,"componentType":5126,"count":1,"max":[0.03125,-0.1875,0.4749999940395355],"min":[0.03125,-0.1875,0.4749999940395355],"type":"VEC3"},{"bufferView":10,"componentType":5126,"count":1,"max":[0],"min":[0],"type":"SCALAR"},{"bufferView":11,"componentType":5126,"count":1,"max":[1,1.5,1],"min":[1,1.5,1],"type":"VEC3"},{"bufferView":12,"componentType":5126,"count":106,"max":[5.25],"min":[0],"type":"SCALAR"},{"bufferView":13,"componentType":5126,"count":106,"max":[0.33586347103118896,0.2864086925983429,0.5760297179222107,1],"min":[-0.008063709363341331,-0.0007043324294500053,-0.5303066372871399,0.7437482476234436],"type":"VEC4"},{"bufferView":14,"componentType":5126,"count":105,"max":[5.199999809265137],"min":[0],"type":"SCALAR"},{"bufferView":15,"componentType":5126,"count":105,"max":[0.6331250071525574,0.5299999713897705,0.956250011920929],"min":[0.4937500059604645,0.3581250011920929,0.7831249833106995],"type":"VEC3"}]}