{"asset":{"version":"2.0","generator":"Blockbench 4.7.4 glTF exporter"},"scenes":[{"nodes":[13],"name":"blockbench_export"}],"scene":0,"nodes":[{"translation":[0.375,-0.6875,0],"name":"RightHand"},{"translation":[-0.375,0.6875,0],"name":"R","children":[0]},{"translation":[-0.019663125000000004,0.009140625000000013,0.012203749999999985],"name":"handle"},{"translation":[-0.0037499999999999756,0.188125,-0.691875],"name":"pull","children":[2]},{"translation":[0.13707749999999996,0.518205,2.09375],"name":"bolt2"},{"name":"bolt3","children":[4]},{"translation":[-0.5,-0.375,-0.49999999999999994],"name":"762x51"},{"translation":[0,-0.125,0],"name":"mb","children":[6]},{"translation":[0,0,0.053749999999999964],"name":"G3_default_body","children":[3,5,7]},{"translation":[0,0.03125,-0.4375],"name":"bone","children":[1,8]},{"translation":[-0.375,-0.6875,0],"name":"LeftHand"},{"translation":[0.375,0.71875,-0.4375],"name":"l","children":[10]},{"translation":[0.5,0.46875,0.9375],"name":"bone2","children":[9,11]},{"children":[12]}],"animations":[{"name":"reload_norm_baked","samplers":[{"input":0,"output":1,"interpolation":"LINEAR"},{"input":2,"output":3,"interpolation":"LINEAR"},{"input":4,"output":5,"interpolation":"LINEAR"},{"input":6,"output":7,"interpolation":"LINEAR"},{"input":8,"output":9,"interpolation":"LINEAR"},{"input":10,"output":11,"interpolation":"LINEAR"},{"input":12,"output":13,"interpolation":"LINEAR"},{"input":14,"output":15,"interpolation":"LINEAR"},{"input":16,"output":17,"interpolation":"LINEAR"},{"input":18,"output":19,"interpolation":"LINEAR"},{"input":20,"output":21,"interpolation":"LINEAR"}],"channels":[{"sampler":0,"target":{"node":11,"path":"rotation"}},{"sampler":1,"target":{"node":11,"path":"translation"}},{"sampler":2,"target":{"node":11,"path":"scale"}},{"sampler":3,"target":{"node":1,"path":"rotation"}},{"sampler":4,"target":{"node":1,"path":"translation"}},{"sampler":5,"target":{"node":1,"path":"scale"}},{"sampler":6,"target":{"node":12,"path":"rotation"}},{"sampler":7,"target":{"node":12,"path":"translation"}},{"sampler":8,"target":{"node":7,"path":"rotation"}},{"sampler":9,"target":{"node":7,"path":"translation"}},{"sampler":10,"target":{"node":6,"path":"translation"}}]}],"bufferViews":[{"buffer":0,"byteOffset":0,"byteLength":132},{"buffer":0,"byteOffset":132,"byteLength":528},{"buffer":0,"byteOffset":660,"byteLength":80},{"buffer":0,"byteOffset":740,"byteLength":240},{"buffer":0,"byteOffset":980,"byteLength":4},{"buffer":0,"byteOffset":984,"byteLength":12},{"buffer":0,"byteOffset":996,"byteLength":4},{"buffer":0,"byteOffset":1000,"byteLength":16},{"buffer":0,"byteOffset":1016,"byteLength":4},{"buffer":0,"byteOffset":1020,"byteLength":12},{"buffer":0,"byteOffset":1032,"byteLength":4},{"buffer":0,"byteOffset":1036,"byteLength":12},{"buffer":0,"byteOffset":1048,"byteLength":212},{"buffer":0,"byteOffset":1260,"byteLength":848},{"buffer":0,"byteOffset":2108,"byteLength":212},{"buffer":0,"byteOffset":2320,"byteLength":636},{"buffer":0,"byteOffset":2956,"byteLength":52},{"buffer":0,"byteOffset":3008,"byteLength":208},{"buffer":0,"byteOffset":3216,"byteLength":60},{"buffer":0,"byteOffset":3276,"byteLength":180},{"buffer":0,"byteOffset":3456,"byteLength":16},{"buffer":0,"byteOffset":3472,"byteLength":48}],"buffers":[{"byteLength":3520,"uri":"data:application/octet-stream;base64,"}],"accessors":[{"bufferView":0,"componentType":5126,"count":33,"max":[2.3499999046325684],"min":[0],"type":"SCALAR"},{"bufferView":1,"componentType":5126,"count":33,"max":[0.7139955759048462,0.9554559588432312,-0.14133751392364502,0.5473142862319946],"min":[-0.23317864537239075,0.5394530296325684,-0.5814890265464783,-0.35381487011909485],"type":"VEC4"},{"bufferView":2,"componentType":5126,"count":20,"max":[2.25],"min":[0],"type":"SCALAR"},{"bufferView":3,"componentType":5126,"count":20,"max":[-0.06812500208616257,0.023749999701976776,0.11749999970197678],"min":[-0.8924999833106995,-1.481874942779541,-0.9012500047683716],"type":"VEC3"},{"bufferView":4,"componentType":5126,"count":1,"max":[0],"min":[0],"type":"SCALAR"},{"bufferView":5,"componentType":5126,"count":1,"max":[1,1.5,1],"min":[1,1.5,1],"type":"VEC3"},{"bufferView":6,"componentType":5126,"count":1,"max":[0],"min":[0],"type":"SCALAR"},{"bufferView":7,"componentType":5126,"count":1,"max":[-4.5504495898297635e-17,0.7431448101997375,-0.6691306233406067,4.09724328791237e-17],"min":[-4.5504495898297635e-17,0.7431448101997375,-0.6691306233406067,4.09724328791237e-17],"type":"VEC4"},{"bufferView":8,"componentType":5126,"count":1,"max":[0],"min":[0],"type":"SCALAR"},{"bufferView":9,"componentType":5126,"count":1,"max":[0.03125,-0.1875,0.4749999940395355],"min":[0.03125,-0.1875,0.4749999940395355],"type":"VEC3"},{"bufferView":10,"componentType":5126,"count":1,"max":[0],"min":[0],"type":"SCALAR"},{"bufferView":11,"componentType":5126,"count":1,"max":[1,1.5,1],"min":[1,1.5,1],"type":"VEC3"},{"bufferView":12,"componentType":5126,"count":53,"max":[2.5999999046325684],"min":[0],"type":"SCALAR"},{"bufferView":13,"componentType":5126,"count":53,"max":[0.07488015294075012,0.031335752457380295,0.02145560458302498,1],"min":[-0.0032957422081381083,-0.0004375647404231131,-0.2717400789260864,0.9594805836677551],"type":"VEC4"},{"bufferView":14,"componentType":5126,"count":53,"max":[2.5999999046325684],"min":[0],"type":"SCALAR"},{"bufferView":15,"componentType":5126,"count":53,"max":[0.5431249737739563,0.46875,0.9700000286102295],"min":[0.5,0.4000000059604645,0.9106249809265137],"type":"VEC3"},{"bufferView":16,"componentType":5126,"count":13,"max":[1.899999976158142],"min":[0.44999998807907104],"type":"SCALAR"},{"bufferView":17,"componentType":5126,"count":13,"max":[0.3072535991668701,0.2250860184431076,0,1],"min":[0,-0.11892057955265045,-0.675008237361908,0.6575899124145508],"type":"VEC4"},{"bufferView":18,"componentType":5126,"count":15,"max":[1.899999976158142],"min":[0.44999998807907104],"type":"SCALAR"},{"bufferView":19,"componentType":5126,"count":15,"max":[0.0037499999161809683,-0.125,0.5049999952316284],"min":[-0.8206250071525574,-1.3537499904632568,-0.09812500327825546],"type":"VEC3"},{"bufferView":20,"componentType":5126,"count":4,"max":[2.549999952316284],"min":[0],"type":"SCALAR"},{"bufferView":21,"componentType":5126,"count":4,"max":[-0.5,-0.3125,-0.5],"min":[-0.5,-0.375,-0.5],"type":"VEC3"}]}