{"asset":{"version":"2.0","generator":"Blockbench 4.7.4 glTF exporter"},"scenes":[{"nodes":[13],"name":"blockbench_export"}],"scene":0,"nodes":[{"translation":[0.375,-0.6875,0],"name":"RightHand"},{"translation":[-0.375,0.6875,0],"name":"R","children":[0]},{"translation":[-0.019663125000000004,0.009140625000000013,0.012203749999999985],"name":"handle"},{"translation":[-0.0037499999999999756,0.188125,-0.691875],"name":"pull","children":[2]},{"translation":[0.13707749999999996,0.518205,2.09375],"name":"bolt2"},{"name":"bolt3","children":[4]},{"translation":[-0.5,-0.375,-0.49999999999999994],"name":"762x51"},{"translation":[0,-0.125,0],"name":"mb","children":[6]},{"translation":[0,0,0.053749999999999964],"name":"G3_default_body","children":[3,5,7]},{"translation":[0,0.03125,-0.4375],"name":"bone","children":[1,8]},{"translation":[-0.375,-0.6875,0],"name":"LeftHand"},{"translation":[0.375,0.71875,-0.4375],"name":"l","children":[10]},{"translation":[0.5,0.46875,0.9375],"name":"bone2","children":[9,11]},{"children":[12]}],"animations":[{"name":"draw_baked","samplers":[{"input":0,"output":1,"interpolation":"LINEAR"},{"input":2,"output":3,"interpolation":"LINEAR"},{"input":4,"output":5,"interpolation":"LINEAR"},{"input":6,"output":7,"interpolation":"LINEAR"},{"input":8,"output":9,"interpolation":"LINEAR"},{"input":10,"output":11,"interpolation":"LINEAR"},{"input":12,"output":13,"interpolation":"LINEAR"},{"input":14,"output":15,"interpolation":"LINEAR"}],"channels":[{"sampler":0,"target":{"node":11,"path":"rotation"}},{"sampler":1,"target":{"node":11,"path":"translation"}},{"sampler":2,"target":{"node":11,"path":"scale"}},{"sampler":3,"target":{"node":1,"path":"rotation"}},{"sampler":4,"target":{"node":1,"path":"translation"}},{"sampler":5,"target":{"node":1,"path":"scale"}},{"sampler":6,"target":{"node":12,"path":"rotation"}},{"sampler":7,"target":{"node":12,"path":"translation"}}]}],"bufferViews":[{"buffer":0,"byteOffset":0,"byteLength":12},{"buffer":0,"byteOffset":12,"byteLength":48},{"buffer":0,"byteOffset":60,"byteLength":12},{"buffer":0,"byteOffset":72,"byteLength":36},{"buffer":0,"byteOffset":108,"byteLength":4},{"buffer":0,"byteOffset":112,"byteLength":12},{"buffer":0,"byteOffset":124,"byteLength":4},{"buffer":0,"byteOffset":128,"byteLength":16},{"buffer":0,"byteOffset":144,"byteLength":4},{"buffer":0,"byteOffset":148,"byteLength":12},{"buffer":0,"byteOffset":160,"byteLength":4},{"buffer":0,"byteOffset":164,"byteLength":12},{"buffer":0,"byteOffset":176,"byteLength":64},{"buffer":0,"byteOffset":240,"byteLength":256},{"buffer":0,"byteOffset":496,"byteLength":68},{"buffer":0,"byteOffset":564,"byteLength":204}],"buffers":[{"byteLength":768,"uri":"data:application/octet-stream;base64,"}],"accessors":[{"bufferView":0,"componentType":5126,"count":3,"max":[0.5],"min":[0],"type":"SCALAR"},{"bufferView":1,"componentType":5126,"count":3,"max":[0.19293047487735748,0.7249805331230164,-0.5254632234573364,0.5473142862319946],"min":[-0.12385528534650803,0.639527440071106,-0.5896279811859131,0.29919883608818054],"type":"VEC4"},{"bufferView":2,"componentType":5126,"count":3,"max":[0.5],"min":[0],"type":"SCALAR"},{"bufferView":3,"componentType":5126,"count":3,"max":[-0.08124999701976776,0.023749999701976776,-0.48203563690185547],"min":[-0.3066524863243103,-0.09653499722480774,-0.9012500047683716],"type":"VEC3"},{"bufferView":4,"componentType":5126,"count":1,"max":[0],"min":[0],"type":"SCALAR"},{"bufferView":5,"componentType":5126,"count":1,"max":[1,1.5,1],"min":[1,1.5,1],"type":"VEC3"},{"bufferView":6,"componentType":5126,"count":1,"max":[0],"min":[0],"type":"SCALAR"},{"bufferView":7,"componentType":5126,"count":1,"max":[-4.5504495898297635e-17,0.7431448101997375,-0.6691306233406067,4.09724328791237e-17],"min":[-4.5504495898297635e-17,0.7431448101997375,-0.6691306233406067,4.09724328791237e-17],"type":"VEC4"},{"bufferView":8,"componentType":5126,"count":1,"max":[0],"min":[0],"type":"SCALAR"},{"bufferView":9,"componentType":5126,"count":1,"max":[0.03125,-0.1875,0.4749999940395355],"min":[0.03125,-0.1875,0.4749999940395355],"type":"VEC3"},{"bufferView":10,"componentType":5126,"count":1,"max":[0],"min":[0],"type":"SCALAR"},{"bufferView":11,"componentType":5126,"count":1,"max":[1,1.5,1],"min":[1,1.5,1],"type":"VEC3"},{"bufferView":12,"componentType":5126,"count":16,"max":[0.75],"min":[0],"type":"SCALAR"},{"bufferView":13,"componentType":5126,"count":16,"max":[0.0022843002807348967,0.32857003808021545,0.4332577586174011,1],"min":[-0.2601587772369385,-0.0031942257191985846,-0.022679759189486504,0.7979015111923218],"type":"VEC4"},{"bufferView":14,"componentType":5126,"count":17,"max":[0.800000011920929],"min":[0],"type":"SCALAR"},{"bufferView":15,"componentType":5126,"count":17,"max":[0.5056250095367432,0.47437500953674316,1.0437500476837158],"min":[-0.05000000074505806,-0.606249988079071,0.6875],"type":"VEC3"}]}