{"asset":{"version":"2.0","generator":"Blockbench 4.6.5 glTF exporter"},"scenes":[{"nodes":[9],"name":"blockbench_export"}],"scene":0,"nodes":[{"translation":[0,-0.095864375,-0.43891],"name":"magazine"},{"translation":[-0.0004224999999999923,0.305705,-0.71875],"name":"bolthandle"},{"name":"mp5","children":[0,1]},{"translation":[0.375,-0.6875,0],"name":"RightHand"},{"translation":[-0.375,0.75,-0.4375],"name":"R","children":[3]},{"name":"bone3","children":[2,4]},{"translation":[-0.375,-0.6875,0],"name":"LeftHand"},{"translation":[0.375,0.75,-0.4375],"name":"l","children":[6]},{"translation":[0.5,0.4375,0.9375],"name":"bone2","children":[5,7]},{"children":[8]}],"animations":[{"name":"reload_norm","samplers":[{"input":0,"output":1,"interpolation":"LINEAR"},{"input":2,"output":3,"interpolation":"LINEAR"},{"input":4,"output":5,"interpolation":"LINEAR"},{"input":6,"output":7,"interpolation":"LINEAR"},{"input":8,"output":9,"interpolation":"LINEAR"},{"input":10,"output":11,"interpolation":"LINEAR"},{"input":12,"output":13,"interpolation":"LINEAR"},{"input":14,"output":15,"interpolation":"LINEAR"},{"input":16,"output":17,"interpolation":"LINEAR"},{"input":18,"output":19,"interpolation":"LINEAR"}],"channels":[{"sampler":0,"target":{"node":8,"path":"rotation"}},{"sampler":1,"target":{"node":8,"path":"translation"}},{"sampler":2,"target":{"node":4,"path":"rotation"}},{"sampler":3,"target":{"node":4,"path":"translation"}},{"sampler":4,"target":{"node":4,"path":"scale"}},{"sampler":5,"target":{"node":7,"path":"rotation"}},{"sampler":6,"target":{"node":7,"path":"translation"}},{"sampler":7,"target":{"node":7,"path":"scale"}},{"sampler":8,"target":{"node":0,"path":"rotation"}},{"sampler":9,"target":{"node":0,"path":"translation"}}]}],"bufferViews":[{"buffer":0,"byteOffset":0,"byteLength":136},{"buffer":0,"byteOffset":136,"byteLength":544},{"buffer":0,"byteOffset":680,"byteLength":144},{"buffer":0,"byteOffset":824,"byteLength":432},{"buffer":0,"byteOffset":1256,"byteLength":4},{"buffer":0,"byteOffset":1260,"byteLength":16},{"buffer":0,"byteOffset":1276,"byteLength":4},{"buffer":0,"byteOffset":1280,"byteLength":12},{"buffer":0,"byteOffset":1292,"byteLength":4},{"buffer":0,"byteOffset":1296,"byteLength":12},{"buffer":0,"byteOffset":1308,"byteLength":128},{"buffer":0,"byteOffset":1436,"byteLength":512},{"buffer":0,"byteOffset":1948,"byteLength":120},{"buffer":0,"byteOffset":2068,"byteLength":360},{"buffer":0,"byteOffset":2428,"byteLength":4},{"buffer":0,"byteOffset":2432,"byteLength":12},{"buffer":0,"byteOffset":2444,"byteLength":88},{"buffer":0,"byteOffset":2532,"byteLength":352},{"buffer":0,"byteOffset":2884,"byteLength":88},{"buffer":0,"byteOffset":2972,"byteLength":264}],"buffers":[{"byteLength":3236,"uri":"data:application/octet-stream;base64,"}],"accessors":[{"bufferView":0,"componentType":5126,"count":34,"max":[2.5999999046325684],"min":[0],"type":"SCALAR"},{"bufferView":1,"componentType":5126,"count":34,"max":[0.16941899061203003,0.08331301063299179,0.015707317739725113,1],"min":[0,0,-0.45129409432411194,0.8754416108131409],"type":"VEC4"},{"bufferView":2,"componentType":5126,"count":36,"max":[2.549999952316284],"min":[0],"type":"SCALAR"},{"bufferView":3,"componentType":5126,"count":36,"max":[0.5508649945259094,0.4375,0.9859374761581421],"min":[0.4871875047683716,0.3656249940395355,0.8450000286102295],"type":"VEC3"},{"bufferView":4,"componentType":5126,"count":1,"max":[0],"min":[0],"type":"SCALAR"},{"bufferView":5,"componentType":5126,"count":1,"max":[-4.6036909045206166e-17,-0.751839816570282,0.659345805644989,4.037328610911684e-17],"min":[-4.6036909045206166e-17,-0.751839816570282,0.659345805644989,4.037328610911684e-17],"type":"VEC4"},{"bufferView":6,"componentType":5126,"count":1,"max":[0],"min":[0],"type":"SCALAR"},{"bufferView":7,"componentType":5126,"count":1,"max":[0.012500000186264515,-0.0625,-0.0625],"min":[0.012500000186264515,-0.0625,-0.0625],"type":"VEC3"},{"bufferView":8,"componentType":5126,"count":1,"max":[0],"min":[0],"type":"SCALAR"},{"bufferView":9,"componentType":5126,"count":1,"max":[1,1.5,1],"min":[1,1.5,1],"type":"VEC3"},{"bufferView":10,"componentType":5126,"count":32,"max":[2.25],"min":[0],"type":"SCALAR"},{"bufferView":11,"componentType":5126,"count":32,"max":[0.11746177822351456,-0.6055794358253479,0.5818673968315125,0.5461235046386719],"min":[-0.4221715033054352,-0.9209117293357849,0.30252304673194885,-0.5017583966255188],"type":"VEC4"},{"bufferView":12,"componentType":5126,"count":30,"max":[2.25],"min":[0],"type":"SCALAR"},{"bufferView":13,"componentType":5126,"count":30,"max":[-0.08749999850988388,0.10625000298023224,-0.30610790848731995],"min":[-0.3766912519931793,-1.4349063634872437,-0.675000011920929],"type":"VEC3"},{"bufferView":14,"componentType":5126,"count":1,"max":[0],"min":[0],"type":"SCALAR"},{"bufferView":15,"componentType":5126,"count":1,"max":[1,1.5,1],"min":[1,1.5,1],"type":"VEC3"},{"bufferView":16,"componentType":5126,"count":22,"max":[1.9500000476837158],"min":[0],"type":"SCALAR"},{"bufferView":17,"componentType":5126,"count":22,"max":[0.08715574443340302,0.0017500517424196005,0.0043941340409219265,1],"min":[-0.13099883496761322,-0.08434630930423737,-0.7621482014656067,0.6303819417953491],"type":"VEC4"},{"bufferView":18,"componentType":5126,"count":22,"max":[1.9500000476837158],"min":[0],"type":"SCALAR"},{"bufferView":19,"componentType":5126,"count":22,"max":[0.0023175000678747892,-0.09586437791585922,-0.28292953968048096],"min":[-0.3203886151313782,-1.5465452671051025,-0.4889099895954132],"type":"VEC3"}]}