{"asset":{"version":"2.0","generator":"Blockbench 4.6.5 glTF exporter"},"scenes":[{"nodes":[9],"name":"blockbench_export"}],"scene":0,"nodes":[{"translation":[0,-0.095864375,-0.43891],"name":"magazine"},{"translation":[-0.0004224999999999923,0.305705,-0.71875],"name":"bolthandle"},{"name":"mp5","children":[0,1]},{"translation":[0.375,-0.6875,0],"name":"RightHand"},{"translation":[-0.375,0.75,-0.4375],"name":"R","children":[3]},{"name":"bone3","children":[2,4]},{"translation":[-0.375,-0.6875,0],"name":"LeftHand"},{"translation":[0.375,0.75,-0.4375],"name":"l","children":[6]},{"translation":[0.5,0.4375,0.9375],"name":"bone2","children":[5,7]},{"children":[8]}],"animations":[{"name":"reload_empty","samplers":[{"input":0,"output":1,"interpolation":"LINEAR"},{"input":2,"output":3,"interpolation":"LINEAR"},{"input":4,"output":5,"interpolation":"LINEAR"},{"input":6,"output":7,"interpolation":"LINEAR"},{"input":8,"output":9,"interpolation":"LINEAR"},{"input":10,"output":11,"interpolation":"LINEAR"},{"input":12,"output":13,"interpolation":"LINEAR"},{"input":14,"output":15,"interpolation":"LINEAR"},{"input":16,"output":17,"interpolation":"LINEAR"},{"input":18,"output":19,"interpolation":"LINEAR"},{"input":20,"output":21,"interpolation":"LINEAR"},{"input":22,"output":23,"interpolation":"LINEAR"}],"channels":[{"sampler":0,"target":{"node":4,"path":"rotation"}},{"sampler":1,"target":{"node":4,"path":"translation"}},{"sampler":2,"target":{"node":4,"path":"scale"}},{"sampler":3,"target":{"node":7,"path":"rotation"}},{"sampler":4,"target":{"node":7,"path":"translation"}},{"sampler":5,"target":{"node":7,"path":"scale"}},{"sampler":6,"target":{"node":8,"path":"rotation"}},{"sampler":7,"target":{"node":8,"path":"translation"}},{"sampler":8,"target":{"node":1,"path":"rotation"}},{"sampler":9,"target":{"node":1,"path":"translation"}},{"sampler":10,"target":{"node":0,"path":"rotation"}},{"sampler":11,"target":{"node":0,"path":"translation"}}]}],"bufferViews":[{"buffer":0,"byteOffset":0,"byteLength":4},{"buffer":0,"byteOffset":4,"byteLength":16},{"buffer":0,"byteOffset":20,"byteLength":4},{"buffer":0,"byteOffset":24,"byteLength":12},{"buffer":0,"byteOffset":36,"byteLength":4},{"buffer":0,"byteOffset":40,"byteLength":12},{"buffer":0,"byteOffset":52,"byteLength":140},{"buffer":0,"byteOffset":192,"byteLength":560},{"buffer":0,"byteOffset":752,"byteLength":144},{"buffer":0,"byteOffset":896,"byteLength":432},{"buffer":0,"byteOffset":1328,"byteLength":4},{"buffer":0,"byteOffset":1332,"byteLength":12},{"buffer":0,"byteOffset":1344,"byteLength":176},{"buffer":0,"byteOffset":1520,"byteLength":704},{"buffer":0,"byteOffset":2224,"byteLength":188},{"buffer":0,"byteOffset":2412,"byteLength":564},{"buffer":0,"byteOffset":2976,"byteLength":16},{"buffer":0,"byteOffset":2992,"byteLength":64},{"buffer":0,"byteOffset":3056,"byteLength":20},{"buffer":0,"byteOffset":3076,"byteLength":60},{"buffer":0,"byteOffset":3136,"byteLength":76},{"buffer":0,"byteOffset":3212,"byteLength":304},{"buffer":0,"byteOffset":3516,"byteLength":84},{"buffer":0,"byteOffset":3600,"byteLength":252}],"buffers":[{"byteLength":3852,"uri":"data:application/octet-stream;base64,"}],"accessors":[{"bufferView":0,"componentType":5126,"count":1,"max":[0],"min":[0],"type":"SCALAR"},{"bufferView":1,"componentType":5126,"count":1,"max":[-4.6036909045206166e-17,-0.751839816570282,0.659345805644989,4.037328610911684e-17],"min":[-4.6036909045206166e-17,-0.751839816570282,0.659345805644989,4.037328610911684e-17],"type":"VEC4"},{"bufferView":2,"componentType":5126,"count":1,"max":[0],"min":[0],"type":"SCALAR"},{"bufferView":3,"componentType":5126,"count":1,"max":[0.012500000186264515,-0.0625,-0.0625],"min":[0.012500000186264515,-0.0625,-0.0625],"type":"VEC3"},{"bufferView":4,"componentType":5126,"count":1,"max":[0],"min":[0],"type":"SCALAR"},{"bufferView":5,"componentType":5126,"count":1,"max":[1,1.5,1],"min":[1,1.5,1],"type":"VEC3"},{"bufferView":6,"componentType":5126,"count":35,"max":[2.9000000953674316],"min":[0],"type":"SCALAR"},{"bufferView":7,"componentType":5126,"count":35,"max":[0.14694859087467194,-0.4695007801055908,0.6914816498756409,0.5780737400054932],"min":[-0.499666303396225,-0.8721500039100647,-0.04952668026089668,-0.567176878452301],"type":"VEC4"},{"bufferView":8,"componentType":5126,"count":36,"max":[2.9000000953674316],"min":[0],"type":"SCALAR"},{"bufferView":9,"componentType":5126,"count":36,"max":[-0.07833375036716461,0.48677125573158264,0.37594857811927795],"min":[-0.5916374921798706,-1.1644467115402222,-1.0214024782180786],"type":"VEC3"},{"bufferView":10,"componentType":5126,"count":1,"max":[0],"min":[0],"type":"SCALAR"},{"bufferView":11,"componentType":5126,"count":1,"max":[1,1.5,1],"min":[1,1.5,1],"type":"VEC3"},{"bufferView":12,"componentType":5126,"count":44,"max":[3.299999952316284],"min":[0],"type":"SCALAR"},{"bufferView":13,"componentType":5126,"count":44,"max":[0.22982804477214813,0.06833267211914062,0.11495676636695862,1],"min":[-0.0148262158036232,-0.000559022359084338,-0.40316087007522583,0.8873273730278015],"type":"VEC4"},{"bufferView":14,"componentType":5126,"count":47,"max":[3.25],"min":[0],"type":"SCALAR"},{"bufferView":15,"componentType":5126,"count":47,"max":[0.6193749904632568,0.4712600111961365,1.0425000190734863],"min":[0.45609813928604126,0.26625001430511475,0.8399999737739563],"type":"VEC3"},{"bufferView":16,"componentType":5126,"count":4,"max":[2.6500000953674316],"min":[0.25],"type":"SCALAR"},{"bufferView":17,"componentType":5126,"count":4,"max":[0,0,0,1],"min":[0,0,-0.3214394748210907,0.9469301104545593],"type":"VEC4"},{"bufferView":18,"componentType":5126,"count":5,"max":[2.6500000953674316],"min":[0.15000000596046448],"type":"SCALAR"},{"bufferView":19,"componentType":5126,"count":5,"max":[-0.00042249998659826815,0.3057050108909607,-0.53125],"min":[-0.00042249998659826815,0.2994549870491028,-0.71875],"type":"VEC3"},{"bufferView":20,"componentType":5126,"count":19,"max":[2.049999952316284],"min":[0],"type":"SCALAR"},{"bufferView":21,"componentType":5126,"count":19,"max":[0.11320321261882782,0.07302109897136688,0,1],"min":[-0.1670149564743042,-0.10844641178846359,-0.9881811141967773,-0.8279842734336853],"type":"VEC4"},{"bufferView":22,"componentType":5126,"count":21,"max":[2.049999952316284],"min":[0],"type":"SCALAR"},{"bufferView":23,"componentType":5126,"count":21,"max":[0,-0.09586437791585922,0.10411959141492844],"min":[-0.9603654742240906,-1.826524257659912,-0.5014100074768066],"type":"VEC3"}]}