{"asset":{"version":"2.0","generator":"Blockbench 4.7.4 glTF exporter"},"scenes":[{"nodes":[15],"name":"blockbench_export"}],"scene":0,"nodes":[{"translation":[0.013580000000000036,0.29839687499999995,0.01685000000000003],"name":"bolt_fix"},{"translation":[0,0,-0.25],"name":"kar98_bolt_rotate"},{"translation":[0,0.1375,-0.0625],"name":"kar98_bolt_fixed","children":[0,1]},{"translation":[0,0.10625000000000001,-0.275],"name":"kar98_bullet2"},{"translation":[-0.012786874999999975,-0.02583562500000003,0.051094375000000136],"name":"clip"},{"translation":[0,0,0.07499999999999996],"name":"792x3"},{"translation":[0.375,-0.6875,0],"name":"RightHand"},{"translation":[-0.375,0.45625000000000004,-1.25625],"name":"R","children":[6]},{"translation":[0.0007587499999999747,0.03652999999999995,0.0062712500000001725],"name":"kar98_bullet3","children":[5,7]},{"translation":[-0.01354562499999995,0.0001343750000000199,-0.06142687499999999],"name":"bullets","children":[8]},{"translation":[0.012786874999999975,0.382085625,0.6864056249999999],"name":"kar98_clip","children":[4,9]},{"name":"kar98","children":[2,3,10]},{"translation":[-0.375,-0.6875,0],"name":"LeftHand"},{"translation":[0.375,0.875,-0.625],"name":"l","children":[12]},{"translation":[0.5,0.3125,1.125],"name":"bone","children":[11,13]},{"children":[14]}],"animations":[{"name":"draw_baked","samplers":[{"input":0,"output":1,"interpolation":"LINEAR"},{"input":2,"output":3,"interpolation":"LINEAR"},{"input":4,"output":5,"interpolation":"LINEAR"},{"input":6,"output":7,"interpolation":"LINEAR"},{"input":8,"output":9,"interpolation":"LINEAR"},{"input":10,"output":11,"interpolation":"LINEAR"},{"input":12,"output":13,"interpolation":"LINEAR"},{"input":14,"output":15,"interpolation":"LINEAR"}],"channels":[{"sampler":0,"target":{"node":7,"path":"rotation"}},{"sampler":1,"target":{"node":7,"path":"translation"}},{"sampler":2,"target":{"node":7,"path":"scale"}},{"sampler":3,"target":{"node":13,"path":"rotation"}},{"sampler":4,"target":{"node":13,"path":"translation"}},{"sampler":5,"target":{"node":13,"path":"scale"}},{"sampler":6,"target":{"node":14,"path":"rotation"}},{"sampler":7,"target":{"node":14,"path":"translation"}}]}],"bufferViews":[{"buffer":0,"byteOffset":0,"byteLength":32},{"buffer":0,"byteOffset":32,"byteLength":128},{"buffer":0,"byteOffset":160,"byteLength":32},{"buffer":0,"byteOffset":192,"byteLength":96},{"buffer":0,"byteOffset":288,"byteLength":4},{"buffer":0,"byteOffset":292,"byteLength":12},{"buffer":0,"byteOffset":304,"byteLength":8},{"buffer":0,"byteOffset":312,"byteLength":32},{"buffer":0,"byteOffset":344,"byteLength":8},{"buffer":0,"byteOffset":352,"byteLength":24},{"buffer":0,"byteOffset":376,"byteLength":4},{"buffer":0,"byteOffset":380,"byteLength":12},{"buffer":0,"byteOffset":392,"byteLength":188},{"buffer":0,"byteOffset":580,"byteLength":752},{"buffer":0,"byteOffset":1332,"byteLength":84},{"buffer":0,"byteOffset":1416,"byteLength":252}],"buffers":[{"byteLength":1668,"uri":"data:application/octet-stream;base64,"}],"accessors":[{"bufferView":0,"componentType":5126,"count":8,"max":[0.8999999761581421],"min":[0.550000011920929],"type":"SCALAR"},{"bufferView":1,"componentType":5126,"count":8,"max":[0.10181640833616257,-0.5806423425674438,0.7365922927856445,0.41296860575675964],"min":[-0.186646968126297,-0.6700451970100403,0.6239591836929321,0.08158934861421585],"type":"VEC4"},{"bufferView":2,"componentType":5126,"count":8,"max":[0.8999999761581421],"min":[0.550000011920929],"type":"SCALAR"},{"bufferView":3,"componentType":5126,"count":8,"max":[0.18562500178813934,-0.3687500059604645,-0.5],"min":[0.05312500149011612,-0.5299999713897705,-1.556249976158142],"type":"VEC3"},{"bufferView":4,"componentType":5126,"count":1,"max":[0],"min":[0],"type":"SCALAR"},{"bufferView":5,"componentType":5126,"count":1,"max":[1,1.5,1],"min":[1,1.5,1],"type":"VEC3"},{"bufferView":6,"componentType":5126,"count":2,"max":[0.5],"min":[0.15000000596046448],"type":"SCALAR"},{"bufferView":7,"componentType":5126,"count":2,"max":[0.16966883838176727,-0.6217049360275269,0.6245244741439819,-0.45287764072418213],"min":[-0.13547702133655548,-0.6487648487091064,0.4973546266555786,-0.5504134893417358],"type":"VEC4"},{"bufferView":8,"componentType":5126,"count":2,"max":[0.5],"min":[0.15000000596046448],"type":"SCALAR"},{"bufferView":9,"componentType":5126,"count":2,"max":[-0.0625,-0.03750000149011612,-0.8125],"min":[-0.5601187348365784,-0.3735100030899048,-1.0010368824005127],"type":"VEC3"},{"bufferView":10,"componentType":5126,"count":1,"max":[0],"min":[0],"type":"SCALAR"},{"bufferView":11,"componentType":5126,"count":1,"max":[1,1.5,1],"min":[1,1.5,1],"type":"VEC3"},{"bufferView":12,"componentType":5126,"count":47,"max":[1.100000023841858],"min":[0],"type":"SCALAR"},{"bufferView":13,"componentType":5126,"count":47,"max":[0.002362346276640892,0.05179417133331299,0.007175982464104891,1],"min":[-0.32590174674987793,-0.025472331792116165,-0.09405766427516937,0.9403682351112366],"type":"VEC4"},{"bufferView":14,"componentType":5126,"count":21,"max":[1.0499999523162842],"min":[0.05000000074505806],"type":"SCALAR"},{"bufferView":15,"componentType":5126,"count":21,"max":[0.9412500262260437,0.44999998807907104,2.0425000190734863],"min":[0.49937498569488525,0.30250000953674316,1.084375023841858],"type":"VEC3"}]}