{"asset":{"version":"2.0","generator":"Blockbench 4.7.4 glTF exporter"},"scenes":[{"nodes":[15],"name":"blockbench_export"}],"scene":0,"nodes":[{"translation":[0.013580000000000036,0.29839687499999995,0.01685000000000003],"name":"bolt_fix"},{"translation":[0,0,-0.25],"name":"kar98_bolt_rotate"},{"translation":[0,0.1375,-0.0625],"name":"kar98_bolt_fixed","children":[0,1]},{"translation":[0,0.10625000000000001,-0.275],"name":"kar98_bullet2"},{"translation":[-0.012786874999999975,-0.02583562500000003,0.051094375000000136],"name":"clip"},{"translation":[0,0,0.07499999999999996],"name":"792x3"},{"translation":[0.375,-0.6875,0],"name":"RightHand"},{"translation":[-0.375,0.45625000000000004,-1.25625],"name":"R","children":[6]},{"translation":[0.0007587499999999747,0.03652999999999995,0.0062712500000001725],"name":"kar98_bullet3","children":[5,7]},{"translation":[-0.01354562499999995,0.0001343750000000199,-0.06142687499999999],"name":"bullets","children":[8]},{"translation":[0.012786874999999975,0.382085625,0.6864056249999999],"name":"kar98_clip","children":[4,9]},{"name":"kar98","children":[2,3,10]},{"translation":[-0.375,-0.6875,0],"name":"LeftHand"},{"translation":[0.375,0.875,-0.625],"name":"l","children":[12]},{"translation":[0.5,0.3125,1.125],"name":"bone","children":[11,13]},{"children":[14]}],"animations":[{"name":"reload_norm_end_baked","samplers":[{"input":0,"output":1,"interpolation":"LINEAR"},{"input":2,"output":3,"interpolation":"LINEAR"},{"input":4,"output":5,"interpolation":"LINEAR"},{"input":6,"output":7,"interpolation":"LINEAR"},{"input":8,"output":9,"interpolation":"LINEAR"},{"input":10,"output":11,"interpolation":"LINEAR"},{"input":12,"output":13,"interpolation":"LINEAR"},{"input":14,"output":15,"interpolation":"LINEAR"},{"input":16,"output":17,"interpolation":"LINEAR"},{"input":18,"output":19,"interpolation":"LINEAR"},{"input":20,"output":21,"interpolation":"LINEAR"},{"input":22,"output":23,"interpolation":"LINEAR"},{"input":24,"output":25,"interpolation":"LINEAR"},{"input":26,"output":27,"interpolation":"LINEAR"},{"input":28,"output":29,"interpolation":"LINEAR"},{"input":30,"output":31,"interpolation":"LINEAR"},{"input":32,"output":33,"interpolation":"LINEAR"}],"channels":[{"sampler":0,"target":{"node":7,"path":"rotation"}},{"sampler":1,"target":{"node":7,"path":"translation"}},{"sampler":2,"target":{"node":7,"path":"scale"}},{"sampler":3,"target":{"node":13,"path":"rotation"}},{"sampler":4,"target":{"node":13,"path":"translation"}},{"sampler":5,"target":{"node":13,"path":"scale"}},{"sampler":6,"target":{"node":2,"path":"rotation"}},{"sampler":7,"target":{"node":2,"path":"translation"}},{"sampler":8,"target":{"node":1,"path":"rotation"}},{"sampler":9,"target":{"node":1,"path":"translation"}},{"sampler":10,"target":{"node":3,"path":"rotation"}},{"sampler":11,"target":{"node":3,"path":"translation"}},{"sampler":12,"target":{"node":8,"path":"rotation"}},{"sampler":13,"target":{"node":8,"path":"translation"}},{"sampler":14,"target":{"node":14,"path":"rotation"}},{"sampler":15,"target":{"node":14,"path":"translation"}},{"sampler":16,"target":{"node":5,"path":"translation"}}]}],"bufferViews":[{"buffer":0,"byteOffset":0,"byteLength":44},{"buffer":0,"byteOffset":44,"byteLength":176},{"buffer":0,"byteOffset":220,"byteLength":48},{"buffer":0,"byteOffset":268,"byteLength":144},{"buffer":0,"byteOffset":412,"byteLength":4},{"buffer":0,"byteOffset":416,"byteLength":12},{"buffer":0,"byteOffset":428,"byteLength":32},{"buffer":0,"byteOffset":460,"byteLength":128},{"buffer":0,"byteOffset":588,"byteLength":24},{"buffer":0,"byteOffset":612,"byteLength":72},{"buffer":0,"byteOffset":684,"byteLength":4},{"buffer":0,"byteOffset":688,"byteLength":12},{"buffer":0,"byteOffset":700,"byteLength":4},{"buffer":0,"byteOffset":704,"byteLength":16},{"buffer":0,"byteOffset":720,"byteLength":12},{"buffer":0,"byteOffset":732,"byteLength":36},{"buffer":0,"byteOffset":768,"byteLength":12},{"buffer":0,"byteOffset":780,"byteLength":48},{"buffer":0,"byteOffset":828,"byteLength":4},{"buffer":0,"byteOffset":832,"byteLength":12},{"buffer":0,"byteOffset":844,"byteLength":4},{"buffer":0,"byteOffset":848,"byteLength":16},{"buffer":0,"byteOffset":864,"byteLength":4},{"buffer":0,"byteOffset":868,"byteLength":12},{"buffer":0,"byteOffset":880,"byteLength":24},{"buffer":0,"byteOffset":904,"byteLength":96},{"buffer":0,"byteOffset":1000,"byteLength":24},{"buffer":0,"byteOffset":1024,"byteLength":72},{"buffer":0,"byteOffset":1096,"byteLength":96},{"buffer":0,"byteOffset":1192,"byteLength":384},{"buffer":0,"byteOffset":1576,"byteLength":96},{"buffer":0,"byteOffset":1672,"byteLength":288},{"buffer":0,"byteOffset":1960,"byteLength":8},{"buffer":0,"byteOffset":1968,"byteLength":24}],"buffers":[{"byteLength":1992,"uri":"data:application/octet-stream;base64,"}],"accessors":[{"bufferView":0,"componentType":5126,"count":11,"max":[0.699999988079071],"min":[0],"type":"SCALAR"},{"bufferView":1,"componentType":5126,"count":11,"max":[0.35507386922836304,-0.6700451970100403,0.7307640314102173,0.08158934861421585],"min":[0.10181640833616257,-0.7811882495880127,0.05169790983200073,-0.6470478773117065],"type":"VEC4"},{"bufferView":2,"componentType":5126,"count":12,"max":[0.699999988079071],"min":[0],"type":"SCALAR"},{"bufferView":3,"componentType":5126,"count":12,"max":[0.1912499964237213,-0.012500000186264515,0.02500000037252903],"min":[0.05312500149011612,-0.668749988079071,-0.7099999785423279],"type":"VEC3"},{"bufferView":4,"componentType":5126,"count":1,"max":[0],"min":[0],"type":"SCALAR"},{"bufferView":5,"componentType":5126,"count":1,"max":[1,1.5,1],"min":[1,1.5,1],"type":"VEC3"},{"bufferView":6,"componentType":5126,"count":8,"max":[1.0499999523162842],"min":[0],"type":"SCALAR"},{"bufferView":7,"componentType":5126,"count":8,"max":[0.2589675188064575,-0.3013850450515747,0.4973844885826111,-0.5395637154579163],"min":[0.14418070018291473,-0.6596003174781799,0.31462353467941284,-0.8884729146957397],"type":"VEC4"},{"bufferView":8,"componentType":5126,"count":6,"max":[0.949999988079071],"min":[0],"type":"SCALAR"},{"bufferView":9,"componentType":5126,"count":6,"max":[0.012500000186264515,-0.03750000149011612,-0.44999998807907104],"min":[-0.0625,-0.06875000149011612,-0.8125],"type":"VEC3"},{"bufferView":10,"componentType":5126,"count":1,"max":[0],"min":[0],"type":"SCALAR"},{"bufferView":11,"componentType":5126,"count":1,"max":[1,1.5,1],"min":[1,1.5,1],"type":"VEC3"},{"bufferView":12,"componentType":5126,"count":1,"max":[0],"min":[0],"type":"SCALAR"},{"bufferView":13,"componentType":5126,"count":1,"max":[0,0,0,1],"min":[0,0,0,1],"type":"VEC4"},{"bufferView":14,"componentType":5126,"count":3,"max":[0.44999998807907104],"min":[0],"type":"SCALAR"},{"bufferView":15,"componentType":5126,"count":3,"max":[0,0.13750000298023224,0.1796875],"min":[0,0.13750000298023224,-0.0625],"type":"VEC3"},{"bufferView":16,"componentType":5126,"count":3,"max":[0.6000000238418579],"min":[0],"type":"SCALAR"},{"bufferView":17,"componentType":5126,"count":3,"max":[0,0,0.7071067690849304,1],"min":[0,0,0,0.7071067690849304],"type":"VEC4"},{"bufferView":18,"componentType":5126,"count":1,"max":[0],"min":[0],"type":"SCALAR"},{"bufferView":19,"componentType":5126,"count":1,"max":[0,0,-0.25],"min":[0,0,-0.25],"type":"VEC3"},{"bufferView":20,"componentType":5126,"count":1,"max":[0],"min":[0],"type":"SCALAR"},{"bufferView":21,"componentType":5126,"count":1,"max":[0,0,0,1],"min":[0,0,0,1],"type":"VEC4"},{"bufferView":22,"componentType":5126,"count":1,"max":[0],"min":[0],"type":"SCALAR"},{"bufferView":23,"componentType":5126,"count":1,"max":[0,0.10625000298023224,-0.2750000059604645],"min":[0,0.10625000298023224,-0.2750000059604645],"type":"VEC3"},{"bufferView":24,"componentType":5126,"count":6,"max":[0.25],"min":[0],"type":"SCALAR"},{"bufferView":25,"componentType":5126,"count":6,"max":[0,0.022566501051187515,0.1379893720149994,1],"min":[-0.18391354382038116,-0.038491278886795044,-0.21608377993106842,0.9590498805046082],"type":"VEC4"},{"bufferView":26,"componentType":5126,"count":6,"max":[0.25],"min":[0],"type":"SCALAR"},{"bufferView":27,"componentType":5126,"count":6,"max":[0.15325875580310822,0.03652999922633171,0.006271250080317259],"min":[0.0007587500149384141,-0.7534700036048889,-0.8168537616729736],"type":"VEC3"},{"bufferView":28,"componentType":5126,"count":24,"max":[1.149999976158142],"min":[0],"type":"SCALAR"},{"bufferView":29,"componentType":5126,"count":24,"max":[0.05907835438847542,0.04361715912818909,0.05991613119840622,1],"min":[-0.00017453276086598635,0,-0.058496832847595215,0.9955829381942749],"type":"VEC4"},{"bufferView":30,"componentType":5126,"count":24,"max":[1.149999976158142],"min":[0],"type":"SCALAR"},{"bufferView":31,"componentType":5126,"count":24,"max":[0.5712500214576721,0.31312501430511475,1.1281249523162842],"min":[0.49937498569488525,0.21250000596046448,1.034999966621399],"type":"VEC3"},{"bufferView":32,"componentType":5126,"count":2,"max":[0.75],"min":[0.6499999761581421],"type":"SCALAR"},{"bufferView":33,"componentType":5126,"count":2,"max":[0.14374999701976776,0,0.07500000298023224],"min":[0,0,0.07500000298023224],"type":"VEC3"}]}