{"asset":{"version":"2.0","generator":"Blockbench 4.7.4 glTF exporter"},"scenes":[{"nodes":[15],"name":"blockbench_export"}],"scene":0,"nodes":[{"translation":[0.013580000000000036,0.29839687499999995,0.01685000000000003],"name":"bolt_fix"},{"translation":[0,0,-0.25],"name":"kar98_bolt_rotate"},{"translation":[0,0.1375,-0.0625],"name":"kar98_bolt_fixed","children":[0,1]},{"translation":[0,0.10625000000000001,-0.275],"name":"kar98_bullet2"},{"translation":[-0.012786874999999975,-0.02583562500000003,0.051094375000000136],"name":"clip"},{"translation":[0,0,0.07499999999999996],"name":"792x3"},{"translation":[0.375,-0.6875,0],"name":"RightHand"},{"translation":[-0.375,0.45625000000000004,-1.25625],"name":"R","children":[6]},{"translation":[0.0007587499999999747,0.03652999999999995,0.0062712500000001725],"name":"kar98_bullet3","children":[5,7]},{"translation":[-0.01354562499999995,0.0001343750000000199,-0.06142687499999999],"name":"bullets","children":[8]},{"translation":[0.012786874999999975,0.382085625,0.6864056249999999],"name":"kar98_clip","children":[4,9]},{"name":"kar98","children":[2,3,10]},{"translation":[-0.375,-0.6875,0],"name":"LeftHand"},{"translation":[0.375,0.875,-0.625],"name":"l","children":[12]},{"translation":[0.5,0.3125,1.125],"name":"bone","children":[11,13]},{"children":[14]}],"animations":[{"name":"static","samplers":[{"input":0,"output":1,"interpolation":"LINEAR"},{"input":2,"output":3,"interpolation":"LINEAR"},{"input":4,"output":5,"interpolation":"LINEAR"},{"input":6,"output":7,"interpolation":"LINEAR"},{"input":8,"output":9,"interpolation":"LINEAR"},{"input":10,"output":11,"interpolation":"LINEAR"}],"channels":[{"sampler":0,"target":{"node":7,"path":"rotation"}},{"sampler":1,"target":{"node":7,"path":"translation"}},{"sampler":2,"target":{"node":7,"path":"scale"}},{"sampler":3,"target":{"node":13,"path":"rotation"}},{"sampler":4,"target":{"node":13,"path":"translation"}},{"sampler":5,"target":{"node":13,"path":"scale"}}]}],"bufferViews":[{"buffer":0,"byteOffset":0,"byteLength":4},{"buffer":0,"byteOffset":4,"byteLength":16},{"buffer":0,"byteOffset":20,"byteLength":4},{"buffer":0,"byteOffset":24,"byteLength":12},{"buffer":0,"byteOffset":36,"byteLength":4},{"buffer":0,"byteOffset":40,"byteLength":12},{"buffer":0,"byteOffset":52,"byteLength":4},{"buffer":0,"byteOffset":56,"byteLength":16},{"buffer":0,"byteOffset":72,"byteLength":4},{"buffer":0,"byteOffset":76,"byteLength":12},{"buffer":0,"byteOffset":88,"byteLength":4},{"buffer":0,"byteOffset":92,"byteLength":12}],"buffers":[{"byteLength":104,"uri":"data:application/octet-stream;base64,"}],"accessors":[{"bufferView":0,"componentType":5126,"count":1,"max":[0],"min":[0],"type":"SCALAR"},{"bufferView":1,"componentType":5126,"count":1,"max":[0.1018051728606224,-0.6700454354286194,0.7307606935501099,0.0816311463713646],"min":[0.1018051728606224,-0.6700454354286194,0.7307606935501099,0.0816311463713646],"type":"VEC4"},{"bufferView":2,"componentType":5126,"count":1,"max":[0],"min":[0],"type":"SCALAR"},{"bufferView":3,"componentType":5126,"count":1,"max":[0.05312500149011612,-0.48124998807907104,-0.5687500238418579],"min":[0.05312500149011612,-0.48124998807907104,-0.5687500238418579],"type":"VEC3"},{"bufferView":4,"componentType":5126,"count":1,"max":[0],"min":[0],"type":"SCALAR"},{"bufferView":5,"componentType":5126,"count":1,"max":[1,1.5,1],"min":[1,1.5,1],"type":"VEC3"},{"bufferView":6,"componentType":5126,"count":1,"max":[0],"min":[0],"type":"SCALAR"},{"bufferView":7,"componentType":5126,"count":1,"max":[0.16966883838176727,-0.6487648487091064,0.4973546266555786,-0.5504134893417358],"min":[0.16966883838176727,-0.6487648487091064,0.4973546266555786,-0.5504134893417358],"type":"VEC4"},{"bufferView":8,"componentType":5126,"count":1,"max":[0],"min":[0],"type":"SCALAR"},{"bufferView":9,"componentType":5126,"count":1,"max":[-0.0625,-0.03750000149011612,-0.8125],"min":[-0.0625,-0.03750000149011612,-0.8125],"type":"VEC3"},{"bufferView":10,"componentType":5126,"count":1,"max":[0],"min":[0],"type":"SCALAR"},{"bufferView":11,"componentType":5126,"count":1,"max":[1,1.5,1],"min":[1,1.5,1],"type":"VEC3"}]}