{"asset":{"version":"2.0","generator":"Blockbench 4.7.4 glTF exporter"},"scenes":[{"nodes":[15],"name":"blockbench_export"}],"scene":0,"nodes":[{"translation":[0.013580000000000036,0.29839687499999995,0.01685000000000003],"name":"bolt_fix"},{"translation":[0,0,-0.25],"name":"kar98_bolt_rotate"},{"translation":[0,0.1375,-0.0625],"name":"kar98_bolt_fixed","children":[0,1]},{"translation":[0,0.10625000000000001,-0.275],"name":"kar98_bullet2"},{"translation":[-0.012786874999999975,-0.02583562500000003,0.051094375000000136],"name":"clip"},{"translation":[0,0,0.07499999999999996],"name":"792x3"},{"translation":[0.375,-0.6875,0],"name":"RightHand"},{"translation":[-0.375,0.45625000000000004,-1.25625],"name":"R","children":[6]},{"translation":[0.0007587499999999747,0.03652999999999995,0.0062712500000001725],"name":"kar98_bullet3","children":[5,7]},{"translation":[-0.01354562499999995,0.0001343750000000199,-0.06142687499999999],"name":"bullets","children":[8]},{"translation":[0.012786874999999975,0.382085625,0.6864056249999999],"name":"kar98_clip","children":[4,9]},{"name":"kar98","children":[2,3,10]},{"translation":[-0.375,-0.6875,0],"name":"LeftHand"},{"translation":[0.375,0.875,-0.625],"name":"l","children":[12]},{"translation":[0.5,0.3125,1.125],"name":"bone","children":[11,13]},{"children":[14]}],"animations":[{"name":"reload_norm_start_baked","samplers":[{"input":0,"output":1,"interpolation":"LINEAR"},{"input":2,"output":3,"interpolation":"LINEAR"},{"input":4,"output":5,"interpolation":"LINEAR"},{"input":6,"output":7,"interpolation":"LINEAR"},{"input":8,"output":9,"interpolation":"LINEAR"},{"input":10,"output":11,"interpolation":"LINEAR"},{"input":12,"output":13,"interpolation":"LINEAR"},{"input":14,"output":15,"interpolation":"LINEAR"},{"input":16,"output":17,"interpolation":"LINEAR"},{"input":18,"output":19,"interpolation":"LINEAR"},{"input":20,"output":21,"interpolation":"LINEAR"},{"input":22,"output":23,"interpolation":"LINEAR"},{"input":24,"output":25,"interpolation":"LINEAR"},{"input":26,"output":27,"interpolation":"LINEAR"},{"input":28,"output":29,"interpolation":"LINEAR"},{"input":30,"output":31,"interpolation":"LINEAR"},{"input":32,"output":33,"interpolation":"LINEAR"}],"channels":[{"sampler":0,"target":{"node":7,"path":"rotation"}},{"sampler":1,"target":{"node":7,"path":"translation"}},{"sampler":2,"target":{"node":7,"path":"scale"}},{"sampler":3,"target":{"node":13,"path":"rotation"}},{"sampler":4,"target":{"node":13,"path":"translation"}},{"sampler":5,"target":{"node":13,"path":"scale"}},{"sampler":6,"target":{"node":2,"path":"rotation"}},{"sampler":7,"target":{"node":2,"path":"translation"}},{"sampler":8,"target":{"node":1,"path":"rotation"}},{"sampler":9,"target":{"node":1,"path":"translation"}},{"sampler":10,"target":{"node":3,"path":"rotation"}},{"sampler":11,"target":{"node":3,"path":"translation"}},{"sampler":12,"target":{"node":8,"path":"rotation"}},{"sampler":13,"target":{"node":8,"path":"translation"}},{"sampler":14,"target":{"node":14,"path":"rotation"}},{"sampler":15,"target":{"node":14,"path":"translation"}},{"sampler":16,"target":{"node":5,"path":"translation"}}]}],"bufferViews":[{"buffer":0,"byteOffset":0,"byteLength":40},{"buffer":0,"byteOffset":40,"byteLength":160},{"buffer":0,"byteOffset":200,"byteLength":40},{"buffer":0,"byteOffset":240,"byteLength":120},{"buffer":0,"byteOffset":360,"byteLength":4},{"buffer":0,"byteOffset":364,"byteLength":12},{"buffer":0,"byteOffset":376,"byteLength":28},{"buffer":0,"byteOffset":404,"byteLength":112},{"buffer":0,"byteOffset":516,"byteLength":28},{"buffer":0,"byteOffset":544,"byteLength":84},{"buffer":0,"byteOffset":628,"byteLength":4},{"buffer":0,"byteOffset":632,"byteLength":12},{"buffer":0,"byteOffset":644,"byteLength":4},{"buffer":0,"byteOffset":648,"byteLength":16},{"buffer":0,"byteOffset":664,"byteLength":12},{"buffer":0,"byteOffset":676,"byteLength":36},{"buffer":0,"byteOffset":712,"byteLength":12},{"buffer":0,"byteOffset":724,"byteLength":48},{"buffer":0,"byteOffset":772,"byteLength":4},{"buffer":0,"byteOffset":776,"byteLength":12},{"buffer":0,"byteOffset":788,"byteLength":4},{"buffer":0,"byteOffset":792,"byteLength":16},{"buffer":0,"byteOffset":808,"byteLength":4},{"buffer":0,"byteOffset":812,"byteLength":12},{"buffer":0,"byteOffset":824,"byteLength":20},{"buffer":0,"byteOffset":844,"byteLength":80},{"buffer":0,"byteOffset":924,"byteLength":20},{"buffer":0,"byteOffset":944,"byteLength":60},{"buffer":0,"byteOffset":1004,"byteLength":88},{"buffer":0,"byteOffset":1092,"byteLength":352},{"buffer":0,"byteOffset":1444,"byteLength":88},{"buffer":0,"byteOffset":1532,"byteLength":264},{"buffer":0,"byteOffset":1796,"byteLength":8},{"buffer":0,"byteOffset":1804,"byteLength":24}],"buffers":[{"byteLength":1828,"uri":"data:application/octet-stream;base64,"}],"accessors":[{"bufferView":0,"componentType":5126,"count":10,"max":[1.0499999523162842],"min":[0],"type":"SCALAR"},{"bufferView":1,"componentType":5126,"count":10,"max":[0.3414355218410492,-0.6672497987747192,0.7307640314102173,0.5150895118713379],"min":[-0.20369166135787964,-0.9540092349052429,0.2269318550825119,-0.03413883224129677],"type":"VEC4"},{"bufferView":2,"componentType":5126,"count":10,"max":[1.0499999523162842],"min":[0],"type":"SCALAR"},{"bufferView":3,"componentType":5126,"count":10,"max":[0.21562500298023224,-0.012500000186264515,0.02500000037252903],"min":[0.05312500149011612,-0.800000011920929,-0.75],"type":"VEC3"},{"bufferView":4,"componentType":5126,"count":1,"max":[0],"min":[0],"type":"SCALAR"},{"bufferView":5,"componentType":5126,"count":1,"max":[1,1.5,1],"min":[1,1.5,1],"type":"VEC3"},{"bufferView":6,"componentType":5126,"count":7,"max":[1.0499999523162842],"min":[0],"type":"SCALAR"},{"bufferView":7,"componentType":5126,"count":7,"max":[0.16966883838176727,-0.12822116911411285,0.4973546266555786,-0.5504134893417358],"min":[0.12576566636562347,-0.6487648487091064,0.2571941614151001,-0.9485828876495361],"type":"VEC4"},{"bufferView":8,"componentType":5126,"count":7,"max":[1.0499999523162842],"min":[0],"type":"SCALAR"},{"bufferView":9,"componentType":5126,"count":7,"max":[0.03750000149011612,0,-0.4312500059604645],"min":[-0.0625,-0.06062500178813934,-0.8125],"type":"VEC3"},{"bufferView":10,"componentType":5126,"count":1,"max":[0],"min":[0],"type":"SCALAR"},{"bufferView":11,"componentType":5126,"count":1,"max":[1,1.5,1],"min":[1,1.5,1],"type":"VEC3"},{"bufferView":12,"componentType":5126,"count":1,"max":[1.0499999523162842],"min":[1.0499999523162842],"type":"SCALAR"},{"bufferView":13,"componentType":5126,"count":1,"max":[0,0,0,1],"min":[0,0,0,1],"type":"VEC4"},{"bufferView":14,"componentType":5126,"count":3,"max":[1.0499999523162842],"min":[0.5],"type":"SCALAR"},{"bufferView":15,"componentType":5126,"count":3,"max":[0,0.13750000298023224,0.1796875],"min":[0,0.13750000298023224,-0.0625],"type":"VEC3"},{"bufferView":16,"componentType":5126,"count":3,"max":[1.0499999523162842],"min":[0.3499999940395355],"type":"SCALAR"},{"bufferView":17,"componentType":5126,"count":3,"max":[0,0,0.7071067690849304,1],"min":[0,0,0,0.7071067690849304],"type":"VEC4"},{"bufferView":18,"componentType":5126,"count":1,"max":[1.0499999523162842],"min":[1.0499999523162842],"type":"SCALAR"},{"bufferView":19,"componentType":5126,"count":1,"max":[0,0,-0.25],"min":[0,0,-0.25],"type":"VEC3"},{"bufferView":20,"componentType":5126,"count":1,"max":[1.0499999523162842],"min":[1.0499999523162842],"type":"SCALAR"},{"bufferView":21,"componentType":5126,"count":1,"max":[0,0,0,1],"min":[0,0,0,1],"type":"VEC4"},{"bufferView":22,"componentType":5126,"count":1,"max":[1.0499999523162842],"min":[1.0499999523162842],"type":"SCALAR"},{"bufferView":23,"componentType":5126,"count":1,"max":[0,0.10625000298023224,-0.2750000059604645],"min":[0,0.10625000298023224,-0.2750000059604645],"type":"VEC3"},{"bufferView":24,"componentType":5126,"count":5,"max":[1.0499999523162842],"min":[0.8500000238418579],"type":"SCALAR"},{"bufferView":25,"componentType":5126,"count":5,"max":[0,0.022566501051187515,0,1],"min":[-0.18171921372413635,-0.21110619604587555,-0.3387211263179779,0.9172723293304443],"type":"VEC4"},{"bufferView":26,"componentType":5126,"count":5,"max":[1.0499999523162842],"min":[0.8500000238418579],"type":"SCALAR"},{"bufferView":27,"componentType":5126,"count":5,"max":[0.4257587492465973,0.03652999922633171,0.006271250080317259],"min":[0.0007587500149384141,-1.0009700059890747,-0.8168537616729736],"type":"VEC3"},{"bufferView":28,"componentType":5126,"count":22,"max":[1.0499999523162842],"min":[0],"type":"SCALAR"},{"bufferView":29,"componentType":5126,"count":22,"max":[0.05756450816988945,0.04324872046709061,0.04576260969042778,1],"min":[-0.00018391330377198756,0,-0.05249260365962982,0.9960222840309143],"type":"VEC4"},{"bufferView":30,"componentType":5126,"count":22,"max":[1.0499999523162842],"min":[0],"type":"SCALAR"},{"bufferView":31,"componentType":5126,"count":22,"max":[0.574999988079071,0.3125,1.1362500190734863],"min":[0.5,0.22875000536441803,1.0887500047683716],"type":"VEC3"},{"bufferView":32,"componentType":5126,"count":2,"max":[0.949999988079071],"min":[0.8500000238418579],"type":"SCALAR"},{"bufferView":33,"componentType":5126,"count":2,"max":[0.14374999701976776,0,0.07500000298023224],"min":[0,0,0.07500000298023224],"type":"VEC3"}]}