{"asset":{"version":"2.0","generator":"Blockbench 4.7.4 glTF exporter"},"scenes":[{"nodes":[15],"name":"blockbench_export"}],"scene":0,"nodes":[{"translation":[0.013580000000000036,0.29839687499999995,0.01685000000000003],"name":"bolt_fix"},{"translation":[0,0,-0.25],"name":"kar98_bolt_rotate"},{"translation":[0,0.1375,-0.0625],"name":"kar98_bolt_fixed","children":[0,1]},{"translation":[0,0.10625000000000001,-0.275],"name":"kar98_bullet2"},{"translation":[-0.012786874999999975,-0.02583562500000003,0.051094375000000136],"name":"clip"},{"translation":[0,0,0.07499999999999996],"name":"792x3"},{"translation":[0.375,-0.6875,0],"name":"RightHand"},{"translation":[-0.375,0.45625000000000004,-1.25625],"name":"R","children":[6]},{"translation":[0.0007587499999999747,0.03652999999999995,0.0062712500000001725],"name":"kar98_bullet3","children":[5,7]},{"translation":[-0.01354562499999995,0.0001343750000000199,-0.06142687499999999],"name":"bullets","children":[8]},{"translation":[0.012786874999999975,0.382085625,0.6864056249999999],"name":"kar98_clip","children":[4,9]},{"name":"kar98","children":[2,3,10]},{"translation":[-0.375,-0.6875,0],"name":"LeftHand"},{"translation":[0.375,0.875,-0.625],"name":"l","children":[12]},{"translation":[0.5,0.3125,1.125],"name":"bone","children":[11,13]},{"children":[14]}],"animations":[{"name":"reload_norm_loop_baked","samplers":[{"input":0,"output":1,"interpolation":"LINEAR"},{"input":2,"output":3,"interpolation":"LINEAR"},{"input":4,"output":5,"interpolation":"LINEAR"},{"input":6,"output":7,"interpolation":"LINEAR"},{"input":8,"output":9,"interpolation":"LINEAR"},{"input":10,"output":11,"interpolation":"LINEAR"},{"input":12,"output":13,"interpolation":"LINEAR"},{"input":14,"output":15,"interpolation":"LINEAR"},{"input":16,"output":17,"interpolation":"LINEAR"},{"input":18,"output":19,"interpolation":"LINEAR"},{"input":20,"output":21,"interpolation":"LINEAR"},{"input":22,"output":23,"interpolation":"LINEAR"},{"input":24,"output":25,"interpolation":"LINEAR"},{"input":26,"output":27,"interpolation":"LINEAR"},{"input":28,"output":29,"interpolation":"LINEAR"},{"input":30,"output":31,"interpolation":"LINEAR"},{"input":32,"output":33,"interpolation":"LINEAR"}],"channels":[{"sampler":0,"target":{"node":7,"path":"rotation"}},{"sampler":1,"target":{"node":7,"path":"translation"}},{"sampler":2,"target":{"node":7,"path":"scale"}},{"sampler":3,"target":{"node":13,"path":"rotation"}},{"sampler":4,"target":{"node":13,"path":"translation"}},{"sampler":5,"target":{"node":13,"path":"scale"}},{"sampler":6,"target":{"node":2,"path":"rotation"}},{"sampler":7,"target":{"node":2,"path":"translation"}},{"sampler":8,"target":{"node":1,"path":"rotation"}},{"sampler":9,"target":{"node":1,"path":"translation"}},{"sampler":10,"target":{"node":3,"path":"rotation"}},{"sampler":11,"target":{"node":3,"path":"translation"}},{"sampler":12,"target":{"node":8,"path":"rotation"}},{"sampler":13,"target":{"node":8,"path":"translation"}},{"sampler":14,"target":{"node":14,"path":"rotation"}},{"sampler":15,"target":{"node":14,"path":"translation"}},{"sampler":16,"target":{"node":5,"path":"translation"}}]}],"bufferViews":[{"buffer":0,"byteOffset":0,"byteLength":12},{"buffer":0,"byteOffset":12,"byteLength":48},{"buffer":0,"byteOffset":60,"byteLength":12},{"buffer":0,"byteOffset":72,"byteLength":36},{"buffer":0,"byteOffset":108,"byteLength":4},{"buffer":0,"byteOffset":112,"byteLength":12},{"buffer":0,"byteOffset":124,"byteLength":4},{"buffer":0,"byteOffset":128,"byteLength":16},{"buffer":0,"byteOffset":144,"byteLength":4},{"buffer":0,"byteOffset":148,"byteLength":12},{"buffer":0,"byteOffset":160,"byteLength":4},{"buffer":0,"byteOffset":164,"byteLength":12},{"buffer":0,"byteOffset":176,"byteLength":4},{"buffer":0,"byteOffset":180,"byteLength":16},{"buffer":0,"byteOffset":196,"byteLength":4},{"buffer":0,"byteOffset":200,"byteLength":12},{"buffer":0,"byteOffset":212,"byteLength":4},{"buffer":0,"byteOffset":216,"byteLength":16},{"buffer":0,"byteOffset":232,"byteLength":4},{"buffer":0,"byteOffset":236,"byteLength":12},{"buffer":0,"byteOffset":248,"byteLength":4},{"buffer":0,"byteOffset":252,"byteLength":16},{"buffer":0,"byteOffset":268,"byteLength":16},{"buffer":0,"byteOffset":284,"byteLength":48},{"buffer":0,"byteOffset":332,"byteLength":44},{"buffer":0,"byteOffset":376,"byteLength":176},{"buffer":0,"byteOffset":552,"byteLength":44},{"buffer":0,"byteOffset":596,"byteLength":132},{"buffer":0,"byteOffset":728,"byteLength":44},{"buffer":0,"byteOffset":772,"byteLength":176},{"buffer":0,"byteOffset":948,"byteLength":44},{"buffer":0,"byteOffset":992,"byteLength":132},{"buffer":0,"byteOffset":1124,"byteLength":16},{"buffer":0,"byteOffset":1140,"byteLength":48}],"buffers":[{"byteLength":1188,"uri":"data:application/octet-stream;base64,"}],"accessors":[{"bufferView":0,"componentType":5126,"count":3,"max":[0.25],"min":[0],"type":"SCALAR"},{"bufferView":1,"componentType":5126,"count":3,"max":[0.3414355218410492,-0.7811598181724548,0.5215812921524048,-0.034118372946977615],"min":[0.3414075970649719,-0.7811882495880127,0.5215556621551514,-0.03413883224129677],"type":"VEC4"},{"bufferView":2,"componentType":5126,"count":3,"max":[0.25],"min":[0],"type":"SCALAR"},{"bufferView":3,"componentType":5126,"count":3,"max":[0.140625,-0.012500000186264515,0.02500000037252903],"min":[0.140625,-0.012500000186264515,0.02500000037252903],"type":"VEC3"},{"bufferView":4,"componentType":5126,"count":1,"max":[0],"min":[0],"type":"SCALAR"},{"bufferView":5,"componentType":5126,"count":1,"max":[1,1.5,1],"min":[1,1.5,1],"type":"VEC3"},{"bufferView":6,"componentType":5126,"count":1,"max":[0],"min":[0],"type":"SCALAR"},{"bufferView":7,"componentType":5126,"count":1,"max":[0.14418070018291473,-0.30139169096946716,0.31462806463241577,-0.8884729146957397],"min":[0.14418070018291473,-0.30139169096946716,0.31462806463241577,-0.8884729146957397],"type":"VEC4"},{"bufferView":8,"componentType":5126,"count":1,"max":[0],"min":[0],"type":"SCALAR"},{"bufferView":9,"componentType":5126,"count":1,"max":[0.012500000186264515,-0.06875000149011612,-0.44999998807907104],"min":[0.012500000186264515,-0.06875000149011612,-0.44999998807907104],"type":"VEC3"},{"bufferView":10,"componentType":5126,"count":1,"max":[0],"min":[0],"type":"SCALAR"},{"bufferView":11,"componentType":5126,"count":1,"max":[1,1.5,1],"min":[1,1.5,1],"type":"VEC3"},{"bufferView":12,"componentType":5126,"count":1,"max":[0],"min":[0],"type":"SCALAR"},{"bufferView":13,"componentType":5126,"count":1,"max":[0,0,0,1],"min":[0,0,0,1],"type":"VEC4"},{"bufferView":14,"componentType":5126,"count":1,"max":[0],"min":[0],"type":"SCALAR"},{"bufferView":15,"componentType":5126,"count":1,"max":[0,0.13750000298023224,0.17937499284744263],"min":[0,0.13750000298023224,0.17937499284744263],"type":"VEC3"},{"bufferView":16,"componentType":5126,"count":1,"max":[0],"min":[0],"type":"SCALAR"},{"bufferView":17,"componentType":5126,"count":1,"max":[0,0,0.7071067690849304,0.7071067690849304],"min":[0,0,0.7071067690849304,0.7071067690849304],"type":"VEC4"},{"bufferView":18,"componentType":5126,"count":1,"max":[0],"min":[0],"type":"SCALAR"},{"bufferView":19,"componentType":5126,"count":1,"max":[0,0,-0.25],"min":[0,0,-0.25],"type":"VEC3"},{"bufferView":20,"componentType":5126,"count":1,"max":[0],"min":[0],"type":"SCALAR"},{"bufferView":21,"componentType":5126,"count":1,"max":[0,0,0,1],"min":[0,0,0,1],"type":"VEC4"},{"bufferView":22,"componentType":5126,"count":4,"max":[0.4000000059604645],"min":[0],"type":"SCALAR"},{"bufferView":23,"componentType":5126,"count":4,"max":[0,0.10625000298023224,-0.2750000059604645],"min":[0,0.04374999925494194,-0.2750000059604645],"type":"VEC3"},{"bufferView":24,"componentType":5126,"count":11,"max":[0.5],"min":[0],"type":"SCALAR"},{"bufferView":25,"componentType":5126,"count":11,"max":[0.1131473109126091,0.1186969056725502,0,1],"min":[-0.18171921372413635,-0.0017059161327779293,-0.22602176666259766,0.9590498805046082],"type":"VEC4"},{"bufferView":26,"componentType":5126,"count":11,"max":[0.5],"min":[0],"type":"SCALAR"},{"bufferView":27,"componentType":5126,"count":11,"max":[0.15325875580310822,-0.17096999287605286,-0.8168537616729736],"min":[0.0007587500149384141,-0.3028450012207031,-0.9374787211418152],"type":"VEC3"},{"bufferView":28,"componentType":5126,"count":11,"max":[0.5],"min":[0],"type":"SCALAR"},{"bufferView":29,"componentType":5126,"count":11,"max":[0.07309549301862717,0.044702354818582535,-0.05294785648584366,0.9958621263504028],"min":[0.05900666490197182,0.04328247904777527,-0.06672324240207672,0.9942896962165833],"type":"VEC4"},{"bufferView":30,"componentType":5126,"count":11,"max":[0.5],"min":[0],"type":"SCALAR"},{"bufferView":31,"componentType":5126,"count":11,"max":[0.5718749761581421,0.2331250011920929,1.087499976158142],"min":[0.5631250143051147,0.21937499940395355,1.0831249952316284],"type":"VEC3"},{"bufferView":32,"componentType":5126,"count":4,"max":[0.44999998807907104],"min":[0],"type":"SCALAR"},{"bufferView":33,"componentType":5126,"count":4,"max":[0.14374999701976776,0,0.07500000298023224],"min":[0,0,0.07500000298023224],"type":"VEC3"}]}