{"asset":{"version":"2.0","generator":"Blockbench 4.7.4 glTF exporter"},"scenes":[{"nodes":[15],"name":"blockbench_export"}],"scene":0,"nodes":[{"translation":[0.013580000000000036,0.29839687499999995,0.01685000000000003],"name":"bolt_fix"},{"translation":[0,0,-0.25],"name":"kar98_bolt_rotate"},{"translation":[0,0.1375,-0.0625],"name":"kar98_bolt_fixed","children":[0,1]},{"translation":[0,0.10625000000000001,-0.275],"name":"kar98_bullet2"},{"translation":[-0.012786874999999975,-0.02583562500000003,0.051094375000000136],"name":"clip"},{"translation":[0,0,0.07499999999999996],"name":"792x3"},{"translation":[0.375,-0.6875,0],"name":"RightHand"},{"translation":[-0.375,0.45625000000000004,-1.25625],"name":"R","children":[6]},{"translation":[0.0007587499999999747,0.03652999999999995,0.0062712500000001725],"name":"kar98_bullet3","children":[5,7]},{"translation":[-0.01354562499999995,0.0001343750000000199,-0.06142687499999999],"name":"bullets","children":[8]},{"translation":[0.012786874999999975,0.382085625,0.6864056249999999],"name":"kar98_clip","children":[4,9]},{"name":"kar98","children":[2,3,10]},{"translation":[-0.375,-0.6875,0],"name":"LeftHand"},{"translation":[0.375,0.875,-0.625],"name":"l","children":[12]},{"translation":[0.5,0.3125,1.125],"name":"bone","children":[11,13]},{"children":[14]}],"animations":[{"name":"bolt_on_baked","samplers":[{"input":0,"output":1,"interpolation":"LINEAR"},{"input":2,"output":3,"interpolation":"LINEAR"},{"input":4,"output":5,"interpolation":"LINEAR"},{"input":6,"output":7,"interpolation":"LINEAR"},{"input":8,"output":9,"interpolation":"LINEAR"},{"input":10,"output":11,"interpolation":"LINEAR"},{"input":12,"output":13,"interpolation":"LINEAR"},{"input":14,"output":15,"interpolation":"LINEAR"},{"input":16,"output":17,"interpolation":"LINEAR"},{"input":18,"output":19,"interpolation":"LINEAR"},{"input":20,"output":21,"interpolation":"LINEAR"},{"input":22,"output":23,"interpolation":"LINEAR"}],"channels":[{"sampler":0,"target":{"node":7,"path":"rotation"}},{"sampler":1,"target":{"node":7,"path":"translation"}},{"sampler":2,"target":{"node":7,"path":"scale"}},{"sampler":3,"target":{"node":13,"path":"rotation"}},{"sampler":4,"target":{"node":13,"path":"translation"}},{"sampler":5,"target":{"node":13,"path":"scale"}},{"sampler":6,"target":{"node":14,"path":"rotation"}},{"sampler":7,"target":{"node":14,"path":"translation"}},{"sampler":8,"target":{"node":2,"path":"translation"}},{"sampler":9,"target":{"node":1,"path":"rotation"}},{"sampler":10,"target":{"node":3,"path":"rotation"}},{"sampler":11,"target":{"node":3,"path":"translation"}}]}],"bufferViews":[{"buffer":0,"byteOffset":0,"byteLength":40},{"buffer":0,"byteOffset":40,"byteLength":160},{"buffer":0,"byteOffset":200,"byteLength":44},{"buffer":0,"byteOffset":244,"byteLength":132},{"buffer":0,"byteOffset":376,"byteLength":4},{"buffer":0,"byteOffset":380,"byteLength":12},{"buffer":0,"byteOffset":392,"byteLength":4},{"buffer":0,"byteOffset":396,"byteLength":16},{"buffer":0,"byteOffset":412,"byteLength":4},{"buffer":0,"byteOffset":416,"byteLength":12},{"buffer":0,"byteOffset":428,"byteLength":4},{"buffer":0,"byteOffset":432,"byteLength":12},{"buffer":0,"byteOffset":444,"byteLength":72},{"buffer":0,"byteOffset":516,"byteLength":288},{"buffer":0,"byteOffset":804,"byteLength":64},{"buffer":0,"byteOffset":868,"byteLength":192},{"buffer":0,"byteOffset":1060,"byteLength":16},{"buffer":0,"byteOffset":1076,"byteLength":48},{"buffer":0,"byteOffset":1124,"byteLength":16},{"buffer":0,"byteOffset":1140,"byteLength":64},{"buffer":0,"byteOffset":1204,"byteLength":112},{"buffer":0,"byteOffset":1316,"byteLength":448},{"buffer":0,"byteOffset":1764,"byteLength":40},{"buffer":0,"byteOffset":1804,"byteLength":120}],"buffers":[{"byteLength":1924,"uri":"data:application/octet-stream;base64,"}],"accessors":[{"bufferView":0,"componentType":5126,"count":10,"max":[1.25],"min":[0],"type":"SCALAR"},{"bufferView":1,"componentType":5126,"count":10,"max":[0.10181640833616257,-0.6585328578948975,0.7307640314102173,0.6156480312347412],"min":[-0.2562069296836853,-0.7808479070663452,0.3488123118877411,0.08158934861421585],"type":"VEC4"},{"bufferView":2,"componentType":5126,"count":11,"max":[1.25],"min":[0],"type":"SCALAR"},{"bufferView":3,"componentType":5126,"count":11,"max":[0.22812500596046448,-0.1875,-0.46875],"min":[0.05312500149011612,-0.5718749761581421,-0.762499988079071],"type":"VEC3"},{"bufferView":4,"componentType":5126,"count":1,"max":[0],"min":[0],"type":"SCALAR"},{"bufferView":5,"componentType":5126,"count":1,"max":[1,1.5,1],"min":[1,1.5,1],"type":"VEC3"},{"bufferView":6,"componentType":5126,"count":1,"max":[0],"min":[0],"type":"SCALAR"},{"bufferView":7,"componentType":5126,"count":1,"max":[0.16966883838176727,-0.6487648487091064,0.4973546266555786,-0.5504134893417358],"min":[0.16966883838176727,-0.6487648487091064,0.4973546266555786,-0.5504134893417358],"type":"VEC4"},{"bufferView":8,"componentType":5126,"count":1,"max":[0],"min":[0],"type":"SCALAR"},{"bufferView":9,"componentType":5126,"count":1,"max":[-0.0625,-0.03750000149011612,-0.8125],"min":[-0.0625,-0.03750000149011612,-0.8125],"type":"VEC3"},{"bufferView":10,"componentType":5126,"count":1,"max":[0],"min":[0],"type":"SCALAR"},{"bufferView":11,"componentType":5126,"count":1,"max":[1,1.5,1],"min":[1,1.5,1],"type":"VEC3"},{"bufferView":12,"componentType":5126,"count":18,"max":[1.2999999523162842],"min":[0.3499999940395355],"type":"SCALAR"},{"bufferView":13,"componentType":5126,"count":18,"max":[0.03136768192052841,0.0017013046890497208,0.06799539923667908,1],"min":[-0.008726452477276325,-0.00003807657412835397,0,0.9971909523010254],"type":"VEC4"},{"bufferView":14,"componentType":5126,"count":16,"max":[1.2999999523162842],"min":[0.3499999940395355],"type":"SCALAR"},{"bufferView":15,"componentType":5126,"count":16,"max":[0.5,0.3187499940395355,1.162500023841858],"min":[0.5,0.27437499165534973,1.125],"type":"VEC3"},{"bufferView":16,"componentType":5126,"count":4,"max":[0.949999988079071],"min":[0.6000000238418579],"type":"SCALAR"},{"bufferView":17,"componentType":5126,"count":4,"max":[0,0.13750000298023224,0.18125000596046448],"min":[0,0.13750000298023224,-0.0625],"type":"VEC3"},{"bufferView":18,"componentType":5126,"count":4,"max":[1.100000023841858],"min":[0.5],"type":"SCALAR"},{"bufferView":19,"componentType":5126,"count":4,"max":[0,0,0.7071067690849304,1],"min":[0,0,0,0.7071067690849304],"type":"VEC4"},{"bufferView":20,"componentType":5126,"count":28,"max":[1.2000000476837158],"min":[0.30000001192092896],"type":"SCALAR"},{"bufferView":21,"componentType":5126,"count":28,"max":[0.9391589760780334,0.6046347618103027,0.4953416585922241,1],"min":[-0.596372663974762,-0.8244134783744812,-0.5905984044075012,-0.7863273620605469],"type":"VEC4"},{"bufferView":22,"componentType":5126,"count":10,"max":[1.100000023841858],"min":[0.6499999761581421],"type":"SCALAR"},{"bufferView":23,"componentType":5126,"count":10,"max":[2.075000047683716,0.23375000059604645,-0.2606250047683716],"min":[0,-1.0487500429153442,-0.2750000059604645],"type":"VEC3"}]}