{"asset":{"version":"2.0","generator":"Blockbench 4.7.4 glTF exporter"},"scenes":[{"nodes":[15],"name":"blockbench_export"}],"scene":0,"nodes":[{"translation":[0.013580000000000036,0.29839687499999995,0.01685000000000003],"name":"bolt_fix"},{"translation":[0,0,-0.25],"name":"kar98_bolt_rotate"},{"translation":[0,0.1375,-0.0625],"name":"kar98_bolt_fixed","children":[0,1]},{"translation":[0,0.10625000000000001,-0.275],"name":"kar98_bullet2"},{"translation":[-0.012786874999999975,-0.02583562500000003,0.051094375000000136],"name":"clip"},{"translation":[0,0,0.07499999999999996],"name":"792x3"},{"translation":[0.375,-0.6875,0],"name":"RightHand"},{"translation":[-0.375,0.45625000000000004,-1.25625],"name":"R","children":[6]},{"translation":[0.0007587499999999747,0.03652999999999995,0.0062712500000001725],"name":"kar98_bullet3","children":[5,7]},{"translation":[-0.01354562499999995,0.0001343750000000199,-0.06142687499999999],"name":"bullets","children":[8]},{"translation":[0.012786874999999975,0.382085625,0.6864056249999999],"name":"kar98_clip","children":[4,9]},{"name":"kar98","children":[2,3,10]},{"translation":[-0.375,-0.6875,0],"name":"LeftHand"},{"translation":[0.375,0.875,-0.625],"name":"l","children":[12]},{"translation":[0.5,0.3125,1.125],"name":"bone","children":[11,13]},{"children":[14]}],"animations":[{"name":"reload_empty_baked","samplers":[{"input":0,"output":1,"interpolation":"LINEAR"},{"input":2,"output":3,"interpolation":"LINEAR"},{"input":4,"output":5,"interpolation":"LINEAR"},{"input":6,"output":7,"interpolation":"LINEAR"},{"input":8,"output":9,"interpolation":"LINEAR"},{"input":10,"output":11,"interpolation":"LINEAR"},{"input":12,"output":13,"interpolation":"LINEAR"},{"input":14,"output":15,"interpolation":"LINEAR"},{"input":16,"output":17,"interpolation":"LINEAR"},{"input":18,"output":19,"interpolation":"LINEAR"},{"input":20,"output":21,"interpolation":"LINEAR"},{"input":22,"output":23,"interpolation":"LINEAR"},{"input":24,"output":25,"interpolation":"LINEAR"},{"input":26,"output":27,"interpolation":"LINEAR"},{"input":28,"output":29,"interpolation":"LINEAR"},{"input":30,"output":31,"interpolation":"LINEAR"},{"input":32,"output":33,"interpolation":"LINEAR"},{"input":34,"output":35,"interpolation":"LINEAR"},{"input":36,"output":37,"interpolation":"LINEAR"}],"channels":[{"sampler":0,"target":{"node":7,"path":"rotation"}},{"sampler":1,"target":{"node":7,"path":"translation"}},{"sampler":2,"target":{"node":7,"path":"scale"}},{"sampler":3,"target":{"node":13,"path":"rotation"}},{"sampler":4,"target":{"node":13,"path":"translation"}},{"sampler":5,"target":{"node":13,"path":"scale"}},{"sampler":6,"target":{"node":14,"path":"rotation"}},{"sampler":7,"target":{"node":14,"path":"translation"}},{"sampler":8,"target":{"node":2,"path":"translation"}},{"sampler":9,"target":{"node":1,"path":"rotation"}},{"sampler":10,"target":{"node":3,"path":"translation"}},{"sampler":11,"target":{"node":10,"path":"rotation"}},{"sampler":12,"target":{"node":10,"path":"translation"}},{"sampler":13,"target":{"node":4,"path":"rotation"}},{"sampler":14,"target":{"node":4,"path":"translation"}},{"sampler":15,"target":{"node":4,"path":"scale"}},{"sampler":16,"target":{"node":9,"path":"rotation"}},{"sampler":17,"target":{"node":9,"path":"translation"}},{"sampler":18,"target":{"node":8,"path":"translation"}}]}],"bufferViews":[{"buffer":0,"byteOffset":0,"byteLength":144},{"buffer":0,"byteOffset":144,"byteLength":576},{"buffer":0,"byteOffset":720,"byteLength":164},{"buffer":0,"byteOffset":884,"byteLength":492},{"buffer":0,"byteOffset":1376,"byteLength":4},{"buffer":0,"byteOffset":1380,"byteLength":12},{"buffer":0,"byteOffset":1392,"byteLength":32},{"buffer":0,"byteOffset":1424,"byteLength":128},{"buffer":0,"byteOffset":1552,"byteLength":4},{"buffer":0,"byteOffset":1556,"byteLength":12},{"buffer":0,"byteOffset":1568,"byteLength":4},{"buffer":0,"byteOffset":1572,"byteLength":12},{"buffer":0,"byteOffset":1584,"byteLength":260},{"buffer":0,"byteOffset":1844,"byteLength":1040},{"buffer":0,"byteOffset":2884,"byteLength":260},{"buffer":0,"byteOffset":3144,"byteLength":780},{"buffer":0,"byteOffset":3924,"byteLength":16},{"buffer":0,"byteOffset":3940,"byteLength":48},{"buffer":0,"byteOffset":3988,"byteLength":16},{"buffer":0,"byteOffset":4004,"byteLength":64},{"buffer":0,"byteOffset":4068,"byteLength":8},{"buffer":0,"byteOffset":4076,"byteLength":24},{"buffer":0,"byteOffset":4100,"byteLength":60},{"buffer":0,"byteOffset":4160,"byteLength":240},{"buffer":0,"byteOffset":4400,"byteLength":56},{"buffer":0,"byteOffset":4456,"byteLength":168},{"buffer":0,"byteOffset":4624,"byteLength":32},{"buffer":0,"byteOffset":4656,"byteLength":128},{"buffer":0,"byteOffset":4784,"byteLength":48},{"buffer":0,"byteOffset":4832,"byteLength":144},{"buffer":0,"byteOffset":4976,"byteLength":8},{"buffer":0,"byteOffset":4984,"byteLength":24},{"buffer":0,"byteOffset":5008,"byteLength":4},{"buffer":0,"byteOffset":5012,"byteLength":16},{"buffer":0,"byteOffset":5028,"byteLength":8},{"buffer":0,"byteOffset":5036,"byteLength":24},{"buffer":0,"byteOffset":5060,"byteLength":16},{"buffer":0,"byteOffset":5076,"byteLength":48}],"buffers":[{"byteLength":5124,"uri":"data:application/octet-stream;base64,"}],"accessors":[{"bufferView":0,"componentType":5126,"count":36,"max":[2.9000000953674316],"min":[0],"type":"SCALAR"},{"bufferView":1,"componentType":5126,"count":36,"max":[0.3485805094242096,-0.5066466331481934,0.8340551853179932,0.30568185448646545],"min":[0.029749508947134018,-0.9243865609169006,0.15044091641902924,-0.6498855352401733],"type":"VEC4"},{"bufferView":2,"componentType":5126,"count":41,"max":[2.9000000953674316],"min":[0],"type":"SCALAR"},{"bufferView":3,"componentType":5126,"count":41,"max":[0.28062498569488525,0.08829062432050705,0.5531250238418579],"min":[0.05312500149011612,-0.5093749761581421,-0.768750011920929],"type":"VEC3"},{"bufferView":4,"componentType":5126,"count":1,"max":[0],"min":[0],"type":"SCALAR"},{"bufferView":5,"componentType":5126,"count":1,"max":[1,1.5,1],"min":[1,1.5,1],"type":"VEC3"},{"bufferView":6,"componentType":5126,"count":8,"max":[2.700000047683716],"min":[0],"type":"SCALAR"},{"bufferView":7,"componentType":5126,"count":8,"max":[0.20521633327007294,-0.6399860382080078,0.5086013674736023,-0.5324723124504089],"min":[0.16003695130348206,-0.6676225662231445,0.4675329625606537,-0.5688281059265137],"type":"VEC4"},{"bufferView":8,"componentType":5126,"count":1,"max":[0],"min":[0],"type":"SCALAR"},{"bufferView":9,"componentType":5126,"count":1,"max":[-0.0625,-0.03750000149011612,-0.8125],"min":[-0.0625,-0.03750000149011612,-0.8125],"type":"VEC3"},{"bufferView":10,"componentType":5126,"count":1,"max":[0],"min":[0],"type":"SCALAR"},{"bufferView":11,"componentType":5126,"count":1,"max":[1,1.5,1],"min":[1,1.5,1],"type":"VEC3"},{"bufferView":12,"componentType":5126,"count":65,"max":[3.200000047683716],"min":[0],"type":"SCALAR"},{"bufferView":13,"componentType":5126,"count":65,"max":[0.029282595962285995,0.03299877047538757,0.042161859571933746,1],"min":[-0.028756704181432724,-0.016620362177491188,-0.06593143939971924,0.9971861839294434],"type":"VEC4"},{"bufferView":14,"componentType":5126,"count":65,"max":[3.200000047683716],"min":[0],"type":"SCALAR"},{"bufferView":15,"componentType":5126,"count":65,"max":[0.5543749928474426,0.32124999165534973,1.1556249856948853],"min":[0.5,0.23250000178813934,1.109375],"type":"VEC3"},{"bufferView":16,"componentType":5126,"count":4,"max":[2.5],"min":[0.30000001192092896],"type":"SCALAR"},{"bufferView":17,"componentType":5126,"count":4,"max":[0,0.13750000298023224,0.18125000596046448],"min":[0,0.13750000298023224,-0.0625],"type":"VEC3"},{"bufferView":18,"componentType":5126,"count":4,"max":[2.5999999046325684],"min":[0.15000000596046448],"type":"SCALAR"},{"bufferView":19,"componentType":5126,"count":4,"max":[0,0,0.7071067690849304,1],"min":[0,0,0,0.7071067690849304],"type":"VEC4"},{"bufferView":20,"componentType":5126,"count":2,"max":[0.05000000074505806],"min":[0],"type":"SCALAR"},{"bufferView":21,"componentType":5126,"count":2,"max":[0,0.10625000298023224,-0.2750000059604645],"min":[0,0.04374999925494194,-0.2750000059604645],"type":"VEC3"},{"bufferView":22,"componentType":5126,"count":15,"max":[1.399999976158142],"min":[0.6499999761581421],"type":"SCALAR"},{"bufferView":23,"componentType":5126,"count":15,"max":[0.06206675246357918,0.16327282786369324,0,1],"min":[-0.11638765782117844,0,-0.2796225845813751,0.9441660046577454],"type":"VEC4"},{"bufferView":24,"componentType":5126,"count":14,"max":[1.399999976158142],"min":[0.6499999761581421],"type":"SCALAR"},{"bufferView":25,"componentType":5126,"count":14,"max":[0.4284118711948395,0.3820856213569641,0.686405599117279],"min":[0.012786874547600746,-0.5497893691062927,-0.2660943865776062],"type":"VEC3"},{"bufferView":26,"componentType":5126,"count":8,"max":[2.950000047683716],"min":[2.4000000953674316],"type":"SCALAR"},{"bufferView":27,"componentType":5126,"count":8,"max":[0.8424727916717529,0.01797439344227314,0,1],"min":[-0.7631117701530457,-0.6896872520446777,-0.712541937828064,-0.6289554834365845],"type":"VEC4"},{"bufferView":28,"componentType":5126,"count":12,"max":[2.950000047683716],"min":[2.4000000953674316],"type":"SCALAR"},{"bufferView":29,"componentType":5126,"count":12,"max":[0.18596312403678894,0.011664374731481075,0.05109437555074692],"min":[-0.012786874547600746,-0.997710645198822,-0.4526556134223938],"type":"VEC3"},{"bufferView":30,"componentType":5126,"count":2,"max":[2.950000047683716],"min":[2.9000000953674316],"type":"SCALAR"},{"bufferView":31,"componentType":5126,"count":2,"max":[1,1,1],"min":[0,0,0],"type":"VEC3"},{"bufferView":32,"componentType":5126,"count":1,"max":[1.5499999523162842],"min":[1.5499999523162842],"type":"SCALAR"},{"bufferView":33,"componentType":5126,"count":1,"max":[0,0,0,1],"min":[0,0,0,1],"type":"VEC4"},{"bufferView":34,"componentType":5126,"count":2,"max":[1.649999976158142],"min":[1.5499999523162842],"type":"SCALAR"},{"bufferView":35,"componentType":5126,"count":2,"max":[-0.013545624911785126,0.00013437500456348062,-0.06142687425017357],"min":[-0.013545624911785126,-0.12486562132835388,-0.06142687425017357],"type":"VEC3"},{"bufferView":36,"componentType":5126,"count":4,"max":[1.899999976158142],"min":[1.5499999523162842],"type":"SCALAR"},{"bufferView":37,"componentType":5126,"count":4,"max":[0.0007587500149384141,0.03652999922633171,0.006271250080317259],"min":[0.0007587500149384141,0.005280000157654285,0.006271250080317259],"type":"VEC3"}]}