{"asset":{"version":"2.0","generator":"Blockbench 4.7.0 glTF exporter"},"scenes":[{"nodes":[9],"name":"blockbench_export"}],"scene":0,"nodes":[{"translation":[-0.0234375,-0.0546875,-0.35613875],"name":"mag"},{"translation":[0,0.125,-0.25],"name":"bolt"},{"name":"m1a1_smg","children":[0,1]},{"translation":[0.375,-0.6875,0],"name":"RightHand"},{"translation":[-0.375,0.8125,-0.25],"name":"R","children":[3]},{"name":"bone","children":[2,4]},{"translation":[-0.375,-0.6875,0],"name":"LeftHand"},{"translation":[0.375,0.8125,-0.25],"name":"l","children":[6]},{"translation":[0.5,0.375,0.75],"name":"bone2","children":[5,7]},{"children":[8]}],"animations":[{"name":"draw","samplers":[{"input":0,"output":1,"interpolation":"LINEAR"},{"input":2,"output":3,"interpolation":"LINEAR"},{"input":4,"output":5,"interpolation":"LINEAR"},{"input":6,"output":7,"interpolation":"LINEAR"},{"input":8,"output":9,"interpolation":"LINEAR"},{"input":10,"output":11,"interpolation":"LINEAR"},{"input":12,"output":13,"interpolation":"LINEAR"},{"input":14,"output":15,"interpolation":"LINEAR"},{"input":16,"output":17,"interpolation":"LINEAR"}],"channels":[{"sampler":0,"target":{"node":4,"path":"rotation"}},{"sampler":1,"target":{"node":4,"path":"translation"}},{"sampler":2,"target":{"node":4,"path":"scale"}},{"sampler":3,"target":{"node":7,"path":"rotation"}},{"sampler":4,"target":{"node":7,"path":"translation"}},{"sampler":5,"target":{"node":7,"path":"scale"}},{"sampler":6,"target":{"node":8,"path":"rotation"}},{"sampler":7,"target":{"node":8,"path":"translation"}},{"sampler":8,"target":{"node":1,"path":"translation"}}]}],"bufferViews":[{"buffer":0,"byteOffset":0,"byteLength":44},{"buffer":0,"byteOffset":44,"byteLength":176},{"buffer":0,"byteOffset":220,"byteLength":44},{"buffer":0,"byteOffset":264,"byteLength":132},{"buffer":0,"byteOffset":396,"byteLength":4},{"buffer":0,"byteOffset":400,"byteLength":12},{"buffer":0,"byteOffset":412,"byteLength":16},{"buffer":0,"byteOffset":428,"byteLength":64},{"buffer":0,"byteOffset":492,"byteLength":16},{"buffer":0,"byteOffset":508,"byteLength":48},{"buffer":0,"byteOffset":556,"byteLength":4},{"buffer":0,"byteOffset":560,"byteLength":12},{"buffer":0,"byteOffset":572,"byteLength":56},{"buffer":0,"byteOffset":628,"byteLength":224},{"buffer":0,"byteOffset":852,"byteLength":56},{"buffer":0,"byteOffset":908,"byteLength":168},{"buffer":0,"byteOffset":1076,"byteLength":4},{"buffer":0,"byteOffset":1080,"byteLength":12}],"buffers":[{"byteLength":1092,"uri":"data:application/octet-stream;base64,"}],"accessors":[{"bufferView":0,"componentType":5126,"count":11,"max":[0.6499999761581421],"min":[0],"type":"SCALAR"},{"bufferView":1,"componentType":5126,"count":11,"max":[-0.03190122917294502,0.7306576371192932,-0.6813492178916931,0.07757721096277237],"min":[-0.19802936911582947,0.46243807673454285,-0.883784830570221,-0.029748331755399704],"type":"VEC4"},{"bufferView":2,"componentType":5126,"count":11,"max":[0.6499999761581421],"min":[0],"type":"SCALAR"},{"bufferView":3,"componentType":5126,"count":11,"max":[0.1574999988079071,0.06536821275949478,-0.02631344273686409],"min":[0.01875000074505806,-0.05624999850988388,-0.18539726734161377],"type":"VEC3"},{"bufferView":4,"componentType":5126,"count":1,"max":[0],"min":[0],"type":"SCALAR"},{"bufferView":5,"componentType":5126,"count":1,"max":[1,1.5,1],"min":[1,1.5,1],"type":"VEC3"},{"bufferView":6,"componentType":5126,"count":4,"max":[0.5],"min":[0],"type":"SCALAR"},{"bufferView":7,"componentType":5126,"count":4,"max":[-0.08934822678565979,0.6085649132728577,-0.45885077118873596,0.6539419293403625],"min":[-0.2915952205657959,0.4152846336364746,-0.6682279706001282,0.4389834702014923],"type":"VEC4"},{"bufferView":8,"componentType":5126,"count":4,"max":[0.5],"min":[0],"type":"SCALAR"},{"bufferView":9,"componentType":5126,"count":4,"max":[-0.01875000074505806,0.1875,-0.2981249988079071],"min":[-0.8418750166893005,0.02500000037252903,-0.71875],"type":"VEC3"},{"bufferView":10,"componentType":5126,"count":1,"max":[0],"min":[0],"type":"SCALAR"},{"bufferView":11,"componentType":5126,"count":1,"max":[1,1.5,1],"min":[1,1.5,1],"type":"VEC3"},{"bufferView":12,"componentType":5126,"count":14,"max":[0.8500000238418579],"min":[0],"type":"SCALAR"},{"bufferView":13,"componentType":5126,"count":14,"max":[0.2763633131980896,0.07542742043733597,0.03316503390669823,1],"min":[0,-0.00009991983824875206,-0.1265908181667328,0.9505763649940491],"type":"VEC4"},{"bufferView":14,"componentType":5126,"count":14,"max":[0.8500000238418579],"min":[0],"type":"SCALAR"},{"bufferView":15,"componentType":5126,"count":14,"max":[0.699999988079071,0.375,0.918749988079071],"min":[0.4737499952316284,-0.9750000238418579,0.625],"type":"VEC3"},{"bufferView":16,"componentType":5126,"count":1,"max":[0],"min":[0],"type":"SCALAR"},{"bufferView":17,"componentType":5126,"count":1,"max":[0,0.125,-0.0390625],"min":[0,0.125,-0.0390625],"type":"VEC3"}]}