{"asset":{"version":"2.0","generator":"Blockbench 4.7.0 glTF exporter"},"scenes":[{"nodes":[9],"name":"blockbench_export"}],"scene":0,"nodes":[{"translation":[-0.0234375,-0.0546875,-0.35613875],"name":"mag"},{"translation":[0,0.125,-0.25],"name":"bolt"},{"name":"m1a1_smg","children":[0,1]},{"translation":[0.375,-0.6875,0],"name":"RightHand"},{"translation":[-0.375,0.8125,-0.25],"name":"R","children":[3]},{"name":"bone","children":[2,4]},{"translation":[-0.375,-0.6875,0],"name":"LeftHand"},{"translation":[0.375,0.8125,-0.25],"name":"l","children":[6]},{"translation":[0.5,0.375,0.75],"name":"bone2","children":[5,7]},{"children":[8]}],"animations":[{"name":"reload_empty","samplers":[{"input":0,"output":1,"interpolation":"LINEAR"},{"input":2,"output":3,"interpolation":"LINEAR"},{"input":4,"output":5,"interpolation":"LINEAR"},{"input":6,"output":7,"interpolation":"LINEAR"},{"input":8,"output":9,"interpolation":"LINEAR"},{"input":10,"output":11,"interpolation":"LINEAR"},{"input":12,"output":13,"interpolation":"LINEAR"},{"input":14,"output":15,"interpolation":"LINEAR"},{"input":16,"output":17,"interpolation":"LINEAR"},{"input":18,"output":19,"interpolation":"LINEAR"},{"input":20,"output":21,"interpolation":"LINEAR"}],"channels":[{"sampler":0,"target":{"node":4,"path":"rotation"}},{"sampler":1,"target":{"node":4,"path":"translation"}},{"sampler":2,"target":{"node":4,"path":"scale"}},{"sampler":3,"target":{"node":7,"path":"rotation"}},{"sampler":4,"target":{"node":7,"path":"translation"}},{"sampler":5,"target":{"node":7,"path":"scale"}},{"sampler":6,"target":{"node":8,"path":"rotation"}},{"sampler":7,"target":{"node":8,"path":"translation"}},{"sampler":8,"target":{"node":0,"path":"rotation"}},{"sampler":9,"target":{"node":0,"path":"translation"}},{"sampler":10,"target":{"node":1,"path":"translation"}}]}],"bufferViews":[{"buffer":0,"byteOffset":0,"byteLength":4},{"buffer":0,"byteOffset":4,"byteLength":16},{"buffer":0,"byteOffset":20,"byteLength":4},{"buffer":0,"byteOffset":24,"byteLength":12},{"buffer":0,"byteOffset":36,"byteLength":4},{"buffer":0,"byteOffset":40,"byteLength":12},{"buffer":0,"byteOffset":52,"byteLength":152},{"buffer":0,"byteOffset":204,"byteLength":608},{"buffer":0,"byteOffset":812,"byteLength":152},{"buffer":0,"byteOffset":964,"byteLength":456},{"buffer":0,"byteOffset":1420,"byteLength":4},{"buffer":0,"byteOffset":1424,"byteLength":12},{"buffer":0,"byteOffset":1436,"byteLength":192},{"buffer":0,"byteOffset":1628,"byteLength":768},{"buffer":0,"byteOffset":2396,"byteLength":188},{"buffer":0,"byteOffset":2584,"byteLength":564},{"buffer":0,"byteOffset":3148,"byteLength":88},{"buffer":0,"byteOffset":3236,"byteLength":352},{"buffer":0,"byteOffset":3588,"byteLength":88},{"buffer":0,"byteOffset":3676,"byteLength":264},{"buffer":0,"byteOffset":3940,"byteLength":4},{"buffer":0,"byteOffset":3944,"byteLength":12}],"buffers":[{"byteLength":3956,"uri":"data:application/octet-stream;base64,"}],"accessors":[{"bufferView":0,"componentType":5126,"count":1,"max":[0],"min":[0],"type":"SCALAR"},{"bufferView":1,"componentType":5126,"count":1,"max":[-0.03190122917294502,0.7306576371192932,-0.6813492178916931,-0.029748331755399704],"min":[-0.03190122917294502,0.7306576371192932,-0.6813492178916931,-0.029748331755399704],"type":"VEC4"},{"bufferView":2,"componentType":5126,"count":1,"max":[0],"min":[0],"type":"SCALAR"},{"bufferView":3,"componentType":5126,"count":1,"max":[0.01875000074505806,-0.05624999850988388,-0.03750000149011612],"min":[0.01875000074505806,-0.05624999850988388,-0.03750000149011612],"type":"VEC3"},{"bufferView":4,"componentType":5126,"count":1,"max":[0],"min":[0],"type":"SCALAR"},{"bufferView":5,"componentType":5126,"count":1,"max":[1,1.5,1],"min":[1,1.5,1],"type":"VEC3"},{"bufferView":6,"componentType":5126,"count":38,"max":[2.450000047683716],"min":[0],"type":"SCALAR"},{"bufferView":7,"componentType":5126,"count":38,"max":[0.32671794295310974,0.9196919202804565,-0.17003004252910614,0.7082555294036865],"min":[-0.3252778649330139,0.5059835314750671,-0.6783660650253296,-0.3095620274543762],"type":"VEC4"},{"bufferView":8,"componentType":5126,"count":38,"max":[2.450000047683716],"min":[0],"type":"SCALAR"},{"bufferView":9,"componentType":5126,"count":38,"max":[-0.0056056249886751175,0.02500000037252903,-0.16257500648498535],"min":[-0.4018361270427704,-1.6389249563217163,-0.71875],"type":"VEC3"},{"bufferView":10,"componentType":5126,"count":1,"max":[0],"min":[0],"type":"SCALAR"},{"bufferView":11,"componentType":5126,"count":1,"max":[1,1.5,1],"min":[1,1.5,1],"type":"VEC3"},{"bufferView":12,"componentType":5126,"count":48,"max":[2.8499999046325684],"min":[0],"type":"SCALAR"},{"bufferView":13,"componentType":5126,"count":48,"max":[0.08935349434614182,0.08027111738920212,0.01320985984057188,1],"min":[-0.0007550957961939275,-0.00036020250990986824,-0.2291548252105713,0.9672449827194214],"type":"VEC4"},{"bufferView":14,"componentType":5126,"count":47,"max":[2.8499999046325684],"min":[0],"type":"SCALAR"},{"bufferView":15,"componentType":5126,"count":47,"max":[0.5035262703895569,0.46687498688697815,0.8324117064476013],"min":[0.4828124940395355,0.31498292088508606,0.6807942390441895],"type":"VEC3"},{"bufferView":16,"componentType":5126,"count":22,"max":[1.7000000476837158],"min":[0],"type":"SCALAR"},{"bufferView":17,"componentType":5126,"count":22,"max":[0.19509032368659973,0.061903081834316254,0.017600713297724724,1],"min":[0,-0.0017376550240442157,-0.31120771169662476,0.9301018714904785],"type":"VEC4"},{"bufferView":18,"componentType":5126,"count":22,"max":[1.7000000476837158],"min":[0],"type":"SCALAR"},{"bufferView":19,"componentType":5126,"count":22,"max":[-0.01718750037252903,-0.0546875,-0.26055124402046204],"min":[-0.3529818654060364,-1.4920380115509033,-0.43562188744544983],"type":"VEC3"},{"bufferView":20,"componentType":5126,"count":1,"max":[0],"min":[0],"type":"SCALAR"},{"bufferView":21,"componentType":5126,"count":1,"max":[0,0.125,-0.0390625],"min":[0,0.125,-0.0390625],"type":"VEC3"}]}