{"asset":{"version":"2.0","generator":"Blockbench 4.7.0 glTF exporter"},"scenes":[{"nodes":[9],"name":"blockbench_export"}],"scene":0,"nodes":[{"translation":[-0.0234375,-0.0546875,-0.35613875],"name":"mag"},{"translation":[0,0.125,-0.25],"name":"bolt"},{"name":"m1a1_smg","children":[0,1]},{"translation":[0.375,-0.6875,0],"name":"RightHand"},{"translation":[-0.375,0.8125,-0.25],"name":"R","children":[3]},{"name":"bone","children":[2,4]},{"translation":[-0.375,-0.6875,0],"name":"LeftHand"},{"translation":[0.375,0.8125,-0.25],"name":"l","children":[6]},{"translation":[0.5,0.375,0.75],"name":"bone2","children":[5,7]},{"children":[8]}],"animations":[{"name":"reload_norm","samplers":[{"input":0,"output":1,"interpolation":"LINEAR"},{"input":2,"output":3,"interpolation":"LINEAR"},{"input":4,"output":5,"interpolation":"LINEAR"},{"input":6,"output":7,"interpolation":"LINEAR"},{"input":8,"output":9,"interpolation":"LINEAR"},{"input":10,"output":11,"interpolation":"LINEAR"},{"input":12,"output":13,"interpolation":"LINEAR"},{"input":14,"output":15,"interpolation":"LINEAR"},{"input":16,"output":17,"interpolation":"LINEAR"},{"input":18,"output":19,"interpolation":"LINEAR"},{"input":20,"output":21,"interpolation":"LINEAR"}],"channels":[{"sampler":0,"target":{"node":4,"path":"rotation"}},{"sampler":1,"target":{"node":4,"path":"translation"}},{"sampler":2,"target":{"node":4,"path":"scale"}},{"sampler":3,"target":{"node":7,"path":"rotation"}},{"sampler":4,"target":{"node":7,"path":"translation"}},{"sampler":5,"target":{"node":7,"path":"scale"}},{"sampler":6,"target":{"node":8,"path":"rotation"}},{"sampler":7,"target":{"node":8,"path":"translation"}},{"sampler":8,"target":{"node":0,"path":"rotation"}},{"sampler":9,"target":{"node":0,"path":"translation"}},{"sampler":10,"target":{"node":1,"path":"translation"}}]}],"bufferViews":[{"buffer":0,"byteOffset":0,"byteLength":4},{"buffer":0,"byteOffset":4,"byteLength":16},{"buffer":0,"byteOffset":20,"byteLength":8},{"buffer":0,"byteOffset":28,"byteLength":24},{"buffer":0,"byteOffset":52,"byteLength":4},{"buffer":0,"byteOffset":56,"byteLength":12},{"buffer":0,"byteOffset":68,"byteLength":136},{"buffer":0,"byteOffset":204,"byteLength":544},{"buffer":0,"byteOffset":748,"byteLength":148},{"buffer":0,"byteOffset":896,"byteLength":444},{"buffer":0,"byteOffset":1340,"byteLength":4},{"buffer":0,"byteOffset":1344,"byteLength":12},{"buffer":0,"byteOffset":1356,"byteLength":168},{"buffer":0,"byteOffset":1524,"byteLength":672},{"buffer":0,"byteOffset":2196,"byteLength":172},{"buffer":0,"byteOffset":2368,"byteLength":516},{"buffer":0,"byteOffset":2884,"byteLength":48},{"buffer":0,"byteOffset":2932,"byteLength":192},{"buffer":0,"byteOffset":3124,"byteLength":96},{"buffer":0,"byteOffset":3220,"byteLength":288},{"buffer":0,"byteOffset":3508,"byteLength":4},{"buffer":0,"byteOffset":3512,"byteLength":12}],"buffers":[{"byteLength":3524,"uri":"data:application/octet-stream;base64,"}],"accessors":[{"bufferView":0,"componentType":5126,"count":1,"max":[0],"min":[0],"type":"SCALAR"},{"bufferView":1,"componentType":5126,"count":1,"max":[-0.03190122917294502,0.7306576371192932,-0.6813492178916931,-0.029748331755399704],"min":[-0.03190122917294502,0.7306576371192932,-0.6813492178916931,-0.029748331755399704],"type":"VEC4"},{"bufferView":2,"componentType":5126,"count":2,"max":[0.05000000074505806],"min":[0],"type":"SCALAR"},{"bufferView":3,"componentType":5126,"count":2,"max":[0.01875000074505806,-0.05624999850988388,-0.03750000149011612],"min":[0.01875000074505806,-0.05624999850988388,-0.03750000149011612],"type":"VEC3"},{"bufferView":4,"componentType":5126,"count":1,"max":[0],"min":[0],"type":"SCALAR"},{"bufferView":5,"componentType":5126,"count":1,"max":[1,1.5,1],"min":[1,1.5,1],"type":"VEC3"},{"bufferView":6,"componentType":5126,"count":34,"max":[2.25],"min":[0],"type":"SCALAR"},{"bufferView":7,"componentType":5126,"count":34,"max":[0.3350560963153839,0.9167327880859375,-0.3528364300727844,0.6539419293403625],"min":[-0.2080492526292801,0.5643858909606934,-0.6318714022636414,-0.21081455051898956],"type":"VEC4"},{"bufferView":8,"componentType":5126,"count":37,"max":[2.299999952316284],"min":[0],"type":"SCALAR"},{"bufferView":9,"componentType":5126,"count":37,"max":[-0.0009387044701725245,0.02500000037252903,-0.2737710475921631],"min":[-0.390625,-1.6452676057815552,-0.71875],"type":"VEC3"},{"bufferView":10,"componentType":5126,"count":1,"max":[0],"min":[0],"type":"SCALAR"},{"bufferView":11,"componentType":5126,"count":1,"max":[1,1.5,1],"min":[1,1.5,1],"type":"VEC3"},{"bufferView":12,"componentType":5126,"count":42,"max":[2.6500000953674316],"min":[0],"type":"SCALAR"},{"bufferView":13,"componentType":5126,"count":42,"max":[0.10297638177871704,0.0817256048321724,0.022211723029613495,1],"min":[-0.009338735602796078,0,-0.2488776296377182,0.9657454490661621],"type":"VEC4"},{"bufferView":14,"componentType":5126,"count":43,"max":[2.6500000953674316],"min":[0],"type":"SCALAR"},{"bufferView":15,"componentType":5126,"count":43,"max":[0.5037500262260437,0.42375001311302185,0.793749988079071],"min":[0.48906248807907104,0.3318749964237213,0.7300781011581421],"type":"VEC3"},{"bufferView":16,"componentType":5126,"count":12,"max":[1.850000023841858],"min":[0.30000001192092896],"type":"SCALAR"},{"bufferView":17,"componentType":5126,"count":12,"max":[0.19212645292282104,0.09008267521858215,0,1],"min":[-0.026175986975431442,-0.0009135394357144833,-0.4528762400150299,0.8699671626091003],"type":"VEC4"},{"bufferView":18,"componentType":5126,"count":24,"max":[1.850000023841858],"min":[0],"type":"SCALAR"},{"bufferView":19,"componentType":5126,"count":24,"max":[-0.0234375,-0.0546875,-0.35385218262672424],"min":[-0.3268400728702545,-1.5170795917510986,-0.3873887360095978],"type":"VEC3"},{"bufferView":20,"componentType":5126,"count":1,"max":[0],"min":[0],"type":"SCALAR"},{"bufferView":21,"componentType":5126,"count":1,"max":[0,0.125,-0.0390625],"min":[0,0.125,-0.0390625],"type":"VEC3"}]}