{"asset":{"version":"2.0","generator":"Blockbench 4.7.0 glTF exporter"},"scenes":[{"nodes":[9],"name":"blockbench_export"}],"scene":0,"nodes":[{"translation":[-0.0234375,-0.0546875,-0.35613875],"name":"mag"},{"translation":[0,0.125,-0.25],"name":"bolt"},{"name":"m1a1_smg","children":[0,1]},{"translation":[0.375,-0.6875,0],"name":"RightHand"},{"translation":[-0.375,0.8125,-0.25],"name":"R","children":[3]},{"name":"bone","children":[2,4]},{"translation":[-0.375,-0.6875,0],"name":"LeftHand"},{"translation":[0.375,0.8125,-0.25],"name":"l","children":[6]},{"translation":[0.5,0.375,0.75],"name":"bone2","children":[5,7]},{"children":[8]}],"animations":[{"name":"inspect","samplers":[{"input":0,"output":1,"interpolation":"LINEAR"},{"input":2,"output":3,"interpolation":"LINEAR"},{"input":4,"output":5,"interpolation":"LINEAR"},{"input":6,"output":7,"interpolation":"LINEAR"},{"input":8,"output":9,"interpolation":"LINEAR"},{"input":10,"output":11,"interpolation":"LINEAR"},{"input":12,"output":13,"interpolation":"LINEAR"},{"input":14,"output":15,"interpolation":"LINEAR"},{"input":16,"output":17,"interpolation":"LINEAR"}],"channels":[{"sampler":0,"target":{"node":4,"path":"rotation"}},{"sampler":1,"target":{"node":4,"path":"translation"}},{"sampler":2,"target":{"node":4,"path":"scale"}},{"sampler":3,"target":{"node":7,"path":"rotation"}},{"sampler":4,"target":{"node":7,"path":"translation"}},{"sampler":5,"target":{"node":7,"path":"scale"}},{"sampler":6,"target":{"node":8,"path":"rotation"}},{"sampler":7,"target":{"node":8,"path":"translation"}},{"sampler":8,"target":{"node":1,"path":"translation"}}]}],"bufferViews":[{"buffer":0,"byteOffset":0,"byteLength":4},{"buffer":0,"byteOffset":4,"byteLength":16},{"buffer":0,"byteOffset":20,"byteLength":4},{"buffer":0,"byteOffset":24,"byteLength":12},{"buffer":0,"byteOffset":36,"byteLength":4},{"buffer":0,"byteOffset":40,"byteLength":12},{"buffer":0,"byteOffset":52,"byteLength":84},{"buffer":0,"byteOffset":136,"byteLength":336},{"buffer":0,"byteOffset":472,"byteLength":84},{"buffer":0,"byteOffset":556,"byteLength":252},{"buffer":0,"byteOffset":808,"byteLength":4},{"buffer":0,"byteOffset":812,"byteLength":12},{"buffer":0,"byteOffset":824,"byteLength":304},{"buffer":0,"byteOffset":1128,"byteLength":1216},{"buffer":0,"byteOffset":2344,"byteLength":308},{"buffer":0,"byteOffset":2652,"byteLength":924},{"buffer":0,"byteOffset":3576,"byteLength":4},{"buffer":0,"byteOffset":3580,"byteLength":12}],"buffers":[{"byteLength":3592,"uri":"data:application/octet-stream;base64,"}],"accessors":[{"bufferView":0,"componentType":5126,"count":1,"max":[0],"min":[0],"type":"SCALAR"},{"bufferView":1,"componentType":5126,"count":1,"max":[-0.03190122917294502,0.7306576371192932,-0.6813492178916931,-0.029748331755399704],"min":[-0.03190122917294502,0.7306576371192932,-0.6813492178916931,-0.029748331755399704],"type":"VEC4"},{"bufferView":2,"componentType":5126,"count":1,"max":[0],"min":[0],"type":"SCALAR"},{"bufferView":3,"componentType":5126,"count":1,"max":[0.01875000074505806,-0.05624999850988388,-0.03750000149011612],"min":[0.01875000074505806,-0.05624999850988388,-0.03750000149011612],"type":"VEC3"},{"bufferView":4,"componentType":5126,"count":1,"max":[0],"min":[0],"type":"SCALAR"},{"bufferView":5,"componentType":5126,"count":1,"max":[1,1.5,1],"min":[1,1.5,1],"type":"VEC3"},{"bufferView":6,"componentType":5126,"count":21,"max":[4.699999809265137],"min":[0],"type":"SCALAR"},{"bufferView":7,"componentType":5126,"count":21,"max":[0.235183447599411,0.5994704365730286,-0.45885077118873596,0.6539419293403625],"min":[-0.2080492526292801,0.543566882610321,-0.7807965874671936,0.18353310227394104],"type":"VEC4"},{"bufferView":8,"componentType":5126,"count":21,"max":[4.699999809265137],"min":[0],"type":"SCALAR"},{"bufferView":9,"componentType":5126,"count":21,"max":[0.5081762671470642,0.20987187325954437,0.37902936339378357],"min":[-0.6928254961967468,-1.2490943670272827,-0.71875],"type":"VEC3"},{"bufferView":10,"componentType":5126,"count":1,"max":[0],"min":[0],"type":"SCALAR"},{"bufferView":11,"componentType":5126,"count":1,"max":[1,1.5,1],"min":[1,1.5,1],"type":"VEC3"},{"bufferView":12,"componentType":5126,"count":76,"max":[4.900000095367432],"min":[0],"type":"SCALAR"},{"bufferView":13,"componentType":5126,"count":76,"max":[0.31787917017936707,0.23301279544830322,0.6083415746688843,1],"min":[0,-0.0012859784765169024,-0.5403531193733215,0.7252851128578186],"type":"VEC4"},{"bufferView":14,"componentType":5126,"count":77,"max":[4.900000095367432],"min":[0],"type":"SCALAR"},{"bufferView":15,"componentType":5126,"count":77,"max":[0.5,0.5356249809265137,0.8155078291893005],"min":[0.3542187511920929,0.33500000834465027,0.6768749952316284],"type":"VEC3"},{"bufferView":16,"componentType":5126,"count":1,"max":[0],"min":[0],"type":"SCALAR"},{"bufferView":17,"componentType":5126,"count":1,"max":[0,0.125,-0.0390625],"min":[0,0.125,-0.0390625],"type":"VEC3"}]}