{"asset":{"version":"2.0","generator":"Blockbench 4.7.0 glTF exporter"},"scenes":[{"nodes":[16],"name":"blockbench_export"}],"scene":0,"nodes":[{"translation":[-0.375,-0.6875,0],"name":"LeftHand"},{"translation":[0.375,1,-0.5],"name":"l","children":[0]},{"translation":[0.375,-0.6875,0],"name":"RightHand"},{"translation":[-0.375,1,-0.5],"name":"R","children":[2]},{"translation":[0.09375,0.2421875,0.015625],"name":"bullet_chain"},{"translation":[-0.09375,-0.2421875,-0.015625],"name":"magazine2","children":[4]},{"translation":[0.03125,-0.146484375,0.26953125],"name":"bolt2"},{"translation":[0,0.10859375000000004,-0.003124999999999989],"name":"cap2"},{"translation":[-0.091796875,0.043749999999999956,0.004687499999999956],"name":"iron2"},{"translation":[0.03515625,0.04201812500000002,0.013299375000000002],"name":"rotate"},{"translation":[0.14095000000000002,0.06653500000000001,-0.365234375],"name":"carry2","children":[9]},{"name":"handguard2","children":[10]},{"name":"m249_default","children":[8,11]},{"translation":[0,0.3125,-0.5],"name":"m249","children":[5,6,7,12]},{"name":"bone","children":[3,13]},{"translation":[0.5,0.1875,1],"name":"bone2","children":[1,14]},{"children":[15]}],"animations":[{"name":"draw","samplers":[{"input":0,"output":1,"interpolation":"LINEAR"},{"input":2,"output":3,"interpolation":"LINEAR"},{"input":4,"output":5,"interpolation":"LINEAR"},{"input":6,"output":7,"interpolation":"LINEAR"},{"input":8,"output":9,"interpolation":"LINEAR"},{"input":10,"output":11,"interpolation":"LINEAR"},{"input":12,"output":13,"interpolation":"LINEAR"},{"input":14,"output":15,"interpolation":"LINEAR"}],"channels":[{"sampler":0,"target":{"node":3,"path":"rotation"}},{"sampler":1,"target":{"node":3,"path":"translation"}},{"sampler":2,"target":{"node":3,"path":"scale"}},{"sampler":3,"target":{"node":1,"path":"rotation"}},{"sampler":4,"target":{"node":1,"path":"translation"}},{"sampler":5,"target":{"node":1,"path":"scale"}},{"sampler":6,"target":{"node":15,"path":"rotation"}},{"sampler":7,"target":{"node":15,"path":"translation"}}]}],"bufferViews":[{"buffer":0,"byteOffset":0,"byteLength":4},{"buffer":0,"byteOffset":4,"byteLength":16},{"buffer":0,"byteOffset":20,"byteLength":4},{"buffer":0,"byteOffset":24,"byteLength":12},{"buffer":0,"byteOffset":36,"byteLength":4},{"buffer":0,"byteOffset":40,"byteLength":12},{"buffer":0,"byteOffset":52,"byteLength":12},{"buffer":0,"byteOffset":64,"byteLength":48},{"buffer":0,"byteOffset":112,"byteLength":12},{"buffer":0,"byteOffset":124,"byteLength":36},{"buffer":0,"byteOffset":160,"byteLength":4},{"buffer":0,"byteOffset":164,"byteLength":12},{"buffer":0,"byteOffset":176,"byteLength":92},{"buffer":0,"byteOffset":268,"byteLength":368},{"buffer":0,"byteOffset":636,"byteLength":104},{"buffer":0,"byteOffset":740,"byteLength":312}],"buffers":[{"byteLength":1052,"uri":"data:application/octet-stream;base64,"}],"accessors":[{"bufferView":0,"componentType":5126,"count":1,"max":[0],"min":[0],"type":"SCALAR"},{"bufferView":1,"componentType":5126,"count":1,"max":[-4.51452149623189e-17,0.7372773289680481,-0.6755902171134949,4.1367970795711857e-17],"min":[-4.51452149623189e-17,0.7372773289680481,-0.6755902171134949,4.1367970795711857e-17],"type":"VEC4"},{"bufferView":2,"componentType":5126,"count":1,"max":[0],"min":[0],"type":"SCALAR"},{"bufferView":3,"componentType":5126,"count":1,"max":[0,0,-0.07500000298023224],"min":[0,0,-0.07500000298023224],"type":"VEC3"},{"bufferView":4,"componentType":5126,"count":1,"max":[0],"min":[0],"type":"SCALAR"},{"bufferView":5,"componentType":5126,"count":1,"max":[1,1.5,1],"min":[1,1.5,1],"type":"VEC3"},{"bufferView":6,"componentType":5126,"count":3,"max":[0.8999999761581421],"min":[0],"type":"SCALAR"},{"bufferView":7,"componentType":5126,"count":3,"max":[0.09625302255153656,0.6731829643249512,-0.39030277729034424,0.6255044937133789],"min":[-0.05685540288686752,0.23320651054382324,-0.9444171190261841,0.21077567338943481],"type":"VEC4"},{"bufferView":8,"componentType":5126,"count":3,"max":[0.8999999761581421],"min":[0],"type":"SCALAR"},{"bufferView":9,"componentType":5126,"count":3,"max":[-0.06875000149011612,0.28125,-0.75],"min":[-0.08749999850988388,0.11249999701976776,-0.9750000238418579],"type":"VEC3"},{"bufferView":10,"componentType":5126,"count":1,"max":[0],"min":[0],"type":"SCALAR"},{"bufferView":11,"componentType":5126,"count":1,"max":[1,1.5,1],"min":[1,1.5,1],"type":"VEC3"},{"bufferView":12,"componentType":5126,"count":23,"max":[1.5],"min":[0],"type":"SCALAR"},{"bufferView":13,"componentType":5126,"count":23,"max":[0.5601865649223328,0.08554373681545258,0.01702413149178028,1],"min":[-0.0019501849310472608,-0.0032737646251916885,-0.017310496419668198,0.8237558007240295],"type":"VEC4"},{"bufferView":14,"componentType":5126,"count":26,"max":[1.5499999523162842],"min":[0],"type":"SCALAR"},{"bufferView":15,"componentType":5126,"count":26,"max":[0.824999988079071,0.1875,1.0071094036102295],"min":[0.49553239345550537,-2.0999999046325684,0.831250011920929],"type":"VEC3"}]}