{"asset":{"version":"2.0","generator":"Blockbench 4.6.4 glTF exporter"},"scenes":[{"nodes":[12],"name":"blockbench_export"}],"scene":0,"nodes":[{"name":"camera","mesh":0},{"translation":[-0.375,-0.6875,0],"name":"LeftHand"},{"translation":[0.375,1,-0.5],"name":"l","children":[1]},{"translation":[0.375,-0.6875,0],"name":"RightHand"},{"translation":[-0.375,1,-0.5],"name":"R","children":[3]},{"translation":[0.09375,0.2421875,0.015625],"name":"bullet_chain"},{"translation":[-0.09375,-0.2421875,-0.015625],"name":"magazine2","children":[5]},{"translation":[0.03125,-0.146484375,0.26953125],"name":"bolt2"},{"translation":[0,0.10859375000000004,-0.003124999999999989],"name":"cap2"},{"translation":[0,0.3125,-0.5],"name":"m249","children":[6,7,8]},{"name":"bone","children":[4,9]},{"translation":[0.5,0.1875,1],"name":"bone2","children":[2,10]},{"children":[0,11]}],"bufferViews":[{"buffer":0,"byteOffset":0,"byteLength":288,"target":34962,"byteStride":12},{"buffer":0,"byteOffset":288,"byteLength":288,"target":34962,"byteStride":12},{"buffer":0,"byteOffset":576,"byteLength":192,"target":34962,"byteStride":8},{"buffer":0,"byteOffset":768,"byteLength":72,"target":34963},{"buffer":0,"byteOffset":840,"byteLength":72},{"buffer":0,"byteOffset":912,"byteLength":288},{"buffer":0,"byteOffset":1200,"byteLength":76},{"buffer":0,"byteOffset":1276,"byteLength":228},{"buffer":0,"byteOffset":1504,"byteLength":4},{"buffer":0,"byteOffset":1508,"byteLength":12},{"buffer":0,"byteOffset":1520,"byteLength":44},{"buffer":0,"byteOffset":1564,"byteLength":176},{"buffer":0,"byteOffset":1740,"byteLength":40},{"buffer":0,"byteOffset":1780,"byteLength":120},{"buffer":0,"byteOffset":1900,"byteLength":4},{"buffer":0,"byteOffset":1904,"byteLength":12},{"buffer":0,"byteOffset":1916,"byteLength":624},{"buffer":0,"byteOffset":2540,"byteLength":2496},{"buffer":0,"byteOffset":5036,"byteLength":640},{"buffer":0,"byteOffset":5676,"byteLength":1920},{"buffer":0,"byteOffset":7596,"byteLength":600},{"buffer":0,"byteOffset":8196,"byteLength":1800},{"buffer":0,"byteOffset":9996,"byteLength":32},{"buffer":0,"byteOffset":10028,"byteLength":128}],"buffers":[{"byteLength":10156,"uri":"data:application/octet-stream;base64,"}],"accessors":[{"bufferView":0,"componentType":5126,"count":24,"max":[0.125,0.125,0.125],"min":[0,0,0],"type":"VEC3"},{"bufferView":1,"componentType":5126,"count":24,"max":[1,1,1],"min":[-1,-1,-1],"type":"VEC3"},{"bufferView":2,"componentType":5126,"count":24,"max":[0.03125,1],"min":[0,0.96875],"type":"VEC2"},{"bufferView":3,"componentType":5123,"count":36,"max":[23],"min":[0],"type":"SCALAR"},{"bufferView":4,"componentType":5126,"count":18,"max":[8.149999618530273],"min":[0],"type":"SCALAR"},{"bufferView":5,"componentType":5126,"count":18,"max":[-4.51452149623189e-17,0.9537906050682068,-0.23489652574062347,0.1716163158416748],"min":[-0.6214175224304199,0.6838673949241638,-0.6755902171134949,-0.37792184948921204],"type":"VEC4"},{"bufferView":6,"componentType":5126,"count":19,"max":[8.149999618530273],"min":[0],"type":"SCALAR"},{"bufferView":7,"componentType":5126,"count":19,"max":[0.14374999701976776,0.909375011920929,-0.0012499999720603228],"min":[0,0,-0.23593750596046448],"type":"VEC3"},{"bufferView":8,"componentType":5126,"count":1,"max":[0],"min":[0],"type":"SCALAR"},{"bufferView":9,"componentType":5126,"count":1,"max":[1,1.5,1],"min":[1,1.5,1],"type":"VEC3"},{"bufferView":10,"componentType":5126,"count":11,"max":[4.849999904632568],"min":[0],"type":"SCALAR"},{"bufferView":11,"componentType":5126,"count":11,"max":[0.1351218968629837,0.7071011066436768,-0.3465467095375061,0.6746222376823425],"min":[-0.12939508259296417,0.6412684917449951,-0.6331033706665039,0.3875657320022583],"type":"VEC4"},{"bufferView":12,"componentType":5126,"count":10,"max":[4.849999904632568],"min":[0],"type":"SCALAR"},{"bufferView":13,"componentType":5126,"count":10,"max":[-0.08749999850988388,0.3125,-0.75],"min":[-0.10000000149011612,0.11249999701976776,-0.8125],"type":"VEC3"},{"bufferView":14,"componentType":5126,"count":1,"max":[0],"min":[0],"type":"SCALAR"},{"bufferView":15,"componentType":5126,"count":1,"max":[1,1.5,1],"min":[1,1.5,1],"type":"VEC3"},{"bufferView":16,"componentType":5126,"count":156,"max":[9],"min":[0],"type":"SCALAR"},{"bufferView":17,"componentType":5126,"count":156,"max":[0.2198251485824585,0.16132871806621552,0.4688752293586731,1],"min":[-0.013886302709579468,-0.000558718922547996,-0.10006400942802429,0.8530654907226562],"type":"VEC4"},{"bufferView":18,"componentType":5126,"count":160,"max":[9],"min":[0],"type":"SCALAR"},{"bufferView":19,"componentType":5126,"count":160,"max":[0.5426562428474426,0.2521214783191681,1.02367103099823],"min":[0.38195130228996277,-0.04438333213329315,0.9387500286102295],"type":"VEC3"},{"bufferView":20,"componentType":5126,"count":150,"max":[8.850000381469727],"min":[0],"type":"SCALAR"},{"bufferView":21,"componentType":5126,"count":150,"max":[0.09687499701976776,0.2421875,0.015625],"min":[0.0859375,0.2421875,0.015625],"type":"VEC3"},{"bufferView":22,"componentType":5126,"count":8,"max":[7.599999904632568],"min":[5.550000190734863],"type":"SCALAR"},{"bufferView":23,"componentType":5126,"count":8,"max":[0,0,0,1],"min":[-0.463875949382782,0,0,0.8859001398086548],"type":"VEC4"}],"materials":[{"pbrMetallicRoughness":{"metallicFactor":0,"roughnessFactor":1},"alphaMode":"MASK","alphaCutoff":0.05,"doubleSided":true}],"meshes":[{"primitives":[{"mode":4,"attributes":{"POSITION":0,"NORMAL":1,"TEXCOORD_0":2},"indices":3,"material":0}]}],"animations":[{"name":"inspect","samplers":[{"input":4,"output":5,"interpolation":"LINEAR"},{"input":6,"output":7,"interpolation":"LINEAR"},{"input":8,"output":9,"interpolation":"LINEAR"},{"input":10,"output":11,"interpolation":"LINEAR"},{"input":12,"output":13,"interpolation":"LINEAR"},{"input":14,"output":15,"interpolation":"LINEAR"},{"input":16,"output":17,"interpolation":"LINEAR"},{"input":18,"output":19,"interpolation":"LINEAR"},{"input":20,"output":21,"interpolation":"LINEAR"},{"input":22,"output":23,"interpolation":"LINEAR"}],"channels":[{"sampler":0,"target":{"node":4,"path":"rotation"}},{"sampler":1,"target":{"node":4,"path":"translation"}},{"sampler":2,"target":{"node":4,"path":"scale"}},{"sampler":3,"target":{"node":2,"path":"rotation"}},{"sampler":4,"target":{"node":2,"path":"translation"}},{"sampler":5,"target":{"node":2,"path":"scale"}},{"sampler":6,"target":{"node":11,"path":"rotation"}},{"sampler":7,"target":{"node":11,"path":"translation"}},{"sampler":8,"target":{"node":5,"path":"translation"}},{"sampler":9,"target":{"node":8,"path":"rotation"}}]}]}