{"asset":{"version":"2.0","generator":"Blockbench 4.7.0 glTF exporter"},"scenes":[{"nodes":[16],"name":"blockbench_export"}],"scene":0,"nodes":[{"translation":[-0.375,-0.6875,0],"name":"LeftHand"},{"translation":[0.375,1,-0.5],"name":"l","children":[0]},{"translation":[0.375,-0.6875,0],"name":"RightHand"},{"translation":[-0.375,1,-0.5],"name":"R","children":[2]},{"translation":[0.09375,0.2421875,0.015625],"name":"bullet_chain"},{"translation":[-0.09375,-0.2421875,-0.015625],"name":"magazine2","children":[4]},{"translation":[0.03125,-0.146484375,0.26953125],"name":"bolt2"},{"translation":[0,0.10859375000000004,-0.003124999999999989],"name":"cap2"},{"translation":[-0.091796875,0.043749999999999956,0.004687499999999956],"name":"iron2"},{"translation":[0.03515625,0.04201812500000002,0.013299375000000002],"name":"rotate"},{"translation":[0.14095000000000002,0.06653500000000001,-0.365234375],"name":"carry2","children":[9]},{"name":"handguard2","children":[10]},{"name":"m249_default","children":[8,11]},{"translation":[0,0.3125,-0.5],"name":"m249","children":[5,6,7,12]},{"name":"bone","children":[3,13]},{"translation":[0.5,0.1875,1],"name":"bone2","children":[1,14]},{"children":[15]}],"animations":[{"name":"empty","samplers":[{"input":0,"output":1,"interpolation":"LINEAR"},{"input":2,"output":3,"interpolation":"LINEAR"},{"input":4,"output":5,"interpolation":"LINEAR"},{"input":6,"output":7,"interpolation":"LINEAR"},{"input":8,"output":9,"interpolation":"LINEAR"},{"input":10,"output":11,"interpolation":"LINEAR"},{"input":12,"output":13,"interpolation":"LINEAR"},{"input":14,"output":15,"interpolation":"LINEAR"},{"input":16,"output":17,"interpolation":"LINEAR"},{"input":18,"output":19,"interpolation":"LINEAR"},{"input":20,"output":21,"interpolation":"LINEAR"},{"input":22,"output":23,"interpolation":"LINEAR"},{"input":24,"output":25,"interpolation":"LINEAR"},{"input":26,"output":27,"interpolation":"LINEAR"},{"input":28,"output":29,"interpolation":"LINEAR"},{"input":30,"output":31,"interpolation":"LINEAR"}],"channels":[{"sampler":0,"target":{"node":3,"path":"rotation"}},{"sampler":1,"target":{"node":3,"path":"translation"}},{"sampler":2,"target":{"node":3,"path":"scale"}},{"sampler":3,"target":{"node":1,"path":"rotation"}},{"sampler":4,"target":{"node":1,"path":"translation"}},{"sampler":5,"target":{"node":1,"path":"scale"}},{"sampler":6,"target":{"node":15,"path":"rotation"}},{"sampler":7,"target":{"node":15,"path":"translation"}},{"sampler":8,"target":{"node":5,"path":"rotation"}},{"sampler":9,"target":{"node":5,"path":"translation"}},{"sampler":10,"target":{"node":6,"path":"translation"}},{"sampler":11,"target":{"node":7,"path":"rotation"}},{"sampler":12,"target":{"node":8,"path":"rotation"}},{"sampler":13,"target":{"node":9,"path":"rotation"}},{"sampler":14,"target":{"node":4,"path":"rotation"}},{"sampler":15,"target":{"node":4,"path":"translation"}}]}],"bufferViews":[{"buffer":0,"byteOffset":0,"byteLength":48},{"buffer":0,"byteOffset":48,"byteLength":192},{"buffer":0,"byteOffset":240,"byteLength":52},{"buffer":0,"byteOffset":292,"byteLength":156},{"buffer":0,"byteOffset":448,"byteLength":4},{"buffer":0,"byteOffset":452,"byteLength":12},{"buffer":0,"byteOffset":464,"byteLength":280},{"buffer":0,"byteOffset":744,"byteLength":1120},{"buffer":0,"byteOffset":1864,"byteLength":396},{"buffer":0,"byteOffset":2260,"byteLength":1188},{"buffer":0,"byteOffset":3448,"byteLength":4},{"buffer":0,"byteOffset":3452,"byteLength":12},{"buffer":0,"byteOffset":3464,"byteLength":556},{"buffer":0,"byteOffset":4020,"byteLength":2224},{"buffer":0,"byteOffset":6244,"byteLength":596},{"buffer":0,"byteOffset":6840,"byteLength":1788},{"buffer":0,"byteOffset":8628,"byteLength":52},{"buffer":0,"byteOffset":8680,"byteLength":208},{"buffer":0,"byteOffset":8888,"byteLength":68},{"buffer":0,"byteOffset":8956,"byteLength":204},{"buffer":0,"byteOffset":9160,"byteLength":16},{"buffer":0,"byteOffset":9176,"byteLength":48},{"buffer":0,"byteOffset":9224,"byteLength":44},{"buffer":0,"byteOffset":9268,"byteLength":176},{"buffer":0,"byteOffset":9444,"byteLength":24},{"buffer":0,"byteOffset":9468,"byteLength":96},{"buffer":0,"byteOffset":9564,"byteLength":164},{"buffer":0,"byteOffset":9728,"byteLength":656},{"buffer":0,"byteOffset":10384,"byteLength":44},{"buffer":0,"byteOffset":10428,"byteLength":176},{"buffer":0,"byteOffset":10604,"byteLength":72},{"buffer":0,"byteOffset":10676,"byteLength":216}],"buffers":[{"byteLength":10892,"uri":"data:application/octet-stream;base64,"}],"accessors":[{"bufferView":0,"componentType":5126,"count":12,"max":[1.7999999523162842],"min":[0],"type":"SCALAR"},{"bufferView":1,"componentType":5126,"count":12,"max":[0.23713184893131256,0.7484683990478516,-0.3203720152378082,0.03610697761178017],"min":[-0.09460020810365677,0.6350045204162598,-0.6755902171134949,-0.6400628685951233],"type":"VEC4"},{"bufferView":2,"componentType":5126,"count":13,"max":[1.7999999523162842],"min":[0],"type":"SCALAR"},{"bufferView":3,"componentType":5126,"count":13,"max":[0.30375000834465027,0.3125,-0.07500000298023224],"min":[0,0,-0.48750001192092896],"type":"VEC3"},{"bufferView":4,"componentType":5126,"count":1,"max":[0],"min":[0],"type":"SCALAR"},{"bufferView":5,"componentType":5126,"count":1,"max":[1,1.5,1],"min":[1,1.5,1],"type":"VEC3"},{"bufferView":6,"componentType":5126,"count":70,"max":[8.050000190734863],"min":[0],"type":"SCALAR"},{"bufferView":7,"componentType":5126,"count":70,"max":[0.6237223744392395,0.9199821949005127,0.030301569029688835,0.6255044937133789],"min":[-0.05685540288686752,0.6731829643249512,-0.5915895104408264,-0.3718053698539734],"type":"VEC4"},{"bufferView":8,"componentType":5126,"count":99,"max":[8.050000190734863],"min":[0],"type":"SCALAR"},{"bufferView":9,"componentType":5126,"count":99,"max":[0.01875000074505806,0.925000011920929,0.3617187440395355],"min":[-0.9944010376930237,-0.78515625,-0.8374999761581421],"type":"VEC3"},{"bufferView":10,"componentType":5126,"count":1,"max":[0],"min":[0],"type":"SCALAR"},{"bufferView":11,"componentType":5126,"count":1,"max":[1,1.5,1],"min":[1,1.5,1],"type":"VEC3"},{"bufferView":12,"componentType":5126,"count":139,"max":[8.399999618530273],"min":[0],"type":"SCALAR"},{"bufferView":13,"componentType":5126,"count":139,"max":[0.0782179906964302,0.02912692166864872,0.0659383237361908,1],"min":[-0.004694034811109304,-0.0009953018743544817,-0.005937047768384218,0.9947918653488159],"type":"VEC4"},{"bufferView":14,"componentType":5126,"count":149,"max":[8.399999618530273],"min":[0],"type":"SCALAR"},{"bufferView":15,"componentType":5126,"count":149,"max":[0.5972844362258911,0.1875,1.2473242282867432],"min":[0.46562498807907104,-0.04312499985098839,0.9429296851158142],"type":"VEC3"},{"bufferView":16,"componentType":5126,"count":13,"max":[6],"min":[3.75],"type":"SCALAR"},{"bufferView":17,"componentType":5126,"count":13,"max":[0.07795470952987671,0.008881806395947933,0.026176948100328445,1],"min":[0,0,-0.23272572457790375,0.9693724513053894],"type":"VEC4"},{"bufferView":18,"componentType":5126,"count":17,"max":[6],"min":[3.75],"type":"SCALAR"},{"bufferView":19,"componentType":5126,"count":17,"max":[-0.09375,-0.23468750715255737,0.715624988079071],"min":[-0.7562500238418579,-1.0046875476837158,-0.015625],"type":"VEC3"},{"bufferView":20,"componentType":5126,"count":4,"max":[1.4500000476837158],"min":[1],"type":"SCALAR"},{"bufferView":21,"componentType":5126,"count":4,"max":[0.03125,-0.146484375,0.64453125],"min":[0.03125,-0.146484375,0.26953125],"type":"VEC3"},{"bufferView":22,"componentType":5126,"count":11,"max":[7.449999809265137],"min":[2.3499999046325684],"type":"SCALAR"},{"bufferView":23,"componentType":5126,"count":11,"max":[0,0,0,1],"min":[-0.7147778868675232,0,0,0.6993515491485596],"type":"VEC4"},{"bufferView":24,"componentType":5126,"count":6,"max":[3.549999952316284],"min":[2.950000047683716],"type":"SCALAR"},{"bufferView":25,"componentType":5126,"count":6,"max":[0,0,0,1],"min":[-0.591309666633606,0,0,0.8064445853233337],"type":"VEC4"},{"bufferView":26,"componentType":5126,"count":41,"max":[8.350000381469727],"min":[0.20000000298023224],"type":"SCALAR"},{"bufferView":27,"componentType":5126,"count":41,"max":[0,0,0.026176948100328445,1],"min":[0,0,-0.06975647062063217,0.9975640773773193],"type":"VEC4"},{"bufferView":28,"componentType":5126,"count":11,"max":[7.050000190734863],"min":[4.699999809265137],"type":"SCALAR"},{"bufferView":29,"componentType":5126,"count":11,"max":[0,0,0.7765964865684509,1],"min":[0,0,-0.08715574443340302,0.6299983263015747],"type":"VEC4"},{"bufferView":30,"componentType":5126,"count":18,"max":[8.350000381469727],"min":[4.699999809265137],"type":"SCALAR"},{"bufferView":31,"componentType":5126,"count":18,"max":[0.12187500298023224,0.2809374928474426,0.015625],"min":[-0.042500000447034836,-0.05156249925494194,0.015625],"type":"VEC3"}]}