{"asset":{"version":"2.0","generator":"Blockbench 4.6.4 glTF exporter"},"scenes":[{"nodes":[12],"name":"blockbench_export"}],"scene":0,"nodes":[{"name":"camera","mesh":0},{"translation":[-0.375,-0.6875,0],"name":"LeftHand"},{"translation":[0.375,1,-0.5],"name":"l","children":[1]},{"translation":[0.375,-0.6875,0],"name":"RightHand"},{"translation":[-0.375,1,-0.5],"name":"R","children":[3]},{"translation":[0.09375,0.2421875,0.015625],"name":"bullet_chain"},{"translation":[-0.09375,-0.2421875,-0.015625],"name":"magazine2","children":[5]},{"translation":[0.03125,-0.146484375,0.26953125],"name":"bolt2"},{"translation":[0,0.10859375000000004,-0.003124999999999989],"name":"cap2"},{"translation":[0,0.3125,-0.5],"name":"m249","children":[6,7,8]},{"name":"bone","children":[4,9]},{"translation":[0.5,0.1875,1],"name":"bone2","children":[2,10]},{"children":[0,11]}],"bufferViews":[{"buffer":0,"byteOffset":0,"byteLength":288,"target":34962,"byteStride":12},{"buffer":0,"byteOffset":288,"byteLength":288,"target":34962,"byteStride":12},{"buffer":0,"byteOffset":576,"byteLength":192,"target":34962,"byteStride":8},{"buffer":0,"byteOffset":768,"byteLength":72,"target":34963},{"buffer":0,"byteOffset":840,"byteLength":4},{"buffer":0,"byteOffset":844,"byteLength":16},{"buffer":0,"byteOffset":860,"byteLength":4},{"buffer":0,"byteOffset":864,"byteLength":12},{"buffer":0,"byteOffset":876,"byteLength":4},{"buffer":0,"byteOffset":880,"byteLength":12},{"buffer":0,"byteOffset":892,"byteLength":416},{"buffer":0,"byteOffset":1308,"byteLength":1664},{"buffer":0,"byteOffset":2972,"byteLength":420},{"buffer":0,"byteOffset":3392,"byteLength":1260},{"buffer":0,"byteOffset":4652,"byteLength":4},{"buffer":0,"byteOffset":4656,"byteLength":12},{"buffer":0,"byteOffset":4668,"byteLength":408},{"buffer":0,"byteOffset":5076,"byteLength":1632},{"buffer":0,"byteOffset":6708,"byteLength":404},{"buffer":0,"byteOffset":7112,"byteLength":1212},{"buffer":0,"byteOffset":8324,"byteLength":144},{"buffer":0,"byteOffset":8468,"byteLength":576},{"buffer":0,"byteOffset":9044,"byteLength":56},{"buffer":0,"byteOffset":9100,"byteLength":224},{"buffer":0,"byteOffset":9324,"byteLength":72},{"buffer":0,"byteOffset":9396,"byteLength":216},{"buffer":0,"byteOffset":9612,"byteLength":128},{"buffer":0,"byteOffset":9740,"byteLength":512},{"buffer":0,"byteOffset":10252,"byteLength":180},{"buffer":0,"byteOffset":10432,"byteLength":540}],"buffers":[{"byteLength":10972,"uri":"data:application/octet-stream;base64,"}],"accessors":[{"bufferView":0,"componentType":5126,"count":24,"max":[0.125,0.125,0.125],"min":[0,0,0],"type":"VEC3"},{"bufferView":1,"componentType":5126,"count":24,"max":[1,1,1],"min":[-1,-1,-1],"type":"VEC3"},{"bufferView":2,"componentType":5126,"count":24,"max":[0.03125,1],"min":[0,0.96875],"type":"VEC2"},{"bufferView":3,"componentType":5123,"count":36,"max":[23],"min":[0],"type":"SCALAR"},{"bufferView":4,"componentType":5126,"count":1,"max":[0],"min":[0],"type":"SCALAR"},{"bufferView":5,"componentType":5126,"count":1,"max":[-4.51452149623189e-17,0.7372773289680481,-0.6755902171134949,4.1367970795711857e-17],"min":[-4.51452149623189e-17,0.7372773289680481,-0.6755902171134949,4.1367970795711857e-17],"type":"VEC4"},{"bufferView":6,"componentType":5126,"count":1,"max":[0],"min":[0],"type":"SCALAR"},{"bufferView":7,"componentType":5126,"count":1,"max":[0,0,-0.07500000298023224],"min":[0,0,-0.07500000298023224],"type":"VEC3"},{"bufferView":8,"componentType":5126,"count":1,"max":[0],"min":[0],"type":"SCALAR"},{"bufferView":9,"componentType":5126,"count":1,"max":[1,1.5,1],"min":[1,1.5,1],"type":"VEC3"},{"bufferView":10,"componentType":5126,"count":104,"max":[6.449999809265137],"min":[0],"type":"SCALAR"},{"bufferView":11,"componentType":5126,"count":104,"max":[0.6382008194923401,0.906999945640564,-0.09376569837331772,0.6325474977493286],"min":[-0.05972585454583168,0.6168254613876343,-0.5765765905380249,-0.3074752688407898],"type":"VEC4"},{"bufferView":12,"componentType":5126,"count":105,"max":[6.449999809265137],"min":[0],"type":"SCALAR"},{"bufferView":13,"componentType":5126,"count":105,"max":[-0.08425925672054291,0.823437511920929,0.00550949526950717],"min":[-0.9699262976646423,-0.699022114276886,-0.7514814734458923],"type":"VEC3"},{"bufferView":14,"componentType":5126,"count":1,"max":[0],"min":[0],"type":"SCALAR"},{"bufferView":15,"componentType":5126,"count":1,"max":[1,1.5,1],"min":[1,1.5,1],"type":"VEC3"},{"bufferView":16,"componentType":5126,"count":102,"max":[6.5],"min":[0],"type":"SCALAR"},{"bufferView":17,"componentType":5126,"count":102,"max":[0.009753117337822914,0.05421256273984909,0.04530421271920204,1],"min":[-0.014006969518959522,-0.0007174296188168228,-0.006980858277529478,0.997774600982666],"type":"VEC4"},{"bufferView":18,"componentType":5126,"count":101,"max":[6.449999809265137],"min":[0],"type":"SCALAR"},{"bufferView":19,"componentType":5126,"count":101,"max":[0.6162499785423279,0.1875,1.2028965950012207],"min":[0.48993268609046936,-0.07361563295125961,0.9681249856948853],"type":"VEC3"},{"bufferView":20,"componentType":5126,"count":36,"max":[5.5],"min":[0],"type":"SCALAR"},{"bufferView":21,"componentType":5126,"count":36,"max":[0,0,0,1],"min":[-0.7223639488220215,0,0,0.6915130615234375],"type":"VEC4"},{"bufferView":22,"componentType":5126,"count":14,"max":[3.9000000953674316],"min":[1.350000023841858],"type":"SCALAR"},{"bufferView":23,"componentType":5126,"count":14,"max":[0.18953782320022583,0.007759678643196821,0.03271908313035965,1],"min":[-0.019762389361858368,-0.04038600996136665,-0.22832556068897247,0.9549254775047302],"type":"VEC4"},{"bufferView":24,"componentType":5126,"count":18,"max":[3.9000000953674316],"min":[1.350000023841858],"type":"SCALAR"},{"bufferView":25,"componentType":5126,"count":18,"max":[-0.09375,-0.24062499403953552,0.4281249940395355],"min":[-0.78125,-0.8984375,-0.015625],"type":"VEC3"},{"bufferView":26,"componentType":5126,"count":32,"max":[5.099999904632568],"min":[0],"type":"SCALAR"},{"bufferView":27,"componentType":5126,"count":32,"max":[0,0,0.7765964865684509,1],"min":[0,0,-0.27249017357826233,0.6299983263015747],"type":"VEC4"},{"bufferView":28,"componentType":5126,"count":45,"max":[6.400000095367432],"min":[0],"type":"SCALAR"},{"bufferView":29,"componentType":5126,"count":45,"max":[0.12494140863418579,0.2809374928474426,0.015625],"min":[-0.042500000447034836,0.09718749672174454,0.015625],"type":"VEC3"}],"materials":[{"pbrMetallicRoughness":{"metallicFactor":0,"roughnessFactor":1},"alphaMode":"MASK","alphaCutoff":0.05,"doubleSided":true}],"meshes":[{"primitives":[{"mode":4,"attributes":{"POSITION":0,"NORMAL":1,"TEXCOORD_0":2},"indices":3,"material":0}]}],"animations":[{"name":"norm","samplers":[{"input":4,"output":5,"interpolation":"LINEAR"},{"input":6,"output":7,"interpolation":"LINEAR"},{"input":8,"output":9,"interpolation":"LINEAR"},{"input":10,"output":11,"interpolation":"LINEAR"},{"input":12,"output":13,"interpolation":"LINEAR"},{"input":14,"output":15,"interpolation":"LINEAR"},{"input":16,"output":17,"interpolation":"LINEAR"},{"input":18,"output":19,"interpolation":"LINEAR"},{"input":20,"output":21,"interpolation":"LINEAR"},{"input":22,"output":23,"interpolation":"LINEAR"},{"input":24,"output":25,"interpolation":"LINEAR"},{"input":26,"output":27,"interpolation":"LINEAR"},{"input":28,"output":29,"interpolation":"LINEAR"}],"channels":[{"sampler":0,"target":{"node":4,"path":"rotation"}},{"sampler":1,"target":{"node":4,"path":"translation"}},{"sampler":2,"target":{"node":4,"path":"scale"}},{"sampler":3,"target":{"node":2,"path":"rotation"}},{"sampler":4,"target":{"node":2,"path":"translation"}},{"sampler":5,"target":{"node":2,"path":"scale"}},{"sampler":6,"target":{"node":11,"path":"rotation"}},{"sampler":7,"target":{"node":11,"path":"translation"}},{"sampler":8,"target":{"node":8,"path":"rotation"}},{"sampler":9,"target":{"node":6,"path":"rotation"}},{"sampler":10,"target":{"node":6,"path":"translation"}},{"sampler":11,"target":{"node":5,"path":"rotation"}},{"sampler":12,"target":{"node":5,"path":"translation"}}]}]}