{"asset":{"version":"2.0","generator":"Blockbench 4.7.0 glTF exporter"},"scenes":[{"nodes":[16],"name":"blockbench_export"}],"scene":0,"nodes":[{"translation":[-0.375,-0.6875,0],"name":"LeftHand"},{"translation":[0.375,1,-0.5],"name":"l","children":[0]},{"translation":[0.375,-0.6875,0],"name":"RightHand"},{"translation":[-0.375,1,-0.5],"name":"R","children":[2]},{"translation":[0.09375,0.2421875,0.015625],"name":"bullet_chain"},{"translation":[-0.09375,-0.2421875,-0.015625],"name":"magazine2","children":[4]},{"translation":[0.03125,-0.146484375,0.26953125],"name":"bolt2"},{"translation":[0,0.10859375000000004,-0.003124999999999989],"name":"cap2"},{"translation":[-0.091796875,0.043749999999999956,0.004687499999999956],"name":"iron2"},{"translation":[0.03515625,0.04201812500000002,0.013299375000000002],"name":"rotate"},{"translation":[0.14095000000000002,0.06653500000000001,-0.365234375],"name":"carry2","children":[9]},{"name":"handguard2","children":[10]},{"name":"m249_default","children":[8,11]},{"translation":[0,0.3125,-0.5],"name":"m249","children":[5,6,7,12]},{"name":"bone","children":[3,13]},{"translation":[0.5,0.1875,1],"name":"bone2","children":[1,14]},{"children":[15]}],"animations":[{"name":"norm","samplers":[{"input":0,"output":1,"interpolation":"LINEAR"},{"input":2,"output":3,"interpolation":"LINEAR"},{"input":4,"output":5,"interpolation":"LINEAR"},{"input":6,"output":7,"interpolation":"LINEAR"},{"input":8,"output":9,"interpolation":"LINEAR"},{"input":10,"output":11,"interpolation":"LINEAR"},{"input":12,"output":13,"interpolation":"LINEAR"},{"input":14,"output":15,"interpolation":"LINEAR"},{"input":16,"output":17,"interpolation":"LINEAR"},{"input":18,"output":19,"interpolation":"LINEAR"},{"input":20,"output":21,"interpolation":"LINEAR"},{"input":22,"output":23,"interpolation":"LINEAR"},{"input":24,"output":25,"interpolation":"LINEAR"},{"input":26,"output":27,"interpolation":"LINEAR"}],"channels":[{"sampler":0,"target":{"node":3,"path":"rotation"}},{"sampler":1,"target":{"node":3,"path":"translation"}},{"sampler":2,"target":{"node":3,"path":"scale"}},{"sampler":3,"target":{"node":1,"path":"rotation"}},{"sampler":4,"target":{"node":1,"path":"translation"}},{"sampler":5,"target":{"node":1,"path":"scale"}},{"sampler":6,"target":{"node":15,"path":"rotation"}},{"sampler":7,"target":{"node":15,"path":"translation"}},{"sampler":8,"target":{"node":7,"path":"rotation"}},{"sampler":9,"target":{"node":5,"path":"rotation"}},{"sampler":10,"target":{"node":5,"path":"translation"}},{"sampler":11,"target":{"node":9,"path":"rotation"}},{"sampler":12,"target":{"node":4,"path":"rotation"}},{"sampler":13,"target":{"node":4,"path":"translation"}}]}],"bufferViews":[{"buffer":0,"byteOffset":0,"byteLength":4},{"buffer":0,"byteOffset":4,"byteLength":16},{"buffer":0,"byteOffset":20,"byteLength":4},{"buffer":0,"byteOffset":24,"byteLength":12},{"buffer":0,"byteOffset":36,"byteLength":4},{"buffer":0,"byteOffset":40,"byteLength":12},{"buffer":0,"byteOffset":52,"byteLength":416},{"buffer":0,"byteOffset":468,"byteLength":1664},{"buffer":0,"byteOffset":2132,"byteLength":420},{"buffer":0,"byteOffset":2552,"byteLength":1260},{"buffer":0,"byteOffset":3812,"byteLength":4},{"buffer":0,"byteOffset":3816,"byteLength":12},{"buffer":0,"byteOffset":3828,"byteLength":408},{"buffer":0,"byteOffset":4236,"byteLength":1632},{"buffer":0,"byteOffset":5868,"byteLength":404},{"buffer":0,"byteOffset":6272,"byteLength":1212},{"buffer":0,"byteOffset":7484,"byteLength":144},{"buffer":0,"byteOffset":7628,"byteLength":576},{"buffer":0,"byteOffset":8204,"byteLength":56},{"buffer":0,"byteOffset":8260,"byteLength":224},{"buffer":0,"byteOffset":8484,"byteLength":72},{"buffer":0,"byteOffset":8556,"byteLength":216},{"buffer":0,"byteOffset":8772,"byteLength":140},{"buffer":0,"byteOffset":8912,"byteLength":560},{"buffer":0,"byteOffset":9472,"byteLength":128},{"buffer":0,"byteOffset":9600,"byteLength":512},{"buffer":0,"byteOffset":10112,"byteLength":180},{"buffer":0,"byteOffset":10292,"byteLength":540}],"buffers":[{"byteLength":10832,"uri":"data:application/octet-stream;base64,"}],"accessors":[{"bufferView":0,"componentType":5126,"count":1,"max":[0],"min":[0],"type":"SCALAR"},{"bufferView":1,"componentType":5126,"count":1,"max":[-4.51452149623189e-17,0.7372773289680481,-0.6755902171134949,4.1367970795711857e-17],"min":[-4.51452149623189e-17,0.7372773289680481,-0.6755902171134949,4.1367970795711857e-17],"type":"VEC4"},{"bufferView":2,"componentType":5126,"count":1,"max":[0],"min":[0],"type":"SCALAR"},{"bufferView":3,"componentType":5126,"count":1,"max":[0,0,-0.07500000298023224],"min":[0,0,-0.07500000298023224],"type":"VEC3"},{"bufferView":4,"componentType":5126,"count":1,"max":[0],"min":[0],"type":"SCALAR"},{"bufferView":5,"componentType":5126,"count":1,"max":[1,1.5,1],"min":[1,1.5,1],"type":"VEC3"},{"bufferView":6,"componentType":5126,"count":104,"max":[6.449999809265137],"min":[0],"type":"SCALAR"},{"bufferView":7,"componentType":5126,"count":104,"max":[0.6382008194923401,0.906999945640564,-0.09376569837331772,0.6325474977493286],"min":[-0.05972585454583168,0.6168254613876343,-0.5765765905380249,-0.3074752688407898],"type":"VEC4"},{"bufferView":8,"componentType":5126,"count":105,"max":[6.449999809265137],"min":[0],"type":"SCALAR"},{"bufferView":9,"componentType":5126,"count":105,"max":[-0.08425925672054291,0.823437511920929,0.00550949526950717],"min":[-0.9699262976646423,-0.699022114276886,-0.7514814734458923],"type":"VEC3"},{"bufferView":10,"componentType":5126,"count":1,"max":[0],"min":[0],"type":"SCALAR"},{"bufferView":11,"componentType":5126,"count":1,"max":[1,1.5,1],"min":[1,1.5,1],"type":"VEC3"},{"bufferView":12,"componentType":5126,"count":102,"max":[6.5],"min":[0],"type":"SCALAR"},{"bufferView":13,"componentType":5126,"count":102,"max":[0.009753117337822914,0.05421256273984909,0.04530421271920204,1],"min":[-0.014006969518959522,-0.0007174296188168228,-0.006980858277529478,0.997774600982666],"type":"VEC4"},{"bufferView":14,"componentType":5126,"count":101,"max":[6.449999809265137],"min":[0],"type":"SCALAR"},{"bufferView":15,"componentType":5126,"count":101,"max":[0.6162499785423279,0.1875,1.2028965950012207],"min":[0.48993268609046936,-0.07361563295125961,0.9681249856948853],"type":"VEC3"},{"bufferView":16,"componentType":5126,"count":36,"max":[5.5],"min":[0],"type":"SCALAR"},{"bufferView":17,"componentType":5126,"count":36,"max":[0,0,0,1],"min":[-0.7223639488220215,0,0,0.6915130615234375],"type":"VEC4"},{"bufferView":18,"componentType":5126,"count":14,"max":[3.9000000953674316],"min":[1.350000023841858],"type":"SCALAR"},{"bufferView":19,"componentType":5126,"count":14,"max":[0.18953782320022583,0.007759678643196821,0.03271908313035965,1],"min":[-0.019762389361858368,-0.04038600996136665,-0.22832556068897247,0.9549254775047302],"type":"VEC4"},{"bufferView":20,"componentType":5126,"count":18,"max":[3.9000000953674316],"min":[1.350000023841858],"type":"SCALAR"},{"bufferView":21,"componentType":5126,"count":18,"max":[-0.09375,-0.24062499403953552,0.4281249940395355],"min":[-0.78125,-0.8984375,-0.015625],"type":"VEC3"},{"bufferView":22,"componentType":5126,"count":35,"max":[6.5],"min":[0],"type":"SCALAR"},{"bufferView":23,"componentType":5126,"count":35,"max":[0,0,0.06322598457336426,1],"min":[0,0,-0.028357798233628273,0.9979992508888245],"type":"VEC4"},{"bufferView":24,"componentType":5126,"count":32,"max":[5.099999904632568],"min":[0],"type":"SCALAR"},{"bufferView":25,"componentType":5126,"count":32,"max":[0,0,0.7765964865684509,1],"min":[0,0,-0.27249017357826233,0.6299983263015747],"type":"VEC4"},{"bufferView":26,"componentType":5126,"count":45,"max":[6.400000095367432],"min":[0],"type":"SCALAR"},{"bufferView":27,"componentType":5126,"count":45,"max":[0.12494140863418579,0.2809374928474426,0.015625],"min":[-0.042500000447034836,0.09718749672174454,0.015625],"type":"VEC3"}]}