{"asset":{"version":"2.0","generator":"Blockbench 4.6.4 glTF exporter"},"scenes":[{"nodes":[12],"name":"blockbench_export"}],"scene":0,"nodes":[{"translation":[0.1375,0.19374999999999998,0.0625],"name":"bone4"},{"translation":[-0.25,0.0625,-0.1875],"name":"Magazine","children":[0]},{"translation":[0,0.32343750000000004,-0.271875],"name":"GunCaps"},{"translation":[-0.5,-0.1875,-1.125],"name":"bolt"},{"name":"m60","children":[1,2,3]},{"translation":[0.375,-0.6875,0],"name":"RightHand"},{"translation":[-0.375,1,-0.625],"name":"R","children":[5]},{"name":"bone","children":[4,6]},{"translation":[-0.375,-0.6875,0],"name":"LeftHand"},{"translation":[0.375,1,-0.625],"name":"l","children":[8]},{"name":"bone2","children":[7,9]},{"translation":[0.5,0.1875,1.125],"name":"bone3","children":[10]},{"children":[11]}],"animations":[{"name":"bullet_chain","samplers":[{"input":0,"output":1,"interpolation":"LINEAR"},{"input":2,"output":3,"interpolation":"LINEAR"},{"input":4,"output":5,"interpolation":"LINEAR"},{"input":6,"output":7,"interpolation":"LINEAR"},{"input":8,"output":9,"interpolation":"LINEAR"},{"input":10,"output":11,"interpolation":"LINEAR"},{"input":12,"output":13,"interpolation":"LINEAR"},{"input":14,"output":15,"interpolation":"LINEAR"},{"input":16,"output":17,"interpolation":"LINEAR"}],"channels":[{"sampler":0,"target":{"node":0,"path":"rotation"}},{"sampler":1,"target":{"node":0,"path":"translation"}},{"sampler":2,"target":{"node":0,"path":"scale"}},{"sampler":3,"target":{"node":6,"path":"rotation"}},{"sampler":4,"target":{"node":6,"path":"translation"}},{"sampler":5,"target":{"node":6,"path":"scale"}},{"sampler":6,"target":{"node":9,"path":"rotation"}},{"sampler":7,"target":{"node":9,"path":"translation"}},{"sampler":8,"target":{"node":9,"path":"scale"}}]}],"bufferViews":[{"buffer":0,"byteOffset":0,"byteLength":8},{"buffer":0,"byteOffset":8,"byteLength":32},{"buffer":0,"byteOffset":40,"byteLength":8},{"buffer":0,"byteOffset":48,"byteLength":24},{"buffer":0,"byteOffset":72,"byteLength":8},{"buffer":0,"byteOffset":80,"byteLength":24},{"buffer":0,"byteOffset":104,"byteLength":4},{"buffer":0,"byteOffset":108,"byteLength":16},{"buffer":0,"byteOffset":124,"byteLength":4},{"buffer":0,"byteOffset":128,"byteLength":12},{"buffer":0,"byteOffset":140,"byteLength":4},{"buffer":0,"byteOffset":144,"byteLength":12},{"buffer":0,"byteOffset":156,"byteLength":4},{"buffer":0,"byteOffset":160,"byteLength":16},{"buffer":0,"byteOffset":176,"byteLength":4},{"buffer":0,"byteOffset":180,"byteLength":12},{"buffer":0,"byteOffset":192,"byteLength":4},{"buffer":0,"byteOffset":196,"byteLength":12}],"buffers":[{"byteLength":208,"uri":"data:application/octet-stream;base64,"}],"accessors":[{"bufferView":0,"componentType":5126,"count":2,"max":[0.0833333358168602],"min":[0],"type":"SCALAR"},{"bufferView":1,"componentType":5126,"count":2,"max":[0,0,0.2079116851091385,1],"min":[0,0,0,0.9781476259231567],"type":"VEC4"},{"bufferView":2,"componentType":5126,"count":2,"max":[0.0833333358168602],"min":[0],"type":"SCALAR"},{"bufferView":3,"componentType":5126,"count":2,"max":[0.13750000298023224,0.19374999403953552,0.0625],"min":[0.11249999701976776,0.16249999403953552,0.0625],"type":"VEC3"},{"bufferView":4,"componentType":5126,"count":2,"max":[0.0833333358168602],"min":[0],"type":"SCALAR"},{"bufferView":5,"componentType":5126,"count":2,"max":[1,1,1],"min":[1,1,1],"type":"VEC3"},{"bufferView":6,"componentType":5126,"count":1,"max":[0],"min":[0],"type":"SCALAR"},{"bufferView":7,"componentType":5126,"count":1,"max":[-0.05195100978016853,0.7749077677726746,-0.6288788914680481,-0.03647373244166374],"min":[-0.05195100978016853,0.7749077677726746,-0.6288788914680481,-0.03647373244166374],"type":"VEC4"},{"bufferView":8,"componentType":5126,"count":1,"max":[0],"min":[0],"type":"SCALAR"},{"bufferView":9,"componentType":5126,"count":1,"max":[0.02500000037252903,-0.02500000037252903,0],"min":[0.02500000037252903,-0.02500000037252903,0],"type":"VEC3"},{"bufferView":10,"componentType":5126,"count":1,"max":[0],"min":[0],"type":"SCALAR"},{"bufferView":11,"componentType":5126,"count":1,"max":[1,1.5,1],"min":[1,1.5,1],"type":"VEC3"},{"bufferView":12,"componentType":5126,"count":1,"max":[0],"min":[0],"type":"SCALAR"},{"bufferView":13,"componentType":5126,"count":1,"max":[-0.07567659020423889,0.6157470345497131,-0.4101913571357727,0.668484628200531],"min":[-0.07567659020423889,0.6157470345497131,-0.4101913571357727,0.668484628200531],"type":"VEC4"},{"bufferView":14,"componentType":5126,"count":1,"max":[0],"min":[0],"type":"SCALAR"},{"bufferView":15,"componentType":5126,"count":1,"max":[-0.07500000298023224,0,-0.6875],"min":[-0.07500000298023224,0,-0.6875],"type":"VEC3"},{"bufferView":16,"componentType":5126,"count":1,"max":[0],"min":[0],"type":"SCALAR"},{"bufferView":17,"componentType":5126,"count":1,"max":[1,1.5,1],"min":[1,1.5,1],"type":"VEC3"}]}