{"asset":{"version":"2.0","generator":"Blockbench 4.7.0 glTF exporter"},"scenes":[{"nodes":[16],"name":"blockbench_export"}],"scene":0,"nodes":[{"translation":[0.375,-0.6875,0],"name":"RightHand"},{"translation":[-0.375,0.875,-0.5],"name":"R","children":[0]},{"translation":[-0.18724124999999997,-0.363003125,-1.054296875],"name":"group6"},{"translation":[0.18710249999999995,0.6444975,0.197265625],"name":"carry2","children":[2]},{"name":"m82a2_body","children":[3]},{"translation":[-0.496118125,-0.5117025,-0.28515625],"name":"bolt"},{"name":"m82a2_bolt","children":[5]},{"name":"50bmg_bullet"},{"name":"mb","children":[7]},{"name":"m82a2_mag_short","children":[8]},{"translation":[0,0.1875,-0.5],"name":"m82","children":[4,6,9]},{"name":"bone","children":[1,10]},{"translation":[-0.375,-0.6875,0],"name":"LeftHand"},{"translation":[0.375,0.875,-0.5],"name":"l","children":[12]},{"translation":[0,-0.0625,-0.3125],"name":"bone2","children":[11,13]},{"translation":[0.5,0.375,1.3125],"name":"bone3","children":[14]},{"children":[15]}],"animations":[{"name":"static_pose","samplers":[{"input":0,"output":1,"interpolation":"LINEAR"},{"input":2,"output":3,"interpolation":"LINEAR"},{"input":4,"output":5,"interpolation":"LINEAR"},{"input":6,"output":7,"interpolation":"LINEAR"},{"input":8,"output":9,"interpolation":"LINEAR"},{"input":10,"output":11,"interpolation":"LINEAR"},{"input":12,"output":13,"interpolation":"LINEAR"},{"input":14,"output":15,"interpolation":"LINEAR"}],"channels":[{"sampler":0,"target":{"node":1,"path":"rotation"}},{"sampler":1,"target":{"node":1,"path":"translation"}},{"sampler":2,"target":{"node":1,"path":"scale"}},{"sampler":3,"target":{"node":13,"path":"rotation"}},{"sampler":4,"target":{"node":13,"path":"translation"}},{"sampler":5,"target":{"node":13,"path":"scale"}},{"sampler":6,"target":{"node":14,"path":"rotation"}},{"sampler":7,"target":{"node":14,"path":"translation"}}]}],"bufferViews":[{"buffer":0,"byteOffset":0,"byteLength":4},{"buffer":0,"byteOffset":4,"byteLength":16},{"buffer":0,"byteOffset":20,"byteLength":4},{"buffer":0,"byteOffset":24,"byteLength":12},{"buffer":0,"byteOffset":36,"byteLength":4},{"buffer":0,"byteOffset":40,"byteLength":12},{"buffer":0,"byteOffset":52,"byteLength":4},{"buffer":0,"byteOffset":56,"byteLength":16},{"buffer":0,"byteOffset":72,"byteLength":4},{"buffer":0,"byteOffset":76,"byteLength":12},{"buffer":0,"byteOffset":88,"byteLength":4},{"buffer":0,"byteOffset":92,"byteLength":12},{"buffer":0,"byteOffset":104,"byteLength":4},{"buffer":0,"byteOffset":108,"byteLength":16},{"buffer":0,"byteOffset":124,"byteLength":4},{"buffer":0,"byteOffset":128,"byteLength":12}],"buffers":[{"byteLength":140,"uri":"data:application/octet-stream;base64,"}],"accessors":[{"bufferView":0,"componentType":5126,"count":1,"max":[0],"min":[0],"type":"SCALAR"},{"bufferView":1,"componentType":5126,"count":1,"max":[-4.51452149623189e-17,0.7372773289680481,-0.6755902171134949,4.1367970795711857e-17],"min":[-4.51452149623189e-17,0.7372773289680481,-0.6755902171134949,4.1367970795711857e-17],"type":"VEC4"},{"bufferView":2,"componentType":5126,"count":1,"max":[0],"min":[0],"type":"SCALAR"},{"bufferView":3,"componentType":5126,"count":1,"max":[0.02500000037252903,0.03125,-0.07500000298023224],"min":[0.02500000037252903,0.03125,-0.07500000298023224],"type":"VEC3"},{"bufferView":4,"componentType":5126,"count":1,"max":[0],"min":[0],"type":"SCALAR"},{"bufferView":5,"componentType":5126,"count":1,"max":[1,1.5,1],"min":[1,1.5,1],"type":"VEC3"},{"bufferView":6,"componentType":5126,"count":1,"max":[0],"min":[0],"type":"SCALAR"},{"bufferView":7,"componentType":5126,"count":1,"max":[-0.1580483317375183,0.6670874953269958,-0.551766574382782,0.4749406576156616],"min":[-0.1580483317375183,0.6670874953269958,-0.551766574382782,0.4749406576156616],"type":"VEC4"},{"bufferView":8,"componentType":5126,"count":1,"max":[0],"min":[0],"type":"SCALAR"},{"bufferView":9,"componentType":5126,"count":1,"max":[-0.10625000298023224,0.125,-1.021875023841858],"min":[-0.10625000298023224,0.125,-1.021875023841858],"type":"VEC3"},{"bufferView":10,"componentType":5126,"count":1,"max":[0],"min":[0],"type":"SCALAR"},{"bufferView":11,"componentType":5126,"count":1,"max":[1,1.5,1],"min":[1,1.5,1],"type":"VEC3"},{"bufferView":12,"componentType":5126,"count":1,"max":[0],"min":[0],"type":"SCALAR"},{"bufferView":13,"componentType":5126,"count":1,"max":[0,0,0,1],"min":[0,0,0,1],"type":"VEC4"},{"bufferView":14,"componentType":5126,"count":1,"max":[0],"min":[0],"type":"SCALAR"},{"bufferView":15,"componentType":5126,"count":1,"max":[0,-0.0625,-0.3125],"min":[0,-0.0625,-0.3125],"type":"VEC3"}]}