{"asset":{"version":"2.0","generator":"Blockbench 4.7.0 glTF exporter"},"scenes":[{"nodes":[16],"name":"blockbench_export"}],"scene":0,"nodes":[{"translation":[0.375,-0.6875,0],"name":"RightHand"},{"translation":[-0.375,0.875,-0.5],"name":"R","children":[0]},{"translation":[-0.18724124999999997,-0.363003125,-1.054296875],"name":"group6"},{"translation":[0.18710249999999995,0.6444975,0.197265625],"name":"carry2","children":[2]},{"name":"m82a2_body","children":[3]},{"translation":[-0.496118125,-0.5117025,-0.28515625],"name":"bolt"},{"name":"m82a2_bolt","children":[5]},{"name":"50bmg_bullet"},{"name":"mb","children":[7]},{"name":"m82a2_mag_short","children":[8]},{"translation":[0,0.1875,-0.5],"name":"m82","children":[4,6,9]},{"name":"bone","children":[1,10]},{"translation":[-0.375,-0.6875,0],"name":"LeftHand"},{"translation":[0.375,0.875,-0.5],"name":"l","children":[12]},{"translation":[0,-0.0625,-0.3125],"name":"bone2","children":[11,13]},{"translation":[0.5,0.375,1.3125],"name":"bone3","children":[14]},{"children":[15]}],"animations":[{"name":"reload_empty","samplers":[{"input":0,"output":1,"interpolation":"LINEAR"},{"input":2,"output":3,"interpolation":"LINEAR"},{"input":4,"output":5,"interpolation":"LINEAR"},{"input":6,"output":7,"interpolation":"LINEAR"},{"input":8,"output":9,"interpolation":"LINEAR"},{"input":10,"output":11,"interpolation":"LINEAR"},{"input":12,"output":13,"interpolation":"LINEAR"},{"input":14,"output":15,"interpolation":"LINEAR"},{"input":16,"output":17,"interpolation":"LINEAR"},{"input":18,"output":19,"interpolation":"LINEAR"},{"input":20,"output":21,"interpolation":"LINEAR"},{"input":22,"output":23,"interpolation":"LINEAR"},{"input":24,"output":25,"interpolation":"LINEAR"}],"channels":[{"sampler":0,"target":{"node":1,"path":"rotation"}},{"sampler":1,"target":{"node":1,"path":"translation"}},{"sampler":2,"target":{"node":1,"path":"scale"}},{"sampler":3,"target":{"node":13,"path":"rotation"}},{"sampler":4,"target":{"node":13,"path":"translation"}},{"sampler":5,"target":{"node":13,"path":"scale"}},{"sampler":6,"target":{"node":14,"path":"rotation"}},{"sampler":7,"target":{"node":14,"path":"translation"}},{"sampler":8,"target":{"node":6,"path":"translation"}},{"sampler":9,"target":{"node":9,"path":"rotation"}},{"sampler":10,"target":{"node":9,"path":"translation"}},{"sampler":11,"target":{"node":7,"path":"translation"}},{"sampler":12,"target":{"node":2,"path":"rotation"}}]}],"bufferViews":[{"buffer":0,"byteOffset":0,"byteLength":48},{"buffer":0,"byteOffset":48,"byteLength":192},{"buffer":0,"byteOffset":240,"byteLength":56},{"buffer":0,"byteOffset":296,"byteLength":168},{"buffer":0,"byteOffset":464,"byteLength":4},{"buffer":0,"byteOffset":468,"byteLength":12},{"buffer":0,"byteOffset":480,"byteLength":308},{"buffer":0,"byteOffset":788,"byteLength":1232},{"buffer":0,"byteOffset":2020,"byteLength":300},{"buffer":0,"byteOffset":2320,"byteLength":900},{"buffer":0,"byteOffset":3220,"byteLength":4},{"buffer":0,"byteOffset":3224,"byteLength":12},{"buffer":0,"byteOffset":3236,"byteLength":308},{"buffer":0,"byteOffset":3544,"byteLength":1232},{"buffer":0,"byteOffset":4776,"byteLength":324},{"buffer":0,"byteOffset":5100,"byteLength":972},{"buffer":0,"byteOffset":6072,"byteLength":24},{"buffer":0,"byteOffset":6096,"byteLength":72},{"buffer":0,"byteOffset":6168,"byteLength":124},{"buffer":0,"byteOffset":6292,"byteLength":496},{"buffer":0,"byteOffset":6788,"byteLength":128},{"buffer":0,"byteOffset":6916,"byteLength":384},{"buffer":0,"byteOffset":7300,"byteLength":16},{"buffer":0,"byteOffset":7316,"byteLength":48},{"buffer":0,"byteOffset":7364,"byteLength":132},{"buffer":0,"byteOffset":7496,"byteLength":528}],"buffers":[{"byteLength":8024,"uri":"data:application/octet-stream;base64,"}],"accessors":[{"bufferView":0,"componentType":5126,"count":12,"max":[4.400000095367432],"min":[0],"type":"SCALAR"},{"bufferView":1,"componentType":5126,"count":12,"max":[0.2905775308609009,0.7826377153396606,-0.4161815941333771,4.1367970795711857e-17],"min":[-4.51452149623189e-17,0.7160046696662903,-0.6755902171134949,-0.4792649447917938],"type":"VEC4"},{"bufferView":2,"componentType":5126,"count":14,"max":[4.400000095367432],"min":[0],"type":"SCALAR"},{"bufferView":3,"componentType":5126,"count":14,"max":[0.265625,0.35468751192092896,0.2718749940395355],"min":[0.02500000037252903,0.03125,-0.8218749761581421],"type":"VEC3"},{"bufferView":4,"componentType":5126,"count":1,"max":[0],"min":[0],"type":"SCALAR"},{"bufferView":5,"componentType":5126,"count":1,"max":[1,1.5,1],"min":[1,1.5,1],"type":"VEC3"},{"bufferView":6,"componentType":5126,"count":77,"max":[4.75],"min":[0],"type":"SCALAR"},{"bufferView":7,"componentType":5126,"count":77,"max":[0.2857796549797058,0.8804344534873962,-0.4177613854408264,0.628072202205658],"min":[-0.418550044298172,0.5188747048377991,-0.6677606105804443,-0.1107470914721489],"type":"VEC4"},{"bufferView":8,"componentType":5126,"count":75,"max":[4.699999809265137],"min":[0],"type":"SCALAR"},{"bufferView":9,"componentType":5126,"count":75,"max":[0,0.1424074023962021,-0.044453416019678116],"min":[-0.5714643597602844,-1.094099998474121,-1.0438194274902344],"type":"VEC3"},{"bufferView":10,"componentType":5126,"count":1,"max":[0],"min":[0],"type":"SCALAR"},{"bufferView":11,"componentType":5126,"count":1,"max":[1,1.5,1],"min":[1,1.5,1],"type":"VEC3"},{"bufferView":12,"componentType":5126,"count":77,"max":[5.199999809265137],"min":[0],"type":"SCALAR"},{"bufferView":13,"componentType":5126,"count":77,"max":[0.1363612562417984,0.11401072889566422,0.19460761547088623,1],"min":[-0.005580197554081678,-0.0007151084719225764,-0.1714509278535843,0.9696808457374573],"type":"VEC4"},{"bufferView":14,"componentType":5126,"count":81,"max":[5.199999809265137],"min":[0],"type":"SCALAR"},{"bufferView":15,"componentType":5126,"count":81,"max":[0.00048737702309153974,0.01970311813056469,-0.26012730598449707],"min":[-0.10947320610284805,-0.1711111068725586,-0.5265775322914124],"type":"VEC3"},{"bufferView":16,"componentType":5126,"count":6,"max":[4.349999904632568],"min":[3.8499999046325684],"type":"SCALAR"},{"bufferView":17,"componentType":5126,"count":6,"max":[0,0,0.6875],"min":[0,0,0],"type":"VEC3"},{"bufferView":18,"componentType":5126,"count":31,"max":[3.0999999046325684],"min":[0],"type":"SCALAR"},{"bufferView":19,"componentType":5126,"count":31,"max":[0.9519075751304626,0.14743168652057648,0.05154082924127579,1],"min":[0,-0.1133960634469986,-0.7743561267852783,0.19828909635543823],"type":"VEC4"},{"bufferView":20,"componentType":5126,"count":32,"max":[3.0999999046325684],"min":[0],"type":"SCALAR"},{"bufferView":21,"componentType":5126,"count":32,"max":[0.3021412491798401,0,0.4779931306838989],"min":[-0.33363375067710876,-1.6556074619293213,-0.07500000298023224],"type":"VEC3"},{"bufferView":22,"componentType":5126,"count":4,"max":[4.5],"min":[1.850000023841858],"type":"SCALAR"},{"bufferView":23,"componentType":5126,"count":4,"max":[0,0.0625,0],"min":[0,0,0],"type":"VEC3"},{"bufferView":24,"componentType":5126,"count":33,"max":[5.25],"min":[0.44999998807907104],"type":"SCALAR"},{"bufferView":25,"componentType":5126,"count":33,"max":[0,0,0.11320321261882782,1],"min":[0,0,-0.004363309126347303,0.9935718774795532],"type":"VEC4"}]}