{"asset":{"version":"2.0","generator":"Blockbench 4.7.0 glTF exporter"},"scenes":[{"nodes":[16],"name":"blockbench_export"}],"scene":0,"nodes":[{"translation":[0.375,-0.6875,0],"name":"RightHand"},{"translation":[-0.375,0.875,-0.5],"name":"R","children":[0]},{"translation":[-0.18724124999999997,-0.363003125,-1.054296875],"name":"group6"},{"translation":[0.18710249999999995,0.6444975,0.197265625],"name":"carry2","children":[2]},{"name":"m82a2_body","children":[3]},{"translation":[-0.496118125,-0.5117025,-0.28515625],"name":"bolt"},{"name":"m82a2_bolt","children":[5]},{"name":"50bmg_bullet"},{"name":"mb","children":[7]},{"name":"m82a2_mag_short","children":[8]},{"translation":[0,0.1875,-0.5],"name":"m82","children":[4,6,9]},{"name":"bone","children":[1,10]},{"translation":[-0.375,-0.6875,0],"name":"LeftHand"},{"translation":[0.375,0.875,-0.5],"name":"l","children":[12]},{"translation":[0,-0.0625,-0.3125],"name":"bone2","children":[11,13]},{"translation":[0.5,0.375,1.3125],"name":"bone3","children":[14]},{"children":[15]}],"animations":[{"name":"reload_norm","samplers":[{"input":0,"output":1,"interpolation":"LINEAR"},{"input":2,"output":3,"interpolation":"LINEAR"},{"input":4,"output":5,"interpolation":"LINEAR"},{"input":6,"output":7,"interpolation":"LINEAR"},{"input":8,"output":9,"interpolation":"LINEAR"},{"input":10,"output":11,"interpolation":"LINEAR"},{"input":12,"output":13,"interpolation":"LINEAR"},{"input":14,"output":15,"interpolation":"LINEAR"},{"input":16,"output":17,"interpolation":"LINEAR"},{"input":18,"output":19,"interpolation":"LINEAR"},{"input":20,"output":21,"interpolation":"LINEAR"},{"input":22,"output":23,"interpolation":"LINEAR"}],"channels":[{"sampler":0,"target":{"node":1,"path":"rotation"}},{"sampler":1,"target":{"node":1,"path":"translation"}},{"sampler":2,"target":{"node":1,"path":"scale"}},{"sampler":3,"target":{"node":13,"path":"rotation"}},{"sampler":4,"target":{"node":13,"path":"translation"}},{"sampler":5,"target":{"node":13,"path":"scale"}},{"sampler":6,"target":{"node":14,"path":"rotation"}},{"sampler":7,"target":{"node":14,"path":"translation"}},{"sampler":8,"target":{"node":9,"path":"rotation"}},{"sampler":9,"target":{"node":9,"path":"translation"}},{"sampler":10,"target":{"node":7,"path":"translation"}},{"sampler":11,"target":{"node":2,"path":"rotation"}}]}],"bufferViews":[{"buffer":0,"byteOffset":0,"byteLength":4},{"buffer":0,"byteOffset":4,"byteLength":16},{"buffer":0,"byteOffset":20,"byteLength":4},{"buffer":0,"byteOffset":24,"byteLength":12},{"buffer":0,"byteOffset":36,"byteLength":4},{"buffer":0,"byteOffset":40,"byteLength":12},{"buffer":0,"byteOffset":52,"byteLength":232},{"buffer":0,"byteOffset":284,"byteLength":928},{"buffer":0,"byteOffset":1212,"byteLength":224},{"buffer":0,"byteOffset":1436,"byteLength":672},{"buffer":0,"byteOffset":2108,"byteLength":4},{"buffer":0,"byteOffset":2112,"byteLength":12},{"buffer":0,"byteOffset":2124,"byteLength":264},{"buffer":0,"byteOffset":2388,"byteLength":1056},{"buffer":0,"byteOffset":3444,"byteLength":260},{"buffer":0,"byteOffset":3704,"byteLength":780},{"buffer":0,"byteOffset":4484,"byteLength":40},{"buffer":0,"byteOffset":4524,"byteLength":160},{"buffer":0,"byteOffset":4684,"byteLength":128},{"buffer":0,"byteOffset":4812,"byteLength":384},{"buffer":0,"byteOffset":5196,"byteLength":16},{"buffer":0,"byteOffset":5212,"byteLength":48},{"buffer":0,"byteOffset":5260,"byteLength":104},{"buffer":0,"byteOffset":5364,"byteLength":416}],"buffers":[{"byteLength":5780,"uri":"data:application/octet-stream;base64,"}],"accessors":[{"bufferView":0,"componentType":5126,"count":1,"max":[0],"min":[0],"type":"SCALAR"},{"bufferView":1,"componentType":5126,"count":1,"max":[-4.51452149623189e-17,0.7372773289680481,-0.6755902171134949,4.1367970795711857e-17],"min":[-4.51452149623189e-17,0.7372773289680481,-0.6755902171134949,4.1367970795711857e-17],"type":"VEC4"},{"bufferView":2,"componentType":5126,"count":1,"max":[0],"min":[0],"type":"SCALAR"},{"bufferView":3,"componentType":5126,"count":1,"max":[0.02500000037252903,0.03125,-0.07500000298023224],"min":[0.02500000037252903,0.03125,-0.07500000298023224],"type":"VEC3"},{"bufferView":4,"componentType":5126,"count":1,"max":[0],"min":[0],"type":"SCALAR"},{"bufferView":5,"componentType":5126,"count":1,"max":[1,1.5,1],"min":[1,1.5,1],"type":"VEC3"},{"bufferView":6,"componentType":5126,"count":58,"max":[3.5999999046325684],"min":[0],"type":"SCALAR"},{"bufferView":7,"componentType":5126,"count":58,"max":[0.19409021735191345,0.8908534049987793,-0.2737516164779663,0.6786201000213623],"min":[-0.33585402369499207,0.5734590291976929,-0.5548906922340393,-0.033978696912527084],"type":"VEC4"},{"bufferView":8,"componentType":5126,"count":56,"max":[3.5999999046325684],"min":[0],"type":"SCALAR"},{"bufferView":9,"componentType":5126,"count":56,"max":[0.11191974580287933,0.16311216354370117,0.09427890181541443],"min":[-0.17012812197208405,-1.0232940912246704,-1.021875023841858],"type":"VEC3"},{"bufferView":10,"componentType":5126,"count":1,"max":[0],"min":[0],"type":"SCALAR"},{"bufferView":11,"componentType":5126,"count":1,"max":[1,1.5,1],"min":[1,1.5,1],"type":"VEC3"},{"bufferView":12,"componentType":5126,"count":66,"max":[4.25],"min":[0],"type":"SCALAR"},{"bufferView":13,"componentType":5126,"count":66,"max":[0.44292017817497253,0.22438500821590424,0.03822213038802147,1],"min":[-0.0028970639687031507,-0.00001241013978869887,-0.45005542039871216,0.7642450332641602],"type":"VEC4"},{"bufferView":14,"componentType":5126,"count":65,"max":[4.199999809265137],"min":[0],"type":"SCALAR"},{"bufferView":15,"componentType":5126,"count":65,"max":[0.014105625450611115,-0.01579125039279461,-0.2874999940395355],"min":[-0.02686859294772148,-0.15579745173454285,-0.4937500059604645],"type":"VEC3"},{"bufferView":16,"componentType":5126,"count":10,"max":[3.200000047683716],"min":[0.800000011920929],"type":"SCALAR"},{"bufferView":17,"componentType":5126,"count":10,"max":[0.5581312775611877,0.07196164131164551,0,1],"min":[0,-0.2924063503742218,-0.2877179980278015,0.7212533354759216],"type":"VEC4"},{"bufferView":18,"componentType":5126,"count":32,"max":[3.200000047683716],"min":[0],"type":"SCALAR"},{"bufferView":19,"componentType":5126,"count":32,"max":[0.14896687865257263,0,0.8614914417266846],"min":[-0.19647061824798584,-1.116806983947754,-0.03911937400698662],"type":"VEC3"},{"bufferView":20,"componentType":5126,"count":4,"max":[3.75],"min":[0],"type":"SCALAR"},{"bufferView":21,"componentType":5126,"count":4,"max":[0,0.0625,0],"min":[0,0,0],"type":"VEC3"},{"bufferView":22,"componentType":5126,"count":26,"max":[4.150000095367432],"min":[0],"type":"SCALAR"},{"bufferView":23,"componentType":5126,"count":26,"max":[0,0,0.18223552405834198,1],"min":[0,0,0,0.9832549095153809],"type":"VEC4"}]}