{"asset":{"version":"2.0","generator":"Blockbench 4.7.0 glTF exporter"},"scenes":[{"nodes":[16],"name":"blockbench_export"}],"scene":0,"nodes":[{"translation":[0.375,-0.6875,0],"name":"RightHand"},{"translation":[-0.375,0.875,-0.5],"name":"R","children":[0]},{"translation":[-0.18724124999999997,-0.363003125,-1.054296875],"name":"group6"},{"translation":[0.18710249999999995,0.6444975,0.197265625],"name":"carry2","children":[2]},{"name":"m82a2_body","children":[3]},{"translation":[-0.496118125,-0.5117025,-0.28515625],"name":"bolt"},{"name":"m82a2_bolt","children":[5]},{"name":"50bmg_bullet"},{"name":"mb","children":[7]},{"name":"m82a2_mag_short","children":[8]},{"translation":[0,0.1875,-0.5],"name":"m82","children":[4,6,9]},{"name":"bone","children":[1,10]},{"translation":[-0.375,-0.6875,0],"name":"LeftHand"},{"translation":[0.375,0.875,-0.5],"name":"l","children":[12]},{"translation":[0,-0.0625,-0.3125],"name":"bone2","children":[11,13]},{"translation":[0.5,0.375,1.3125],"name":"bone3","children":[14]},{"children":[15]}],"animations":[{"name":"inspect","samplers":[{"input":0,"output":1,"interpolation":"LINEAR"},{"input":2,"output":3,"interpolation":"LINEAR"},{"input":4,"output":5,"interpolation":"LINEAR"},{"input":6,"output":7,"interpolation":"LINEAR"},{"input":8,"output":9,"interpolation":"LINEAR"},{"input":10,"output":11,"interpolation":"LINEAR"},{"input":12,"output":13,"interpolation":"LINEAR"},{"input":14,"output":15,"interpolation":"LINEAR"},{"input":16,"output":17,"interpolation":"LINEAR"},{"input":18,"output":19,"interpolation":"LINEAR"}],"channels":[{"sampler":0,"target":{"node":1,"path":"rotation"}},{"sampler":1,"target":{"node":1,"path":"translation"}},{"sampler":2,"target":{"node":1,"path":"scale"}},{"sampler":3,"target":{"node":13,"path":"rotation"}},{"sampler":4,"target":{"node":13,"path":"translation"}},{"sampler":5,"target":{"node":13,"path":"scale"}},{"sampler":6,"target":{"node":14,"path":"rotation"}},{"sampler":7,"target":{"node":14,"path":"translation"}},{"sampler":8,"target":{"node":15,"path":"rotation"}},{"sampler":9,"target":{"node":2,"path":"rotation"}}]}],"bufferViews":[{"buffer":0,"byteOffset":0,"byteLength":4},{"buffer":0,"byteOffset":4,"byteLength":16},{"buffer":0,"byteOffset":20,"byteLength":4},{"buffer":0,"byteOffset":24,"byteLength":12},{"buffer":0,"byteOffset":36,"byteLength":4},{"buffer":0,"byteOffset":40,"byteLength":12},{"buffer":0,"byteOffset":52,"byteLength":188},{"buffer":0,"byteOffset":240,"byteLength":752},{"buffer":0,"byteOffset":992,"byteLength":124},{"buffer":0,"byteOffset":1116,"byteLength":372},{"buffer":0,"byteOffset":1488,"byteLength":4},{"buffer":0,"byteOffset":1492,"byteLength":12},{"buffer":0,"byteOffset":1504,"byteLength":416},{"buffer":0,"byteOffset":1920,"byteLength":1664},{"buffer":0,"byteOffset":3584,"byteLength":420},{"buffer":0,"byteOffset":4004,"byteLength":1260},{"buffer":0,"byteOffset":5264,"byteLength":4},{"buffer":0,"byteOffset":5268,"byteLength":16},{"buffer":0,"byteOffset":5284,"byteLength":112},{"buffer":0,"byteOffset":5396,"byteLength":448}],"buffers":[{"byteLength":5844,"uri":"data:application/octet-stream;base64,"}],"accessors":[{"bufferView":0,"componentType":5126,"count":1,"max":[0],"min":[0],"type":"SCALAR"},{"bufferView":1,"componentType":5126,"count":1,"max":[-4.51452149623189e-17,0.7372773289680481,-0.6755902171134949,4.1367970795711857e-17],"min":[-4.51452149623189e-17,0.7372773289680481,-0.6755902171134949,4.1367970795711857e-17],"type":"VEC4"},{"bufferView":2,"componentType":5126,"count":1,"max":[0],"min":[0],"type":"SCALAR"},{"bufferView":3,"componentType":5126,"count":1,"max":[0.02500000037252903,0.03125,-0.07500000298023224],"min":[0.02500000037252903,0.03125,-0.07500000298023224],"type":"VEC3"},{"bufferView":4,"componentType":5126,"count":1,"max":[0],"min":[0],"type":"SCALAR"},{"bufferView":5,"componentType":5126,"count":1,"max":[1,1.5,1],"min":[1,1.5,1],"type":"VEC3"},{"bufferView":6,"componentType":5126,"count":47,"max":[5.699999809265137],"min":[0],"type":"SCALAR"},{"bufferView":7,"componentType":5126,"count":47,"max":[0.09331043809652328,0.6898240447044373,-0.39339542388916016,0.7189289927482605],"min":[-0.40687018632888794,0.45879432559013367,-0.8050633668899536,0.1096847802400589],"type":"VEC4"},{"bufferView":8,"componentType":5126,"count":31,"max":[5.699999809265137],"min":[0],"type":"SCALAR"},{"bufferView":9,"componentType":5126,"count":31,"max":[-0.006376875098794699,0.3044893741607666,-0.5506812334060669],"min":[-0.3093712627887726,-0.15542283654212952,-1.040513277053833],"type":"VEC3"},{"bufferView":10,"componentType":5126,"count":1,"max":[0],"min":[0],"type":"SCALAR"},{"bufferView":11,"componentType":5126,"count":1,"max":[1,1.5,1],"min":[1,1.5,1],"type":"VEC3"},{"bufferView":12,"componentType":5126,"count":104,"max":[6.199999809265137],"min":[0],"type":"SCALAR"},{"bufferView":13,"componentType":5126,"count":104,"max":[0.46520429849624634,0.25261634588241577,0.5151239633560181,1],"min":[-0.006355643272399902,-0.23108282685279846,-0.4450134336948395,0.6888975501060486],"type":"VEC4"},{"bufferView":14,"componentType":5126,"count":105,"max":[6.099999904632568],"min":[0],"type":"SCALAR"},{"bufferView":15,"componentType":5126,"count":105,"max":[0.13838544487953186,0.03500000014901161,-0.26875001192092896],"min":[-0.08989937603473663,-0.10034579038619995,-0.4625000059604645],"type":"VEC3"},{"bufferView":16,"componentType":5126,"count":1,"max":[0],"min":[0],"type":"SCALAR"},{"bufferView":17,"componentType":5126,"count":1,"max":[0,0,0,1],"min":[0,0,0,1],"type":"VEC4"},{"bufferView":18,"componentType":5126,"count":28,"max":[6.25],"min":[0],"type":"SCALAR"},{"bufferView":19,"componentType":5126,"count":28,"max":[0,0,0.27563735842704773,1],"min":[0,0,0,0.9612616896629333],"type":"VEC4"}]}