{"asset":{"version":"2.0","generator":"Blockbench 4.7.0 glTF exporter"},"scenes":[{"nodes":[16],"name":"blockbench_export"}],"scene":0,"nodes":[{"translation":[0.375,-0.6875,0],"name":"RightHand"},{"translation":[-0.375,0.875,-0.5],"name":"R","children":[0]},{"translation":[-0.18724124999999997,-0.363003125,-1.054296875],"name":"group6"},{"translation":[0.18710249999999995,0.6444975,0.197265625],"name":"carry2","children":[2]},{"name":"m82a2_body","children":[3]},{"translation":[-0.496118125,-0.5117025,-0.28515625],"name":"bolt"},{"name":"m82a2_bolt","children":[5]},{"name":"50bmg_bullet"},{"name":"mb","children":[7]},{"name":"m82a2_mag_short","children":[8]},{"translation":[0,0.1875,-0.5],"name":"m82","children":[4,6,9]},{"name":"bone","children":[1,10]},{"translation":[-0.375,-0.6875,0],"name":"LeftHand"},{"translation":[0.375,0.875,-0.5],"name":"l","children":[12]},{"translation":[0,-0.0625,-0.3125],"name":"bone2","children":[11,13]},{"translation":[0.5,0.375,1.3125],"name":"bone3","children":[14]},{"children":[15]}],"animations":[{"name":"draw","samplers":[{"input":0,"output":1,"interpolation":"LINEAR"},{"input":2,"output":3,"interpolation":"LINEAR"},{"input":4,"output":5,"interpolation":"LINEAR"},{"input":6,"output":7,"interpolation":"LINEAR"},{"input":8,"output":9,"interpolation":"LINEAR"},{"input":10,"output":11,"interpolation":"LINEAR"},{"input":12,"output":13,"interpolation":"LINEAR"},{"input":14,"output":15,"interpolation":"LINEAR"},{"input":16,"output":17,"interpolation":"LINEAR"}],"channels":[{"sampler":0,"target":{"node":1,"path":"rotation"}},{"sampler":1,"target":{"node":1,"path":"translation"}},{"sampler":2,"target":{"node":1,"path":"scale"}},{"sampler":3,"target":{"node":13,"path":"rotation"}},{"sampler":4,"target":{"node":13,"path":"translation"}},{"sampler":5,"target":{"node":13,"path":"scale"}},{"sampler":6,"target":{"node":14,"path":"rotation"}},{"sampler":7,"target":{"node":14,"path":"translation"}},{"sampler":8,"target":{"node":2,"path":"rotation"}}]}],"bufferViews":[{"buffer":0,"byteOffset":0,"byteLength":4},{"buffer":0,"byteOffset":4,"byteLength":16},{"buffer":0,"byteOffset":20,"byteLength":4},{"buffer":0,"byteOffset":24,"byteLength":12},{"buffer":0,"byteOffset":36,"byteLength":4},{"buffer":0,"byteOffset":40,"byteLength":12},{"buffer":0,"byteOffset":52,"byteLength":44},{"buffer":0,"byteOffset":96,"byteLength":176},{"buffer":0,"byteOffset":272,"byteLength":44},{"buffer":0,"byteOffset":316,"byteLength":132},{"buffer":0,"byteOffset":448,"byteLength":4},{"buffer":0,"byteOffset":452,"byteLength":12},{"buffer":0,"byteOffset":464,"byteLength":76},{"buffer":0,"byteOffset":540,"byteLength":304},{"buffer":0,"byteOffset":844,"byteLength":80},{"buffer":0,"byteOffset":924,"byteLength":240},{"buffer":0,"byteOffset":1164,"byteLength":28},{"buffer":0,"byteOffset":1192,"byteLength":112}],"buffers":[{"byteLength":1304,"uri":"data:application/octet-stream;base64,"}],"accessors":[{"bufferView":0,"componentType":5126,"count":1,"max":[0],"min":[0],"type":"SCALAR"},{"bufferView":1,"componentType":5126,"count":1,"max":[-4.51452149623189e-17,0.7372773289680481,-0.6755902171134949,4.1367970795711857e-17],"min":[-4.51452149623189e-17,0.7372773289680481,-0.6755902171134949,4.1367970795711857e-17],"type":"VEC4"},{"bufferView":2,"componentType":5126,"count":1,"max":[0],"min":[0],"type":"SCALAR"},{"bufferView":3,"componentType":5126,"count":1,"max":[0.02500000037252903,0.03125,-0.07500000298023224],"min":[0.02500000037252903,0.03125,-0.07500000298023224],"type":"VEC3"},{"bufferView":4,"componentType":5126,"count":1,"max":[0],"min":[0],"type":"SCALAR"},{"bufferView":5,"componentType":5126,"count":1,"max":[1,1.5,1],"min":[1,1.5,1],"type":"VEC3"},{"bufferView":6,"componentType":5126,"count":11,"max":[0.6499999761581421],"min":[0],"type":"SCALAR"},{"bufferView":7,"componentType":5126,"count":11,"max":[0.4175938367843628,0.9161176681518555,-0.2153114229440689,0.4749406576156616],"min":[-0.1580483317375183,0.6670874953269958,-0.5682296752929688,-0.158412903547287],"type":"VEC4"},{"bufferView":8,"componentType":5126,"count":11,"max":[0.6499999761581421],"min":[0],"type":"SCALAR"},{"bufferView":9,"componentType":5126,"count":11,"max":[-0.015741927549242973,0.3263343870639801,-0.4839699864387512],"min":[-0.17615437507629395,0.125,-1.021875023841858],"type":"VEC3"},{"bufferView":10,"componentType":5126,"count":1,"max":[0],"min":[0],"type":"SCALAR"},{"bufferView":11,"componentType":5126,"count":1,"max":[1,1.5,1],"min":[1,1.5,1],"type":"VEC3"},{"bufferView":12,"componentType":5126,"count":19,"max":[1.2000000476837158],"min":[0],"type":"SCALAR"},{"bufferView":13,"componentType":5126,"count":19,"max":[0.6246131658554077,0.1694198101758957,0.015938298776745796,1],"min":[-0.02590867131948471,-0.0305176991969347,-0.28761768341064453,0.7059967517852783],"type":"VEC4"},{"bufferView":14,"componentType":5126,"count":20,"max":[1.25],"min":[0],"type":"SCALAR"},{"bufferView":15,"componentType":5126,"count":20,"max":[0.40625,-0.04374999925494194,0.3375000059604645],"min":[-0.004166666883975267,-0.2750000059604645,-0.4312500059604645],"type":"VEC3"},{"bufferView":16,"componentType":5126,"count":7,"max":[1.2000000476837158],"min":[0.4000000059604645],"type":"SCALAR"},{"bufferView":17,"componentType":5126,"count":7,"max":[0,0,0.07845909893512726,1],"min":[0,0,0,0.9969173073768616],"type":"VEC4"}]}