{"asset":{"version":"2.0","generator":"Blockbench 4.2.4 glTF exporter"},"scenes":[{"nodes":[9],"name":"blockbench_export"}],"scene":0,"nodes":[{"translation":[-1.306143125,-0.049325624999999984,-0.51171875],"name":"pump"},{"translation":[-1.3359375,0,-0.1875],"name":"12_gauge"},{"translation":[1.32421875,0.125,-0.4375],"name":"m870_classic2","children":[0,1]},{"translation":[0.375,-0.6875,0],"name":"RightHand"},{"translation":[-0.375,0.8125,-0.4375],"name":"R","children":[3]},{"name":"bone2","children":[2,4]},{"translation":[-0.375,-0.6875,0],"name":"LeftHand"},{"translation":[0.375,0.8125,-0.4375],"name":"l","children":[6]},{"translation":[0.5,0.375,0.9375],"name":"bone3","children":[5,7]},{"children":[8]}],"animations":[{"name":"inspect","samplers":[{"input":0,"output":1,"interpolation":"LINEAR"},{"input":2,"output":3,"interpolation":"LINEAR"},{"input":4,"output":5,"interpolation":"LINEAR"},{"input":6,"output":7,"interpolation":"LINEAR"},{"input":8,"output":9,"interpolation":"LINEAR"},{"input":10,"output":11,"interpolation":"LINEAR"},{"input":12,"output":13,"interpolation":"LINEAR"},{"input":14,"output":15,"interpolation":"LINEAR"}],"channels":[{"sampler":0,"target":{"node":4,"path":"rotation"}},{"sampler":1,"target":{"node":4,"path":"translation"}},{"sampler":2,"target":{"node":4,"path":"scale"}},{"sampler":3,"target":{"node":7,"path":"rotation"}},{"sampler":4,"target":{"node":7,"path":"translation"}},{"sampler":5,"target":{"node":7,"path":"scale"}},{"sampler":6,"target":{"node":8,"path":"rotation"}},{"sampler":7,"target":{"node":8,"path":"translation"}}]}],"bufferViews":[{"buffer":0,"byteOffset":0,"byteLength":4},{"buffer":0,"byteOffset":4,"byteLength":16},{"buffer":0,"byteOffset":20,"byteLength":4},{"buffer":0,"byteOffset":24,"byteLength":12},{"buffer":0,"byteOffset":36,"byteLength":4},{"buffer":0,"byteOffset":40,"byteLength":12},{"buffer":0,"byteOffset":52,"byteLength":24},{"buffer":0,"byteOffset":76,"byteLength":96},{"buffer":0,"byteOffset":172,"byteLength":44},{"buffer":0,"byteOffset":216,"byteLength":132},{"buffer":0,"byteOffset":348,"byteLength":4},{"buffer":0,"byteOffset":352,"byteLength":12},{"buffer":0,"byteOffset":364,"byteLength":284},{"buffer":0,"byteOffset":648,"byteLength":1136},{"buffer":0,"byteOffset":1784,"byteLength":300},{"buffer":0,"byteOffset":2084,"byteLength":900}],"buffers":[{"byteLength":2984,"uri":"data:application/octet-stream;base64,"}],"accessors":[{"bufferView":0,"componentType":5126,"count":1,"max":[0],"min":[0],"type":"SCALAR"},{"bufferView":1,"componentType":5126,"count":1,"max":[-0.0345049649477005,0.6649811267852783,-0.7459542155265808,-0.012720947153866291],"min":[-0.0345049649477005,0.6649811267852783,-0.7459542155265808,-0.012720947153866291],"type":"VEC4"},{"bufferView":2,"componentType":5126,"count":1,"max":[0],"min":[0],"type":"SCALAR"},{"bufferView":3,"componentType":5126,"count":1,"max":[0.02500000037252903,0.0062500000931322575,0],"min":[0.02500000037252903,0.0062500000931322575,0],"type":"VEC3"},{"bufferView":4,"componentType":5126,"count":1,"max":[0],"min":[0],"type":"SCALAR"},{"bufferView":5,"componentType":5126,"count":1,"max":[1,1.5,1],"min":[1,1.5,1],"type":"VEC3"},{"bufferView":6,"componentType":5126,"count":6,"max":[4.5],"min":[0],"type":"SCALAR"},{"bufferView":7,"componentType":5126,"count":6,"max":[0.332075834274292,0.6667346358299255,-0.5534176230430603,0.44930559396743774],"min":[-0.21752765774726868,0.5418067574501038,-0.7644082307815552,0.13026238977909088],"type":"VEC4"},{"bufferView":8,"componentType":5126,"count":11,"max":[4.5],"min":[0],"type":"SCALAR"},{"bufferView":9,"componentType":5126,"count":11,"max":[-0.06875000149011612,0.17605312168598175,0.7173200249671936],"min":[-0.8371818661689758,-1.0122950077056885,-1.0625],"type":"VEC3"},{"bufferView":10,"componentType":5126,"count":1,"max":[0],"min":[0],"type":"SCALAR"},{"bufferView":11,"componentType":5126,"count":1,"max":[1,1.5,1],"min":[1,1.5,1],"type":"VEC3"},{"bufferView":12,"componentType":5126,"count":71,"max":[4.599999904632568],"min":[0],"type":"SCALAR"},{"bufferView":13,"componentType":5126,"count":71,"max":[0.2250898778438568,0.05422573536634445,0.5866196751594543,1],"min":[-0.020762240514159203,-0.0012734312331303954,-0.2442224621772766,0.7775838971138],"type":"VEC4"},{"bufferView":14,"componentType":5126,"count":75,"max":[4.550000190734863],"min":[0],"type":"SCALAR"},{"bufferView":15,"componentType":5126,"count":75,"max":[0.578050434589386,0.4124999940395355,0.956250011920929],"min":[0.4498128592967987,0.34922417998313904,0.8343750238418579],"type":"VEC3"}]}