{"asset":{"version":"2.0","generator":"Blockbench 4.7.0 glTF exporter"},"scenes":[{"nodes":[9],"name":"blockbench_export"}],"scene":0,"nodes":[{"translation":[-1.306143125,-0.049325624999999984,-0.51171875],"name":"pump"},{"translation":[-1.3359375,0,-0.1875],"name":"12_gauge"},{"translation":[1.32421875,0.125,-0.4375],"name":"m870_classic2","children":[0,1]},{"translation":[0.375,-0.6875,0],"name":"RightHand"},{"translation":[-0.375,0.8125,-0.4375],"name":"R","children":[3]},{"name":"bone2","children":[2,4]},{"translation":[-0.375,-0.6875,0],"name":"LeftHand"},{"translation":[0.375,0.8125,-0.4375],"name":"l","children":[6]},{"translation":[0.5,0.375,0.9375],"name":"bone3","children":[5,7]},{"children":[8]}],"animations":[{"name":"pump","samplers":[{"input":0,"output":1,"interpolation":"LINEAR"},{"input":2,"output":3,"interpolation":"LINEAR"},{"input":4,"output":5,"interpolation":"LINEAR"},{"input":6,"output":7,"interpolation":"LINEAR"},{"input":8,"output":9,"interpolation":"LINEAR"},{"input":10,"output":11,"interpolation":"LINEAR"},{"input":12,"output":13,"interpolation":"LINEAR"},{"input":14,"output":15,"interpolation":"LINEAR"},{"input":16,"output":17,"interpolation":"LINEAR"},{"input":18,"output":19,"interpolation":"LINEAR"},{"input":20,"output":21,"interpolation":"LINEAR"}],"channels":[{"sampler":0,"target":{"node":4,"path":"rotation"}},{"sampler":1,"target":{"node":4,"path":"translation"}},{"sampler":2,"target":{"node":4,"path":"scale"}},{"sampler":3,"target":{"node":7,"path":"rotation"}},{"sampler":4,"target":{"node":7,"path":"translation"}},{"sampler":5,"target":{"node":7,"path":"scale"}},{"sampler":6,"target":{"node":8,"path":"rotation"}},{"sampler":7,"target":{"node":8,"path":"translation"}},{"sampler":8,"target":{"node":1,"path":"rotation"}},{"sampler":9,"target":{"node":1,"path":"translation"}},{"sampler":10,"target":{"node":0,"path":"translation"}}]}],"bufferViews":[{"buffer":0,"byteOffset":0,"byteLength":4},{"buffer":0,"byteOffset":4,"byteLength":16},{"buffer":0,"byteOffset":20,"byteLength":4},{"buffer":0,"byteOffset":24,"byteLength":12},{"buffer":0,"byteOffset":36,"byteLength":4},{"buffer":0,"byteOffset":40,"byteLength":12},{"buffer":0,"byteOffset":52,"byteLength":24},{"buffer":0,"byteOffset":76,"byteLength":96},{"buffer":0,"byteOffset":172,"byteLength":24},{"buffer":0,"byteOffset":196,"byteLength":72},{"buffer":0,"byteOffset":268,"byteLength":4},{"buffer":0,"byteOffset":272,"byteLength":12},{"buffer":0,"byteOffset":284,"byteLength":52},{"buffer":0,"byteOffset":336,"byteLength":208},{"buffer":0,"byteOffset":544,"byteLength":48},{"buffer":0,"byteOffset":592,"byteLength":144},{"buffer":0,"byteOffset":736,"byteLength":40},{"buffer":0,"byteOffset":776,"byteLength":160},{"buffer":0,"byteOffset":936,"byteLength":44},{"buffer":0,"byteOffset":980,"byteLength":132},{"buffer":0,"byteOffset":1112,"byteLength":24},{"buffer":0,"byteOffset":1136,"byteLength":72}],"buffers":[{"byteLength":1208,"uri":"data:application/octet-stream;base64,"}],"accessors":[{"bufferView":0,"componentType":5126,"count":1,"max":[0],"min":[0],"type":"SCALAR"},{"bufferView":1,"componentType":5126,"count":1,"max":[-0.0345049649477005,0.6649811267852783,-0.7459542155265808,-0.012720947153866291],"min":[-0.0345049649477005,0.6649811267852783,-0.7459542155265808,-0.012720947153866291],"type":"VEC4"},{"bufferView":2,"componentType":5126,"count":1,"max":[0],"min":[0],"type":"SCALAR"},{"bufferView":3,"componentType":5126,"count":1,"max":[0.02500000037252903,0.0062500000931322575,0],"min":[0.02500000037252903,0.0062500000931322575,0],"type":"VEC3"},{"bufferView":4,"componentType":5126,"count":1,"max":[0],"min":[0],"type":"SCALAR"},{"bufferView":5,"componentType":5126,"count":1,"max":[1,1.5,1],"min":[1,1.5,1],"type":"VEC3"},{"bufferView":6,"componentType":5126,"count":6,"max":[0.75],"min":[0],"type":"SCALAR"},{"bufferView":7,"componentType":5126,"count":6,"max":[-0.09238236397504807,0.6952113509178162,-0.46227121353149414,0.5426342487335205],"min":[-0.21752765774726868,0.6647683382034302,-0.5534176230430603,0.44930559396743774],"type":"VEC4"},{"bufferView":8,"componentType":5126,"count":6,"max":[0.75],"min":[0],"type":"SCALAR"},{"bufferView":9,"componentType":5126,"count":6,"max":[-0.06875000149011612,-0.02500000037252903,-0.875],"min":[-0.06875000149011612,-0.02500000037252903,-1.0625],"type":"VEC3"},{"bufferView":10,"componentType":5126,"count":1,"max":[0],"min":[0],"type":"SCALAR"},{"bufferView":11,"componentType":5126,"count":1,"max":[1,1.5,1],"min":[1,1.5,1],"type":"VEC3"},{"bufferView":12,"componentType":5126,"count":13,"max":[0.75],"min":[0],"type":"SCALAR"},{"bufferView":13,"componentType":5126,"count":13,"max":[0.015638310462236404,0.006037586834281683,0.017350655049085617,1],"min":[-0.0007785548223182559,-0.0006228071288205683,-0.0004916979814879596,0.999710202217102],"type":"VEC4"},{"bufferView":14,"componentType":5126,"count":12,"max":[0.75],"min":[0],"type":"SCALAR"},{"bufferView":15,"componentType":5126,"count":12,"max":[0.5093749761581421,0.37586790323257446,1.0390625],"min":[0.4996570646762848,0.3578599989414215,0.9323572516441345],"type":"VEC3"},{"bufferView":16,"componentType":5126,"count":10,"max":[0.699999988079071],"min":[0],"type":"SCALAR"},{"bufferView":17,"componentType":5126,"count":10,"max":[0,0.9232300519943237,0,1],"min":[0,-0.7450072765350342,0,-0.7903868556022644],"type":"VEC4"},{"bufferView":18,"componentType":5126,"count":11,"max":[0.699999988079071],"min":[0],"type":"SCALAR"},{"bufferView":19,"componentType":5126,"count":11,"max":[0.3382631242275238,0.08124999701976776,2.2207088470458984],"min":[-1.3359375,-2.504418134689331,-0.1875],"type":"VEC3"},{"bufferView":20,"componentType":5126,"count":6,"max":[0.75],"min":[0],"type":"SCALAR"},{"bufferView":21,"componentType":5126,"count":6,"max":[-1.3061431646347046,-0.04932562634348869,-0.32421875],"min":[-1.3061431646347046,-0.04932562634348869,-0.51171875],"type":"VEC3"}]}