{"asset":{"version":"2.0","generator":"Blockbench 4.7.0 glTF exporter"},"scenes":[{"nodes":[9],"name":"blockbench_export"}],"scene":0,"nodes":[{"translation":[-0.5,-0.25,-0.875],"name":"9mm"},{"translation":[0,-0.125,0],"name":"mb","children":[0]},{"translation":[0.01953125,0.4612225,-0.875],"name":"slide"},{"name":"m92fs","children":[1,2]},{"translation":[0.375,-0.6875,0],"name":"RightHand"},{"translation":[-0.375,0.8125,-0.375],"name":"R","children":[4]},{"translation":[0.5,0.375,0.875],"name":"bone","children":[3,5]},{"translation":[-0.375,-0.6875,0],"name":"LeftHand"},{"translation":[0.875,1.1875,0.5],"name":"l","children":[7]},{"children":[6,8]}],"animations":[{"name":"reload_empty","samplers":[{"input":0,"output":1,"interpolation":"LINEAR"},{"input":2,"output":3,"interpolation":"LINEAR"},{"input":4,"output":5,"interpolation":"LINEAR"},{"input":6,"output":7,"interpolation":"LINEAR"},{"input":8,"output":9,"interpolation":"LINEAR"},{"input":10,"output":11,"interpolation":"LINEAR"},{"input":12,"output":13,"interpolation":"LINEAR"},{"input":14,"output":15,"interpolation":"LINEAR"},{"input":16,"output":17,"interpolation":"LINEAR"},{"input":18,"output":19,"interpolation":"LINEAR"},{"input":20,"output":21,"interpolation":"LINEAR"},{"input":22,"output":23,"interpolation":"LINEAR"},{"input":24,"output":25,"interpolation":"LINEAR"}],"channels":[{"sampler":0,"target":{"node":5,"path":"rotation"}},{"sampler":1,"target":{"node":5,"path":"translation"}},{"sampler":2,"target":{"node":5,"path":"scale"}},{"sampler":3,"target":{"node":8,"path":"rotation"}},{"sampler":4,"target":{"node":8,"path":"translation"}},{"sampler":5,"target":{"node":8,"path":"scale"}},{"sampler":6,"target":{"node":6,"path":"rotation"}},{"sampler":7,"target":{"node":6,"path":"translation"}},{"sampler":8,"target":{"node":2,"path":"translation"}},{"sampler":9,"target":{"node":3,"path":"rotation"}},{"sampler":10,"target":{"node":1,"path":"rotation"}},{"sampler":11,"target":{"node":1,"path":"translation"}},{"sampler":12,"target":{"node":0,"path":"translation"}}]}],"bufferViews":[{"buffer":0,"byteOffset":0,"byteLength":24},{"buffer":0,"byteOffset":24,"byteLength":96},{"buffer":0,"byteOffset":120,"byteLength":24},{"buffer":0,"byteOffset":144,"byteLength":72},{"buffer":0,"byteOffset":216,"byteLength":4},{"buffer":0,"byteOffset":220,"byteLength":12},{"buffer":0,"byteOffset":232,"byteLength":136},{"buffer":0,"byteOffset":368,"byteLength":544},{"buffer":0,"byteOffset":912,"byteLength":144},{"buffer":0,"byteOffset":1056,"byteLength":432},{"buffer":0,"byteOffset":1488,"byteLength":4},{"buffer":0,"byteOffset":1492,"byteLength":12},{"buffer":0,"byteOffset":1504,"byteLength":136},{"buffer":0,"byteOffset":1640,"byteLength":544},{"buffer":0,"byteOffset":2184,"byteLength":136},{"buffer":0,"byteOffset":2320,"byteLength":408},{"buffer":0,"byteOffset":2728,"byteLength":12},{"buffer":0,"byteOffset":2740,"byteLength":36},{"buffer":0,"byteOffset":2776,"byteLength":20},{"buffer":0,"byteOffset":2796,"byteLength":80},{"buffer":0,"byteOffset":2876,"byteLength":60},{"buffer":0,"byteOffset":2936,"byteLength":240},{"buffer":0,"byteOffset":3176,"byteLength":76},{"buffer":0,"byteOffset":3252,"byteLength":228},{"buffer":0,"byteOffset":3480,"byteLength":16},{"buffer":0,"byteOffset":3496,"byteLength":48}],"buffers":[{"byteLength":3544,"uri":"data:application/octet-stream;base64,"}],"accessors":[{"bufferView":0,"componentType":5126,"count":6,"max":[1.899999976158142],"min":[0],"type":"SCALAR"},{"bufferView":1,"componentType":5126,"count":6,"max":[0.04071439802646637,0.7858887910842896,-0.6178559064865112,0.014010324142873287],"min":[-0.06502249091863632,0.7372773289680481,-0.6755902171134949,-0.051185011863708496],"type":"VEC4"},{"bufferView":2,"componentType":5126,"count":6,"max":[1.899999976158142],"min":[0],"type":"SCALAR"},{"bufferView":3,"componentType":5126,"count":6,"max":[0.0625,-0.02500000037252903,-0.21250000596046448],"min":[0.0625,-0.07500000298023224,-0.21250000596046448],"type":"VEC3"},{"bufferView":4,"componentType":5126,"count":1,"max":[0],"min":[0],"type":"SCALAR"},{"bufferView":5,"componentType":5126,"count":1,"max":[1.75,2,1.75],"min":[1.75,2,1.75],"type":"VEC3"},{"bufferView":6,"componentType":5126,"count":34,"max":[2.0999999046325684],"min":[0],"type":"SCALAR"},{"bufferView":7,"componentType":5126,"count":34,"max":[0.545883297920227,0.8993577361106873,-0.09668835252523422,0.5580295324325562],"min":[-0.31204965710639954,0.3628617525100708,-0.752627968788147,-0.7489954233169556],"type":"VEC4"},{"bufferView":8,"componentType":5126,"count":36,"max":[2.0999999046325684],"min":[0],"type":"SCALAR"},{"bufferView":9,"componentType":5126,"count":36,"max":[0.4429419934749603,0.42500001192092896,0.8912658095359802],"min":[-1.353124976158142,-1.0136971473693848,0.4437499940395355],"type":"VEC3"},{"bufferView":10,"componentType":5126,"count":1,"max":[0],"min":[0],"type":"SCALAR"},{"bufferView":11,"componentType":5126,"count":1,"max":[1.75,2,1.75],"min":[1.75,2,1.75],"type":"VEC3"},{"bufferView":12,"componentType":5126,"count":34,"max":[2.200000047683716],"min":[0],"type":"SCALAR"},{"bufferView":13,"componentType":5126,"count":34,"max":[0.24587741494178772,0.1490313559770584,0.06909070163965225,1],"min":[-0.039471376687288284,-0.013736812397837639,-0.6068313121795654,0.7613399624824524],"type":"VEC4"},{"bufferView":14,"componentType":5126,"count":34,"max":[2.1500000953674316],"min":[0],"type":"SCALAR"},{"bufferView":15,"componentType":5126,"count":34,"max":[0.65625,0.543749988079071,0.918749988079071],"min":[0.5,0.3746093809604645,0.7749999761581421],"type":"VEC3"},{"bufferView":16,"componentType":5126,"count":3,"max":[1.75],"min":[0],"type":"SCALAR"},{"bufferView":17,"componentType":5126,"count":3,"max":[0.01953125,0.46122249960899353,-0.625],"min":[0.01953125,0.46122249960899353,-0.875],"type":"VEC3"},{"bufferView":18,"componentType":5126,"count":5,"max":[1.850000023841858],"min":[0],"type":"SCALAR"},{"bufferView":19,"componentType":5126,"count":5,"max":[0,0,0,1],"min":[-0.01741981692612171,-0.0010654465295374393,-0.06103925779461861,0.9979828000068665],"type":"VEC4"},{"bufferView":20,"componentType":5126,"count":15,"max":[1.4500000476837158],"min":[0],"type":"SCALAR"},{"bufferView":21,"componentType":5126,"count":15,"max":[0.3280295133590698,0.0217715036123991,0.11320321261882782,1],"min":[0,-0.37735480070114136,-0.6535976529121399,0.5681638121604919],"type":"VEC4"},{"bufferView":22,"componentType":5126,"count":19,"max":[1.4500000476837158],"min":[0],"type":"SCALAR"},{"bufferView":23,"componentType":5126,"count":19,"max":[0.10000000149011612,-0.125,0.5625],"min":[-1.0242818593978882,-4.733333587646484,-0.6157150268554688],"type":"VEC3"},{"bufferView":24,"componentType":5126,"count":4,"max":[1.7999999523162842],"min":[1],"type":"SCALAR"},{"bufferView":25,"componentType":5126,"count":4,"max":[-0.5,-0.1875,-0.875],"min":[-0.5,-0.25,-0.875],"type":"VEC3"}]}