{"asset":{"version":"2.0","generator":"Blockbench 4.7.0 glTF exporter"},"scenes":[{"nodes":[9],"name":"blockbench_export"}],"scene":0,"nodes":[{"translation":[-0.5,-0.25,-0.875],"name":"9mm"},{"translation":[0,-0.125,0],"name":"mb","children":[0]},{"translation":[0.01953125,0.4612225,-0.875],"name":"slide"},{"name":"m92fs","children":[1,2]},{"translation":[0.375,-0.6875,0],"name":"RightHand"},{"translation":[-0.375,0.8125,-0.375],"name":"R","children":[4]},{"translation":[0.5,0.375,0.875],"name":"bone","children":[3,5]},{"translation":[-0.375,-0.6875,0],"name":"LeftHand"},{"translation":[0.875,1.1875,0.5],"name":"l","children":[7]},{"children":[6,8]}],"animations":[{"name":"reload_norm","samplers":[{"input":0,"output":1,"interpolation":"LINEAR"},{"input":2,"output":3,"interpolation":"LINEAR"},{"input":4,"output":5,"interpolation":"LINEAR"},{"input":6,"output":7,"interpolation":"LINEAR"},{"input":8,"output":9,"interpolation":"LINEAR"},{"input":10,"output":11,"interpolation":"LINEAR"},{"input":12,"output":13,"interpolation":"LINEAR"},{"input":14,"output":15,"interpolation":"LINEAR"},{"input":16,"output":17,"interpolation":"LINEAR"},{"input":18,"output":19,"interpolation":"LINEAR"},{"input":20,"output":21,"interpolation":"LINEAR"},{"input":22,"output":23,"interpolation":"LINEAR"},{"input":24,"output":25,"interpolation":"LINEAR"}],"channels":[{"sampler":0,"target":{"node":5,"path":"rotation"}},{"sampler":1,"target":{"node":5,"path":"translation"}},{"sampler":2,"target":{"node":5,"path":"scale"}},{"sampler":3,"target":{"node":8,"path":"rotation"}},{"sampler":4,"target":{"node":8,"path":"translation"}},{"sampler":5,"target":{"node":8,"path":"scale"}},{"sampler":6,"target":{"node":6,"path":"rotation"}},{"sampler":7,"target":{"node":6,"path":"translation"}},{"sampler":8,"target":{"node":1,"path":"rotation"}},{"sampler":9,"target":{"node":1,"path":"translation"}},{"sampler":10,"target":{"node":2,"path":"rotation"}},{"sampler":11,"target":{"node":2,"path":"translation"}},{"sampler":12,"target":{"node":0,"path":"translation"}}]}],"bufferViews":[{"buffer":0,"byteOffset":0,"byteLength":4},{"buffer":0,"byteOffset":4,"byteLength":16},{"buffer":0,"byteOffset":20,"byteLength":4},{"buffer":0,"byteOffset":24,"byteLength":12},{"buffer":0,"byteOffset":36,"byteLength":4},{"buffer":0,"byteOffset":40,"byteLength":12},{"buffer":0,"byteOffset":52,"byteLength":112},{"buffer":0,"byteOffset":164,"byteLength":448},{"buffer":0,"byteOffset":612,"byteLength":128},{"buffer":0,"byteOffset":740,"byteLength":384},{"buffer":0,"byteOffset":1124,"byteLength":4},{"buffer":0,"byteOffset":1128,"byteLength":12},{"buffer":0,"byteOffset":1140,"byteLength":124},{"buffer":0,"byteOffset":1264,"byteLength":496},{"buffer":0,"byteOffset":1760,"byteLength":120},{"buffer":0,"byteOffset":1880,"byteLength":360},{"buffer":0,"byteOffset":2240,"byteLength":40},{"buffer":0,"byteOffset":2280,"byteLength":160},{"buffer":0,"byteOffset":2440,"byteLength":40},{"buffer":0,"byteOffset":2480,"byteLength":120},{"buffer":0,"byteOffset":2600,"byteLength":4},{"buffer":0,"byteOffset":2604,"byteLength":16},{"buffer":0,"byteOffset":2620,"byteLength":4},{"buffer":0,"byteOffset":2624,"byteLength":12},{"buffer":0,"byteOffset":2636,"byteLength":16},{"buffer":0,"byteOffset":2652,"byteLength":48}],"buffers":[{"byteLength":2700,"uri":"data:application/octet-stream;base64,"}],"accessors":[{"bufferView":0,"componentType":5126,"count":1,"max":[0],"min":[0],"type":"SCALAR"},{"bufferView":1,"componentType":5126,"count":1,"max":[-4.51452149623189e-17,0.7372773289680481,-0.6755902171134949,4.1367970795711857e-17],"min":[-4.51452149623189e-17,0.7372773289680481,-0.6755902171134949,4.1367970795711857e-17],"type":"VEC4"},{"bufferView":2,"componentType":5126,"count":1,"max":[0],"min":[0],"type":"SCALAR"},{"bufferView":3,"componentType":5126,"count":1,"max":[0.0625,-0.07500000298023224,-0.21250000596046448],"min":[0.0625,-0.07500000298023224,-0.21250000596046448],"type":"VEC3"},{"bufferView":4,"componentType":5126,"count":1,"max":[0],"min":[0],"type":"SCALAR"},{"bufferView":5,"componentType":5126,"count":1,"max":[1.75,2,1.75],"min":[1.75,2,1.75],"type":"VEC3"},{"bufferView":6,"componentType":5126,"count":28,"max":[1.850000023841858],"min":[0],"type":"SCALAR"},{"bufferView":7,"componentType":5126,"count":28,"max":[0.4529336094856262,0.9180763363838196,-0.14851781725883484,0.5129467248916626],"min":[-0.33416688442230225,0.5841830968856812,-0.609646737575531,-0.27408888936042786],"type":"VEC4"},{"bufferView":8,"componentType":5126,"count":32,"max":[1.850000023841858],"min":[0],"type":"SCALAR"},{"bufferView":9,"componentType":5126,"count":32,"max":[0.44621095061302185,0.30000001192092896,1.03125],"min":[-0.71875,-1.0812499523162842,0.29374998807907104],"type":"VEC3"},{"bufferView":10,"componentType":5126,"count":1,"max":[0],"min":[0],"type":"SCALAR"},{"bufferView":11,"componentType":5126,"count":1,"max":[1.75,2,1.75],"min":[1.75,2,1.75],"type":"VEC3"},{"bufferView":12,"componentType":5126,"count":31,"max":[1.850000023841858],"min":[0],"type":"SCALAR"},{"bufferView":13,"componentType":5126,"count":31,"max":[0.3214544653892517,0.11216169595718384,0.009275941178202629,1],"min":[-0.006346314214169979,-0.002911147428676486,-0.43657976388931274,0.841329038143158],"type":"VEC4"},{"bufferView":14,"componentType":5126,"count":30,"max":[1.850000023841858],"min":[0],"type":"SCALAR"},{"bufferView":15,"componentType":5126,"count":30,"max":[0.6312500238418579,0.5331249833106995,0.9946361184120178],"min":[0.49800926446914673,0.328125,0.8578703999519348],"type":"VEC3"},{"bufferView":16,"componentType":5126,"count":10,"max":[1.25],"min":[0.30000001192092896],"type":"SCALAR"},{"bufferView":17,"componentType":5126,"count":10,"max":[0.3214394748210907,0.010367747396230698,0,1],"min":[0,0,-0.2374596744775772,0.9469301104545593],"type":"VEC4"},{"bufferView":18,"componentType":5126,"count":10,"max":[1.25],"min":[0.30000001192092896],"type":"SCALAR"},{"bufferView":19,"componentType":5126,"count":10,"max":[0,-0.125,0.3315100073814392],"min":[-0.05638125166296959,-1.8200137615203857,0],"type":"VEC3"},{"bufferView":20,"componentType":5126,"count":1,"max":[0],"min":[0],"type":"SCALAR"},{"bufferView":21,"componentType":5126,"count":1,"max":[0,0,0,1],"min":[0,0,0,1],"type":"VEC4"},{"bufferView":22,"componentType":5126,"count":1,"max":[0],"min":[0],"type":"SCALAR"},{"bufferView":23,"componentType":5126,"count":1,"max":[0.01953125,0.46122249960899353,-0.875],"min":[0.01953125,0.46122249960899353,-0.875],"type":"VEC3"},{"bufferView":24,"componentType":5126,"count":4,"max":[1.25],"min":[0.30000001192092896],"type":"SCALAR"},{"bufferView":25,"componentType":5126,"count":4,"max":[-0.5,-0.1875,-0.875],"min":[-0.5,-0.25,-0.875],"type":"VEC3"}]}