{"asset":{"version":"2.0","generator":"Blockbench 4.7.0 glTF exporter"},"scenes":[{"nodes":[9],"name":"blockbench_export"}],"scene":0,"nodes":[{"translation":[-0.5,-0.1875,-0.875],"name":"9mm"},{"translation":[0,-0.125,0],"name":"mb","children":[0]},{"translation":[0.01953125,0.4612225,-0.875],"name":"slide"},{"name":"m92fs","children":[1,2]},{"translation":[0.375,-0.6875,0],"name":"RightHand"},{"translation":[-0.375,0.8125,-0.375],"name":"R","children":[4]},{"translation":[0.5,0.375,0.875],"name":"bone","children":[3,5]},{"translation":[-0.375,-0.6875,0],"name":"LeftHand"},{"translation":[0.875,1.1875,0.5],"name":"l","children":[7]},{"children":[6,8]}],"animations":[{"name":"draw","samplers":[{"input":0,"output":1,"interpolation":"LINEAR"},{"input":2,"output":3,"interpolation":"LINEAR"},{"input":4,"output":5,"interpolation":"LINEAR"},{"input":6,"output":7,"interpolation":"LINEAR"},{"input":8,"output":9,"interpolation":"LINEAR"},{"input":10,"output":11,"interpolation":"LINEAR"},{"input":12,"output":13,"interpolation":"LINEAR"},{"input":14,"output":15,"interpolation":"LINEAR"}],"channels":[{"sampler":0,"target":{"node":5,"path":"rotation"}},{"sampler":1,"target":{"node":5,"path":"translation"}},{"sampler":2,"target":{"node":5,"path":"scale"}},{"sampler":3,"target":{"node":8,"path":"rotation"}},{"sampler":4,"target":{"node":8,"path":"translation"}},{"sampler":5,"target":{"node":8,"path":"scale"}},{"sampler":6,"target":{"node":6,"path":"rotation"}},{"sampler":7,"target":{"node":6,"path":"translation"}}]}],"bufferViews":[{"buffer":0,"byteOffset":0,"byteLength":4},{"buffer":0,"byteOffset":4,"byteLength":16},{"buffer":0,"byteOffset":20,"byteLength":4},{"buffer":0,"byteOffset":24,"byteLength":12},{"buffer":0,"byteOffset":36,"byteLength":4},{"buffer":0,"byteOffset":40,"byteLength":12},{"buffer":0,"byteOffset":52,"byteLength":40},{"buffer":0,"byteOffset":92,"byteLength":160},{"buffer":0,"byteOffset":252,"byteLength":36},{"buffer":0,"byteOffset":288,"byteLength":108},{"buffer":0,"byteOffset":396,"byteLength":4},{"buffer":0,"byteOffset":400,"byteLength":12},{"buffer":0,"byteOffset":412,"byteLength":44},{"buffer":0,"byteOffset":456,"byteLength":176},{"buffer":0,"byteOffset":632,"byteLength":36},{"buffer":0,"byteOffset":668,"byteLength":108}],"buffers":[{"byteLength":776,"uri":"data:application/octet-stream;base64,"}],"accessors":[{"bufferView":0,"componentType":5126,"count":1,"max":[0],"min":[0],"type":"SCALAR"},{"bufferView":1,"componentType":5126,"count":1,"max":[-4.51452149623189e-17,0.7372773289680481,-0.6755902171134949,4.1367970795711857e-17],"min":[-4.51452149623189e-17,0.7372773289680481,-0.6755902171134949,4.1367970795711857e-17],"type":"VEC4"},{"bufferView":2,"componentType":5126,"count":1,"max":[0],"min":[0],"type":"SCALAR"},{"bufferView":3,"componentType":5126,"count":1,"max":[0.0625,-0.07500000298023224,-0.21250000596046448],"min":[0.0625,-0.07500000298023224,-0.21250000596046448],"type":"VEC3"},{"bufferView":4,"componentType":5126,"count":1,"max":[0],"min":[0],"type":"SCALAR"},{"bufferView":5,"componentType":5126,"count":1,"max":[1.75,2,1.75],"min":[1.75,2,1.75],"type":"VEC3"},{"bufferView":6,"componentType":5126,"count":10,"max":[0.6000000238418579],"min":[0],"type":"SCALAR"},{"bufferView":7,"componentType":5126,"count":10,"max":[-4.329780301713277e-17,0.7071067690849304,-0.465243935585022,0.5663136839866638],"min":[-0.31404736638069153,0.6182255148887634,-0.7071067690849304,4.329780301713277e-17],"type":"VEC4"},{"bufferView":8,"componentType":5126,"count":9,"max":[0.6000000238418579],"min":[0],"type":"SCALAR"},{"bufferView":9,"componentType":5126,"count":9,"max":[0.4456250071525574,0.19750000536441803,0.875],"min":[-0.625,-0.875,0.512499988079071],"type":"VEC3"},{"bufferView":10,"componentType":5126,"count":1,"max":[0],"min":[0],"type":"SCALAR"},{"bufferView":11,"componentType":5126,"count":1,"max":[1.75,2,1.75],"min":[1.75,2,1.75],"type":"VEC3"},{"bufferView":12,"componentType":5126,"count":11,"max":[0.550000011920929],"min":[0],"type":"SCALAR"},{"bufferView":13,"componentType":5126,"count":11,"max":[0.2094016671180725,0.047973621636629105,0.11828908324241638,1],"min":[-0.03869693726301193,-0.00007615242066094652,-0.12515784800052643,0.9687715172767639],"type":"VEC4"},{"bufferView":14,"componentType":5126,"count":9,"max":[0.6000000238418579],"min":[0],"type":"SCALAR"},{"bufferView":15,"componentType":5126,"count":9,"max":[0.9375,0.4000000059604645,1.375],"min":[0.4975000023841858,-1.4375,0.8187500238418579],"type":"VEC3"}]}