{"asset":{"version":"2.0","generator":"Blockbench 4.7.0 glTF exporter"},"scenes":[{"nodes":[9],"name":"blockbench_export"}],"scene":0,"nodes":[{"translation":[-0.5,-0.1875,-0.875],"name":"9mm"},{"translation":[0,-0.125,0],"name":"mb","children":[0]},{"translation":[0.01953125,0.4612225,-0.875],"name":"slide"},{"name":"m92fs","children":[1,2]},{"translation":[0.375,-0.6875,0],"name":"RightHand"},{"translation":[-0.375,0.8125,-0.375],"name":"R","children":[4]},{"translation":[0.5,0.375,0.875],"name":"bone","children":[3,5]},{"translation":[-0.375,-0.6875,0],"name":"LeftHand"},{"translation":[0.875,1.1875,0.5],"name":"l","children":[7]},{"children":[6,8]}],"animations":[{"name":"inspect","samplers":[{"input":0,"output":1,"interpolation":"LINEAR"},{"input":2,"output":3,"interpolation":"LINEAR"},{"input":4,"output":5,"interpolation":"LINEAR"},{"input":6,"output":7,"interpolation":"LINEAR"},{"input":8,"output":9,"interpolation":"LINEAR"},{"input":10,"output":11,"interpolation":"LINEAR"},{"input":12,"output":13,"interpolation":"LINEAR"},{"input":14,"output":15,"interpolation":"LINEAR"},{"input":16,"output":17,"interpolation":"LINEAR"},{"input":18,"output":19,"interpolation":"LINEAR"}],"channels":[{"sampler":0,"target":{"node":5,"path":"rotation"}},{"sampler":1,"target":{"node":5,"path":"translation"}},{"sampler":2,"target":{"node":5,"path":"scale"}},{"sampler":3,"target":{"node":8,"path":"rotation"}},{"sampler":4,"target":{"node":8,"path":"translation"}},{"sampler":5,"target":{"node":8,"path":"scale"}},{"sampler":6,"target":{"node":6,"path":"rotation"}},{"sampler":7,"target":{"node":6,"path":"translation"}},{"sampler":8,"target":{"node":3,"path":"rotation"}},{"sampler":9,"target":{"node":3,"path":"translation"}}]}],"bufferViews":[{"buffer":0,"byteOffset":0,"byteLength":4},{"buffer":0,"byteOffset":4,"byteLength":16},{"buffer":0,"byteOffset":20,"byteLength":4},{"buffer":0,"byteOffset":24,"byteLength":12},{"buffer":0,"byteOffset":36,"byteLength":4},{"buffer":0,"byteOffset":40,"byteLength":12},{"buffer":0,"byteOffset":52,"byteLength":240},{"buffer":0,"byteOffset":292,"byteLength":960},{"buffer":0,"byteOffset":1252,"byteLength":240},{"buffer":0,"byteOffset":1492,"byteLength":720},{"buffer":0,"byteOffset":2212,"byteLength":4},{"buffer":0,"byteOffset":2216,"byteLength":12},{"buffer":0,"byteOffset":2228,"byteLength":220},{"buffer":0,"byteOffset":2448,"byteLength":880},{"buffer":0,"byteOffset":3328,"byteLength":200},{"buffer":0,"byteOffset":3528,"byteLength":600},{"buffer":0,"byteOffset":4128,"byteLength":16},{"buffer":0,"byteOffset":4144,"byteLength":64},{"buffer":0,"byteOffset":4208,"byteLength":48},{"buffer":0,"byteOffset":4256,"byteLength":144}],"buffers":[{"byteLength":4400,"uri":"data:application/octet-stream;base64,"}],"accessors":[{"bufferView":0,"componentType":5126,"count":1,"max":[0],"min":[0],"type":"SCALAR"},{"bufferView":1,"componentType":5126,"count":1,"max":[-4.51452149623189e-17,0.7372773289680481,-0.6755902171134949,4.1367970795711857e-17],"min":[-4.51452149623189e-17,0.7372773289680481,-0.6755902171134949,4.1367970795711857e-17],"type":"VEC4"},{"bufferView":2,"componentType":5126,"count":1,"max":[0],"min":[0],"type":"SCALAR"},{"bufferView":3,"componentType":5126,"count":1,"max":[0.0625,-0.07500000298023224,-0.21250000596046448],"min":[0.0625,-0.07500000298023224,-0.21250000596046448],"type":"VEC3"},{"bufferView":4,"componentType":5126,"count":1,"max":[0],"min":[0],"type":"SCALAR"},{"bufferView":5,"componentType":5126,"count":1,"max":[1.75,2,1.75],"min":[1.75,2,1.75],"type":"VEC3"},{"bufferView":6,"componentType":5126,"count":60,"max":[3.6500000953674316],"min":[0],"type":"SCALAR"},{"bufferView":7,"componentType":5126,"count":60,"max":[-0.016698330640792847,0.7020952701568604,-0.508944571018219,0.5126672983169556],"min":[-0.323369562625885,0.6112117767333984,-0.690010666847229,0.17512479424476624],"type":"VEC4"},{"bufferView":8,"componentType":5126,"count":60,"max":[3.6500000953674316],"min":[0],"type":"SCALAR"},{"bufferView":9,"componentType":5126,"count":60,"max":[0.4578515589237213,0.17812499403953552,0.965623140335083],"min":[-0.21406200528144836,-0.6683582663536072,0.4745027422904968],"type":"VEC3"},{"bufferView":10,"componentType":5126,"count":1,"max":[0],"min":[0],"type":"SCALAR"},{"bufferView":11,"componentType":5126,"count":1,"max":[1.75,2,1.75],"min":[1.75,2,1.75],"type":"VEC3"},{"bufferView":12,"componentType":5126,"count":55,"max":[3.5999999046325684],"min":[0],"type":"SCALAR"},{"bufferView":13,"componentType":5126,"count":55,"max":[0.47453683614730835,0.4153690040111542,0.4728097915649414,1],"min":[-0.05450240150094032,-0.19943168759346008,-0.4408118426799774,0.7157805562019348],"type":"VEC4"},{"bufferView":14,"componentType":5126,"count":50,"max":[3.700000047683716],"min":[0],"type":"SCALAR"},{"bufferView":15,"componentType":5126,"count":50,"max":[0.6440972089767456,0.46687498688697815,0.8999999761581421],"min":[0.49693015217781067,0.32374998927116394,0.5562499761581421],"type":"VEC3"},{"bufferView":16,"componentType":5126,"count":4,"max":[1.75],"min":[0],"type":"SCALAR"},{"bufferView":17,"componentType":5126,"count":4,"max":[0,0,0,1],"min":[0,0,0,1],"type":"VEC4"},{"bufferView":18,"componentType":5126,"count":12,"max":[1.75],"min":[0],"type":"SCALAR"},{"bufferView":19,"componentType":5126,"count":12,"max":[0,0,0],"min":[-0.15000000596046448,0,0],"type":"VEC3"}]}