{"asset":{"version":"2.0","generator":"Blockbench 4.2.4 glTF exporter"},"scenes":[{"nodes":[9],"name":"blockbench_export"}],"scene":0,"nodes":[{"translation":[0.521376875,-0.010277499999999998,0.447880625],"name":"magazine"},{"translation":[0.521376875,0.6772225000000001,0.510380625],"name":"bolt"},{"name":"micro_uzi","children":[0,1]},{"translation":[0.375,-0.6875,0],"name":"RightHand"},{"translation":[0.125,1.1875,0.5],"name":"R","children":[3]},{"translation":[-0.5625,-0.469875625,-0.587896875],"name":"bone2","children":[2,4]},{"translation":[-0.375,-0.6875,0],"name":"LeftHand"},{"translation":[0.3125,0.717624375,-0.08789687499999999],"name":"l","children":[6]},{"translation":[0.5625,0.5,0.5625],"name":"bone","children":[5,7]},{"children":[8]}],"animations":[{"name":"reload_norm2","samplers":[{"input":0,"output":1,"interpolation":"LINEAR"},{"input":2,"output":3,"interpolation":"LINEAR"},{"input":4,"output":5,"interpolation":"LINEAR"},{"input":6,"output":7,"interpolation":"LINEAR"},{"input":8,"output":9,"interpolation":"LINEAR"},{"input":10,"output":11,"interpolation":"LINEAR"},{"input":12,"output":13,"interpolation":"LINEAR"},{"input":14,"output":15,"interpolation":"LINEAR"},{"input":16,"output":17,"interpolation":"LINEAR"},{"input":18,"output":19,"interpolation":"LINEAR"},{"input":20,"output":21,"interpolation":"LINEAR"}],"channels":[{"sampler":0,"target":{"node":7,"path":"rotation"}},{"sampler":1,"target":{"node":7,"path":"translation"}},{"sampler":2,"target":{"node":7,"path":"scale"}},{"sampler":3,"target":{"node":4,"path":"rotation"}},{"sampler":4,"target":{"node":4,"path":"translation"}},{"sampler":5,"target":{"node":4,"path":"scale"}},{"sampler":6,"target":{"node":8,"path":"rotation"}},{"sampler":7,"target":{"node":8,"path":"translation"}},{"sampler":8,"target":{"node":0,"path":"rotation"}},{"sampler":9,"target":{"node":0,"path":"translation"}},{"sampler":10,"target":{"node":1,"path":"translation"}}]}],"bufferViews":[{"buffer":0,"byteOffset":0,"byteLength":168},{"buffer":0,"byteOffset":168,"byteLength":672},{"buffer":0,"byteOffset":840,"byteLength":164},{"buffer":0,"byteOffset":1004,"byteLength":492},{"buffer":0,"byteOffset":1496,"byteLength":4},{"buffer":0,"byteOffset":1500,"byteLength":12},{"buffer":0,"byteOffset":1512,"byteLength":4},{"buffer":0,"byteOffset":1516,"byteLength":16},{"buffer":0,"byteOffset":1532,"byteLength":4},{"buffer":0,"byteOffset":1536,"byteLength":12},{"buffer":0,"byteOffset":1548,"byteLength":4},{"buffer":0,"byteOffset":1552,"byteLength":12},{"buffer":0,"byteOffset":1564,"byteLength":172},{"buffer":0,"byteOffset":1736,"byteLength":688},{"buffer":0,"byteOffset":2424,"byteLength":172},{"buffer":0,"byteOffset":2596,"byteLength":516},{"buffer":0,"byteOffset":3112,"byteLength":52},{"buffer":0,"byteOffset":3164,"byteLength":208},{"buffer":0,"byteOffset":3372,"byteLength":48},{"buffer":0,"byteOffset":3420,"byteLength":144},{"buffer":0,"byteOffset":3564,"byteLength":16},{"buffer":0,"byteOffset":3580,"byteLength":48}],"buffers":[{"byteLength":3628,"uri":"data:application/octet-stream;base64,"}],"accessors":[{"bufferView":0,"componentType":5126,"count":42,"max":[2.5],"min":[0],"type":"SCALAR"},{"bufferView":1,"componentType":5126,"count":42,"max":[0.630630373954773,0.8116485476493835,-0.23930484056472778,0.33984696865081787],"min":[-0.014376915991306305,0.6157225966453552,-0.7879294157028198,-0.021595414727926254],"type":"VEC4"},{"bufferView":2,"componentType":5126,"count":41,"max":[2.5],"min":[0],"type":"SCALAR"},{"bufferView":3,"componentType":5126,"count":41,"max":[0.20624999701976776,0.3676243722438812,1.1870687007904053],"min":[-1.0180684328079224,-4.157375812530518,-0.6191468834877014],"type":"VEC3"},{"bufferView":4,"componentType":5126,"count":1,"max":[0],"min":[0],"type":"SCALAR"},{"bufferView":5,"componentType":5126,"count":1,"max":[1.75,2,1.75],"min":[1.75,2,1.75],"type":"VEC3"},{"bufferView":6,"componentType":5126,"count":1,"max":[0],"min":[0],"type":"SCALAR"},{"bufferView":7,"componentType":5126,"count":1,"max":[-0.05100685730576515,0.778214693069458,-0.6245833039283752,-0.040937330573797226],"min":[-0.05100685730576515,0.778214693069458,-0.6245833039283752,-0.040937330573797226],"type":"VEC4"},{"bufferView":8,"componentType":5126,"count":1,"max":[0],"min":[0],"type":"SCALAR"},{"bufferView":9,"componentType":5126,"count":1,"max":[0.48124998807907104,0.30000001192092896,0.3125],"min":[0.48124998807907104,0.30000001192092896,0.3125],"type":"VEC3"},{"bufferView":10,"componentType":5126,"count":1,"max":[0],"min":[0],"type":"SCALAR"},{"bufferView":11,"componentType":5126,"count":1,"max":[1.75,2,1.75],"min":[1.75,2,1.75],"type":"VEC3"},{"bufferView":12,"componentType":5126,"count":43,"max":[2.75],"min":[0],"type":"SCALAR"},{"bufferView":13,"componentType":5126,"count":43,"max":[0.2888053059577942,0.37368518114089966,0.1556282937526703,1],"min":[-0.0041273655369877815,-0.004740528762340546,-0.4767031669616699,0.7517770528793335],"type":"VEC4"},{"bufferView":14,"componentType":5126,"count":43,"max":[2.700000047683716],"min":[0],"type":"SCALAR"},{"bufferView":15,"componentType":5126,"count":43,"max":[0.7200000286102295,1.0750000476837158,0.8812500238418579],"min":[0.5608593821525574,0.2762500047683716,0.39375001192092896],"type":"VEC3"},{"bufferView":16,"componentType":5126,"count":13,"max":[1.600000023841858],"min":[0.30000001192092896],"type":"SCALAR"},{"bufferView":17,"componentType":5126,"count":13,"max":[0.012323052622377872,0.01556463073939085,0.10660293698310852,1],"min":[-0.15110410749912262,-0.040488243103027344,-0.030961954966187477,0.9876883625984192],"type":"VEC4"},{"bufferView":18,"componentType":5126,"count":12,"max":[1.600000023841858],"min":[0.30000001192092896],"type":"SCALAR"},{"bufferView":19,"componentType":5126,"count":12,"max":[0.846376895904541,-0.010277500376105309,1.4228806495666504],"min":[0.5095018744468689,-3.304027557373047,0.3747556209564209],"type":"VEC3"},{"bufferView":20,"componentType":5126,"count":4,"max":[2.25],"min":[2.049999952316284],"type":"SCALAR"},{"bufferView":21,"componentType":5126,"count":4,"max":[0.5213768482208252,0.677222490310669,0.8853806257247925],"min":[0.5213768482208252,0.677222490310669,0.5103806257247925],"type":"VEC3"}]}