{"asset":{"version":"2.0","generator":"Blockbench 4.7.0 glTF exporter"},"scenes":[{"nodes":[11],"name":"blockbench_export"}],"scene":0,"nodes":[{"translation":[-0.375,-0.6875,0],"name":"LeftHand"},{"translation":[0.375,0.6875,-0.875],"name":"l","children":[0]},{"translation":[0,0,-0.875],"name":"slide2"},{"name":"mk23","children":[2]},{"translation":[-0.125,0.87421875,-0.1706249999999998],"name":"45"},{"translation":[0.125,-0.625,0],"name":"mb","children":[4]},{"name":"bone3","children":[3,5]},{"translation":[0.375,-0.6875,0],"name":"RightHand"},{"translation":[-0.375,0.6875,-0.875],"name":"r","children":[7]},{"name":"body","children":[6,8]},{"translation":[0.5,0.5,1.375],"name":"bone","children":[1,9]},{"children":[10]}],"animations":[{"name":"draw","samplers":[{"input":0,"output":1,"interpolation":"LINEAR"},{"input":2,"output":3,"interpolation":"LINEAR"},{"input":4,"output":5,"interpolation":"LINEAR"},{"input":6,"output":7,"interpolation":"LINEAR"},{"input":8,"output":9,"interpolation":"LINEAR"},{"input":10,"output":11,"interpolation":"LINEAR"},{"input":12,"output":13,"interpolation":"LINEAR"},{"input":14,"output":15,"interpolation":"LINEAR"},{"input":16,"output":17,"interpolation":"LINEAR"}],"channels":[{"sampler":0,"target":{"node":1,"path":"rotation"}},{"sampler":1,"target":{"node":1,"path":"translation"}},{"sampler":2,"target":{"node":1,"path":"scale"}},{"sampler":3,"target":{"node":8,"path":"rotation"}},{"sampler":4,"target":{"node":8,"path":"translation"}},{"sampler":5,"target":{"node":8,"path":"scale"}},{"sampler":6,"target":{"node":10,"path":"rotation"}},{"sampler":7,"target":{"node":10,"path":"translation"}},{"sampler":8,"target":{"node":4,"path":"translation"}}]}],"bufferViews":[{"buffer":0,"byteOffset":0,"byteLength":4},{"buffer":0,"byteOffset":4,"byteLength":16},{"buffer":0,"byteOffset":20,"byteLength":4},{"buffer":0,"byteOffset":24,"byteLength":12},{"buffer":0,"byteOffset":36,"byteLength":4},{"buffer":0,"byteOffset":40,"byteLength":12},{"buffer":0,"byteOffset":52,"byteLength":4},{"buffer":0,"byteOffset":56,"byteLength":16},{"buffer":0,"byteOffset":72,"byteLength":4},{"buffer":0,"byteOffset":76,"byteLength":12},{"buffer":0,"byteOffset":88,"byteLength":4},{"buffer":0,"byteOffset":92,"byteLength":12},{"buffer":0,"byteOffset":104,"byteLength":32},{"buffer":0,"byteOffset":136,"byteLength":128},{"buffer":0,"byteOffset":264,"byteLength":36},{"buffer":0,"byteOffset":300,"byteLength":108},{"buffer":0,"byteOffset":408,"byteLength":4},{"buffer":0,"byteOffset":412,"byteLength":12}],"buffers":[{"byteLength":424,"uri":"data:application/octet-stream;base64,"}],"accessors":[{"bufferView":0,"componentType":5126,"count":1,"max":[0],"min":[0],"type":"SCALAR"},{"bufferView":1,"componentType":5126,"count":1,"max":[-4.329780301713277e-17,0.7071067690849304,-0.7071067690849304,4.329780301713277e-17],"min":[-4.329780301713277e-17,0.7071067690849304,-0.7071067690849304,4.329780301713277e-17],"type":"VEC4"},{"bufferView":2,"componentType":5126,"count":1,"max":[0],"min":[0],"type":"SCALAR"},{"bufferView":3,"componentType":5126,"count":1,"max":[-1.6875,-2.0625,0.4375],"min":[-1.6875,-2.0625,0.4375],"type":"VEC3"},{"bufferView":4,"componentType":5126,"count":1,"max":[0],"min":[0],"type":"SCALAR"},{"bufferView":5,"componentType":5126,"count":1,"max":[1.75,2,1.75],"min":[1.75,2,1.75],"type":"VEC3"},{"bufferView":6,"componentType":5126,"count":1,"max":[0],"min":[0],"type":"SCALAR"},{"bufferView":7,"componentType":5126,"count":1,"max":[-4.51452149623189e-17,0.7372773289680481,-0.6755902171134949,4.1367970795711857e-17],"min":[-4.51452149623189e-17,0.7372773289680481,-0.6755902171134949,4.1367970795711857e-17],"type":"VEC4"},{"bufferView":8,"componentType":5126,"count":1,"max":[0],"min":[0],"type":"SCALAR"},{"bufferView":9,"componentType":5126,"count":1,"max":[0.02500000037252903,-0.02500000037252903,-0.125],"min":[0.02500000037252903,-0.02500000037252903,-0.125],"type":"VEC3"},{"bufferView":10,"componentType":5126,"count":1,"max":[0],"min":[0],"type":"SCALAR"},{"bufferView":11,"componentType":5126,"count":1,"max":[1.75,2,1.75],"min":[1.75,2,1.75],"type":"VEC3"},{"bufferView":12,"componentType":5126,"count":8,"max":[0.6000000238418579],"min":[0],"type":"SCALAR"},{"bufferView":13,"componentType":5126,"count":8,"max":[0.007286065723747015,0.26811543107032776,0.25082844495773315,1],"min":[-0.08051475882530212,-0.0018960610032081604,-0.032710593193769455,0.9266695976257324],"type":"VEC4"},{"bufferView":14,"componentType":5126,"count":9,"max":[0.6000000238418579],"min":[0],"type":"SCALAR"},{"bufferView":15,"componentType":5126,"count":9,"max":[0.8531249761581421,0.5160214900970459,3.418750047683716],"min":[0.48987269401550293,-1.046875,1.375],"type":"VEC3"},{"bufferView":16,"componentType":5126,"count":1,"max":[0],"min":[0],"type":"SCALAR"},{"bufferView":17,"componentType":5126,"count":1,"max":[-0.125,0.874218761920929,-0.1706250011920929],"min":[-0.125,0.874218761920929,-0.1706250011920929],"type":"VEC3"}]}