{"asset":{"version":"2.0","generator":"Blockbench 4.7.0 glTF exporter"},"scenes":[{"nodes":[11],"name":"blockbench_export"}],"scene":0,"nodes":[{"translation":[-0.375,-0.6875,0],"name":"LeftHand"},{"translation":[0.375,0.6875,-0.875],"name":"l","children":[0]},{"translation":[0,0,-0.875],"name":"slide2"},{"name":"mk23","children":[2]},{"translation":[-0.125,0.87421875,-0.1706249999999998],"name":"45"},{"translation":[0.125,-0.625,0],"name":"mb","children":[4]},{"name":"bone3","children":[3,5]},{"translation":[0.375,-0.6875,0],"name":"RightHand"},{"translation":[-0.375,0.6875,-0.875],"name":"r","children":[7]},{"name":"body","children":[6,8]},{"translation":[0.5,0.5,1.375],"name":"bone","children":[1,9]},{"children":[10]}],"animations":[{"name":"reload_norm","samplers":[{"input":0,"output":1,"interpolation":"LINEAR"},{"input":2,"output":3,"interpolation":"LINEAR"},{"input":4,"output":5,"interpolation":"LINEAR"},{"input":6,"output":7,"interpolation":"LINEAR"},{"input":8,"output":9,"interpolation":"LINEAR"},{"input":10,"output":11,"interpolation":"LINEAR"},{"input":12,"output":13,"interpolation":"LINEAR"},{"input":14,"output":15,"interpolation":"LINEAR"},{"input":16,"output":17,"interpolation":"LINEAR"},{"input":18,"output":19,"interpolation":"LINEAR"},{"input":20,"output":21,"interpolation":"LINEAR"}],"channels":[{"sampler":0,"target":{"node":1,"path":"rotation"}},{"sampler":1,"target":{"node":1,"path":"translation"}},{"sampler":2,"target":{"node":1,"path":"scale"}},{"sampler":3,"target":{"node":8,"path":"rotation"}},{"sampler":4,"target":{"node":8,"path":"translation"}},{"sampler":5,"target":{"node":8,"path":"scale"}},{"sampler":6,"target":{"node":10,"path":"rotation"}},{"sampler":7,"target":{"node":10,"path":"translation"}},{"sampler":8,"target":{"node":5,"path":"rotation"}},{"sampler":9,"target":{"node":5,"path":"translation"}},{"sampler":10,"target":{"node":4,"path":"translation"}}]}],"bufferViews":[{"buffer":0,"byteOffset":0,"byteLength":140},{"buffer":0,"byteOffset":140,"byteLength":560},{"buffer":0,"byteOffset":700,"byteLength":120},{"buffer":0,"byteOffset":820,"byteLength":360},{"buffer":0,"byteOffset":1180,"byteLength":4},{"buffer":0,"byteOffset":1184,"byteLength":12},{"buffer":0,"byteOffset":1196,"byteLength":4},{"buffer":0,"byteOffset":1200,"byteLength":16},{"buffer":0,"byteOffset":1216,"byteLength":4},{"buffer":0,"byteOffset":1220,"byteLength":12},{"buffer":0,"byteOffset":1232,"byteLength":4},{"buffer":0,"byteOffset":1236,"byteLength":12},{"buffer":0,"byteOffset":1248,"byteLength":132},{"buffer":0,"byteOffset":1380,"byteLength":528},{"buffer":0,"byteOffset":1908,"byteLength":124},{"buffer":0,"byteOffset":2032,"byteLength":372},{"buffer":0,"byteOffset":2404,"byteLength":64},{"buffer":0,"byteOffset":2468,"byteLength":256},{"buffer":0,"byteOffset":2724,"byteLength":76},{"buffer":0,"byteOffset":2800,"byteLength":228},{"buffer":0,"byteOffset":3028,"byteLength":4},{"buffer":0,"byteOffset":3032,"byteLength":12}],"buffers":[{"byteLength":3044,"uri":"data:application/octet-stream;base64,"}],"accessors":[{"bufferView":0,"componentType":5126,"count":35,"max":[2],"min":[0],"type":"SCALAR"},{"bufferView":1,"componentType":5126,"count":35,"max":[-4.329780301713277e-17,-0.6387867331504822,0.712813675403595,0.038187697529792786],"min":[-0.4340832531452179,-0.9524808526039124,0.28769630193710327,-0.4906868636608124],"type":"VEC4"},{"bufferView":2,"componentType":5126,"count":30,"max":[2],"min":[0],"type":"SCALAR"},{"bufferView":3,"componentType":5126,"count":30,"max":[0.7861668467521667,-0.3946431279182434,2.0305049419403076],"min":[-1.6875,-2.0625,-0.21875],"type":"VEC3"},{"bufferView":4,"componentType":5126,"count":1,"max":[0],"min":[0],"type":"SCALAR"},{"bufferView":5,"componentType":5126,"count":1,"max":[1.75,2,1.75],"min":[1.75,2,1.75],"type":"VEC3"},{"bufferView":6,"componentType":5126,"count":1,"max":[0],"min":[0],"type":"SCALAR"},{"bufferView":7,"componentType":5126,"count":1,"max":[-4.51452149623189e-17,0.7372773289680481,-0.6755902171134949,4.1367970795711857e-17],"min":[-4.51452149623189e-17,0.7372773289680481,-0.6755902171134949,4.1367970795711857e-17],"type":"VEC4"},{"bufferView":8,"componentType":5126,"count":1,"max":[0],"min":[0],"type":"SCALAR"},{"bufferView":9,"componentType":5126,"count":1,"max":[0.02500000037252903,-0.02500000037252903,-0.125],"min":[0.02500000037252903,-0.02500000037252903,-0.125],"type":"VEC3"},{"bufferView":10,"componentType":5126,"count":1,"max":[0],"min":[0],"type":"SCALAR"},{"bufferView":11,"componentType":5126,"count":1,"max":[1.75,2,1.75],"min":[1.75,2,1.75],"type":"VEC3"},{"bufferView":12,"componentType":5126,"count":33,"max":[2.1500000953674316],"min":[0],"type":"SCALAR"},{"bufferView":13,"componentType":5126,"count":33,"max":[0.36326533555984497,0.17161494493484497,0.006559060886502266,1],"min":[-0.006559060886502266,-0.000011289231224509422,-0.4157995581626892,0.8424742817878723],"type":"VEC4"},{"bufferView":14,"componentType":5126,"count":31,"max":[2],"min":[0],"type":"SCALAR"},{"bufferView":15,"componentType":5126,"count":31,"max":[0.90234375,0.8136788606643677,1.703125],"min":[0.4955311119556427,0.47319382429122925,1.3749208450317383],"type":"VEC3"},{"bufferView":16,"componentType":5126,"count":16,"max":[1.399999976158142],"min":[0],"type":"SCALAR"},{"bufferView":17,"componentType":5126,"count":16,"max":[0.36951306462287903,0.002365492982789874,0.04361938685178757,1],"min":[-0.014440910890698433,-0.10607586055994034,-0.1736481785774231,0.911876380443573],"type":"VEC4"},{"bufferView":18,"componentType":5126,"count":19,"max":[1.600000023841858],"min":[0],"type":"SCALAR"},{"bufferView":19,"componentType":5126,"count":19,"max":[0.9312499761581421,-0.625,1.8470531702041626],"min":[-0.016122499480843544,-2.6430587768554688,0],"type":"VEC3"},{"bufferView":20,"componentType":5126,"count":1,"max":[0],"min":[0],"type":"SCALAR"},{"bufferView":21,"componentType":5126,"count":1,"max":[-0.125,0.936718761920929,-0.19249999523162842],"min":[-0.125,0.936718761920929,-0.19249999523162842],"type":"VEC3"}]}