{"asset":{"version":"2.0","generator":"Blockbench 4.7.0 glTF exporter"},"scenes":[{"nodes":[11],"name":"blockbench_export"}],"scene":0,"nodes":[{"translation":[-0.375,-0.6875,0],"name":"LeftHand"},{"translation":[0.375,0.6875,-0.875],"name":"l","children":[0]},{"translation":[0,0,-0.875],"name":"slide2"},{"name":"mk23","children":[2]},{"translation":[-0.125,0.87421875,-0.1706249999999998],"name":"45"},{"translation":[0.125,-0.625,0],"name":"mb","children":[4]},{"name":"bone3","children":[3,5]},{"translation":[0.375,-0.6875,0],"name":"RightHand"},{"translation":[-0.375,0.6875,-0.875],"name":"r","children":[7]},{"name":"body","children":[6,8]},{"translation":[0.5,0.5,1.375],"name":"bone","children":[1,9]},{"children":[10]}],"animations":[{"name":"inspect","samplers":[{"input":0,"output":1,"interpolation":"LINEAR"},{"input":2,"output":3,"interpolation":"LINEAR"},{"input":4,"output":5,"interpolation":"LINEAR"},{"input":6,"output":7,"interpolation":"LINEAR"},{"input":8,"output":9,"interpolation":"LINEAR"},{"input":10,"output":11,"interpolation":"LINEAR"},{"input":12,"output":13,"interpolation":"LINEAR"},{"input":14,"output":15,"interpolation":"LINEAR"},{"input":16,"output":17,"interpolation":"LINEAR"},{"input":18,"output":19,"interpolation":"LINEAR"},{"input":20,"output":21,"interpolation":"LINEAR"}],"channels":[{"sampler":0,"target":{"node":1,"path":"rotation"}},{"sampler":1,"target":{"node":1,"path":"translation"}},{"sampler":2,"target":{"node":1,"path":"scale"}},{"sampler":3,"target":{"node":8,"path":"rotation"}},{"sampler":4,"target":{"node":8,"path":"translation"}},{"sampler":5,"target":{"node":8,"path":"scale"}},{"sampler":6,"target":{"node":4,"path":"translation"}},{"sampler":7,"target":{"node":10,"path":"rotation"}},{"sampler":8,"target":{"node":10,"path":"translation"}},{"sampler":9,"target":{"node":6,"path":"rotation"}},{"sampler":10,"target":{"node":6,"path":"translation"}}]}],"bufferViews":[{"buffer":0,"byteOffset":0,"byteLength":4},{"buffer":0,"byteOffset":4,"byteLength":16},{"buffer":0,"byteOffset":20,"byteLength":40},{"buffer":0,"byteOffset":60,"byteLength":120},{"buffer":0,"byteOffset":180,"byteLength":4},{"buffer":0,"byteOffset":184,"byteLength":12},{"buffer":0,"byteOffset":196,"byteLength":4},{"buffer":0,"byteOffset":200,"byteLength":16},{"buffer":0,"byteOffset":216,"byteLength":4},{"buffer":0,"byteOffset":220,"byteLength":12},{"buffer":0,"byteOffset":232,"byteLength":4},{"buffer":0,"byteOffset":236,"byteLength":12},{"buffer":0,"byteOffset":248,"byteLength":4},{"buffer":0,"byteOffset":252,"byteLength":12},{"buffer":0,"byteOffset":264,"byteLength":260},{"buffer":0,"byteOffset":524,"byteLength":1040},{"buffer":0,"byteOffset":1564,"byteLength":264},{"buffer":0,"byteOffset":1828,"byteLength":792},{"buffer":0,"byteOffset":2620,"byteLength":8},{"buffer":0,"byteOffset":2628,"byteLength":32},{"buffer":0,"byteOffset":2660,"byteLength":16},{"buffer":0,"byteOffset":2676,"byteLength":48}],"buffers":[{"byteLength":2724,"uri":"data:application/octet-stream;base64,"}],"accessors":[{"bufferView":0,"componentType":5126,"count":1,"max":[0],"min":[0],"type":"SCALAR"},{"bufferView":1,"componentType":5126,"count":1,"max":[-4.329780301713277e-17,0.7071067690849304,-0.7071067690849304,4.329780301713277e-17],"min":[-4.329780301713277e-17,0.7071067690849304,-0.7071067690849304,4.329780301713277e-17],"type":"VEC4"},{"bufferView":2,"componentType":5126,"count":10,"max":[4],"min":[0],"type":"SCALAR"},{"bufferView":3,"componentType":5126,"count":10,"max":[-0.09751062840223312,0.9900575280189514,1.0055899620056152],"min":[-2.6169323921203613,-2.2886950969696045,0.23803812265396118],"type":"VEC3"},{"bufferView":4,"componentType":5126,"count":1,"max":[0],"min":[0],"type":"SCALAR"},{"bufferView":5,"componentType":5126,"count":1,"max":[1.75,2,1.75],"min":[1.75,2,1.75],"type":"VEC3"},{"bufferView":6,"componentType":5126,"count":1,"max":[0],"min":[0],"type":"SCALAR"},{"bufferView":7,"componentType":5126,"count":1,"max":[-4.51452149623189e-17,0.7372773289680481,-0.6755902171134949,4.1367970795711857e-17],"min":[-4.51452149623189e-17,0.7372773289680481,-0.6755902171134949,4.1367970795711857e-17],"type":"VEC4"},{"bufferView":8,"componentType":5126,"count":1,"max":[0],"min":[0],"type":"SCALAR"},{"bufferView":9,"componentType":5126,"count":1,"max":[0.02500000037252903,-0.02500000037252903,-0.125],"min":[0.02500000037252903,-0.02500000037252903,-0.125],"type":"VEC3"},{"bufferView":10,"componentType":5126,"count":1,"max":[0],"min":[0],"type":"SCALAR"},{"bufferView":11,"componentType":5126,"count":1,"max":[1.75,2,1.75],"min":[1.75,2,1.75],"type":"VEC3"},{"bufferView":12,"componentType":5126,"count":1,"max":[0],"min":[0],"type":"SCALAR"},{"bufferView":13,"componentType":5126,"count":1,"max":[-0.125,0.874218761920929,-0.1706250011920929],"min":[-0.125,0.874218761920929,-0.1706250011920929],"type":"VEC3"},{"bufferView":14,"componentType":5126,"count":65,"max":[4.300000190734863],"min":[0],"type":"SCALAR"},{"bufferView":15,"componentType":5126,"count":65,"max":[0.4645848274230957,0.1794108897447586,0.5922033190727234,1],"min":[0,-0.1748412400484085,-0.3223330080509186,0.678337574005127],"type":"VEC4"},{"bufferView":16,"componentType":5126,"count":66,"max":[4.25],"min":[0],"type":"SCALAR"},{"bufferView":17,"componentType":5126,"count":66,"max":[0.5062500238418579,0.7737500071525574,1.788628339767456],"min":[0.3922436535358429,0.4877057671546936,1.2937500476837158],"type":"VEC3"},{"bufferView":18,"componentType":5126,"count":2,"max":[2.049999952316284],"min":[0.10000000149011612],"type":"SCALAR"},{"bufferView":19,"componentType":5126,"count":2,"max":[0,0,0,1],"min":[0,0,0,1],"type":"VEC4"},{"bufferView":20,"componentType":5126,"count":4,"max":[2.049999952316284],"min":[0.10000000149011612],"type":"SCALAR"},{"bufferView":21,"componentType":5126,"count":4,"max":[0,0,0],"min":[-0.20000000298023224,0,0],"type":"VEC3"}]}