{"asset":{"version":"2.0","generator":"Blockbench 4.7.0 glTF exporter"},"scenes":[{"nodes":[11],"name":"blockbench_export"}],"scene":0,"nodes":[{"translation":[-0.375,-0.6875,0],"name":"LeftHand"},{"translation":[0.375,0.6875,-0.875],"name":"l","children":[0]},{"translation":[0,0,-0.875],"name":"slide2"},{"name":"mk23","children":[2]},{"translation":[-0.125,0.87421875,-0.1706249999999998],"name":"45"},{"translation":[0.125,-0.625,0],"name":"mb","children":[4]},{"name":"bone3","children":[3,5]},{"translation":[0.375,-0.6875,0],"name":"RightHand"},{"translation":[-0.375,0.6875,-0.875],"name":"r","children":[7]},{"name":"body","children":[6,8]},{"translation":[0.5,0.5,1.375],"name":"bone","children":[1,9]},{"children":[10]}],"animations":[{"name":"reload_empty","samplers":[{"input":0,"output":1,"interpolation":"LINEAR"},{"input":2,"output":3,"interpolation":"LINEAR"},{"input":4,"output":5,"interpolation":"LINEAR"},{"input":6,"output":7,"interpolation":"LINEAR"},{"input":8,"output":9,"interpolation":"LINEAR"},{"input":10,"output":11,"interpolation":"LINEAR"},{"input":12,"output":13,"interpolation":"LINEAR"},{"input":14,"output":15,"interpolation":"LINEAR"},{"input":16,"output":17,"interpolation":"LINEAR"},{"input":18,"output":19,"interpolation":"LINEAR"},{"input":20,"output":21,"interpolation":"LINEAR"},{"input":22,"output":23,"interpolation":"STEP"}],"channels":[{"sampler":0,"target":{"node":1,"path":"rotation"}},{"sampler":1,"target":{"node":1,"path":"translation"}},{"sampler":2,"target":{"node":1,"path":"scale"}},{"sampler":3,"target":{"node":8,"path":"rotation"}},{"sampler":4,"target":{"node":8,"path":"translation"}},{"sampler":5,"target":{"node":8,"path":"scale"}},{"sampler":6,"target":{"node":10,"path":"rotation"}},{"sampler":7,"target":{"node":10,"path":"translation"}},{"sampler":8,"target":{"node":5,"path":"rotation"}},{"sampler":9,"target":{"node":5,"path":"translation"}},{"sampler":10,"target":{"node":2,"path":"translation"}},{"sampler":11,"target":{"node":4,"path":"translation"}}]}],"bufferViews":[{"buffer":0,"byteOffset":0,"byteLength":132},{"buffer":0,"byteOffset":132,"byteLength":528},{"buffer":0,"byteOffset":660,"byteLength":124},{"buffer":0,"byteOffset":784,"byteLength":372},{"buffer":0,"byteOffset":1156,"byteLength":4},{"buffer":0,"byteOffset":1160,"byteLength":12},{"buffer":0,"byteOffset":1172,"byteLength":4},{"buffer":0,"byteOffset":1176,"byteLength":16},{"buffer":0,"byteOffset":1192,"byteLength":4},{"buffer":0,"byteOffset":1196,"byteLength":12},{"buffer":0,"byteOffset":1208,"byteLength":4},{"buffer":0,"byteOffset":1212,"byteLength":12},{"buffer":0,"byteOffset":1224,"byteLength":164},{"buffer":0,"byteOffset":1388,"byteLength":656},{"buffer":0,"byteOffset":2044,"byteLength":164},{"buffer":0,"byteOffset":2208,"byteLength":492},{"buffer":0,"byteOffset":2700,"byteLength":52},{"buffer":0,"byteOffset":2752,"byteLength":208},{"buffer":0,"byteOffset":2960,"byteLength":68},{"buffer":0,"byteOffset":3028,"byteLength":204},{"buffer":0,"byteOffset":3232,"byteLength":20},{"buffer":0,"byteOffset":3252,"byteLength":60},{"buffer":0,"byteOffset":3312,"byteLength":8},{"buffer":0,"byteOffset":3320,"byteLength":24}],"buffers":[{"byteLength":3344,"uri":"data:application/octet-stream;base64,"}],"accessors":[{"bufferView":0,"componentType":5126,"count":33,"max":[2.1500000953674316],"min":[0],"type":"SCALAR"},{"bufferView":1,"componentType":5126,"count":33,"max":[0.16957518458366394,-0.481934517621994,0.7803725004196167,0.18512791395187378],"min":[-0.6963642239570618,-0.9278350472450256,0.12278780341148376,-0.3958514332771301],"type":"VEC4"},{"bufferView":2,"componentType":5126,"count":31,"max":[2.1500000953674316],"min":[0],"type":"SCALAR"},{"bufferView":3,"componentType":5126,"count":31,"max":[2.0645124912261963,0.49074751138687134,1.1625850200653076],"min":[-1.6875,-2.5340099334716797,-0.004217499867081642],"type":"VEC3"},{"bufferView":4,"componentType":5126,"count":1,"max":[0],"min":[0],"type":"SCALAR"},{"bufferView":5,"componentType":5126,"count":1,"max":[1.75,2,1.75],"min":[1.75,2,1.75],"type":"VEC3"},{"bufferView":6,"componentType":5126,"count":1,"max":[0],"min":[0],"type":"SCALAR"},{"bufferView":7,"componentType":5126,"count":1,"max":[-4.51452149623189e-17,0.7372773289680481,-0.6755902171134949,4.1367970795711857e-17],"min":[-4.51452149623189e-17,0.7372773289680481,-0.6755902171134949,4.1367970795711857e-17],"type":"VEC4"},{"bufferView":8,"componentType":5126,"count":1,"max":[0],"min":[0],"type":"SCALAR"},{"bufferView":9,"componentType":5126,"count":1,"max":[0.02500000037252903,-0.02500000037252903,-0.125],"min":[0.02500000037252903,-0.02500000037252903,-0.125],"type":"VEC3"},{"bufferView":10,"componentType":5126,"count":1,"max":[0],"min":[0],"type":"SCALAR"},{"bufferView":11,"componentType":5126,"count":1,"max":[1.75,2,1.75],"min":[1.75,2,1.75],"type":"VEC3"},{"bufferView":12,"componentType":5126,"count":41,"max":[2.549999952316284],"min":[0],"type":"SCALAR"},{"bufferView":13,"componentType":5126,"count":41,"max":[0.24367907643318176,0.25161856412887573,0.205595001578331,1],"min":[-0.004550931043922901,-0.004363143350929022,-0.38949358463287354,0.8571096658706665],"type":"VEC4"},{"bufferView":14,"componentType":5126,"count":41,"max":[2.4000000953674316],"min":[0],"type":"SCALAR"},{"bufferView":15,"componentType":5126,"count":41,"max":[0.7835546731948853,0.875,1.625],"min":[0.48322436213493347,0.265625,1.3263592720031738],"type":"VEC3"},{"bufferView":16,"componentType":5126,"count":13,"max":[1.149999976158142],"min":[0],"type":"SCALAR"},{"bufferView":17,"componentType":5126,"count":13,"max":[0.36951306462287903,0.004903965163975954,0.04361938685178757,1],"min":[-0.02111612819135189,-0.10607586055994034,-0.258819043636322,0.911876380443573],"type":"VEC4"},{"bufferView":18,"componentType":5126,"count":17,"max":[1.350000023841858],"min":[0],"type":"SCALAR"},{"bufferView":19,"componentType":5126,"count":17,"max":[0.9312499761581421,-0.625,1.3395569324493408],"min":[0.04645976424217224,-2.5,0],"type":"VEC3"},{"bufferView":20,"componentType":5126,"count":5,"max":[2],"min":[0],"type":"SCALAR"},{"bufferView":21,"componentType":5126,"count":5,"max":[0,0,-0.5625],"min":[0,0,-0.875],"type":"VEC3"},{"bufferView":22,"componentType":5126,"count":2,"max":[0.75],"min":[0],"type":"SCALAR"},{"bufferView":23,"componentType":5126,"count":2,"max":[-0.125,0.936718761920929,-0.1706250011920929],"min":[-0.125,0.874218761920929,-0.19249999523162842],"type":"VEC3"}]}