{"asset":{"version":"2.0","generator":"Blockbench 4.6.5 glTF exporter"},"scenes":[{"nodes":[7],"name":"blockbench_export"}],"scene":0,"nodes":[{"translation":[0,-0.03701437499999999,-0.017927499999999985],"name":"Magazine"},{"name":"gun","children":[0]},{"translation":[0.375,-0.625,0],"name":"RightHand"},{"translation":[-0.375,0.8125,0.125],"name":"R","children":[2]},{"translation":[-0.375,-0.625,0],"name":"LeftHand"},{"translation":[0.375,0.8125,0.125],"name":"L","children":[4]},{"translation":[0.5,0.3125,0.375],"name":"bone","children":[1,3,5]},{"children":[6]}],"animations":[{"name":"reload_empty","samplers":[{"input":0,"output":1,"interpolation":"LINEAR"},{"input":2,"output":3,"interpolation":"LINEAR"},{"input":4,"output":5,"interpolation":"LINEAR"},{"input":6,"output":7,"interpolation":"LINEAR"},{"input":8,"output":9,"interpolation":"LINEAR"},{"input":10,"output":11,"interpolation":"LINEAR"},{"input":12,"output":13,"interpolation":"LINEAR"},{"input":14,"output":15,"interpolation":"LINEAR"},{"input":16,"output":17,"interpolation":"LINEAR"},{"input":18,"output":19,"interpolation":"LINEAR"}],"channels":[{"sampler":0,"target":{"node":6,"path":"rotation"}},{"sampler":1,"target":{"node":6,"path":"translation"}},{"sampler":2,"target":{"node":0,"path":"rotation"}},{"sampler":3,"target":{"node":0,"path":"translation"}},{"sampler":4,"target":{"node":3,"path":"rotation"}},{"sampler":5,"target":{"node":3,"path":"translation"}},{"sampler":6,"target":{"node":3,"path":"scale"}},{"sampler":7,"target":{"node":5,"path":"rotation"}},{"sampler":8,"target":{"node":5,"path":"translation"}},{"sampler":9,"target":{"node":5,"path":"scale"}}]}],"bufferViews":[{"buffer":0,"byteOffset":0,"byteLength":148},{"buffer":0,"byteOffset":148,"byteLength":592},{"buffer":0,"byteOffset":740,"byteLength":136},{"buffer":0,"byteOffset":876,"byteLength":408},{"buffer":0,"byteOffset":1284,"byteLength":48},{"buffer":0,"byteOffset":1332,"byteLength":192},{"buffer":0,"byteOffset":1524,"byteLength":56},{"buffer":0,"byteOffset":1580,"byteLength":168},{"buffer":0,"byteOffset":1748,"byteLength":52},{"buffer":0,"byteOffset":1800,"byteLength":208},{"buffer":0,"byteOffset":2008,"byteLength":28},{"buffer":0,"byteOffset":2036,"byteLength":84},{"buffer":0,"byteOffset":2120,"byteLength":4},{"buffer":0,"byteOffset":2124,"byteLength":12},{"buffer":0,"byteOffset":2136,"byteLength":132},{"buffer":0,"byteOffset":2268,"byteLength":528},{"buffer":0,"byteOffset":2796,"byteLength":132},{"buffer":0,"byteOffset":2928,"byteLength":396},{"buffer":0,"byteOffset":3324,"byteLength":4},{"buffer":0,"byteOffset":3328,"byteLength":12}],"buffers":[{"byteLength":3340,"uri":"data:application/octet-stream;base64,"}],"accessors":[{"bufferView":0,"componentType":5126,"count":37,"max":[2.75],"min":[0],"type":"SCALAR"},{"bufferView":1,"componentType":5126,"count":37,"max":[0.2573190927505493,0.2310250997543335,0.015295572578907013,1],"min":[-0.0026132133789360523,-0.006259575951844454,-0.42674922943115234,0.8447369337081909],"type":"VEC4"},{"bufferView":2,"componentType":5126,"count":34,"max":[2.700000047683716],"min":[0],"type":"SCALAR"},{"bufferView":3,"componentType":5126,"count":34,"max":[0.59375,0.4588657319545746,0.3843750059604645],"min":[0.45625001192092896,0.2775000035762787,0.27656251192092896],"type":"VEC3"},{"bufferView":4,"componentType":5126,"count":12,"max":[1.850000023841858],"min":[0],"type":"SCALAR"},{"bufferView":5,"componentType":5126,"count":12,"max":[0.026096239686012268,0.0020537832751870155,0.017452405765652657,1],"min":[-0.2575168311595917,-0.02593057043850422,-0.9733792543411255,-0.30901700258255005],"type":"VEC4"},{"bufferView":6,"componentType":5126,"count":14,"max":[1.850000023841858],"min":[0],"type":"SCALAR"},{"bufferView":7,"componentType":5126,"count":14,"max":[0.01875000074505806,-0.03701437637209892,-0.0179274994879961],"min":[-0.6285812258720398,-2.7271711826324463,-0.2073024958372116],"type":"VEC3"},{"bufferView":8,"componentType":5126,"count":13,"max":[2.3499999046325684],"min":[0],"type":"SCALAR"},{"bufferView":9,"componentType":5126,"count":13,"max":[-4.6906692768028125e-17,0.7895535230636597,-0.609849214553833,3.9359390979975894e-17],"min":[-0.1119421198964119,0.7526489496231079,-0.6487405896186829,-0.08099304884672165],"type":"VEC4"},{"bufferView":10,"componentType":5126,"count":7,"max":[2.3499999046325684],"min":[0],"type":"SCALAR"},{"bufferView":11,"componentType":5126,"count":7,"max":[0.02500000037252903,-0.01875000074505806,0.0625],"min":[0,-0.01875000074505806,0.0625],"type":"VEC3"},{"bufferView":12,"componentType":5126,"count":1,"max":[0],"min":[0],"type":"SCALAR"},{"bufferView":13,"componentType":5126,"count":1,"max":[1,1.5,1],"min":[1,1.5,1],"type":"VEC3"},{"bufferView":14,"componentType":5126,"count":33,"max":[2.299999952316284],"min":[0],"type":"SCALAR"},{"bufferView":15,"componentType":5126,"count":33,"max":[-0.08690974116325378,0.03853781148791313,0.8670828938484192,0.3773779571056366],"min":[-0.4784662425518036,-0.8225345015525818,0.5412625074386597,-0.17530281841754913],"type":"VEC4"},{"bufferView":16,"componentType":5126,"count":33,"max":[2.299999952316284],"min":[0],"type":"SCALAR"},{"bufferView":17,"componentType":5126,"count":33,"max":[-0.04376464709639549,-0.010625000111758709,0.0647861585021019],"min":[-1.193750023841858,-2.236875057220459,-0.5130537748336792],"type":"VEC3"},{"bufferView":18,"componentType":5126,"count":1,"max":[0],"min":[0],"type":"SCALAR"},{"bufferView":19,"componentType":5126,"count":1,"max":[1,1.5,1],"min":[1,1.5,1],"type":"VEC3"}]}