{"asset":{"version":"2.0","generator":"Blockbench 4.6.5 glTF exporter"},"scenes":[{"nodes":[7],"name":"blockbench_export"}],"scene":0,"nodes":[{"translation":[0,-0.03701437499999999,-0.017927499999999985],"name":"Magazine"},{"name":"gun","children":[0]},{"translation":[0.375,-0.625,0],"name":"RightHand"},{"translation":[-0.375,0.8125,0.125],"name":"R","children":[2]},{"translation":[-0.375,-0.625,0],"name":"LeftHand"},{"translation":[0.375,0.8125,0.125],"name":"L","children":[4]},{"translation":[0.5,0.3125,0.375],"name":"bone","children":[1,3,5]},{"children":[6]}],"animations":[{"name":"draw","samplers":[{"input":0,"output":1,"interpolation":"LINEAR"},{"input":2,"output":3,"interpolation":"LINEAR"},{"input":4,"output":5,"interpolation":"LINEAR"},{"input":6,"output":7,"interpolation":"LINEAR"},{"input":8,"output":9,"interpolation":"LINEAR"},{"input":10,"output":11,"interpolation":"LINEAR"},{"input":12,"output":13,"interpolation":"LINEAR"},{"input":14,"output":15,"interpolation":"LINEAR"}],"channels":[{"sampler":0,"target":{"node":6,"path":"rotation"}},{"sampler":1,"target":{"node":6,"path":"translation"}},{"sampler":2,"target":{"node":3,"path":"rotation"}},{"sampler":3,"target":{"node":3,"path":"translation"}},{"sampler":4,"target":{"node":3,"path":"scale"}},{"sampler":5,"target":{"node":5,"path":"rotation"}},{"sampler":6,"target":{"node":5,"path":"translation"}},{"sampler":7,"target":{"node":5,"path":"scale"}}]}],"bufferViews":[{"buffer":0,"byteOffset":0,"byteLength":44},{"buffer":0,"byteOffset":44,"byteLength":176},{"buffer":0,"byteOffset":220,"byteLength":44},{"buffer":0,"byteOffset":264,"byteLength":132},{"buffer":0,"byteOffset":396,"byteLength":4},{"buffer":0,"byteOffset":400,"byteLength":16},{"buffer":0,"byteOffset":416,"byteLength":4},{"buffer":0,"byteOffset":420,"byteLength":12},{"buffer":0,"byteOffset":432,"byteLength":4},{"buffer":0,"byteOffset":436,"byteLength":12},{"buffer":0,"byteOffset":448,"byteLength":28},{"buffer":0,"byteOffset":476,"byteLength":112},{"buffer":0,"byteOffset":588,"byteLength":28},{"buffer":0,"byteOffset":616,"byteLength":84},{"buffer":0,"byteOffset":700,"byteLength":4},{"buffer":0,"byteOffset":704,"byteLength":12}],"buffers":[{"byteLength":716,"uri":"data:application/octet-stream;base64,"}],"accessors":[{"bufferView":0,"componentType":5126,"count":11,"max":[0.800000011920929],"min":[0],"type":"SCALAR"},{"bufferView":1,"componentType":5126,"count":11,"max":[0.00015765770513098687,0.34831273555755615,0.2972331941127777,1],"min":[-0.1939237266778946,-0.00026706967037171125,-0.008726535364985466,0.8675968050956726],"type":"VEC4"},{"bufferView":2,"componentType":5126,"count":11,"max":[0.800000011920929],"min":[0],"type":"SCALAR"},{"bufferView":3,"componentType":5126,"count":11,"max":[0.5012962818145752,0.3125,0.40937501192092896],"min":[0.40625,-0.4937500059604645,0.30000001192092896],"type":"VEC3"},{"bufferView":4,"componentType":5126,"count":1,"max":[0],"min":[0],"type":"SCALAR"},{"bufferView":5,"componentType":5126,"count":1,"max":[-4.6906692768028125e-17,0.7660444378852844,-0.6427876353263855,3.9359390979975894e-17],"min":[-4.6906692768028125e-17,0.7660444378852844,-0.6427876353263855,3.9359390979975894e-17],"type":"VEC4"},{"bufferView":6,"componentType":5126,"count":1,"max":[0],"min":[0],"type":"SCALAR"},{"bufferView":7,"componentType":5126,"count":1,"max":[0,-0.01875000074505806,0.0625],"min":[0,-0.01875000074505806,0.0625],"type":"VEC3"},{"bufferView":8,"componentType":5126,"count":1,"max":[0],"min":[0],"type":"SCALAR"},{"bufferView":9,"componentType":5126,"count":1,"max":[1,1.5,1],"min":[1,1.5,1],"type":"VEC3"},{"bufferView":10,"componentType":5126,"count":7,"max":[0.5],"min":[0],"type":"SCALAR"},{"bufferView":11,"componentType":5126,"count":7,"max":[-0.026071125641465187,-0.7180898189544678,0.6794633269309998,-0.10936704277992249],"min":[-0.12485451996326447,-0.7838937044143677,0.5982982516288757,-0.14831353724002838],"type":"VEC4"},{"bufferView":12,"componentType":5126,"count":7,"max":[0.5],"min":[0],"type":"SCALAR"},{"bufferView":13,"componentType":5126,"count":7,"max":[-0.0625,-0.03125,-0.4585937559604645],"min":[-0.2236328125,-0.05703125149011612,-0.5249999761581421],"type":"VEC3"},{"bufferView":14,"componentType":5126,"count":1,"max":[0],"min":[0],"type":"SCALAR"},{"bufferView":15,"componentType":5126,"count":1,"max":[1,1.5,1],"min":[1,1.5,1],"type":"VEC3"}]}