{"asset":{"version":"2.0","generator":"Blockbench 4.6.5 glTF exporter"},"scenes":[{"nodes":[7],"name":"blockbench_export"}],"scene":0,"nodes":[{"translation":[0,-0.03701437499999999,-0.017927499999999985],"name":"Magazine"},{"name":"gun","children":[0]},{"translation":[0.375,-0.625,0],"name":"RightHand"},{"translation":[-0.375,0.8125,0.125],"name":"R","children":[2]},{"translation":[-0.375,-0.625,0],"name":"LeftHand"},{"translation":[0.375,0.8125,0.125],"name":"L","children":[4]},{"translation":[0.5,0.3125,0.375],"name":"bone","children":[1,3,5]},{"children":[6]}],"animations":[{"name":"inspect","samplers":[{"input":0,"output":1,"interpolation":"LINEAR"},{"input":2,"output":3,"interpolation":"LINEAR"},{"input":4,"output":5,"interpolation":"LINEAR"},{"input":6,"output":7,"interpolation":"LINEAR"},{"input":8,"output":9,"interpolation":"LINEAR"},{"input":10,"output":11,"interpolation":"LINEAR"},{"input":12,"output":13,"interpolation":"LINEAR"},{"input":14,"output":15,"interpolation":"LINEAR"}],"channels":[{"sampler":0,"target":{"node":6,"path":"rotation"}},{"sampler":1,"target":{"node":6,"path":"translation"}},{"sampler":2,"target":{"node":3,"path":"rotation"}},{"sampler":3,"target":{"node":3,"path":"translation"}},{"sampler":4,"target":{"node":3,"path":"scale"}},{"sampler":5,"target":{"node":5,"path":"rotation"}},{"sampler":6,"target":{"node":5,"path":"translation"}},{"sampler":7,"target":{"node":5,"path":"scale"}}]}],"bufferViews":[{"buffer":0,"byteOffset":0,"byteLength":228},{"buffer":0,"byteOffset":228,"byteLength":912},{"buffer":0,"byteOffset":1140,"byteLength":228},{"buffer":0,"byteOffset":1368,"byteLength":684},{"buffer":0,"byteOffset":2052,"byteLength":4},{"buffer":0,"byteOffset":2056,"byteLength":16},{"buffer":0,"byteOffset":2072,"byteLength":4},{"buffer":0,"byteOffset":2076,"byteLength":12},{"buffer":0,"byteOffset":2088,"byteLength":4},{"buffer":0,"byteOffset":2092,"byteLength":12},{"buffer":0,"byteOffset":2104,"byteLength":232},{"buffer":0,"byteOffset":2336,"byteLength":928},{"buffer":0,"byteOffset":3264,"byteLength":104},{"buffer":0,"byteOffset":3368,"byteLength":312},{"buffer":0,"byteOffset":3680,"byteLength":4},{"buffer":0,"byteOffset":3684,"byteLength":12}],"buffers":[{"byteLength":3696,"uri":"data:application/octet-stream;base64,"}],"accessors":[{"bufferView":0,"componentType":5126,"count":57,"max":[4.449999809265137],"min":[0],"type":"SCALAR"},{"bufferView":1,"componentType":5126,"count":57,"max":[0.3167725205421448,0.3720311224460602,0.5853198170661926,1],"min":[-0.002774324966594577,-0.029978780075907707,-0.3498004972934723,0.7534905076026917],"type":"VEC4"},{"bufferView":2,"componentType":5126,"count":57,"max":[4.300000190734863],"min":[0],"type":"SCALAR"},{"bufferView":3,"componentType":5126,"count":57,"max":[0.5,0.6756714582443237,0.4634259343147278],"min":[0.23541666567325592,0.24770833551883698,0.3187499940395355],"type":"VEC3"},{"bufferView":4,"componentType":5126,"count":1,"max":[0],"min":[0],"type":"SCALAR"},{"bufferView":5,"componentType":5126,"count":1,"max":[-4.6906692768028125e-17,0.7660444378852844,-0.6427876353263855,3.9359390979975894e-17],"min":[-4.6906692768028125e-17,0.7660444378852844,-0.6427876353263855,3.9359390979975894e-17],"type":"VEC4"},{"bufferView":6,"componentType":5126,"count":1,"max":[0],"min":[0],"type":"SCALAR"},{"bufferView":7,"componentType":5126,"count":1,"max":[0,-0.01875000074505806,0.0625],"min":[0,-0.01875000074505806,0.0625],"type":"VEC3"},{"bufferView":8,"componentType":5126,"count":1,"max":[0],"min":[0],"type":"SCALAR"},{"bufferView":9,"componentType":5126,"count":1,"max":[1,1.5,1],"min":[1,1.5,1],"type":"VEC3"},{"bufferView":10,"componentType":5126,"count":58,"max":[4.349999904632568],"min":[0],"type":"SCALAR"},{"bufferView":11,"componentType":5126,"count":58,"max":[-0.047771986573934555,0.4337698221206665,0.989983320236206,0.1374952644109726],"min":[-0.4064778983592987,-0.8101024031639099,0.5396429300308228,-0.5091429948806763],"type":"VEC4"},{"bufferView":12,"componentType":5126,"count":26,"max":[4.050000190734863],"min":[0],"type":"SCALAR"},{"bufferView":13,"componentType":5126,"count":26,"max":[-0.0625,-0.03125,1.9504362344741821],"min":[-0.6924247145652771,-1.671401858329773,-0.8794337511062622],"type":"VEC3"},{"bufferView":14,"componentType":5126,"count":1,"max":[0],"min":[0],"type":"SCALAR"},{"bufferView":15,"componentType":5126,"count":1,"max":[1,1.5,1],"min":[1,1.5,1],"type":"VEC3"}]}