{"asset":{"version":"2.0","generator":"Blockbench 4.6.5 glTF exporter"},"scenes":[{"nodes":[7],"name":"blockbench_export"}],"scene":0,"nodes":[{"translation":[0,-0.03701437499999999,-0.017927499999999985],"name":"Magazine"},{"name":"gun","children":[0]},{"translation":[0.375,-0.625,0],"name":"RightHand"},{"translation":[-0.375,0.8125,0.125],"name":"R","children":[2]},{"translation":[-0.375,-0.625,0],"name":"LeftHand"},{"translation":[0.375,0.8125,0.125],"name":"L","children":[4]},{"translation":[0.5,0.3125,0.375],"name":"bone","children":[1,3,5]},{"children":[6]}],"animations":[{"name":"reload_norm","samplers":[{"input":0,"output":1,"interpolation":"LINEAR"},{"input":2,"output":3,"interpolation":"LINEAR"},{"input":4,"output":5,"interpolation":"LINEAR"},{"input":6,"output":7,"interpolation":"LINEAR"},{"input":8,"output":9,"interpolation":"LINEAR"},{"input":10,"output":11,"interpolation":"LINEAR"},{"input":12,"output":13,"interpolation":"LINEAR"},{"input":14,"output":15,"interpolation":"LINEAR"},{"input":16,"output":17,"interpolation":"LINEAR"},{"input":18,"output":19,"interpolation":"LINEAR"}],"channels":[{"sampler":0,"target":{"node":6,"path":"rotation"}},{"sampler":1,"target":{"node":6,"path":"translation"}},{"sampler":2,"target":{"node":0,"path":"rotation"}},{"sampler":3,"target":{"node":0,"path":"translation"}},{"sampler":4,"target":{"node":3,"path":"rotation"}},{"sampler":5,"target":{"node":3,"path":"translation"}},{"sampler":6,"target":{"node":3,"path":"scale"}},{"sampler":7,"target":{"node":5,"path":"rotation"}},{"sampler":8,"target":{"node":5,"path":"translation"}},{"sampler":9,"target":{"node":5,"path":"scale"}}]}],"bufferViews":[{"buffer":0,"byteOffset":0,"byteLength":116},{"buffer":0,"byteOffset":116,"byteLength":464},{"buffer":0,"byteOffset":580,"byteLength":120},{"buffer":0,"byteOffset":700,"byteLength":360},{"buffer":0,"byteOffset":1060,"byteLength":72},{"buffer":0,"byteOffset":1132,"byteLength":288},{"buffer":0,"byteOffset":1420,"byteLength":72},{"buffer":0,"byteOffset":1492,"byteLength":216},{"buffer":0,"byteOffset":1708,"byteLength":24},{"buffer":0,"byteOffset":1732,"byteLength":96},{"buffer":0,"byteOffset":1828,"byteLength":16},{"buffer":0,"byteOffset":1844,"byteLength":48},{"buffer":0,"byteOffset":1892,"byteLength":4},{"buffer":0,"byteOffset":1896,"byteLength":12},{"buffer":0,"byteOffset":1908,"byteLength":104},{"buffer":0,"byteOffset":2012,"byteLength":416},{"buffer":0,"byteOffset":2428,"byteLength":104},{"buffer":0,"byteOffset":2532,"byteLength":312},{"buffer":0,"byteOffset":2844,"byteLength":4},{"buffer":0,"byteOffset":2848,"byteLength":12}],"buffers":[{"byteLength":2860,"uri":"data:application/octet-stream;base64,"}],"accessors":[{"bufferView":0,"componentType":5126,"count":29,"max":[2.200000047683716],"min":[0],"type":"SCALAR"},{"bufferView":1,"componentType":5126,"count":29,"max":[0.30557793378829956,0.2476244866847992,0.08205336332321167,1],"min":[-0.0024290659930557013,-0.002198707079514861,-0.4315658211708069,0.8210909962654114],"type":"VEC4"},{"bufferView":2,"componentType":5126,"count":30,"max":[2.25],"min":[0],"type":"SCALAR"},{"bufferView":3,"componentType":5126,"count":30,"max":[0.6025000214576721,0.43859952688217163,0.3799999952316284],"min":[0.49699220061302185,0.28437501192092896,0.30152344703674316],"type":"VEC3"},{"bufferView":4,"componentType":5126,"count":18,"max":[1.5],"min":[0],"type":"SCALAR"},{"bufferView":5,"componentType":5126,"count":18,"max":[0.09174805134534836,0.026309620589017868,0.035369329154491425,1],"min":[-0.4817942976951599,-0.2012462019920349,-0.33324161171913147,0.7938908338546753],"type":"VEC4"},{"bufferView":6,"componentType":5126,"count":18,"max":[1.5],"min":[0],"type":"SCALAR"},{"bufferView":7,"componentType":5126,"count":18,"max":[0,-0.03701437637209892,0.27918940782546997],"min":[-0.39349600672721863,-1.2171950340270996,-0.0179274994879961],"type":"VEC3"},{"bufferView":8,"componentType":5126,"count":6,"max":[1.899999976158142],"min":[0],"type":"SCALAR"},{"bufferView":9,"componentType":5126,"count":6,"max":[-4.6906692768028125e-17,0.7724947929382324,-0.6171878576278687,3.9359390979975894e-17],"min":[-0.11322858184576035,0.7576301097869873,-0.6427876353263855,-0.14355428516864777],"type":"VEC4"},{"bufferView":10,"componentType":5126,"count":4,"max":[1.899999976158142],"min":[0],"type":"SCALAR"},{"bufferView":11,"componentType":5126,"count":4,"max":[0.02500000037252903,-0.01875000074505806,0.10000000149011612],"min":[0,-0.01875000074505806,0.0625],"type":"VEC3"},{"bufferView":12,"componentType":5126,"count":1,"max":[0],"min":[0],"type":"SCALAR"},{"bufferView":13,"componentType":5126,"count":1,"max":[1,1.5,1],"min":[1,1.5,1],"type":"VEC3"},{"bufferView":14,"componentType":5126,"count":26,"max":[1.9500000476837158],"min":[0],"type":"SCALAR"},{"bufferView":15,"componentType":5126,"count":26,"max":[-0.05518954247236252,-0.3096805810928345,0.8707770109176636,-0.00015735729539301246],"min":[-0.37902435660362244,-0.876085638999939,0.3849203288555145,-0.2271917760372162],"type":"VEC4"},{"bufferView":16,"componentType":5126,"count":26,"max":[1.9500000476837158],"min":[0],"type":"SCALAR"},{"bufferView":17,"componentType":5126,"count":26,"max":[0.013124999590218067,-0.03125,0.4417000114917755],"min":[-0.5698000192642212,-1.2197500467300415,-0.48750001192092896],"type":"VEC3"},{"bufferView":18,"componentType":5126,"count":1,"max":[0],"min":[0],"type":"SCALAR"},{"bufferView":19,"componentType":5126,"count":1,"max":[1,1.5,1],"min":[1,1.5,1],"type":"VEC3"}]}