{"asset":{"version":"2.0","generator":"Blockbench 4.7.0 glTF exporter"},"scenes":[{"nodes":[11],"name":"blockbench_export"}],"scene":0,"nodes":[{"translation":[-0.375,-0.6875,0],"name":"LeftHand"},{"translation":[0.375,0.8125,-0.0625],"name":"l","children":[0]},{"translation":[0,0.21636999999999995,0.22923249999999995],"name":"Bolt"},{"translation":[-0.004270624999999972,0.24524562500000002,-0.34912125],"name":"casing"},{"name":"mp9","children":[2,3]},{"translation":[-0.5,-0.16712375000000002,-0.558496875],"name":"9mm"},{"translation":[0,-0.27037625,-0.004003124999999996],"name":"Magazine","children":[5]},{"translation":[0.375,-0.6875,0],"name":"RightHand"},{"translation":[-0.375,0.8125,-0.0625],"name":"r","children":[7]},{"name":"main","children":[4,6,8]},{"translation":[0.5,0.375,0.5625],"name":"bone","children":[1,9]},{"children":[10]}],"animations":[{"name":"inspect","samplers":[{"input":0,"output":1,"interpolation":"LINEAR"},{"input":2,"output":3,"interpolation":"LINEAR"},{"input":4,"output":5,"interpolation":"LINEAR"},{"input":6,"output":7,"interpolation":"LINEAR"},{"input":8,"output":9,"interpolation":"LINEAR"},{"input":10,"output":11,"interpolation":"LINEAR"},{"input":12,"output":13,"interpolation":"LINEAR"},{"input":14,"output":15,"interpolation":"LINEAR"}],"channels":[{"sampler":0,"target":{"node":1,"path":"rotation"}},{"sampler":1,"target":{"node":1,"path":"translation"}},{"sampler":2,"target":{"node":1,"path":"scale"}},{"sampler":3,"target":{"node":8,"path":"rotation"}},{"sampler":4,"target":{"node":8,"path":"translation"}},{"sampler":5,"target":{"node":8,"path":"scale"}},{"sampler":6,"target":{"node":10,"path":"rotation"}},{"sampler":7,"target":{"node":10,"path":"translation"}}]}],"bufferViews":[{"buffer":0,"byteOffset":0,"byteLength":236},{"buffer":0,"byteOffset":236,"byteLength":944},{"buffer":0,"byteOffset":1180,"byteLength":236},{"buffer":0,"byteOffset":1416,"byteLength":708},{"buffer":0,"byteOffset":2124,"byteLength":4},{"buffer":0,"byteOffset":2128,"byteLength":12},{"buffer":0,"byteOffset":2140,"byteLength":4},{"buffer":0,"byteOffset":2144,"byteLength":16},{"buffer":0,"byteOffset":2160,"byteLength":4},{"buffer":0,"byteOffset":2164,"byteLength":12},{"buffer":0,"byteOffset":2176,"byteLength":4},{"buffer":0,"byteOffset":2180,"byteLength":12},{"buffer":0,"byteOffset":2192,"byteLength":360},{"buffer":0,"byteOffset":2552,"byteLength":1440},{"buffer":0,"byteOffset":3992,"byteLength":352},{"buffer":0,"byteOffset":4344,"byteLength":1056}],"buffers":[{"byteLength":5400,"uri":"data:application/octet-stream;base64,"}],"accessors":[{"bufferView":0,"componentType":5126,"count":59,"max":[5],"min":[0],"type":"SCALAR"},{"bufferView":1,"componentType":5126,"count":59,"max":[0.468144953250885,0.8170672059059143,-0.49285662174224854,0.5264750123023987],"min":[-0.13820694386959076,0.6183053255081177,-0.7453355193138123,0.09987115114927292],"type":"VEC4"},{"bufferView":2,"componentType":5126,"count":59,"max":[5],"min":[0],"type":"SCALAR"},{"bufferView":3,"componentType":5126,"count":59,"max":[0.2412412017583847,0.12998250126838684,0.4869871139526367],"min":[-0.4674188196659088,-1.427551507949829,-0.4124999940395355],"type":"VEC3"},{"bufferView":4,"componentType":5126,"count":1,"max":[0],"min":[0],"type":"SCALAR"},{"bufferView":5,"componentType":5126,"count":1,"max":[1,1.5,1],"min":[1,1.5,1],"type":"VEC3"},{"bufferView":6,"componentType":5126,"count":1,"max":[0],"min":[0],"type":"SCALAR"},{"bufferView":7,"componentType":5126,"count":1,"max":[-4.568283934708652e-17,0.746057391166687,-0.6658816933631897,4.077349263308225e-17],"min":[-4.568283934708652e-17,0.746057391166687,-0.6658816933631897,4.077349263308225e-17],"type":"VEC4"},{"bufferView":8,"componentType":5126,"count":1,"max":[0],"min":[0],"type":"SCALAR"},{"bufferView":9,"componentType":5126,"count":1,"max":[0.04374999925494194,-0.10000000149011612,-0.05624999850988388],"min":[0.04374999925494194,-0.10000000149011612,-0.05624999850988388],"type":"VEC3"},{"bufferView":10,"componentType":5126,"count":1,"max":[0],"min":[0],"type":"SCALAR"},{"bufferView":11,"componentType":5126,"count":1,"max":[1,1.5,1],"min":[1,1.5,1],"type":"VEC3"},{"bufferView":12,"componentType":5126,"count":90,"max":[5.550000190734863],"min":[0],"type":"SCALAR"},{"bufferView":13,"componentType":5126,"count":90,"max":[0.315444678068161,0.32954171299934387,0.5330343246459961,1],"min":[-0.008978391997516155,-0.0027249008417129517,-0.38386470079421997,0.7664384841918945],"type":"VEC4"},{"bufferView":14,"componentType":5126,"count":88,"max":[5.400000095367432],"min":[0],"type":"SCALAR"},{"bufferView":15,"componentType":5126,"count":88,"max":[0.5041748285293579,0.48901620507240295,0.608203113079071],"min":[0.296587735414505,0.265625,0.2764351963996887],"type":"VEC3"}]}