{"asset":{"version":"2.0","generator":"Blockbench 4.7.0 glTF exporter"},"scenes":[{"nodes":[11],"name":"blockbench_export"}],"scene":0,"nodes":[{"translation":[-0.375,-0.6875,0],"name":"LeftHand"},{"translation":[0.375,0.8125,-0.0625],"name":"l","children":[0]},{"translation":[0,0.21636999999999995,0.22923249999999995],"name":"Bolt"},{"translation":[-0.004270624999999972,0.24524562500000002,-0.34912125],"name":"casing"},{"name":"mp9","children":[2,3]},{"translation":[-0.5,-0.16712375000000002,-0.558496875],"name":"9mm"},{"translation":[0,-0.27037625,-0.004003124999999996],"name":"Magazine","children":[5]},{"translation":[0.375,-0.6875,0],"name":"RightHand"},{"translation":[-0.375,0.8125,-0.0625],"name":"r","children":[7]},{"name":"main","children":[4,6,8]},{"translation":[0.5,0.375,0.5625],"name":"bone","children":[1,9]},{"children":[10]}],"animations":[{"name":"reload_empty","samplers":[{"input":0,"output":1,"interpolation":"LINEAR"},{"input":2,"output":3,"interpolation":"LINEAR"},{"input":4,"output":5,"interpolation":"LINEAR"},{"input":6,"output":7,"interpolation":"LINEAR"},{"input":8,"output":9,"interpolation":"LINEAR"},{"input":10,"output":11,"interpolation":"LINEAR"},{"input":12,"output":13,"interpolation":"LINEAR"},{"input":14,"output":15,"interpolation":"LINEAR"},{"input":16,"output":17,"interpolation":"LINEAR"},{"input":18,"output":19,"interpolation":"LINEAR"},{"input":20,"output":21,"interpolation":"LINEAR"},{"input":22,"output":23,"interpolation":"LINEAR"}],"channels":[{"sampler":0,"target":{"node":10,"path":"rotation"}},{"sampler":1,"target":{"node":10,"path":"translation"}},{"sampler":2,"target":{"node":6,"path":"rotation"}},{"sampler":3,"target":{"node":6,"path":"translation"}},{"sampler":4,"target":{"node":8,"path":"rotation"}},{"sampler":5,"target":{"node":8,"path":"translation"}},{"sampler":6,"target":{"node":8,"path":"scale"}},{"sampler":7,"target":{"node":1,"path":"rotation"}},{"sampler":8,"target":{"node":1,"path":"translation"}},{"sampler":9,"target":{"node":1,"path":"scale"}},{"sampler":10,"target":{"node":2,"path":"translation"}},{"sampler":11,"target":{"node":5,"path":"translation"}}]}],"bufferViews":[{"buffer":0,"byteOffset":0,"byteLength":212},{"buffer":0,"byteOffset":212,"byteLength":848},{"buffer":0,"byteOffset":1060,"byteLength":200},{"buffer":0,"byteOffset":1260,"byteLength":600},{"buffer":0,"byteOffset":1860,"byteLength":104},{"buffer":0,"byteOffset":1964,"byteLength":416},{"buffer":0,"byteOffset":2380,"byteLength":100},{"buffer":0,"byteOffset":2480,"byteLength":300},{"buffer":0,"byteOffset":2780,"byteLength":4},{"buffer":0,"byteOffset":2784,"byteLength":16},{"buffer":0,"byteOffset":2800,"byteLength":4},{"buffer":0,"byteOffset":2804,"byteLength":12},{"buffer":0,"byteOffset":2816,"byteLength":4},{"buffer":0,"byteOffset":2820,"byteLength":12},{"buffer":0,"byteOffset":2832,"byteLength":184},{"buffer":0,"byteOffset":3016,"byteLength":736},{"buffer":0,"byteOffset":3752,"byteLength":176},{"buffer":0,"byteOffset":3928,"byteLength":528},{"buffer":0,"byteOffset":4456,"byteLength":4},{"buffer":0,"byteOffset":4460,"byteLength":12},{"buffer":0,"byteOffset":4472,"byteLength":16},{"buffer":0,"byteOffset":4488,"byteLength":48},{"buffer":0,"byteOffset":4536,"byteLength":20},{"buffer":0,"byteOffset":4556,"byteLength":60}],"buffers":[{"byteLength":4616,"uri":"data:application/octet-stream;base64,"}],"accessors":[{"bufferView":0,"componentType":5126,"count":53,"max":[3.25],"min":[0],"type":"SCALAR"},{"bufferView":1,"componentType":5126,"count":53,"max":[0.24268247187137604,0.15365880727767944,0.06745091080665588,1],"min":[-0.0008279140456579626,-0.0020863355603069067,-0.3255375921726227,0.9206441640853882],"type":"VEC4"},{"bufferView":2,"componentType":5126,"count":50,"max":[3.0999999046325684],"min":[0],"type":"SCALAR"},{"bufferView":3,"componentType":5126,"count":50,"max":[0.59375,0.5224999785423279,0.7003240585327148],"min":[0.5,0.3499768376350403,0.4375],"type":"VEC3"},{"bufferView":4,"componentType":5126,"count":26,"max":[1.7999999523162842],"min":[0],"type":"SCALAR"},{"bufferView":5,"componentType":5126,"count":26,"max":[0,0,0.020451651886105537,1],"min":[0,0,-0.35682496428489685,0.9341712594032288],"type":"VEC4"},{"bufferView":6,"componentType":5126,"count":25,"max":[1.7999999523162842],"min":[0],"type":"SCALAR"},{"bufferView":7,"componentType":5126,"count":25,"max":[0.1469118744134903,-0.2703762352466583,0.06747562438249588],"min":[-0.21484375,-1.2456949949264526,-0.005146403796970844],"type":"VEC3"},{"bufferView":8,"componentType":5126,"count":1,"max":[0],"min":[0],"type":"SCALAR"},{"bufferView":9,"componentType":5126,"count":1,"max":[-4.568283934708652e-17,0.746057391166687,-0.6658816933631897,4.077349263308225e-17],"min":[-4.568283934708652e-17,0.746057391166687,-0.6658816933631897,4.077349263308225e-17],"type":"VEC4"},{"bufferView":10,"componentType":5126,"count":1,"max":[0],"min":[0],"type":"SCALAR"},{"bufferView":11,"componentType":5126,"count":1,"max":[0.04374999925494194,-0.10000000149011612,-0.05624999850988388],"min":[0.04374999925494194,-0.10000000149011612,-0.05624999850988388],"type":"VEC3"},{"bufferView":12,"componentType":5126,"count":1,"max":[0],"min":[0],"type":"SCALAR"},{"bufferView":13,"componentType":5126,"count":1,"max":[1,1.5,1],"min":[1,1.5,1],"type":"VEC3"},{"bufferView":14,"componentType":5126,"count":46,"max":[2.8499999046325684],"min":[0],"type":"SCALAR"},{"bufferView":15,"componentType":5126,"count":46,"max":[0.6077354550361633,0.8170672059059143,-0.005533626768738031,0.2357640266418457],"min":[0.15390953421592712,0.7313185334205627,-0.5465700030326843,-0.3787876069545746],"type":"VEC4"},{"bufferView":16,"componentType":5126,"count":44,"max":[2.8499999046325684],"min":[0],"type":"SCALAR"},{"bufferView":17,"componentType":5126,"count":44,"max":[0.009385624900460243,0.12343750149011612,0.494907408952713],"min":[-0.37812501192092896,-1.3716737031936646,-0.4124999940395355],"type":"VEC3"},{"bufferView":18,"componentType":5126,"count":1,"max":[0],"min":[0],"type":"SCALAR"},{"bufferView":19,"componentType":5126,"count":1,"max":[1,1.5,1],"min":[1,1.5,1],"type":"VEC3"},{"bufferView":20,"componentType":5126,"count":4,"max":[2.5],"min":[2.25],"type":"SCALAR"},{"bufferView":21,"componentType":5126,"count":4,"max":[0,0.21637000143527985,0.4792324900627136],"min":[0,0.21637000143527985,0.22923250496387482],"type":"VEC3"},{"bufferView":22,"componentType":5126,"count":5,"max":[2.1500000953674316],"min":[0],"type":"SCALAR"},{"bufferView":23,"componentType":5126,"count":5,"max":[-0.5,-0.10462374985218048,-0.55849689245224],"min":[-0.5,-0.16712374985218048,-0.55849689245224],"type":"VEC3"}]}