{"asset":{"version":"2.0","generator":"Blockbench 4.7.4 glTF exporter"},"scenes":[{"nodes":[11],"name":"blockbench_export"}],"scene":0,"nodes":[{"translation":[0.375,-0.6875,0],"name":"RightHand"},{"translation":[-0.375,0.75,-0.5],"name":"R2","children":[0]},{"translation":[0,0.043749999999999956,0.125],"name":"86x2"},{"translation":[0,0.0625,-0.5],"name":"mb","children":[2]},{"translation":[0,0.0007812499999999556,0.328125],"name":"bolt"},{"translation":[0,0.20625000000000004,-0.5],"name":"boltgroup","children":[4]},{"name":"MRAD","children":[3,5]},{"name":"bone2","children":[1,6]},{"translation":[-0.375,-0.6875,0],"name":"LeftHand"},{"translation":[0.375,0.75,-0.5],"name":"l2","children":[8]},{"translation":[0.5,0.4375,1],"name":"bone3","children":[7,9]},{"children":[10]}],"animations":[{"name":"inspect","samplers":[{"input":0,"output":1,"interpolation":"LINEAR"},{"input":2,"output":3,"interpolation":"LINEAR"},{"input":4,"output":5,"interpolation":"LINEAR"},{"input":6,"output":7,"interpolation":"LINEAR"},{"input":8,"output":9,"interpolation":"LINEAR"},{"input":10,"output":11,"interpolation":"LINEAR"},{"input":12,"output":13,"interpolation":"LINEAR"},{"input":14,"output":15,"interpolation":"LINEAR"},{"input":16,"output":17,"interpolation":"LINEAR"},{"input":18,"output":19,"interpolation":"LINEAR"},{"input":20,"output":21,"interpolation":"LINEAR"},{"input":22,"output":23,"interpolation":"LINEAR"},{"input":24,"output":25,"interpolation":"LINEAR"},{"input":26,"output":27,"interpolation":"LINEAR"}],"channels":[{"sampler":0,"target":{"node":9,"path":"rotation"}},{"sampler":1,"target":{"node":9,"path":"translation"}},{"sampler":2,"target":{"node":9,"path":"scale"}},{"sampler":3,"target":{"node":1,"path":"rotation"}},{"sampler":4,"target":{"node":1,"path":"translation"}},{"sampler":5,"target":{"node":1,"path":"scale"}},{"sampler":6,"target":{"node":10,"path":"rotation"}},{"sampler":7,"target":{"node":10,"path":"translation"}},{"sampler":8,"target":{"node":3,"path":"rotation"}},{"sampler":9,"target":{"node":3,"path":"translation"}},{"sampler":10,"target":{"node":2,"path":"translation"}},{"sampler":11,"target":{"node":5,"path":"rotation"}},{"sampler":12,"target":{"node":4,"path":"rotation"}},{"sampler":13,"target":{"node":4,"path":"translation"}}]}],"bufferViews":[{"buffer":0,"byteOffset":0,"byteLength":268},{"buffer":0,"byteOffset":268,"byteLength":1072},{"buffer":0,"byteOffset":1340,"byteLength":244},{"buffer":0,"byteOffset":1584,"byteLength":732},{"buffer":0,"byteOffset":2316,"byteLength":4},{"buffer":0,"byteOffset":2320,"byteLength":12},{"buffer":0,"byteOffset":2332,"byteLength":56},{"buffer":0,"byteOffset":2388,"byteLength":224},{"buffer":0,"byteOffset":2612,"byteLength":64},{"buffer":0,"byteOffset":2676,"byteLength":192},{"buffer":0,"byteOffset":2868,"byteLength":4},{"buffer":0,"byteOffset":2872,"byteLength":12},{"buffer":0,"byteOffset":2884,"byteLength":472},{"buffer":0,"byteOffset":3356,"byteLength":1888},{"buffer":0,"byteOffset":5244,"byteLength":484},{"buffer":0,"byteOffset":5728,"byteLength":1452},{"buffer":0,"byteOffset":7180,"byteLength":152},{"buffer":0,"byteOffset":7332,"byteLength":608},{"buffer":0,"byteOffset":7940,"byteLength":136},{"buffer":0,"byteOffset":8076,"byteLength":408},{"buffer":0,"byteOffset":8484,"byteLength":52},{"buffer":0,"byteOffset":8536,"byteLength":156},{"buffer":0,"byteOffset":8692,"byteLength":16},{"buffer":0,"byteOffset":8708,"byteLength":64},{"buffer":0,"byteOffset":8772,"byteLength":200},{"buffer":0,"byteOffset":8972,"byteLength":800},{"buffer":0,"byteOffset":9772,"byteLength":24},{"buffer":0,"byteOffset":9796,"byteLength":72}],"buffers":[{"byteLength":9868,"uri":"data:application/octet-stream;base64,"}],"accessors":[{"bufferView":0,"componentType":5126,"count":67,"max":[6.400000095367432],"min":[0],"type":"SCALAR"},{"bufferView":1,"componentType":5126,"count":67,"max":[0.10171710699796677,0.8465253710746765,-0.2607963979244232,0.6456665992736816],"min":[-0.5172277092933655,0.49672946333885193,-0.6152750849723816,0.049168866127729416],"type":"VEC4"},{"bufferView":2,"componentType":5126,"count":61,"max":[6.400000095367432],"min":[0],"type":"SCALAR"},{"bufferView":3,"componentType":5126,"count":61,"max":[0,0.16875000298023224,-0.33125001192092896],"min":[-0.125,-0.5036212205886841,-0.90625],"type":"VEC3"},{"bufferView":4,"componentType":5126,"count":1,"max":[0],"min":[0],"type":"SCALAR"},{"bufferView":5,"componentType":5126,"count":1,"max":[1,1.5,1],"min":[1,1.5,1],"type":"VEC3"},{"bufferView":6,"componentType":5126,"count":14,"max":[6.099999904632568],"min":[0],"type":"SCALAR"},{"bufferView":7,"componentType":5126,"count":14,"max":[0.07739678025245667,0.9308841824531555,-0.32992658019065857,0.10885223001241684],"min":[-0.1499478667974472,0.7372773289680481,-0.6755902171134949,-0.15761615335941315],"type":"VEC4"},{"bufferView":8,"componentType":5126,"count":16,"max":[6.099999904632568],"min":[0],"type":"SCALAR"},{"bufferView":9,"componentType":5126,"count":16,"max":[0.28243499994277954,0.24590186774730682,0.012500000186264515],"min":[0.012500000186264515,-0.09375,-0.22206999361515045],"type":"VEC3"},{"bufferView":10,"componentType":5126,"count":1,"max":[0],"min":[0],"type":"SCALAR"},{"bufferView":11,"componentType":5126,"count":1,"max":[1,1.5,1],"min":[1,1.5,1],"type":"VEC3"},{"bufferView":12,"componentType":5126,"count":118,"max":[7.050000190734863],"min":[0],"type":"SCALAR"},{"bufferView":13,"componentType":5126,"count":118,"max":[0.3335472643375397,0.33725208044052124,0.43888258934020996,1],"min":[-0.012286299839615822,-0.0017033587209880352,-0.49266287684440613,0.7350643873214722],"type":"VEC4"},{"bufferView":14,"componentType":5126,"count":121,"max":[7.099999904632568],"min":[0],"type":"SCALAR"},{"bufferView":15,"componentType":5126,"count":121,"max":[0.5156658887863159,0.44053709506988525,1.001097559928894],"min":[0.4440625011920929,0.3250042200088501,0.8979394435882568],"type":"VEC3"},{"bufferView":16,"componentType":5126,"count":38,"max":[3.6500000953674316],"min":[0],"type":"SCALAR"},{"bufferView":17,"componentType":5126,"count":38,"max":[0.13020826876163483,0.06915967911481857,0.23853544890880585,1],"min":[-0.06205279007554054,-0.004980596248060465,-0.12801456451416016,0.969669759273529],"type":"VEC4"},{"bufferView":18,"componentType":5126,"count":34,"max":[3.6500000953674316],"min":[0],"type":"SCALAR"},{"bufferView":19,"componentType":5126,"count":34,"max":[0.011834495700895786,0.0625,-0.4992682933807373],"min":[-0.14615310728549957,-0.3168983459472656,-0.593985915184021],"type":"VEC3"},{"bufferView":20,"componentType":5126,"count":13,"max":[5.849999904632568],"min":[0.6000000238418579],"type":"SCALAR"},{"bufferView":21,"componentType":5126,"count":13,"max":[0,0.15625,0.125],"min":[0,0.04374999925494194,-0.16249999403953552],"type":"VEC3"},{"bufferView":22,"componentType":5126,"count":4,"max":[5.900000095367432],"min":[4.449999809265137],"type":"SCALAR"},{"bufferView":23,"componentType":5126,"count":4,"max":[0,0,0.591309666633606,1],"min":[0,0,0,0.8064445853233337],"type":"VEC4"},{"bufferView":24,"componentType":5126,"count":50,"max":[7.050000190734863],"min":[0],"type":"SCALAR"},{"bufferView":25,"componentType":5126,"count":50,"max":[0.0013090834254398942,0.009127750992774963,0.013993566855788231,1],"min":[-0.009367307648062706,-0.0011741468915715814,-0.002271548844873905,0.9998258352279663],"type":"VEC4"},{"bufferView":26,"componentType":5126,"count":6,"max":[5.699999809265137],"min":[4.599999904632568],"type":"SCALAR"},{"bufferView":27,"componentType":5126,"count":6,"max":[0,0.0007812500116415322,0.5093749761581421],"min":[0,0.0007812500116415322,0.328125],"type":"VEC3"}]}