{"asset":{"version":"2.0","generator":"Blockbench 4.7.4 glTF exporter"},"scenes":[{"nodes":[11],"name":"blockbench_export"}],"scene":0,"nodes":[{"translation":[0.375,-0.6875,0],"name":"RightHand"},{"translation":[-0.375,0.75,-0.5],"name":"R2","children":[0]},{"translation":[0,0.043749999999999956,0.125],"name":"86x2"},{"translation":[0,0.0625,-0.5],"name":"mb","children":[2]},{"translation":[0,0.0007812499999999556,0.328125],"name":"bolt"},{"translation":[0,0.20625000000000004,-0.5],"name":"boltgroup","children":[4]},{"name":"MRAD","children":[3,5]},{"name":"bone2","children":[1,6]},{"translation":[-0.375,-0.6875,0],"name":"LeftHand"},{"translation":[0.375,0.75,-0.5],"name":"l2","children":[8]},{"translation":[0.5,0.4375,1],"name":"bone3","children":[7,9]},{"children":[10]}],"animations":[{"name":"bolt_on","samplers":[{"input":0,"output":1,"interpolation":"LINEAR"},{"input":2,"output":3,"interpolation":"LINEAR"},{"input":4,"output":5,"interpolation":"LINEAR"},{"input":6,"output":7,"interpolation":"LINEAR"},{"input":8,"output":9,"interpolation":"LINEAR"},{"input":10,"output":11,"interpolation":"LINEAR"},{"input":12,"output":13,"interpolation":"LINEAR"},{"input":14,"output":15,"interpolation":"LINEAR"},{"input":16,"output":17,"interpolation":"LINEAR"},{"input":18,"output":19,"interpolation":"LINEAR"},{"input":20,"output":21,"interpolation":"LINEAR"},{"input":22,"output":23,"interpolation":"LINEAR"}],"channels":[{"sampler":0,"target":{"node":9,"path":"rotation"}},{"sampler":1,"target":{"node":9,"path":"translation"}},{"sampler":2,"target":{"node":9,"path":"scale"}},{"sampler":3,"target":{"node":1,"path":"rotation"}},{"sampler":4,"target":{"node":1,"path":"translation"}},{"sampler":5,"target":{"node":1,"path":"scale"}},{"sampler":6,"target":{"node":10,"path":"rotation"}},{"sampler":7,"target":{"node":10,"path":"translation"}},{"sampler":8,"target":{"node":2,"path":"rotation"}},{"sampler":9,"target":{"node":2,"path":"translation"}},{"sampler":10,"target":{"node":5,"path":"rotation"}},{"sampler":11,"target":{"node":4,"path":"translation"}}]}],"bufferViews":[{"buffer":0,"byteOffset":0,"byteLength":4},{"buffer":0,"byteOffset":4,"byteLength":16},{"buffer":0,"byteOffset":20,"byteLength":4},{"buffer":0,"byteOffset":24,"byteLength":12},{"buffer":0,"byteOffset":36,"byteLength":4},{"buffer":0,"byteOffset":40,"byteLength":12},{"buffer":0,"byteOffset":52,"byteLength":44},{"buffer":0,"byteOffset":96,"byteLength":176},{"buffer":0,"byteOffset":272,"byteLength":44},{"buffer":0,"byteOffset":316,"byteLength":132},{"buffer":0,"byteOffset":448,"byteLength":4},{"buffer":0,"byteOffset":452,"byteLength":12},{"buffer":0,"byteOffset":464,"byteLength":76},{"buffer":0,"byteOffset":540,"byteLength":304},{"buffer":0,"byteOffset":844,"byteLength":76},{"buffer":0,"byteOffset":920,"byteLength":228},{"buffer":0,"byteOffset":1148,"byteLength":28},{"buffer":0,"byteOffset":1176,"byteLength":112},{"buffer":0,"byteOffset":1288,"byteLength":32},{"buffer":0,"byteOffset":1320,"byteLength":96},{"buffer":0,"byteOffset":1416,"byteLength":16},{"buffer":0,"byteOffset":1432,"byteLength":64},{"buffer":0,"byteOffset":1496,"byteLength":16},{"buffer":0,"byteOffset":1512,"byteLength":48}],"buffers":[{"byteLength":1560,"uri":"data:application/octet-stream;base64,"}],"accessors":[{"bufferView":0,"componentType":5126,"count":1,"max":[0],"min":[0],"type":"SCALAR"},{"bufferView":1,"componentType":5126,"count":1,"max":[-0.14862050116062164,0.6723331809043884,-0.47967976331710815,0.5438633561134338],"min":[-0.14862050116062164,0.6723331809043884,-0.47967976331710815,0.5438633561134338],"type":"VEC4"},{"bufferView":2,"componentType":5126,"count":1,"max":[0],"min":[0],"type":"SCALAR"},{"bufferView":3,"componentType":5126,"count":1,"max":[-0.07500000298023224,0.08749999850988388,-0.90625],"min":[-0.07500000298023224,0.08749999850988388,-0.90625],"type":"VEC3"},{"bufferView":4,"componentType":5126,"count":1,"max":[0],"min":[0],"type":"SCALAR"},{"bufferView":5,"componentType":5126,"count":1,"max":[1,1.5,1],"min":[1,1.5,1],"type":"VEC3"},{"bufferView":6,"componentType":5126,"count":11,"max":[1.4500000476837158],"min":[0],"type":"SCALAR"},{"bufferView":7,"componentType":5126,"count":11,"max":[0.2897142469882965,0.9617239832878113,-0.032359082251787186,0.6067324876785278],"min":[-0.34337496757507324,0.6284434199333191,-0.6755902171134949,-0.5499086380004883],"type":"VEC4"},{"bufferView":8,"componentType":5126,"count":11,"max":[1.4500000476837158],"min":[0],"type":"SCALAR"},{"bufferView":9,"componentType":5126,"count":11,"max":[0.20624999701976776,0.3375000059604645,0.29374998807907104],"min":[0.012500000186264515,-0.09375,-0.20624999701976776],"type":"VEC3"},{"bufferView":10,"componentType":5126,"count":1,"max":[0],"min":[0],"type":"SCALAR"},{"bufferView":11,"componentType":5126,"count":1,"max":[1,1.5,1],"min":[1,1.5,1],"type":"VEC3"},{"bufferView":12,"componentType":5126,"count":19,"max":[1.5],"min":[0],"type":"SCALAR"},{"bufferView":13,"componentType":5126,"count":19,"max":[0.0024373086635023355,0.003780525643378496,0.044665317982435226,1],"min":[-0.007828935980796814,-0.0017093062633648515,-0.0009162748465314507,0.9990015625953674],"type":"VEC4"},{"bufferView":14,"componentType":5126,"count":19,"max":[1.5],"min":[0],"type":"SCALAR"},{"bufferView":15,"componentType":5126,"count":19,"max":[0.5,0.4375,1.0499999523162842],"min":[0.5,0.40281251072883606,0.996874988079071],"type":"VEC3"},{"bufferView":16,"componentType":5126,"count":7,"max":[1.350000023841858],"min":[0.75],"type":"SCALAR"},{"bufferView":17,"componentType":5126,"count":7,"max":[0.5780164003372192,0.6046347618103027,0.8639872670173645,1],"min":[-0.596372663974762,-0.8244134783744812,-0.5896012783050537,-0.36902135610580444],"type":"VEC4"},{"bufferView":18,"componentType":5126,"count":8,"max":[1.2000000476837158],"min":[0],"type":"SCALAR"},{"bufferView":19,"componentType":5126,"count":8,"max":[3.125,0.4156250059604645,0.125],"min":[0,-1.618749976158142,0.0625],"type":"VEC3"},{"bufferView":20,"componentType":5126,"count":4,"max":[1.2999999523162842],"min":[0.6000000238418579],"type":"SCALAR"},{"bufferView":21,"componentType":5126,"count":4,"max":[0,0,0.591309666633606,1],"min":[0,0,0,0.8064445853233337],"type":"VEC4"},{"bufferView":22,"componentType":5126,"count":4,"max":[1.100000023841858],"min":[0.75],"type":"SCALAR"},{"bufferView":23,"componentType":5126,"count":4,"max":[0,0.0007812500116415322,0.765625],"min":[0,0.0007812500116415322,0.328125],"type":"VEC3"}]}