{"asset":{"version":"2.0","generator":"Blockbench 4.7.4 glTF exporter"},"scenes":[{"nodes":[11],"name":"blockbench_export"}],"scene":0,"nodes":[{"translation":[0.375,-0.6875,0],"name":"RightHand"},{"translation":[-0.375,0.75,-0.5],"name":"R2","children":[0]},{"translation":[0,0.043749999999999956,0.125],"name":"86x2"},{"translation":[0,0.0625,-0.5],"name":"mb","children":[2]},{"translation":[0,0.0007812499999999556,0.328125],"name":"bolt"},{"translation":[0,0.20625000000000004,-0.5],"name":"boltgroup","children":[4]},{"name":"MRAD","children":[3,5]},{"name":"bone2","children":[1,6]},{"translation":[-0.375,-0.6875,0],"name":"LeftHand"},{"translation":[0.375,0.75,-0.5],"name":"l2","children":[8]},{"translation":[0.5,0.4375,1],"name":"bone3","children":[7,9]},{"children":[10]}],"animations":[{"name":"reload_empty","samplers":[{"input":0,"output":1,"interpolation":"LINEAR"},{"input":2,"output":3,"interpolation":"LINEAR"},{"input":4,"output":5,"interpolation":"LINEAR"},{"input":6,"output":7,"interpolation":"LINEAR"},{"input":8,"output":9,"interpolation":"LINEAR"},{"input":10,"output":11,"interpolation":"LINEAR"},{"input":12,"output":13,"interpolation":"LINEAR"},{"input":14,"output":15,"interpolation":"LINEAR"},{"input":16,"output":17,"interpolation":"LINEAR"},{"input":18,"output":19,"interpolation":"LINEAR"},{"input":20,"output":21,"interpolation":"STEP"},{"input":22,"output":23,"interpolation":"LINEAR"},{"input":24,"output":25,"interpolation":"LINEAR"},{"input":26,"output":27,"interpolation":"LINEAR"},{"input":28,"output":29,"interpolation":"LINEAR"}],"channels":[{"sampler":0,"target":{"node":9,"path":"rotation"}},{"sampler":1,"target":{"node":9,"path":"translation"}},{"sampler":2,"target":{"node":9,"path":"scale"}},{"sampler":3,"target":{"node":1,"path":"rotation"}},{"sampler":4,"target":{"node":1,"path":"translation"}},{"sampler":5,"target":{"node":1,"path":"scale"}},{"sampler":6,"target":{"node":10,"path":"rotation"}},{"sampler":7,"target":{"node":10,"path":"translation"}},{"sampler":8,"target":{"node":3,"path":"rotation"}},{"sampler":9,"target":{"node":3,"path":"translation"}},{"sampler":10,"target":{"node":3,"path":"scale"}},{"sampler":11,"target":{"node":2,"path":"translation"}},{"sampler":12,"target":{"node":5,"path":"rotation"}},{"sampler":13,"target":{"node":4,"path":"rotation"}},{"sampler":14,"target":{"node":4,"path":"translation"}}]}],"bufferViews":[{"buffer":0,"byteOffset":0,"byteLength":72},{"buffer":0,"byteOffset":72,"byteLength":288},{"buffer":0,"byteOffset":360,"byteLength":108},{"buffer":0,"byteOffset":468,"byteLength":324},{"buffer":0,"byteOffset":792,"byteLength":4},{"buffer":0,"byteOffset":796,"byteLength":12},{"buffer":0,"byteOffset":808,"byteLength":64},{"buffer":0,"byteOffset":872,"byteLength":256},{"buffer":0,"byteOffset":1128,"byteLength":80},{"buffer":0,"byteOffset":1208,"byteLength":240},{"buffer":0,"byteOffset":1448,"byteLength":4},{"buffer":0,"byteOffset":1452,"byteLength":12},{"buffer":0,"byteOffset":1464,"byteLength":296},{"buffer":0,"byteOffset":1760,"byteLength":1184},{"buffer":0,"byteOffset":2944,"byteLength":304},{"buffer":0,"byteOffset":3248,"byteLength":912},{"buffer":0,"byteOffset":4160,"byteLength":56},{"buffer":0,"byteOffset":4216,"byteLength":224},{"buffer":0,"byteOffset":4440,"byteLength":80},{"buffer":0,"byteOffset":4520,"byteLength":240},{"buffer":0,"byteOffset":4760,"byteLength":16},{"buffer":0,"byteOffset":4776,"byteLength":48},{"buffer":0,"byteOffset":4824,"byteLength":8},{"buffer":0,"byteOffset":4832,"byteLength":24},{"buffer":0,"byteOffset":4856,"byteLength":16},{"buffer":0,"byteOffset":4872,"byteLength":64},{"buffer":0,"byteOffset":4936,"byteLength":312},{"buffer":0,"byteOffset":5248,"byteLength":1248},{"buffer":0,"byteOffset":6496,"byteLength":16},{"buffer":0,"byteOffset":6512,"byteLength":48}],"buffers":[{"byteLength":6560,"uri":"data:application/octet-stream;base64,"}],"accessors":[{"bufferView":0,"componentType":5126,"count":18,"max":[3.5999999046325684],"min":[0],"type":"SCALAR"},{"bufferView":1,"componentType":5126,"count":18,"max":[-0.03623943775892258,0.7606648206710815,-0.33638641238212585,0.6037195920944214],"min":[-0.3262290954589844,0.5026596784591675,-0.7573954463005066,0.09242166578769684],"type":"VEC4"},{"bufferView":2,"componentType":5126,"count":27,"max":[3.6500000953674316],"min":[0],"type":"SCALAR"},{"bufferView":3,"componentType":5126,"count":27,"max":[-0.013737499713897705,0.08749999850988388,0.5768406391143799],"min":[-0.4281412363052368,-1.474613070487976,-0.90625],"type":"VEC3"},{"bufferView":4,"componentType":5126,"count":1,"max":[0],"min":[0],"type":"SCALAR"},{"bufferView":5,"componentType":5126,"count":1,"max":[1,1.5,1],"min":[1,1.5,1],"type":"VEC3"},{"bufferView":6,"componentType":5126,"count":16,"max":[4.550000190734863],"min":[0],"type":"SCALAR"},{"bufferView":7,"componentType":5126,"count":16,"max":[0.07739678025245667,0.9308841824531555,-0.16675592958927155,0.6818671226501465],"min":[-0.3110608756542206,0.6406955718994141,-0.6755902171134949,-0.15761615335941315],"type":"VEC4"},{"bufferView":8,"componentType":5126,"count":20,"max":[4.550000190734863],"min":[0],"type":"SCALAR"},{"bufferView":9,"componentType":5126,"count":20,"max":[0.2862499952316284,0.30217498540878296,0.22316500544548035],"min":[0.012500000186264515,-0.1743749976158142,-0.22206999361515045],"type":"VEC3"},{"bufferView":10,"componentType":5126,"count":1,"max":[0],"min":[0],"type":"SCALAR"},{"bufferView":11,"componentType":5126,"count":1,"max":[1,1.5,1],"min":[1,1.5,1],"type":"VEC3"},{"bufferView":12,"componentType":5126,"count":74,"max":[5.050000190734863],"min":[0],"type":"SCALAR"},{"bufferView":13,"componentType":5126,"count":74,"max":[0.1116485670208931,0.008074737153947353,0.09187018871307373,1],"min":[-0.02476409263908863,-0.03522663563489914,-0.26682454347610474,0.9591631889343262],"type":"VEC4"},{"bufferView":14,"componentType":5126,"count":76,"max":[5.050000190734863],"min":[0],"type":"SCALAR"},{"bufferView":15,"componentType":5126,"count":76,"max":[0.52145916223526,0.44843751192092896,1.0265624523162842],"min":[0.4765625,0.36125001311302185,0.9586642384529114],"type":"VEC3"},{"bufferView":16,"componentType":5126,"count":14,"max":[3.299999952316284],"min":[1.5499999523162842],"type":"SCALAR"},{"bufferView":17,"componentType":5126,"count":14,"max":[0.3499843180179596,0.012496909126639366,0.005245129112154245,1],"min":[-0.07677581906318665,-0.13877028226852417,-0.7556648254394531,0.635467529296875],"type":"VEC4"},{"bufferView":18,"componentType":5126,"count":20,"max":[3.299999952316284],"min":[1.5499999523162842],"type":"SCALAR"},{"bufferView":19,"componentType":5126,"count":20,"max":[0.030012499541044235,0.0625,0.5768406391143799],"min":[-0.38439124822616577,-2.0410749912261963,-0.5860700011253357],"type":"VEC3"},{"bufferView":20,"componentType":5126,"count":4,"max":[2.6500000953674316],"min":[2.3499999046325684],"type":"SCALAR"},{"bufferView":21,"componentType":5126,"count":4,"max":[1,1,1],"min":[0,0,0],"type":"VEC3"},{"bufferView":22,"componentType":5126,"count":2,"max":[2.5999999046325684],"min":[2.549999952316284],"type":"SCALAR"},{"bufferView":23,"componentType":5126,"count":2,"max":[0,0.10625000298023224,0.125],"min":[0,0.04374999925494194,0.125],"type":"VEC3"},{"bufferView":24,"componentType":5126,"count":4,"max":[4.25],"min":[0.3499999940395355],"type":"SCALAR"},{"bufferView":25,"componentType":5126,"count":4,"max":[0,0,0.591309666633606,1],"min":[0,0,0,0.8064445853233337],"type":"VEC4"},{"bufferView":26,"componentType":5126,"count":78,"max":[5.050000190734863],"min":[0],"type":"SCALAR"},{"bufferView":27,"componentType":5126,"count":78,"max":[0.004897299222648144,0.0038172928616404533,0.02068288065493107,1],"min":[-0.007126596290618181,-0.005130288656800985,-0.015653643757104874,0.9997600317001343],"type":"VEC4"},{"bufferView":28,"componentType":5126,"count":4,"max":[4.099999904632568],"min":[0.5],"type":"SCALAR"},{"bufferView":29,"componentType":5126,"count":4,"max":[0,0.0007812500116415322,0.765625],"min":[0,0.0007812500116415322,0.328125],"type":"VEC3"}]}