{"asset":{"version":"2.0","generator":"Blockbench 4.7.4 glTF exporter"},"scenes":[{"nodes":[11],"name":"blockbench_export"}],"scene":0,"nodes":[{"translation":[0.375,-0.6875,0],"name":"RightHand"},{"translation":[-0.375,0.75,-0.5],"name":"R2","children":[0]},{"translation":[0,0.043749999999999956,0.125],"name":"86x2"},{"translation":[0,0.0625,-0.5],"name":"mb","children":[2]},{"translation":[0,0.0007812499999999556,0.328125],"name":"bolt"},{"translation":[0,0.20625000000000004,-0.5],"name":"boltgroup","children":[4]},{"name":"MRAD","children":[3,5]},{"name":"bone2","children":[1,6]},{"translation":[-0.375,-0.6875,0],"name":"LeftHand"},{"translation":[0.375,0.75,-0.5],"name":"l2","children":[8]},{"translation":[0.5,0.4375,1],"name":"bone3","children":[7,9]},{"children":[10]}],"animations":[{"name":"reload_norm","samplers":[{"input":0,"output":1,"interpolation":"LINEAR"},{"input":2,"output":3,"interpolation":"LINEAR"},{"input":4,"output":5,"interpolation":"LINEAR"},{"input":6,"output":7,"interpolation":"LINEAR"},{"input":8,"output":9,"interpolation":"LINEAR"},{"input":10,"output":11,"interpolation":"LINEAR"},{"input":12,"output":13,"interpolation":"LINEAR"},{"input":14,"output":15,"interpolation":"LINEAR"},{"input":16,"output":17,"interpolation":"LINEAR"},{"input":18,"output":19,"interpolation":"LINEAR"},{"input":20,"output":21,"interpolation":"LINEAR"},{"input":22,"output":23,"interpolation":"LINEAR"}],"channels":[{"sampler":0,"target":{"node":9,"path":"rotation"}},{"sampler":1,"target":{"node":9,"path":"translation"}},{"sampler":2,"target":{"node":9,"path":"scale"}},{"sampler":3,"target":{"node":1,"path":"rotation"}},{"sampler":4,"target":{"node":1,"path":"translation"}},{"sampler":5,"target":{"node":1,"path":"scale"}},{"sampler":6,"target":{"node":10,"path":"rotation"}},{"sampler":7,"target":{"node":10,"path":"translation"}},{"sampler":8,"target":{"node":3,"path":"rotation"}},{"sampler":9,"target":{"node":3,"path":"translation"}},{"sampler":10,"target":{"node":2,"path":"rotation"}},{"sampler":11,"target":{"node":2,"path":"translation"}}]}],"bufferViews":[{"buffer":0,"byteOffset":0,"byteLength":236},{"buffer":0,"byteOffset":236,"byteLength":944},{"buffer":0,"byteOffset":1180,"byteLength":184},{"buffer":0,"byteOffset":1364,"byteLength":552},{"buffer":0,"byteOffset":1916,"byteLength":4},{"buffer":0,"byteOffset":1920,"byteLength":12},{"buffer":0,"byteOffset":1932,"byteLength":4},{"buffer":0,"byteOffset":1936,"byteLength":16},{"buffer":0,"byteOffset":1952,"byteLength":4},{"buffer":0,"byteOffset":1956,"byteLength":12},{"buffer":0,"byteOffset":1968,"byteLength":4},{"buffer":0,"byteOffset":1972,"byteLength":12},{"buffer":0,"byteOffset":1984,"byteLength":260},{"buffer":0,"byteOffset":2244,"byteLength":1040},{"buffer":0,"byteOffset":3284,"byteLength":264},{"buffer":0,"byteOffset":3548,"byteLength":792},{"buffer":0,"byteOffset":4340,"byteLength":112},{"buffer":0,"byteOffset":4452,"byteLength":448},{"buffer":0,"byteOffset":4900,"byteLength":124},{"buffer":0,"byteOffset":5024,"byteLength":372},{"buffer":0,"byteOffset":5396,"byteLength":244},{"buffer":0,"byteOffset":5640,"byteLength":976},{"buffer":0,"byteOffset":6616,"byteLength":16},{"buffer":0,"byteOffset":6632,"byteLength":48}],"buffers":[{"byteLength":6680,"uri":"data:application/octet-stream;base64,"}],"accessors":[{"bufferView":0,"componentType":5126,"count":59,"max":[3.950000047683716],"min":[0],"type":"SCALAR"},{"bufferView":1,"componentType":5126,"count":59,"max":[0.21581396460533142,0.8129802942276001,-0.3796904981136322,0.5909416079521179],"min":[-0.3122251331806183,0.5489364862442017,-0.7819289565086365,-0.08640453219413757],"type":"VEC4"},{"bufferView":2,"componentType":5126,"count":46,"max":[3.6500000953674316],"min":[0],"type":"SCALAR"},{"bufferView":3,"componentType":5126,"count":46,"max":[0.19285514950752258,0.08749999850988388,0.4535618722438812],"min":[-0.2717362642288208,-1.2739887237548828,-0.90625],"type":"VEC3"},{"bufferView":4,"componentType":5126,"count":1,"max":[0],"min":[0],"type":"SCALAR"},{"bufferView":5,"componentType":5126,"count":1,"max":[1,1.5,1],"min":[1,1.5,1],"type":"VEC3"},{"bufferView":6,"componentType":5126,"count":1,"max":[0],"min":[0],"type":"SCALAR"},{"bufferView":7,"componentType":5126,"count":1,"max":[-4.51452149623189e-17,0.7372773289680481,-0.6755902171134949,4.1367970795711857e-17],"min":[-4.51452149623189e-17,0.7372773289680481,-0.6755902171134949,4.1367970795711857e-17],"type":"VEC4"},{"bufferView":8,"componentType":5126,"count":1,"max":[0],"min":[0],"type":"SCALAR"},{"bufferView":9,"componentType":5126,"count":1,"max":[0.012500000186264515,-0.09375,0.012500000186264515],"min":[0.012500000186264515,-0.09375,0.012500000186264515],"type":"VEC3"},{"bufferView":10,"componentType":5126,"count":1,"max":[0],"min":[0],"type":"SCALAR"},{"bufferView":11,"componentType":5126,"count":1,"max":[1,1.5,1],"min":[1,1.5,1],"type":"VEC3"},{"bufferView":12,"componentType":5126,"count":65,"max":[4.300000190734863],"min":[0],"type":"SCALAR"},{"bufferView":13,"componentType":5126,"count":65,"max":[0.207051619887352,0.02692636288702488,0.008976049721240997,1],"min":[-0.015241509303450584,-0.012536119669675827,-0.39739668369293213,0.8983590602874756],"type":"VEC4"},{"bufferView":14,"componentType":5126,"count":66,"max":[4.300000190734863],"min":[0],"type":"SCALAR"},{"bufferView":15,"componentType":5126,"count":66,"max":[0.510937511920929,0.43845781683921814,1.0022692680358887],"min":[0.4268749952316284,0.3687500059604645,0.9581249952316284],"type":"VEC3"},{"bufferView":16,"componentType":5126,"count":28,"max":[3.25],"min":[0],"type":"SCALAR"},{"bufferView":17,"componentType":5126,"count":28,"max":[0.21570457518100739,0.1556621491909027,0,1],"min":[0,-0.12978865206241608,-0.6377431154251099,0.7336218357086182],"type":"VEC4"},{"bufferView":18,"componentType":5126,"count":31,"max":[3.25],"min":[0],"type":"SCALAR"},{"bufferView":19,"componentType":5126,"count":31,"max":[0.365561842918396,0.0625,0.4807862639427185],"min":[-0.0823768749833107,-1.1712650060653687,-0.550000011920929],"type":"VEC3"},{"bufferView":20,"componentType":5126,"count":61,"max":[4.300000190734863],"min":[0],"type":"SCALAR"},{"bufferView":21,"componentType":5126,"count":61,"max":[0.002796503249555826,0.005799494683742523,0.0019199809757992625,1],"min":[-0.016127610579133034,-0.0033635441213846207,-0.017262965440750122,0.9997203350067139],"type":"VEC4"},{"bufferView":22,"componentType":5126,"count":4,"max":[3.5999999046325684],"min":[0.4000000059604645],"type":"SCALAR"},{"bufferView":23,"componentType":5126,"count":4,"max":[0,0.10625000298023224,0.125],"min":[0,0.04374999925494194,0.125],"type":"VEC3"}]}