{"asset":{"version":"2.0","generator":"Blockbench 4.7.4 glTF exporter"},"scenes":[{"nodes":[11],"name":"blockbench_export"}],"scene":0,"nodes":[{"translation":[0.375,-0.6875,0],"name":"RightHand"},{"translation":[-0.375,0.75,-0.5],"name":"R2","children":[0]},{"translation":[0,0.043749999999999956,0.125],"name":"86x2"},{"translation":[0,0.0625,-0.5],"name":"mb","children":[2]},{"translation":[0,0.0007812499999999556,0.328125],"name":"bolt"},{"translation":[0,0.20625000000000004,-0.5],"name":"boltgroup","children":[4]},{"name":"MRAD","children":[3,5]},{"name":"bone2","children":[1,6]},{"translation":[-0.375,-0.6875,0],"name":"LeftHand"},{"translation":[0.375,0.75,-0.5],"name":"l2","children":[8]},{"translation":[0.5,0.4375,1],"name":"bone3","children":[7,9]},{"children":[10]}],"animations":[{"name":"draw","samplers":[{"input":0,"output":1,"interpolation":"LINEAR"},{"input":2,"output":3,"interpolation":"LINEAR"},{"input":4,"output":5,"interpolation":"LINEAR"},{"input":6,"output":7,"interpolation":"LINEAR"},{"input":8,"output":9,"interpolation":"LINEAR"},{"input":10,"output":11,"interpolation":"LINEAR"},{"input":12,"output":13,"interpolation":"LINEAR"},{"input":14,"output":15,"interpolation":"LINEAR"}],"channels":[{"sampler":0,"target":{"node":9,"path":"rotation"}},{"sampler":1,"target":{"node":9,"path":"translation"}},{"sampler":2,"target":{"node":9,"path":"scale"}},{"sampler":3,"target":{"node":1,"path":"rotation"}},{"sampler":4,"target":{"node":1,"path":"translation"}},{"sampler":5,"target":{"node":1,"path":"scale"}},{"sampler":6,"target":{"node":10,"path":"rotation"}},{"sampler":7,"target":{"node":10,"path":"translation"}}]}],"bufferViews":[{"buffer":0,"byteOffset":0,"byteLength":16},{"buffer":0,"byteOffset":16,"byteLength":64},{"buffer":0,"byteOffset":80,"byteLength":16},{"buffer":0,"byteOffset":96,"byteLength":48},{"buffer":0,"byteOffset":144,"byteLength":4},{"buffer":0,"byteOffset":148,"byteLength":12},{"buffer":0,"byteOffset":160,"byteLength":4},{"buffer":0,"byteOffset":164,"byteLength":16},{"buffer":0,"byteOffset":180,"byteLength":4},{"buffer":0,"byteOffset":184,"byteLength":12},{"buffer":0,"byteOffset":196,"byteLength":4},{"buffer":0,"byteOffset":200,"byteLength":12},{"buffer":0,"byteOffset":212,"byteLength":76},{"buffer":0,"byteOffset":288,"byteLength":304},{"buffer":0,"byteOffset":592,"byteLength":80},{"buffer":0,"byteOffset":672,"byteLength":240}],"buffers":[{"byteLength":912,"uri":"data:application/octet-stream;base64,"}],"accessors":[{"bufferView":0,"componentType":5126,"count":4,"max":[0.8500000238418579],"min":[0],"type":"SCALAR"},{"bufferView":1,"componentType":5126,"count":4,"max":[-0.13433288037776947,0.6723331809043884,-0.47967976331710815,0.5475674271583557],"min":[-0.14862050116062164,0.6595462560653687,-0.49711504578590393,0.5438633561134338],"type":"VEC4"},{"bufferView":2,"componentType":5126,"count":4,"max":[0.8500000238418579],"min":[0],"type":"SCALAR"},{"bufferView":3,"componentType":5126,"count":4,"max":[-0.07500000298023224,0.08749999850988388,-0.8187500238418579],"min":[-0.07500000298023224,0.08749999850988388,-0.90625],"type":"VEC3"},{"bufferView":4,"componentType":5126,"count":1,"max":[0],"min":[0],"type":"SCALAR"},{"bufferView":5,"componentType":5126,"count":1,"max":[1,1.5,1],"min":[1,1.5,1],"type":"VEC3"},{"bufferView":6,"componentType":5126,"count":1,"max":[0],"min":[0],"type":"SCALAR"},{"bufferView":7,"componentType":5126,"count":1,"max":[-4.51452149623189e-17,0.7372773289680481,-0.6755902171134949,4.1367970795711857e-17],"min":[-4.51452149623189e-17,0.7372773289680481,-0.6755902171134949,4.1367970795711857e-17],"type":"VEC4"},{"bufferView":8,"componentType":5126,"count":1,"max":[0],"min":[0],"type":"SCALAR"},{"bufferView":9,"componentType":5126,"count":1,"max":[0.012500000186264515,-0.09375,0.012500000186264515],"min":[0.012500000186264515,-0.09375,0.012500000186264515],"type":"VEC3"},{"bufferView":10,"componentType":5126,"count":1,"max":[0],"min":[0],"type":"SCALAR"},{"bufferView":11,"componentType":5126,"count":1,"max":[1,1.5,1],"min":[1,1.5,1],"type":"VEC3"},{"bufferView":12,"componentType":5126,"count":19,"max":[1.2000000476837158],"min":[0],"type":"SCALAR"},{"bufferView":13,"componentType":5126,"count":19,"max":[0.7024145722389221,0.0473773255944252,0.00794233474880457,1],"min":[-0.0011346900137141347,0,-0.16733264923095703,0.6902608871459961],"type":"VEC4"},{"bufferView":14,"componentType":5126,"count":20,"max":[1.149999976158142],"min":[0],"type":"SCALAR"},{"bufferView":15,"componentType":5126,"count":20,"max":[0.737500011920929,0.4375,1.8650000095367432],"min":[0.44062501192092896,-0.5768749713897705,0.8716949820518494],"type":"VEC3"}]}