{"asset":{"version":"2.0","generator":"Blockbench 4.8.3 glTF exporter"},"scenes":[{"nodes":[11],"name":"blockbench_export"}],"scene":0,"nodes":[{"translation":[0,0.20625000000000004,0.2375],"name":"p90_mag_standard"},{"translation":[0,0.13349,0.09277374999999999],"name":"pull"},{"name":"fn_p90","children":[0,1]},{"translation":[0.375,-0.6875,0],"name":"RightHand"},{"translation":[-0.375,0.8125,0.25],"name":"R","children":[3]},{"name":"bone","children":[2,4]},{"translation":[-0.375,-0.6875,0],"name":"LeftHand"},{"translation":[0.375,0.8125,0.25],"name":"l","children":[6]},{"translation":[0.5,0.375,0.25],"name":"bone2","children":[5,7]},{"translation":[0.359375,0.828125,0.9375],"name":"camera","mesh":0},{"name":"bone3","children":[9]},{"children":[8,10]}],"bufferViews":[{"buffer":0,"byteOffset":0,"byteLength":288,"target":34962,"byteStride":12},{"buffer":0,"byteOffset":288,"byteLength":288,"target":34962,"byteStride":12},{"buffer":0,"byteOffset":576,"byteLength":192,"target":34962,"byteStride":8},{"buffer":0,"byteOffset":768,"byteLength":72,"target":34963},{"buffer":0,"byteOffset":840,"byteLength":528},{"buffer":0,"byteOffset":1368,"byteLength":2112},{"buffer":0,"byteOffset":3480,"byteLength":508},{"buffer":0,"byteOffset":3988,"byteLength":1524},{"buffer":0,"byteOffset":5512,"byteLength":60},{"buffer":0,"byteOffset":5572,"byteLength":240},{"buffer":0,"byteOffset":5812,"byteLength":56},{"buffer":0,"byteOffset":5868,"byteLength":168},{"buffer":0,"byteOffset":6036,"byteLength":4},{"buffer":0,"byteOffset":6040,"byteLength":12},{"buffer":0,"byteOffset":6052,"byteLength":252},{"buffer":0,"byteOffset":6304,"byteLength":1008},{"buffer":0,"byteOffset":7312,"byteLength":212},{"buffer":0,"byteOffset":7524,"byteLength":636},{"buffer":0,"byteOffset":8160,"byteLength":4},{"buffer":0,"byteOffset":8164,"byteLength":12}],"buffers":[{"byteLength":8176,"uri":"data:application/octet-stream;base64,"}],"accessors":[{"bufferView":0,"componentType":5126,"count":24,"max":[0.07500000298023224,0.04062499850988388,0],"min":[-0.07500000298023224,-0.04062499850988388,-0.0625],"type":"VEC3"},{"bufferView":1,"componentType":5126,"count":24,"max":[1,1,1],"min":[-1,-1,-1],"type":"VEC3"},{"bufferView":2,"componentType":5126,"count":24,"max":[1,1],"min":[0,0],"type":"VEC2"},{"bufferView":3,"componentType":5123,"count":36,"max":[23],"min":[0],"type":"SCALAR"},{"bufferView":4,"componentType":5126,"count":132,"max":[7.708330154418945],"min":[0],"type":"SCALAR"},{"bufferView":5,"componentType":5126,"count":132,"max":[0.19607724249362946,0.6801241040229797,0.05775466933846474,1],"min":[-0.04401228576898575,-0.0031647710129618645,-0.4233323037624359,0.7316188216209412],"type":"VEC4"},{"bufferView":6,"componentType":5126,"count":127,"max":[7.708330154418945],"min":[0],"type":"SCALAR"},{"bufferView":7,"componentType":5126,"count":127,"max":[0.5062500238418579,0.6103125214576721,0.3679976761341095],"min":[0.024937409907579422,0.2640624940395355,0.11562500149011612],"type":"VEC3"},{"bufferView":8,"componentType":5126,"count":15,"max":[5.75],"min":[0],"type":"SCALAR"},{"bufferView":9,"componentType":5126,"count":15,"max":[0.14456643164157867,-0.5175778269767761,0.6754100322723389,0.06651994585990906],"min":[-0.4565527141094208,-0.7497758865356445,0.30122026801109314,-0.664784848690033],"type":"VEC4"},{"bufferView":10,"componentType":5126,"count":14,"max":[5.75],"min":[0],"type":"SCALAR"},{"bufferView":11,"componentType":5126,"count":14,"max":[0.3231250047683716,0.01875000074505806,0.8999999761581421],"min":[-0.012500000186264515,-0.24937500059604645,0.05000000074505806],"type":"VEC3"},{"bufferView":12,"componentType":5126,"count":1,"max":[0],"min":[0],"type":"SCALAR"},{"bufferView":13,"componentType":5126,"count":1,"max":[1,1.5,1],"min":[1,1.5,1],"type":"VEC3"},{"bufferView":14,"componentType":5126,"count":63,"max":[5.541669845581055],"min":[0],"type":"SCALAR"},{"bufferView":15,"componentType":5126,"count":63,"max":[0.34023070335388184,0.8701596260070801,-0.3386169373989105,0.32353711128234863],"min":[0.07568757236003876,0.7197625637054443,-0.6852136254310608,0.044865287840366364],"type":"VEC4"},{"bufferView":16,"componentType":5126,"count":53,"max":[5.541669845581055],"min":[0],"type":"SCALAR"},{"bufferView":17,"componentType":5126,"count":53,"max":[-0.04374999925494194,-0.08749999850988388,-0.24583333730697632],"min":[-0.04374999925494194,-0.10625000298023224,-0.3062500059604645],"type":"VEC3"},{"bufferView":18,"componentType":5126,"count":1,"max":[0],"min":[0],"type":"SCALAR"},{"bufferView":19,"componentType":5126,"count":1,"max":[1,1.5,1],"min":[1,1.5,1],"type":"VEC3"}],"materials":[{"pbrMetallicRoughness":{"baseColorFactor":[0.28627450980392155,0.3137254901960784,0.3803921568627451,1],"metallicFactor":0,"roughnessFactor":0.9},"extensions":{"KHR_materials_unlit":{}}}],"meshes":[{"primitives":[{"mode":4,"attributes":{"POSITION":0,"NORMAL":1,"TEXCOORD_0":2},"indices":3,"material":0}]}],"animations":[{"name":"inspect","samplers":[{"input":4,"output":5,"interpolation":"LINEAR"},{"input":6,"output":7,"interpolation":"LINEAR"},{"input":8,"output":9,"interpolation":"LINEAR"},{"input":10,"output":11,"interpolation":"LINEAR"},{"input":12,"output":13,"interpolation":"LINEAR"},{"input":14,"output":15,"interpolation":"LINEAR"},{"input":16,"output":17,"interpolation":"LINEAR"},{"input":18,"output":19,"interpolation":"LINEAR"}],"channels":[{"sampler":0,"target":{"node":8,"path":"rotation"}},{"sampler":1,"target":{"node":8,"path":"translation"}},{"sampler":2,"target":{"node":4,"path":"rotation"}},{"sampler":3,"target":{"node":4,"path":"translation"}},{"sampler":4,"target":{"node":4,"path":"scale"}},{"sampler":5,"target":{"node":7,"path":"rotation"}},{"sampler":6,"target":{"node":7,"path":"translation"}},{"sampler":7,"target":{"node":7,"path":"scale"}}]}],"extensionsUsed":["KHR_materials_unlit"]}