{"asset":{"version":"2.0","generator":"Blockbench 4.8.3 glTF exporter"},"scenes":[{"nodes":[11],"name":"blockbench_export"}],"scene":0,"nodes":[{"translation":[0,0.20625000000000004,0.2375],"name":"p90_mag_standard"},{"translation":[0,0.13349,0.09277374999999999],"name":"pull"},{"name":"fn_p90","children":[0,1]},{"translation":[0.375,-0.6875,0],"name":"RightHand"},{"translation":[-0.375,0.8125,0.25],"name":"R","children":[3]},{"name":"bone","children":[2,4]},{"translation":[-0.375,-0.6875,0],"name":"LeftHand"},{"translation":[0.375,0.8125,0.25],"name":"l","children":[6]},{"translation":[0.5,0.375,0.25],"name":"bone2","children":[5,7]},{"translation":[0.359375,0.828125,0.9375],"name":"camera","mesh":0},{"name":"bone3","children":[9]},{"children":[8,10]}],"bufferViews":[{"buffer":0,"byteOffset":0,"byteLength":288,"target":34962,"byteStride":12},{"buffer":0,"byteOffset":288,"byteLength":288,"target":34962,"byteStride":12},{"buffer":0,"byteOffset":576,"byteLength":192,"target":34962,"byteStride":8},{"buffer":0,"byteOffset":768,"byteLength":72,"target":34963},{"buffer":0,"byteOffset":840,"byteLength":252},{"buffer":0,"byteOffset":1092,"byteLength":1008},{"buffer":0,"byteOffset":2100,"byteLength":240},{"buffer":0,"byteOffset":2340,"byteLength":720},{"buffer":0,"byteOffset":3060,"byteLength":228},{"buffer":0,"byteOffset":3288,"byteLength":912},{"buffer":0,"byteOffset":4200,"byteLength":228},{"buffer":0,"byteOffset":4428,"byteLength":684},{"buffer":0,"byteOffset":5112,"byteLength":4},{"buffer":0,"byteOffset":5116,"byteLength":12},{"buffer":0,"byteOffset":5128,"byteLength":4},{"buffer":0,"byteOffset":5132,"byteLength":16},{"buffer":0,"byteOffset":5148,"byteLength":4},{"buffer":0,"byteOffset":5152,"byteLength":12},{"buffer":0,"byteOffset":5164,"byteLength":4},{"buffer":0,"byteOffset":5168,"byteLength":12},{"buffer":0,"byteOffset":5180,"byteLength":96},{"buffer":0,"byteOffset":5276,"byteLength":384},{"buffer":0,"byteOffset":5660,"byteLength":84},{"buffer":0,"byteOffset":5744,"byteLength":252},{"buffer":0,"byteOffset":5996,"byteLength":16},{"buffer":0,"byteOffset":6012,"byteLength":48},{"buffer":0,"byteOffset":6060,"byteLength":28},{"buffer":0,"byteOffset":6088,"byteLength":84}],"buffers":[{"byteLength":6172,"uri":"data:application/octet-stream;base64,"}],"accessors":[{"bufferView":0,"componentType":5126,"count":24,"max":[0.07500000298023224,0.04062499850988388,0],"min":[-0.07500000298023224,-0.04062499850988388,-0.0625],"type":"VEC3"},{"bufferView":1,"componentType":5126,"count":24,"max":[1,1,1],"min":[-1,-1,-1],"type":"VEC3"},{"bufferView":2,"componentType":5126,"count":24,"max":[1,1],"min":[0,0],"type":"VEC2"},{"bufferView":3,"componentType":5123,"count":36,"max":[23],"min":[0],"type":"SCALAR"},{"bufferView":4,"componentType":5126,"count":63,"max":[3.458329916000366],"min":[0],"type":"SCALAR"},{"bufferView":5,"componentType":5126,"count":63,"max":[0.02603326551616192,0.2890576124191284,0.0739152804017067,1],"min":[-0.0701778307557106,-0.0001808313827496022,-0.07964247465133667,0.9555336236953735],"type":"VEC4"},{"bufferView":6,"componentType":5126,"count":60,"max":[3.458329916000366],"min":[0],"type":"SCALAR"},{"bufferView":7,"componentType":5126,"count":60,"max":[0.5062500238418579,0.375,0.2706249952316284],"min":[0.3890624940395355,0.14416015148162842,0.12093749642372131],"type":"VEC3"},{"bufferView":8,"componentType":5126,"count":57,"max":[3.458329916000366],"min":[0],"type":"SCALAR"},{"bufferView":9,"componentType":5126,"count":57,"max":[0.6961328983306885,0.9279977083206177,0.2145058959722519,0.26488783955574036],"min":[0.06287932395935059,0.20015062391757965,-0.8009027242660522,-0.6091644167900085],"type":"VEC4"},{"bufferView":10,"componentType":5126,"count":57,"max":[3.458329916000366],"min":[0],"type":"SCALAR"},{"bufferView":11,"componentType":5126,"count":57,"max":[0.2210373431444168,0.5062500238418579,0.800000011920929],"min":[-0.984375,-0.49123236536979675,-0.35624998807907104],"type":"VEC3"},{"bufferView":12,"componentType":5126,"count":1,"max":[0],"min":[0],"type":"SCALAR"},{"bufferView":13,"componentType":5126,"count":1,"max":[1,1.5,1],"min":[1,1.5,1],"type":"VEC3"},{"bufferView":14,"componentType":5126,"count":1,"max":[0],"min":[0],"type":"SCALAR"},{"bufferView":15,"componentType":5126,"count":1,"max":[0.11521314829587936,-0.7474051117897034,0.6509121656417847,0.06651994585990906],"min":[0.11521314829587936,-0.7474051117897034,0.6509121656417847,0.06651994585990906],"type":"VEC4"},{"bufferView":16,"componentType":5126,"count":1,"max":[0],"min":[0],"type":"SCALAR"},{"bufferView":17,"componentType":5126,"count":1,"max":[0.09375,-0.02500000037252903,0.05000000074505806],"min":[0.09375,-0.02500000037252903,0.05000000074505806],"type":"VEC3"},{"bufferView":18,"componentType":5126,"count":1,"max":[0],"min":[0],"type":"SCALAR"},{"bufferView":19,"componentType":5126,"count":1,"max":[1,1.5,1],"min":[1,1.5,1],"type":"VEC3"},{"bufferView":20,"componentType":5126,"count":24,"max":[2.25],"min":[0.25],"type":"SCALAR"},{"bufferView":21,"componentType":5126,"count":24,"max":[0.09686513990163803,0.12479246407747269,0.9659340977668762,1],"min":[-0.5287601947784424,-0.2720075249671936,-0.1570415049791336,-0.5445978045463562],"type":"VEC4"},{"bufferView":22,"componentType":5126,"count":21,"max":[2.25],"min":[0.25],"type":"SCALAR"},{"bufferView":23,"componentType":5126,"count":21,"max":[0.5029412508010864,0.36250001192092896,1.8295419216156006],"min":[-0.9437500238418579,-0.6059231162071228,0.23749999701976776],"type":"VEC3"},{"bufferView":24,"componentType":5126,"count":4,"max":[1.2083300352096558],"min":[0.875],"type":"SCALAR"},{"bufferView":25,"componentType":5126,"count":4,"max":[1,1,1],"min":[0,0,0],"type":"VEC3"},{"bufferView":26,"componentType":5126,"count":7,"max":[2.958329916000366],"min":[2.708329916000366],"type":"SCALAR"},{"bufferView":27,"componentType":5126,"count":7,"max":[0,0.13348999619483948,0.33027374744415283],"min":[0,0.13348999619483948,0.09277375042438507],"type":"VEC3"}],"materials":[{"pbrMetallicRoughness":{"baseColorFactor":[0.28627450980392155,0.3137254901960784,0.3803921568627451,1],"metallicFactor":0,"roughnessFactor":0.9},"extensions":{"KHR_materials_unlit":{}}}],"meshes":[{"primitives":[{"mode":4,"attributes":{"POSITION":0,"NORMAL":1,"TEXCOORD_0":2},"indices":3,"material":0}]}],"animations":[{"name":"reload_empty","samplers":[{"input":4,"output":5,"interpolation":"LINEAR"},{"input":6,"output":7,"interpolation":"LINEAR"},{"input":8,"output":9,"interpolation":"LINEAR"},{"input":10,"output":11,"interpolation":"LINEAR"},{"input":12,"output":13,"interpolation":"LINEAR"},{"input":14,"output":15,"interpolation":"LINEAR"},{"input":16,"output":17,"interpolation":"LINEAR"},{"input":18,"output":19,"interpolation":"LINEAR"},{"input":20,"output":21,"interpolation":"LINEAR"},{"input":22,"output":23,"interpolation":"LINEAR"},{"input":24,"output":25,"interpolation":"LINEAR"},{"input":26,"output":27,"interpolation":"LINEAR"}],"channels":[{"sampler":0,"target":{"node":8,"path":"rotation"}},{"sampler":1,"target":{"node":8,"path":"translation"}},{"sampler":2,"target":{"node":7,"path":"rotation"}},{"sampler":3,"target":{"node":7,"path":"translation"}},{"sampler":4,"target":{"node":7,"path":"scale"}},{"sampler":5,"target":{"node":4,"path":"rotation"}},{"sampler":6,"target":{"node":4,"path":"translation"}},{"sampler":7,"target":{"node":4,"path":"scale"}},{"sampler":8,"target":{"node":0,"path":"rotation"}},{"sampler":9,"target":{"node":0,"path":"translation"}},{"sampler":10,"target":{"node":0,"path":"scale"}},{"sampler":11,"target":{"node":1,"path":"translation"}}]}],"extensionsUsed":["KHR_materials_unlit"]}