{"asset":{"version":"2.0","generator":"Blockbench 4.8.3 glTF exporter"},"scenes":[{"nodes":[11],"name":"blockbench_export"}],"scene":0,"nodes":[{"translation":[0,0.20625000000000004,0.2375],"name":"p90_mag_standard"},{"translation":[0,0.13349,0.09277374999999999],"name":"pull"},{"name":"fn_p90","children":[0,1]},{"translation":[0.375,-0.6875,0],"name":"RightHand"},{"translation":[-0.375,0.8125,0.25],"name":"R","children":[3]},{"name":"bone","children":[2,4]},{"translation":[-0.375,-0.6875,0],"name":"LeftHand"},{"translation":[0.375,0.8125,0.25],"name":"l","children":[6]},{"translation":[0.5,0.375,0.25],"name":"bone2","children":[5,7]},{"translation":[0.359375,0.828125,0.9375],"name":"camera","mesh":0},{"name":"bone3","children":[9]},{"children":[8,10]}],"bufferViews":[{"buffer":0,"byteOffset":0,"byteLength":288,"target":34962,"byteStride":12},{"buffer":0,"byteOffset":288,"byteLength":288,"target":34962,"byteStride":12},{"buffer":0,"byteOffset":576,"byteLength":192,"target":34962,"byteStride":8},{"buffer":0,"byteOffset":768,"byteLength":72,"target":34963},{"buffer":0,"byteOffset":840,"byteLength":4},{"buffer":0,"byteOffset":844,"byteLength":16},{"buffer":0,"byteOffset":860,"byteLength":4},{"buffer":0,"byteOffset":864,"byteLength":12},{"buffer":0,"byteOffset":876,"byteLength":4},{"buffer":0,"byteOffset":880,"byteLength":12},{"buffer":0,"byteOffset":892,"byteLength":108},{"buffer":0,"byteOffset":1000,"byteLength":432},{"buffer":0,"byteOffset":1432,"byteLength":188},{"buffer":0,"byteOffset":1620,"byteLength":564},{"buffer":0,"byteOffset":2184,"byteLength":4},{"buffer":0,"byteOffset":2188,"byteLength":12},{"buffer":0,"byteOffset":2200,"byteLength":196},{"buffer":0,"byteOffset":2396,"byteLength":784},{"buffer":0,"byteOffset":3180,"byteLength":204},{"buffer":0,"byteOffset":3384,"byteLength":612},{"buffer":0,"byteOffset":3996,"byteLength":128},{"buffer":0,"byteOffset":4124,"byteLength":512},{"buffer":0,"byteOffset":4636,"byteLength":132},{"buffer":0,"byteOffset":4768,"byteLength":396},{"buffer":0,"byteOffset":5164,"byteLength":16},{"buffer":0,"byteOffset":5180,"byteLength":48}],"buffers":[{"byteLength":5228,"uri":"data:application/octet-stream;base64,"}],"accessors":[{"bufferView":0,"componentType":5126,"count":24,"max":[0.07500000298023224,0.04062499850988388,0],"min":[-0.07500000298023224,-0.04062499850988388,-0.0625],"type":"VEC3"},{"bufferView":1,"componentType":5126,"count":24,"max":[1,1,1],"min":[-1,-1,-1],"type":"VEC3"},{"bufferView":2,"componentType":5126,"count":24,"max":[1,1],"min":[0,0],"type":"VEC2"},{"bufferView":3,"componentType":5123,"count":36,"max":[23],"min":[0],"type":"SCALAR"},{"bufferView":4,"componentType":5126,"count":1,"max":[0],"min":[0],"type":"SCALAR"},{"bufferView":5,"componentType":5126,"count":1,"max":[0.11521314829587936,-0.7474051117897034,0.6509121656417847,0.06651994585990906],"min":[0.11521314829587936,-0.7474051117897034,0.6509121656417847,0.06651994585990906],"type":"VEC4"},{"bufferView":6,"componentType":5126,"count":1,"max":[0],"min":[0],"type":"SCALAR"},{"bufferView":7,"componentType":5126,"count":1,"max":[0.09375,-0.02500000037252903,0.05000000074505806],"min":[0.09375,-0.02500000037252903,0.05000000074505806],"type":"VEC3"},{"bufferView":8,"componentType":5126,"count":1,"max":[0],"min":[0],"type":"SCALAR"},{"bufferView":9,"componentType":5126,"count":1,"max":[1,1.5,1],"min":[1,1.5,1],"type":"VEC3"},{"bufferView":10,"componentType":5126,"count":27,"max":[2.916670083999634],"min":[0],"type":"SCALAR"},{"bufferView":11,"componentType":5126,"count":27,"max":[0.6581759452819824,0.8746210932731628,0.2069060206413269,0.3781849145889282],"min":[0.017920512706041336,0.6568939685821533,-0.7201488018035889,-0.025451134890317917],"type":"VEC4"},{"bufferView":12,"componentType":5126,"count":47,"max":[2.916670083999634],"min":[0],"type":"SCALAR"},{"bufferView":13,"componentType":5126,"count":47,"max":[-0.01875000074505806,0.4387512505054474,0.9441239833831787],"min":[-0.3847411274909973,-0.10625000298023224,-0.3187499940395355],"type":"VEC3"},{"bufferView":14,"componentType":5126,"count":1,"max":[0],"min":[0],"type":"SCALAR"},{"bufferView":15,"componentType":5126,"count":1,"max":[1,1.5,1],"min":[1,1.5,1],"type":"VEC3"},{"bufferView":16,"componentType":5126,"count":49,"max":[2.958329916000366],"min":[0],"type":"SCALAR"},{"bufferView":17,"componentType":5126,"count":49,"max":[0.029035339131951332,0.25863638520240784,0.17074503004550934,1],"min":[-0.029185699298977852,-0.0008726638043299317,-0.0010087202535942197,0.9596436619758606],"type":"VEC4"},{"bufferView":18,"componentType":5126,"count":51,"max":[2.958329916000366],"min":[0],"type":"SCALAR"},{"bufferView":19,"componentType":5126,"count":51,"max":[0.5,0.375,0.265625],"min":[0.39125001430511475,0.2212499976158142,0.12949617207050323],"type":"VEC3"},{"bufferView":20,"componentType":5126,"count":32,"max":[2.25],"min":[0],"type":"SCALAR"},{"bufferView":21,"componentType":5126,"count":32,"max":[0,0.11320064216852188,0.16387519240379333,1],"min":[-0.6340374946594238,-0.13424351811408997,-0.012755094096064568,0.7650413513183594],"type":"VEC4"},{"bufferView":22,"componentType":5126,"count":33,"max":[2.25],"min":[0],"type":"SCALAR"},{"bufferView":23,"componentType":5126,"count":33,"max":[0,0.4059387445449829,0.9404556751251221],"min":[-0.36164698004722595,-0.2199999988079071,0.23749999701976776],"type":"VEC3"},{"bufferView":24,"componentType":5126,"count":4,"max":[1.2916699647903442],"min":[0.958329975605011],"type":"SCALAR"},{"bufferView":25,"componentType":5126,"count":4,"max":[1,1,1],"min":[0,0,0],"type":"VEC3"}],"materials":[{"pbrMetallicRoughness":{"baseColorFactor":[0.28627450980392155,0.3137254901960784,0.3803921568627451,1],"metallicFactor":0,"roughnessFactor":0.9},"extensions":{"KHR_materials_unlit":{}}}],"meshes":[{"primitives":[{"mode":4,"attributes":{"POSITION":0,"NORMAL":1,"TEXCOORD_0":2},"indices":3,"material":0}]}],"animations":[{"name":"reload_norm","samplers":[{"input":4,"output":5,"interpolation":"LINEAR"},{"input":6,"output":7,"interpolation":"LINEAR"},{"input":8,"output":9,"interpolation":"LINEAR"},{"input":10,"output":11,"interpolation":"LINEAR"},{"input":12,"output":13,"interpolation":"LINEAR"},{"input":14,"output":15,"interpolation":"LINEAR"},{"input":16,"output":17,"interpolation":"LINEAR"},{"input":18,"output":19,"interpolation":"LINEAR"},{"input":20,"output":21,"interpolation":"LINEAR"},{"input":22,"output":23,"interpolation":"LINEAR"},{"input":24,"output":25,"interpolation":"LINEAR"}],"channels":[{"sampler":0,"target":{"node":4,"path":"rotation"}},{"sampler":1,"target":{"node":4,"path":"translation"}},{"sampler":2,"target":{"node":4,"path":"scale"}},{"sampler":3,"target":{"node":7,"path":"rotation"}},{"sampler":4,"target":{"node":7,"path":"translation"}},{"sampler":5,"target":{"node":7,"path":"scale"}},{"sampler":6,"target":{"node":8,"path":"rotation"}},{"sampler":7,"target":{"node":8,"path":"translation"}},{"sampler":8,"target":{"node":0,"path":"rotation"}},{"sampler":9,"target":{"node":0,"path":"translation"}},{"sampler":10,"target":{"node":0,"path":"scale"}}]}],"extensionsUsed":["KHR_materials_unlit"]}