{"asset":{"version":"2.0","generator":"Blockbench 4.8.3 glTF exporter"},"scenes":[{"nodes":[11],"name":"blockbench_export"}],"scene":0,"nodes":[{"translation":[0,0.20625000000000004,0.2375],"name":"p90_mag_standard"},{"translation":[0,0.13349,0.09277374999999999],"name":"pull"},{"name":"fn_p90","children":[0,1]},{"translation":[0.375,-0.6875,0],"name":"RightHand"},{"translation":[-0.375,0.8125,0.25],"name":"R","children":[3]},{"name":"bone","children":[2,4]},{"translation":[-0.375,-0.6875,0],"name":"LeftHand"},{"translation":[0.375,0.8125,0.25],"name":"l","children":[6]},{"translation":[0.5,0.375,0.25],"name":"bone2","children":[5,7]},{"translation":[0.359375,0.828125,0.9375],"name":"camera","mesh":0},{"name":"bone3","children":[9]},{"children":[8,10]}],"bufferViews":[{"buffer":0,"byteOffset":0,"byteLength":288,"target":34962,"byteStride":12},{"buffer":0,"byteOffset":288,"byteLength":288,"target":34962,"byteStride":12},{"buffer":0,"byteOffset":576,"byteLength":192,"target":34962,"byteStride":8},{"buffer":0,"byteOffset":768,"byteLength":72,"target":34963},{"buffer":0,"byteOffset":840,"byteLength":4},{"buffer":0,"byteOffset":844,"byteLength":16},{"buffer":0,"byteOffset":860,"byteLength":4},{"buffer":0,"byteOffset":864,"byteLength":12},{"buffer":0,"byteOffset":876,"byteLength":4},{"buffer":0,"byteOffset":880,"byteLength":12},{"buffer":0,"byteOffset":892,"byteLength":4},{"buffer":0,"byteOffset":896,"byteLength":16},{"buffer":0,"byteOffset":912,"byteLength":4},{"buffer":0,"byteOffset":916,"byteLength":12},{"buffer":0,"byteOffset":928,"byteLength":4},{"buffer":0,"byteOffset":932,"byteLength":12},{"buffer":0,"byteOffset":944,"byteLength":52},{"buffer":0,"byteOffset":996,"byteLength":208},{"buffer":0,"byteOffset":1204,"byteLength":56},{"buffer":0,"byteOffset":1260,"byteLength":168}],"buffers":[{"byteLength":1428,"uri":"data:application/octet-stream;base64,"}],"accessors":[{"bufferView":0,"componentType":5126,"count":24,"max":[0.07500000298023224,0.04062499850988388,0],"min":[-0.07500000298023224,-0.04062499850988388,-0.0625],"type":"VEC3"},{"bufferView":1,"componentType":5126,"count":24,"max":[1,1,1],"min":[-1,-1,-1],"type":"VEC3"},{"bufferView":2,"componentType":5126,"count":24,"max":[1,1],"min":[0,0],"type":"VEC2"},{"bufferView":3,"componentType":5123,"count":36,"max":[23],"min":[0],"type":"SCALAR"},{"bufferView":4,"componentType":5126,"count":1,"max":[0],"min":[0],"type":"SCALAR"},{"bufferView":5,"componentType":5126,"count":1,"max":[0.11521314829587936,-0.7474051117897034,0.6509121656417847,0.06651994585990906],"min":[0.11521314829587936,-0.7474051117897034,0.6509121656417847,0.06651994585990906],"type":"VEC4"},{"bufferView":6,"componentType":5126,"count":1,"max":[0],"min":[0],"type":"SCALAR"},{"bufferView":7,"componentType":5126,"count":1,"max":[0.09375,-0.02500000037252903,0.05000000074505806],"min":[0.09375,-0.02500000037252903,0.05000000074505806],"type":"VEC3"},{"bufferView":8,"componentType":5126,"count":1,"max":[0],"min":[0],"type":"SCALAR"},{"bufferView":9,"componentType":5126,"count":1,"max":[1,1.5,1],"min":[1,1.5,1],"type":"VEC3"},{"bufferView":10,"componentType":5126,"count":1,"max":[0],"min":[0],"type":"SCALAR"},{"bufferView":11,"componentType":5126,"count":1,"max":[0.1020355075597763,0.7197625637054443,-0.6852136254310608,0.044865287840366364],"min":[0.1020355075597763,0.7197625637054443,-0.6852136254310608,0.044865287840366364],"type":"VEC4"},{"bufferView":12,"componentType":5126,"count":1,"max":[0],"min":[0],"type":"SCALAR"},{"bufferView":13,"componentType":5126,"count":1,"max":[-0.04374999925494194,-0.10625000298023224,-0.3062500059604645],"min":[-0.04374999925494194,-0.10625000298023224,-0.3062500059604645],"type":"VEC3"},{"bufferView":14,"componentType":5126,"count":1,"max":[0],"min":[0],"type":"SCALAR"},{"bufferView":15,"componentType":5126,"count":1,"max":[1,1.5,1],"min":[1,1.5,1],"type":"VEC3"},{"bufferView":16,"componentType":5126,"count":13,"max":[0.75],"min":[0],"type":"SCALAR"},{"bufferView":17,"componentType":5126,"count":13,"max":[0.00015999461174942553,0.34831273555755615,0.2972331941127777,1],"min":[-0.1939237266778946,-0.0002656634314917028,0,0.8675968050956726],"type":"VEC4"},{"bufferView":18,"componentType":5126,"count":14,"max":[0.75],"min":[0],"type":"SCALAR"},{"bufferView":19,"componentType":5126,"count":14,"max":[0.5024610161781311,0.37552082538604736,0.28437501192092896],"min":[0.40625,-0.4312500059604645,0.17499999701976776],"type":"VEC3"}],"materials":[{"pbrMetallicRoughness":{"baseColorFactor":[0.28627450980392155,0.3137254901960784,0.3803921568627451,1],"metallicFactor":0,"roughnessFactor":0.9},"extensions":{"KHR_materials_unlit":{}}}],"meshes":[{"primitives":[{"mode":4,"attributes":{"POSITION":0,"NORMAL":1,"TEXCOORD_0":2},"indices":3,"material":0}]}],"animations":[{"name":"draw","samplers":[{"input":4,"output":5,"interpolation":"LINEAR"},{"input":6,"output":7,"interpolation":"LINEAR"},{"input":8,"output":9,"interpolation":"LINEAR"},{"input":10,"output":11,"interpolation":"LINEAR"},{"input":12,"output":13,"interpolation":"LINEAR"},{"input":14,"output":15,"interpolation":"LINEAR"},{"input":16,"output":17,"interpolation":"LINEAR"},{"input":18,"output":19,"interpolation":"LINEAR"}],"channels":[{"sampler":0,"target":{"node":4,"path":"rotation"}},{"sampler":1,"target":{"node":4,"path":"translation"}},{"sampler":2,"target":{"node":4,"path":"scale"}},{"sampler":3,"target":{"node":7,"path":"rotation"}},{"sampler":4,"target":{"node":7,"path":"translation"}},{"sampler":5,"target":{"node":7,"path":"scale"}},{"sampler":6,"target":{"node":8,"path":"rotation"}},{"sampler":7,"target":{"node":8,"path":"translation"}}]}],"extensionsUsed":["KHR_materials_unlit"]}