{"asset":{"version":"2.0","generator":"Blockbench 4.7.0 glTF exporter"},"scenes":[{"nodes":[13],"name":"blockbench_export"}],"scene":0,"nodes":[{"translation":[0,0.125,-0.6875],"name":"bolty"},{"translation":[0.203125,0.171875,-0.08203125],"name":"bullet"},{"translation":[-0.015625,-0.0390625,-0.40625],"name":"magazine","children":[1]},{"translation":[0.171875,0.171875,-0.08203125],"name":"bullet2"},{"translation":[0.015625,-0.0390625,-0.40625],"name":"magazine2","children":[3]},{"translation":[-0.03125,0.06856000000000001,-0.30875625000000007],"name":"magrelease"},{"name":"qbz191","children":[0,2,4,5]},{"translation":[0.375,-0.6875,0],"name":"RightHand"},{"translation":[-0.375,0.8125,-0.6875],"name":"R","children":[7]},{"name":"bone","children":[6,8]},{"translation":[-0.375,-0.6875,0],"name":"LeftHand"},{"translation":[0.375,0.8125,-0.6875],"name":"l","children":[10]},{"translation":[0.5,0.375,1.1875],"name":"bone2","children":[9,11]},{"children":[12]}],"animations":[{"name":"draw","samplers":[{"input":0,"output":1,"interpolation":"LINEAR"},{"input":2,"output":3,"interpolation":"LINEAR"},{"input":4,"output":5,"interpolation":"LINEAR"},{"input":6,"output":7,"interpolation":"LINEAR"},{"input":8,"output":9,"interpolation":"LINEAR"},{"input":10,"output":11,"interpolation":"LINEAR"},{"input":12,"output":13,"interpolation":"LINEAR"},{"input":14,"output":15,"interpolation":"LINEAR"},{"input":16,"output":17,"interpolation":"LINEAR"},{"input":18,"output":19,"interpolation":"LINEAR"}],"channels":[{"sampler":0,"target":{"node":11,"path":"rotation"}},{"sampler":1,"target":{"node":11,"path":"translation"}},{"sampler":2,"target":{"node":11,"path":"scale"}},{"sampler":3,"target":{"node":8,"path":"rotation"}},{"sampler":4,"target":{"node":8,"path":"translation"}},{"sampler":5,"target":{"node":8,"path":"scale"}},{"sampler":6,"target":{"node":12,"path":"rotation"}},{"sampler":7,"target":{"node":12,"path":"translation"}},{"sampler":8,"target":{"node":4,"path":"rotation"}},{"sampler":9,"target":{"node":4,"path":"translation"}}]}],"bufferViews":[{"buffer":0,"byteOffset":0,"byteLength":16},{"buffer":0,"byteOffset":16,"byteLength":64},{"buffer":0,"byteOffset":80,"byteLength":16},{"buffer":0,"byteOffset":96,"byteLength":48},{"buffer":0,"byteOffset":144,"byteLength":4},{"buffer":0,"byteOffset":148,"byteLength":12},{"buffer":0,"byteOffset":160,"byteLength":4},{"buffer":0,"byteOffset":164,"byteLength":16},{"buffer":0,"byteOffset":180,"byteLength":4},{"buffer":0,"byteOffset":184,"byteLength":12},{"buffer":0,"byteOffset":196,"byteLength":4},{"buffer":0,"byteOffset":200,"byteLength":12},{"buffer":0,"byteOffset":212,"byteLength":52},{"buffer":0,"byteOffset":264,"byteLength":208},{"buffer":0,"byteOffset":472,"byteLength":44},{"buffer":0,"byteOffset":516,"byteLength":132},{"buffer":0,"byteOffset":648,"byteLength":4},{"buffer":0,"byteOffset":652,"byteLength":16},{"buffer":0,"byteOffset":668,"byteLength":4},{"buffer":0,"byteOffset":672,"byteLength":12}],"buffers":[{"byteLength":684,"uri":"data:application/octet-stream;base64,"}],"accessors":[{"bufferView":0,"componentType":5126,"count":4,"max":[0.44999998807907104],"min":[0],"type":"SCALAR"},{"bufferView":1,"componentType":5126,"count":4,"max":[0.20017629861831665,0.6925881505012512,-0.5548118352890015,0.4618425965309143],"min":[-0.024169521406292915,0.6671444177627563,-0.591838002204895,0.36052578687667847],"type":"VEC4"},{"bufferView":2,"componentType":5126,"count":4,"max":[0.44999998807907104],"min":[0],"type":"SCALAR"},{"bufferView":3,"componentType":5126,"count":4,"max":[-0.0625,0.125,-0.4312500059604645],"min":[-0.4937500059604645,-0.4000000059604645,-0.862500011920929],"type":"VEC3"},{"bufferView":4,"componentType":5126,"count":1,"max":[0],"min":[0],"type":"SCALAR"},{"bufferView":5,"componentType":5126,"count":1,"max":[1,1.5,1],"min":[1,1.5,1],"type":"VEC3"},{"bufferView":6,"componentType":5126,"count":1,"max":[0],"min":[0],"type":"SCALAR"},{"bufferView":7,"componentType":5126,"count":1,"max":[-4.6036909045206166e-17,0.751839816570282,-0.659345805644989,4.037328610911684e-17],"min":[-4.6036909045206166e-17,0.751839816570282,-0.659345805644989,4.037328610911684e-17],"type":"VEC4"},{"bufferView":8,"componentType":5126,"count":1,"max":[0],"min":[0],"type":"SCALAR"},{"bufferView":9,"componentType":5126,"count":1,"max":[0.03750000149011612,-0.0625,-0.0625],"min":[0.03750000149011612,-0.0625,-0.0625],"type":"VEC3"},{"bufferView":10,"componentType":5126,"count":1,"max":[0],"min":[0],"type":"SCALAR"},{"bufferView":11,"componentType":5126,"count":1,"max":[1,1.5,1],"min":[1,1.5,1],"type":"VEC3"},{"bufferView":12,"componentType":5126,"count":13,"max":[0.800000011920929],"min":[0],"type":"SCALAR"},{"bufferView":13,"componentType":5126,"count":13,"max":[0.002180464332923293,0.26633957028388977,0.17876844108104706,1],"min":[-0.50429767370224,-0.0005501724081113935,-0.002180464332923293,0.8017411828041077],"type":"VEC4"},{"bufferView":14,"componentType":5126,"count":11,"max":[0.550000011920929],"min":[0],"type":"SCALAR"},{"bufferView":15,"componentType":5126,"count":11,"max":[0.5,0.37578123807907104,1.1875],"min":[0.5,-0.3062500059604645,1.125],"type":"VEC3"},{"bufferView":16,"componentType":5126,"count":1,"max":[0],"min":[0],"type":"SCALAR"},{"bufferView":17,"componentType":5126,"count":1,"max":[0,0,0,1],"min":[0,0,0,1],"type":"VEC4"},{"bufferView":18,"componentType":5126,"count":1,"max":[0],"min":[0],"type":"SCALAR"},{"bufferView":19,"componentType":5126,"count":1,"max":[0.015625,-0.3515625,1.46875],"min":[0.015625,-0.3515625,1.46875],"type":"VEC3"}]}