{"asset":{"version":"2.0","generator":"Blockbench 4.7.0 glTF exporter"},"scenes":[{"nodes":[13],"name":"blockbench_export"}],"scene":0,"nodes":[{"translation":[0,0.125,-0.6875],"name":"bolty"},{"translation":[0.203125,0.171875,-0.08203125],"name":"bullet"},{"translation":[-0.015625,-0.0390625,-0.40625],"name":"magazine","children":[1]},{"translation":[0.171875,0.171875,-0.08203125],"name":"bullet2"},{"translation":[0.015625,-0.0390625,-0.40625],"name":"magazine2","children":[3]},{"translation":[-0.03125,0.06856000000000001,-0.30875625000000007],"name":"magrelease"},{"name":"qbz191","children":[0,2,4,5]},{"translation":[0.375,-0.6875,0],"name":"RightHand"},{"translation":[-0.375,0.8125,-0.6875],"name":"R","children":[7]},{"name":"bone","children":[6,8]},{"translation":[-0.375,-0.6875,0],"name":"LeftHand"},{"translation":[0.375,0.8125,-0.6875],"name":"l","children":[10]},{"translation":[0.5,0.375,1.1875],"name":"bone2","children":[9,11]},{"children":[12]}],"animations":[{"name":"empty","samplers":[{"input":0,"output":1,"interpolation":"LINEAR"},{"input":2,"output":3,"interpolation":"LINEAR"},{"input":4,"output":5,"interpolation":"LINEAR"},{"input":6,"output":7,"interpolation":"LINEAR"},{"input":8,"output":9,"interpolation":"LINEAR"},{"input":10,"output":11,"interpolation":"LINEAR"},{"input":12,"output":13,"interpolation":"LINEAR"},{"input":14,"output":15,"interpolation":"LINEAR"},{"input":16,"output":17,"interpolation":"LINEAR"},{"input":18,"output":19,"interpolation":"LINEAR"},{"input":20,"output":21,"interpolation":"LINEAR"},{"input":22,"output":23,"interpolation":"LINEAR"},{"input":24,"output":25,"interpolation":"LINEAR"},{"input":26,"output":27,"interpolation":"LINEAR"},{"input":28,"output":29,"interpolation":"LINEAR"}],"channels":[{"sampler":0,"target":{"node":11,"path":"rotation"}},{"sampler":1,"target":{"node":11,"path":"translation"}},{"sampler":2,"target":{"node":11,"path":"scale"}},{"sampler":3,"target":{"node":8,"path":"rotation"}},{"sampler":4,"target":{"node":8,"path":"translation"}},{"sampler":5,"target":{"node":8,"path":"scale"}},{"sampler":6,"target":{"node":12,"path":"rotation"}},{"sampler":7,"target":{"node":12,"path":"translation"}},{"sampler":8,"target":{"node":2,"path":"rotation"}},{"sampler":9,"target":{"node":2,"path":"translation"}},{"sampler":10,"target":{"node":4,"path":"rotation"}},{"sampler":11,"target":{"node":4,"path":"translation"}},{"sampler":12,"target":{"node":0,"path":"translation"}},{"sampler":13,"target":{"node":1,"path":"translation"}},{"sampler":14,"target":{"node":5,"path":"rotation"}}]}],"bufferViews":[{"buffer":0,"byteOffset":0,"byteLength":152},{"buffer":0,"byteOffset":152,"byteLength":608},{"buffer":0,"byteOffset":760,"byteLength":140},{"buffer":0,"byteOffset":900,"byteLength":420},{"buffer":0,"byteOffset":1320,"byteLength":4},{"buffer":0,"byteOffset":1324,"byteLength":12},{"buffer":0,"byteOffset":1336,"byteLength":4},{"buffer":0,"byteOffset":1340,"byteLength":16},{"buffer":0,"byteOffset":1356,"byteLength":4},{"buffer":0,"byteOffset":1360,"byteLength":12},{"buffer":0,"byteOffset":1372,"byteLength":4},{"buffer":0,"byteOffset":1376,"byteLength":12},{"buffer":0,"byteOffset":1388,"byteLength":204},{"buffer":0,"byteOffset":1592,"byteLength":816},{"buffer":0,"byteOffset":2408,"byteLength":192},{"buffer":0,"byteOffset":2600,"byteLength":576},{"buffer":0,"byteOffset":3176,"byteLength":32},{"buffer":0,"byteOffset":3208,"byteLength":128},{"buffer":0,"byteOffset":3336,"byteLength":40},{"buffer":0,"byteOffset":3376,"byteLength":120},{"buffer":0,"byteOffset":3496,"byteLength":132},{"buffer":0,"byteOffset":3628,"byteLength":528},{"buffer":0,"byteOffset":4156,"byteLength":132},{"buffer":0,"byteOffset":4288,"byteLength":396},{"buffer":0,"byteOffset":4684,"byteLength":16},{"buffer":0,"byteOffset":4700,"byteLength":48},{"buffer":0,"byteOffset":4748,"byteLength":16},{"buffer":0,"byteOffset":4764,"byteLength":48},{"buffer":0,"byteOffset":4812,"byteLength":116},{"buffer":0,"byteOffset":4928,"byteLength":464}],"buffers":[{"byteLength":5392,"uri":"data:application/octet-stream;base64,"}],"accessors":[{"bufferView":0,"componentType":5126,"count":38,"max":[2.8499999046325684],"min":[0],"type":"SCALAR"},{"bufferView":1,"componentType":5126,"count":38,"max":[0.11260448396205902,0.7124141454696655,-0.07318065315485,0.7835768461227417],"min":[-0.21263110637664795,0.2813921868801117,-0.6487051844596863,0.46122732758522034],"type":"VEC4"},{"bufferView":2,"componentType":5126,"count":35,"max":[2.8499999046325684],"min":[0],"type":"SCALAR"},{"bufferView":3,"componentType":5126,"count":35,"max":[0.27687498927116394,0.22374999523162842,0.30000001192092896],"min":[-0.6152375340461731,-1.189716100692749,-0.862500011920929],"type":"VEC3"},{"bufferView":4,"componentType":5126,"count":1,"max":[0],"min":[0],"type":"SCALAR"},{"bufferView":5,"componentType":5126,"count":1,"max":[1,1.5,1],"min":[1,1.5,1],"type":"VEC3"},{"bufferView":6,"componentType":5126,"count":1,"max":[0],"min":[0],"type":"SCALAR"},{"bufferView":7,"componentType":5126,"count":1,"max":[-4.6036909045206166e-17,0.751839816570282,-0.659345805644989,4.037328610911684e-17],"min":[-4.6036909045206166e-17,0.751839816570282,-0.659345805644989,4.037328610911684e-17],"type":"VEC4"},{"bufferView":8,"componentType":5126,"count":1,"max":[0],"min":[0],"type":"SCALAR"},{"bufferView":9,"componentType":5126,"count":1,"max":[0.03750000149011612,-0.0625,-0.0625],"min":[0.03750000149011612,-0.0625,-0.0625],"type":"VEC3"},{"bufferView":10,"componentType":5126,"count":1,"max":[0],"min":[0],"type":"SCALAR"},{"bufferView":11,"componentType":5126,"count":1,"max":[1,1.5,1],"min":[1,1.5,1],"type":"VEC3"},{"bufferView":12,"componentType":5126,"count":51,"max":[3.049999952316284],"min":[0],"type":"SCALAR"},{"bufferView":13,"componentType":5126,"count":51,"max":[0.21388603746891022,0.04514368250966072,0.42721566557884216,1],"min":[-0.0030804669950157404,-0.024096960201859474,-0.32996872067451477,0.9036626219749451],"type":"VEC4"},{"bufferView":14,"componentType":5126,"count":48,"max":[3],"min":[0],"type":"SCALAR"},{"bufferView":15,"componentType":5126,"count":48,"max":[0.5112500190734863,0.3798169195652008,1.306249976158142],"min":[0.4437499940395355,0.34129801392555237,1.1089591979980469],"type":"VEC3"},{"bufferView":16,"componentType":5126,"count":8,"max":[1],"min":[0],"type":"SCALAR"},{"bufferView":17,"componentType":5126,"count":8,"max":[0.45386621356010437,0,0,1],"min":[0,-0.23230130970478058,-0.728622317314148,0.49185025691986084],"type":"VEC4"},{"bufferView":18,"componentType":5126,"count":10,"max":[1.149999976158142],"min":[0],"type":"SCALAR"},{"bufferView":19,"componentType":5126,"count":10,"max":[0.207011878490448,-0.0390625,1.4193637371063232],"min":[-0.7618206143379211,-2.1218461990356445,-0.5193793773651123],"type":"VEC3"},{"bufferView":20,"componentType":5126,"count":33,"max":[2],"min":[0],"type":"SCALAR"},{"bufferView":21,"componentType":5126,"count":33,"max":[0.12186934053897858,0.038500089198350906,0,1],"min":[-0.17625507712364197,-0.3783915042877197,-0.23966115713119507,0.8765366673469543],"type":"VEC4"},{"bufferView":22,"componentType":5126,"count":33,"max":[2],"min":[0],"type":"SCALAR"},{"bufferView":23,"componentType":5126,"count":33,"max":[0.015625,-0.0390625,0.441314697265625],"min":[-0.578125,-0.8305816650390625,-0.4737499952316284],"type":"VEC3"},{"bufferView":24,"componentType":5126,"count":4,"max":[2.450000047683716],"min":[0],"type":"SCALAR"},{"bufferView":25,"componentType":5126,"count":4,"max":[0,0.125,-0.40312498807907104],"min":[0,0.125,-0.6875],"type":"VEC3"},{"bufferView":26,"componentType":5126,"count":4,"max":[1],"min":[0],"type":"SCALAR"},{"bufferView":27,"componentType":5126,"count":4,"max":[0.203125,0.171875,-0.08203125],"min":[0.203125,0.109375,-0.08203125],"type":"VEC3"},{"bufferView":28,"componentType":5126,"count":29,"max":[1.9500000476837158],"min":[0],"type":"SCALAR"},{"bufferView":29,"componentType":5126,"count":29,"max":[0.2164396196603775,0,0,1],"min":[-0.02723991684615612,0,0,0.9762960076332092],"type":"VEC4"}]}