{"asset":{"version":"2.0","generator":"Blockbench 4.7.0 glTF exporter"},"scenes":[{"nodes":[13],"name":"blockbench_export"}],"scene":0,"nodes":[{"translation":[0,0.125,-0.6875],"name":"bolty"},{"translation":[0.203125,0.171875,-0.08203125],"name":"bullet"},{"translation":[-0.015625,-0.0390625,-0.40625],"name":"magazine","children":[1]},{"translation":[0.171875,0.171875,-0.08203125],"name":"bullet2"},{"translation":[0.015625,-0.0390625,-0.40625],"name":"magazine2","children":[3]},{"translation":[-0.03125,0.06856000000000001,-0.30875625000000007],"name":"magrelease"},{"name":"qbz191","children":[0,2,4,5]},{"translation":[0.375,-0.6875,0],"name":"RightHand"},{"translation":[-0.375,0.8125,-0.6875],"name":"R","children":[7]},{"name":"bone","children":[6,8]},{"translation":[-0.375,-0.6875,0],"name":"LeftHand"},{"translation":[0.375,0.8125,-0.6875],"name":"l","children":[10]},{"translation":[0.5,0.375,1.1875],"name":"bone2","children":[9,11]},{"children":[12]}],"animations":[{"name":"inspect","samplers":[{"input":0,"output":1,"interpolation":"LINEAR"},{"input":2,"output":3,"interpolation":"LINEAR"},{"input":4,"output":5,"interpolation":"LINEAR"},{"input":6,"output":7,"interpolation":"LINEAR"},{"input":8,"output":9,"interpolation":"LINEAR"},{"input":10,"output":11,"interpolation":"LINEAR"},{"input":12,"output":13,"interpolation":"LINEAR"},{"input":14,"output":15,"interpolation":"LINEAR"}],"channels":[{"sampler":0,"target":{"node":11,"path":"rotation"}},{"sampler":1,"target":{"node":11,"path":"translation"}},{"sampler":2,"target":{"node":11,"path":"scale"}},{"sampler":3,"target":{"node":8,"path":"rotation"}},{"sampler":4,"target":{"node":8,"path":"translation"}},{"sampler":5,"target":{"node":8,"path":"scale"}},{"sampler":6,"target":{"node":12,"path":"rotation"}},{"sampler":7,"target":{"node":12,"path":"translation"}}]}],"bufferViews":[{"buffer":0,"byteOffset":0,"byteLength":204},{"buffer":0,"byteOffset":204,"byteLength":816},{"buffer":0,"byteOffset":1020,"byteLength":196},{"buffer":0,"byteOffset":1216,"byteLength":588},{"buffer":0,"byteOffset":1804,"byteLength":4},{"buffer":0,"byteOffset":1808,"byteLength":12},{"buffer":0,"byteOffset":1820,"byteLength":4},{"buffer":0,"byteOffset":1824,"byteLength":16},{"buffer":0,"byteOffset":1840,"byteLength":4},{"buffer":0,"byteOffset":1844,"byteLength":12},{"buffer":0,"byteOffset":1856,"byteLength":4},{"buffer":0,"byteOffset":1860,"byteLength":12},{"buffer":0,"byteOffset":1872,"byteLength":284},{"buffer":0,"byteOffset":2156,"byteLength":1136},{"buffer":0,"byteOffset":3292,"byteLength":300},{"buffer":0,"byteOffset":3592,"byteLength":900}],"buffers":[{"byteLength":4492,"uri":"data:application/octet-stream;base64,"}],"accessors":[{"bufferView":0,"componentType":5126,"count":51,"max":[4.25],"min":[0],"type":"SCALAR"},{"bufferView":1,"componentType":5126,"count":51,"max":[0.10567216575145721,0.8372921347618103,-0.4772223234176636,0.4618425965309143],"min":[-0.09764944016933441,0.5897354483604431,-0.7958465218544006,0.0876002237200737],"type":"VEC4"},{"bufferView":2,"componentType":5126,"count":49,"max":[4.25],"min":[0],"type":"SCALAR"},{"bufferView":3,"componentType":5126,"count":49,"max":[0.03168673440814018,0.2043749988079071,0.15431305766105652],"min":[-0.5920843482017517,-0.898593008518219,-1.1310906410217285],"type":"VEC3"},{"bufferView":4,"componentType":5126,"count":1,"max":[0],"min":[0],"type":"SCALAR"},{"bufferView":5,"componentType":5126,"count":1,"max":[1,1.5,1],"min":[1,1.5,1],"type":"VEC3"},{"bufferView":6,"componentType":5126,"count":1,"max":[0],"min":[0],"type":"SCALAR"},{"bufferView":7,"componentType":5126,"count":1,"max":[-4.6036909045206166e-17,0.751839816570282,-0.659345805644989,4.037328610911684e-17],"min":[-4.6036909045206166e-17,0.751839816570282,-0.659345805644989,4.037328610911684e-17],"type":"VEC4"},{"bufferView":8,"componentType":5126,"count":1,"max":[0],"min":[0],"type":"SCALAR"},{"bufferView":9,"componentType":5126,"count":1,"max":[0.03750000149011612,-0.0625,-0.0625],"min":[0.03750000149011612,-0.0625,-0.0625],"type":"VEC3"},{"bufferView":10,"componentType":5126,"count":1,"max":[0],"min":[0],"type":"SCALAR"},{"bufferView":11,"componentType":5126,"count":1,"max":[1,1.5,1],"min":[1,1.5,1],"type":"VEC3"},{"bufferView":12,"componentType":5126,"count":71,"max":[4.599999904632568],"min":[0],"type":"SCALAR"},{"bufferView":13,"componentType":5126,"count":71,"max":[0.3600982427597046,0.1513374298810959,0.6000580787658691,1],"min":[-0.020762240514159203,-0.04354673624038696,-0.4139324426651001,0.7153715491294861],"type":"VEC4"},{"bufferView":14,"componentType":5126,"count":75,"max":[4.550000190734863],"min":[0],"type":"SCALAR"},{"bufferView":15,"componentType":5126,"count":75,"max":[0.578050434589386,0.42899757623672485,1.2887907028198242],"min":[0.4498128592967987,0.35624998807907104,1.084375023841858],"type":"VEC3"}]}