{"asset":{"version":"2.0","generator":"Blockbench 4.7.0 glTF exporter"},"scenes":[{"nodes":[13],"name":"blockbench_export"}],"scene":0,"nodes":[{"translation":[0,0.125,-0.6875],"name":"bolty"},{"translation":[0.203125,0.171875,-0.08203125],"name":"bullet"},{"translation":[-0.015625,-0.0390625,-0.40625],"name":"magazine","children":[1]},{"translation":[0.171875,0.171875,-0.08203125],"name":"bullet2"},{"translation":[0.015625,-0.0390625,-0.40625],"name":"magazine2","children":[3]},{"translation":[-0.03125,0.06856000000000001,-0.30875625000000007],"name":"magrelease"},{"name":"qbz191","children":[0,2,4,5]},{"translation":[0.375,-0.6875,0],"name":"RightHand"},{"translation":[-0.375,0.8125,-0.6875],"name":"R","children":[7]},{"name":"bone","children":[6,8]},{"translation":[-0.375,-0.6875,0],"name":"LeftHand"},{"translation":[0.375,0.8125,-0.6875],"name":"l","children":[10]},{"translation":[0.5,0.375,1.1875],"name":"bone2","children":[9,11]},{"children":[12]}],"animations":[{"name":"reload","samplers":[{"input":0,"output":1,"interpolation":"LINEAR"},{"input":2,"output":3,"interpolation":"LINEAR"},{"input":4,"output":5,"interpolation":"LINEAR"},{"input":6,"output":7,"interpolation":"LINEAR"},{"input":8,"output":9,"interpolation":"LINEAR"},{"input":10,"output":11,"interpolation":"LINEAR"},{"input":12,"output":13,"interpolation":"LINEAR"},{"input":14,"output":15,"interpolation":"LINEAR"},{"input":16,"output":17,"interpolation":"LINEAR"},{"input":18,"output":19,"interpolation":"LINEAR"},{"input":20,"output":21,"interpolation":"LINEAR"},{"input":22,"output":23,"interpolation":"LINEAR"},{"input":24,"output":25,"interpolation":"LINEAR"}],"channels":[{"sampler":0,"target":{"node":11,"path":"rotation"}},{"sampler":1,"target":{"node":11,"path":"translation"}},{"sampler":2,"target":{"node":11,"path":"scale"}},{"sampler":3,"target":{"node":8,"path":"rotation"}},{"sampler":4,"target":{"node":8,"path":"translation"}},{"sampler":5,"target":{"node":8,"path":"scale"}},{"sampler":6,"target":{"node":12,"path":"rotation"}},{"sampler":7,"target":{"node":12,"path":"translation"}},{"sampler":8,"target":{"node":2,"path":"rotation"}},{"sampler":9,"target":{"node":2,"path":"translation"}},{"sampler":10,"target":{"node":4,"path":"rotation"}},{"sampler":11,"target":{"node":4,"path":"translation"}},{"sampler":12,"target":{"node":5,"path":"rotation"}}]}],"bufferViews":[{"buffer":0,"byteOffset":0,"byteLength":140},{"buffer":0,"byteOffset":140,"byteLength":560},{"buffer":0,"byteOffset":700,"byteLength":140},{"buffer":0,"byteOffset":840,"byteLength":420},{"buffer":0,"byteOffset":1260,"byteLength":4},{"buffer":0,"byteOffset":1264,"byteLength":12},{"buffer":0,"byteOffset":1276,"byteLength":4},{"buffer":0,"byteOffset":1280,"byteLength":16},{"buffer":0,"byteOffset":1296,"byteLength":4},{"buffer":0,"byteOffset":1300,"byteLength":12},{"buffer":0,"byteOffset":1312,"byteLength":4},{"buffer":0,"byteOffset":1316,"byteLength":12},{"buffer":0,"byteOffset":1328,"byteLength":164},{"buffer":0,"byteOffset":1492,"byteLength":656},{"buffer":0,"byteOffset":2148,"byteLength":168},{"buffer":0,"byteOffset":2316,"byteLength":504},{"buffer":0,"byteOffset":2820,"byteLength":64},{"buffer":0,"byteOffset":2884,"byteLength":256},{"buffer":0,"byteOffset":3140,"byteLength":68},{"buffer":0,"byteOffset":3208,"byteLength":204},{"buffer":0,"byteOffset":3412,"byteLength":92},{"buffer":0,"byteOffset":3504,"byteLength":368},{"buffer":0,"byteOffset":3872,"byteLength":104},{"buffer":0,"byteOffset":3976,"byteLength":312},{"buffer":0,"byteOffset":4288,"byteLength":64},{"buffer":0,"byteOffset":4352,"byteLength":256}],"buffers":[{"byteLength":4608,"uri":"data:application/octet-stream;base64,"}],"accessors":[{"bufferView":0,"componentType":5126,"count":35,"max":[2.5],"min":[0],"type":"SCALAR"},{"bufferView":1,"componentType":5126,"count":35,"max":[0.1712740957736969,0.8033165335655212,-0.35188210010528564,0.7143038511276245],"min":[-0.21263110637664795,0.326505571603775,-0.6546199321746826,0.3971104621887207],"type":"VEC4"},{"bufferView":2,"componentType":5126,"count":35,"max":[2.3499999046325684],"min":[0],"type":"SCALAR"},{"bufferView":3,"componentType":5126,"count":35,"max":[0.028984375298023224,0.125,0.4157699942588806],"min":[-0.5703125,-1.109375,-0.862500011920929],"type":"VEC3"},{"bufferView":4,"componentType":5126,"count":1,"max":[0],"min":[0],"type":"SCALAR"},{"bufferView":5,"componentType":5126,"count":1,"max":[1,1.5,1],"min":[1,1.5,1],"type":"VEC3"},{"bufferView":6,"componentType":5126,"count":1,"max":[0],"min":[0],"type":"SCALAR"},{"bufferView":7,"componentType":5126,"count":1,"max":[-4.6036909045206166e-17,0.751839816570282,-0.659345805644989,4.037328610911684e-17],"min":[-4.6036909045206166e-17,0.751839816570282,-0.659345805644989,4.037328610911684e-17],"type":"VEC4"},{"bufferView":8,"componentType":5126,"count":1,"max":[0],"min":[0],"type":"SCALAR"},{"bufferView":9,"componentType":5126,"count":1,"max":[0.03750000149011612,-0.0625,-0.0625],"min":[0.03750000149011612,-0.0625,-0.0625],"type":"VEC3"},{"bufferView":10,"componentType":5126,"count":1,"max":[0],"min":[0],"type":"SCALAR"},{"bufferView":11,"componentType":5126,"count":1,"max":[1,1.5,1],"min":[1,1.5,1],"type":"VEC3"},{"bufferView":12,"componentType":5126,"count":41,"max":[2.6500000953674316],"min":[0],"type":"SCALAR"},{"bufferView":13,"componentType":5126,"count":41,"max":[0.23019559681415558,0.03547238931059837,0.060420166701078415,1],"min":[-0.015452992171049118,-0.007979584857821465,-0.3266999423503876,0.9163420796394348],"type":"VEC4"},{"bufferView":14,"componentType":5126,"count":42,"max":[2.6500000953674316],"min":[0],"type":"SCALAR"},{"bufferView":15,"componentType":5126,"count":42,"max":[0.5062500238418579,0.3831982910633087,1.209375023841858],"min":[0.47749999165534973,0.3243750035762787,1.125],"type":"VEC3"},{"bufferView":16,"componentType":5126,"count":16,"max":[2],"min":[0],"type":"SCALAR"},{"bufferView":17,"componentType":5126,"count":16,"max":[0.08987211436033249,0.005367203615605831,0,1],"min":[-0.16112539172172546,-0.35476258397102356,-0.23176565766334534,0.8913286924362183],"type":"VEC4"},{"bufferView":18,"componentType":5126,"count":17,"max":[2],"min":[0],"type":"SCALAR"},{"bufferView":19,"componentType":5126,"count":17,"max":[0.083984375,-0.0390625,0.49896499514579773],"min":[-0.5248649716377258,-0.7527512311935425,-0.46875],"type":"VEC3"},{"bufferView":20,"componentType":5126,"count":23,"max":[1.7000000476837158],"min":[0],"type":"SCALAR"},{"bufferView":21,"componentType":5126,"count":23,"max":[0.04634370282292366,0,0,1],"min":[-0.1776958853006363,-0.3766293525695801,-0.2481781542301178,0.8746325373649597],"type":"VEC4"},{"bufferView":22,"componentType":5126,"count":26,"max":[1.7000000476837158],"min":[0],"type":"SCALAR"},{"bufferView":23,"componentType":5126,"count":26,"max":[0.021484375,-0.0390625,0.44171297550201416],"min":[-0.578125,-0.8310532569885254,-0.46875],"type":"VEC3"},{"bufferView":24,"componentType":5126,"count":16,"max":[1.649999976158142],"min":[0],"type":"SCALAR"},{"bufferView":25,"componentType":5126,"count":16,"max":[0.23838485777378082,0,0,1],"min":[-0.0272055733948946,0,0,0.9711707830429077],"type":"VEC4"}]}