{"asset":{"version":"2.0","generator":"Blockbench 4.7.0 glTF exporter"},"scenes":[{"nodes":[8],"name":"blockbench_export"}],"scene":0,"nodes":[{"translation":[0.375,-0.6875,0],"name":"RightHand"},{"translation":[-0.375,1,0.125],"name":"R","children":[0]},{"translation":[0,-0.15625,-0.5],"name":"Rockets2"},{"translation":[0,0.3125,0.125],"name":"rpg2","children":[2]},{"name":"bone","children":[1,3]},{"translation":[-0.375,-0.6875,0],"name":"LeftHand"},{"translation":[0.375,1,0.125],"name":"l","children":[5]},{"translation":[0.5,0.1875,0.375],"name":"bone2","children":[4,6]},{"children":[7]}],"animations":[{"name":"draw","samplers":[{"input":0,"output":1,"interpolation":"LINEAR"},{"input":2,"output":3,"interpolation":"LINEAR"},{"input":4,"output":5,"interpolation":"LINEAR"},{"input":6,"output":7,"interpolation":"LINEAR"},{"input":8,"output":9,"interpolation":"LINEAR"},{"input":10,"output":11,"interpolation":"LINEAR"},{"input":12,"output":13,"interpolation":"LINEAR"},{"input":14,"output":15,"interpolation":"LINEAR"}],"channels":[{"sampler":0,"target":{"node":6,"path":"rotation"}},{"sampler":1,"target":{"node":6,"path":"translation"}},{"sampler":2,"target":{"node":6,"path":"scale"}},{"sampler":3,"target":{"node":1,"path":"rotation"}},{"sampler":4,"target":{"node":1,"path":"translation"}},{"sampler":5,"target":{"node":1,"path":"scale"}},{"sampler":6,"target":{"node":7,"path":"rotation"}},{"sampler":7,"target":{"node":7,"path":"translation"}}]}],"bufferViews":[{"buffer":0,"byteOffset":0,"byteLength":28},{"buffer":0,"byteOffset":28,"byteLength":112},{"buffer":0,"byteOffset":140,"byteLength":28},{"buffer":0,"byteOffset":168,"byteLength":84},{"buffer":0,"byteOffset":252,"byteLength":4},{"buffer":0,"byteOffset":256,"byteLength":12},{"buffer":0,"byteOffset":268,"byteLength":8},{"buffer":0,"byteOffset":276,"byteLength":32},{"buffer":0,"byteOffset":308,"byteLength":8},{"buffer":0,"byteOffset":316,"byteLength":24},{"buffer":0,"byteOffset":340,"byteLength":4},{"buffer":0,"byteOffset":344,"byteLength":12},{"buffer":0,"byteOffset":356,"byteLength":76},{"buffer":0,"byteOffset":432,"byteLength":304},{"buffer":0,"byteOffset":736,"byteLength":76},{"buffer":0,"byteOffset":812,"byteLength":228}],"buffers":[{"byteLength":1040,"uri":"data:application/octet-stream;base64,"}],"accessors":[{"bufferView":0,"componentType":5126,"count":7,"max":[0.75],"min":[0],"type":"SCALAR"},{"bufferView":1,"componentType":5126,"count":7,"max":[0.2806624174118042,0.6877760887145996,-0.5246106386184692,0.7010902166366577],"min":[-0.2269035279750824,0.426346093416214,-0.5681032538414001,0.4142642915248871],"type":"VEC4"},{"bufferView":2,"componentType":5126,"count":7,"max":[0.75],"min":[0],"type":"SCALAR"},{"bufferView":3,"componentType":5126,"count":7,"max":[0.05624999850988388,-0.0062500000931322575,0.3125],"min":[-0.14124999940395355,-0.13187499344348907,-0.26875001192092896],"type":"VEC3"},{"bufferView":4,"componentType":5126,"count":1,"max":[0],"min":[0],"type":"SCALAR"},{"bufferView":5,"componentType":5126,"count":1,"max":[1,1.5,1],"min":[1,1.5,1],"type":"VEC3"},{"bufferView":6,"componentType":5126,"count":2,"max":[0.30000001192092896],"min":[0],"type":"SCALAR"},{"bufferView":7,"componentType":5126,"count":2,"max":[-0.1488584578037262,0.7167760133743286,-0.6761544942855835,-0.08294698596000671],"min":[-0.1488606482744217,0.7167574763298035,-0.6761797070503235,-0.0829964354634285],"type":"VEC4"},{"bufferView":8,"componentType":5126,"count":2,"max":[0.30000001192092896],"min":[0],"type":"SCALAR"},{"bufferView":9,"componentType":5126,"count":2,"max":[0.2750000059604645,-0.0625,0.574999988079071],"min":[0.05000000074505806,-0.0625,0],"type":"VEC3"},{"bufferView":10,"componentType":5126,"count":1,"max":[0],"min":[0],"type":"SCALAR"},{"bufferView":11,"componentType":5126,"count":1,"max":[1,1.5,1],"min":[1,1.5,1],"type":"VEC3"},{"bufferView":12,"componentType":5126,"count":19,"max":[1.25],"min":[0],"type":"SCALAR"},{"bufferView":13,"componentType":5126,"count":19,"max":[0.7137708067893982,0.040378324687480927,0.03989998996257782,1],"min":[-0.035003744065761566,-0.04501644894480705,-0.0019949006382375956,0.6996725797653198],"type":"VEC4"},{"bufferView":14,"componentType":5126,"count":19,"max":[1.25],"min":[0],"type":"SCALAR"},{"bufferView":15,"componentType":5126,"count":19,"max":[0.7124999761581421,0.1875,1.59375],"min":[0.4971643388271332,-0.581250011920929,0.375],"type":"VEC3"}]}