{"asset":{"version":"2.0","generator":"Blockbench 4.7.0 glTF exporter"},"scenes":[{"nodes":[8],"name":"blockbench_export"}],"scene":0,"nodes":[{"translation":[0.375,-0.6875,0],"name":"RightHand"},{"translation":[-0.375,1,0.125],"name":"R","children":[0]},{"translation":[0,-0.15625,-0.5],"name":"Rockets2"},{"translation":[0,0.3125,0.125],"name":"rpg2","children":[2]},{"name":"bone","children":[1,3]},{"translation":[-0.375,-0.6875,0],"name":"LeftHand"},{"translation":[0.375,1,0.125],"name":"l","children":[5]},{"translation":[0.5,0.1875,0.375],"name":"bone2","children":[4,6]},{"children":[7]}],"animations":[{"name":"inspect","samplers":[{"input":0,"output":1,"interpolation":"LINEAR"},{"input":2,"output":3,"interpolation":"LINEAR"},{"input":4,"output":5,"interpolation":"LINEAR"},{"input":6,"output":7,"interpolation":"LINEAR"},{"input":8,"output":9,"interpolation":"LINEAR"},{"input":10,"output":11,"interpolation":"LINEAR"},{"input":12,"output":13,"interpolation":"LINEAR"},{"input":14,"output":15,"interpolation":"LINEAR"}],"channels":[{"sampler":0,"target":{"node":6,"path":"rotation"}},{"sampler":1,"target":{"node":6,"path":"translation"}},{"sampler":2,"target":{"node":6,"path":"scale"}},{"sampler":3,"target":{"node":1,"path":"rotation"}},{"sampler":4,"target":{"node":1,"path":"translation"}},{"sampler":5,"target":{"node":1,"path":"scale"}},{"sampler":6,"target":{"node":7,"path":"rotation"}},{"sampler":7,"target":{"node":7,"path":"translation"}}]}],"bufferViews":[{"buffer":0,"byteOffset":0,"byteLength":36},{"buffer":0,"byteOffset":36,"byteLength":144},{"buffer":0,"byteOffset":180,"byteLength":60},{"buffer":0,"byteOffset":240,"byteLength":180},{"buffer":0,"byteOffset":420,"byteLength":4},{"buffer":0,"byteOffset":424,"byteLength":12},{"buffer":0,"byteOffset":436,"byteLength":28},{"buffer":0,"byteOffset":464,"byteLength":112},{"buffer":0,"byteOffset":576,"byteLength":56},{"buffer":0,"byteOffset":632,"byteLength":168},{"buffer":0,"byteOffset":800,"byteLength":4},{"buffer":0,"byteOffset":804,"byteLength":12},{"buffer":0,"byteOffset":816,"byteLength":552},{"buffer":0,"byteOffset":1368,"byteLength":2208},{"buffer":0,"byteOffset":3576,"byteLength":544},{"buffer":0,"byteOffset":4120,"byteLength":1632}],"buffers":[{"byteLength":5752,"uri":"data:application/octet-stream;base64,"}],"accessors":[{"bufferView":0,"componentType":5126,"count":9,"max":[6.900000095367432],"min":[0],"type":"SCALAR"},{"bufferView":1,"componentType":5126,"count":9,"max":[0.4159080982208252,0.6801995635032654,-0.4295748174190521,0.5932697653770447],"min":[-0.39586785435676575,0.42195767164230347,-0.5838435888290405,0.4142642915248871],"type":"VEC4"},{"bufferView":2,"componentType":5126,"count":15,"max":[6.5],"min":[0],"type":"SCALAR"},{"bufferView":3,"componentType":5126,"count":15,"max":[0.05624999850988388,0.0062500000931322575,0.3125],"min":[-0.21250000596046448,-0.078125,-0.26249998807907104],"type":"VEC3"},{"bufferView":4,"componentType":5126,"count":1,"max":[0],"min":[0],"type":"SCALAR"},{"bufferView":5,"componentType":5126,"count":1,"max":[1,1.5,1],"min":[1,1.5,1],"type":"VEC3"},{"bufferView":6,"componentType":5126,"count":7,"max":[5.849999904632568],"min":[0],"type":"SCALAR"},{"bufferView":7,"componentType":5126,"count":7,"max":[0.09691870957612991,0.8166038393974304,-0.5061781406402588,-0.08294698596000671],"min":[-0.1488606482744217,0.43871816992759705,-0.884831964969635,-0.2705145478248596],"type":"VEC4"},{"bufferView":8,"componentType":5126,"count":14,"max":[5.849999904632568],"min":[0],"type":"SCALAR"},{"bufferView":9,"componentType":5126,"count":14,"max":[0.16500000655651093,0.09375,0.13750000298023224],"min":[0.05000000074505806,-0.0625,0],"type":"VEC3"},{"bufferView":10,"componentType":5126,"count":1,"max":[0],"min":[0],"type":"SCALAR"},{"bufferView":11,"componentType":5126,"count":1,"max":[1,1.5,1],"min":[1,1.5,1],"type":"VEC3"},{"bufferView":12,"componentType":5126,"count":138,"max":[7.599999904632568],"min":[0],"type":"SCALAR"},{"bufferView":13,"componentType":5126,"count":138,"max":[0.5994986295700073,0.3502686619758606,0.14906367659568787,1],"min":[-0.06498698145151138,-0.0018245483515784144,-0.3331342041492462,0.7832785248756409],"type":"VEC4"},{"bufferView":14,"componentType":5126,"count":136,"max":[7.599999904632568],"min":[0],"type":"SCALAR"},{"bufferView":15,"componentType":5126,"count":136,"max":[0.5095558166503906,0.2815762758255005,0.38261696696281433],"min":[0.3498867154121399,-0.025624999776482582,0.19840312004089355],"type":"VEC3"}]}