{"asset":{"version":"2.0","generator":"Blockbench 4.7.0 glTF exporter"},"scenes":[{"nodes":[8],"name":"blockbench_export"}],"scene":0,"nodes":[{"translation":[0.375,-0.6875,0],"name":"RightHand"},{"translation":[-0.375,1,0.125],"name":"R","children":[0]},{"translation":[0,-0.15625,-0.5],"name":"Rockets2"},{"translation":[0,0.3125,0.125],"name":"rpg2","children":[2]},{"name":"bone","children":[1,3]},{"translation":[-0.375,-0.6875,0],"name":"LeftHand"},{"translation":[0.375,1,0.125],"name":"l","children":[5]},{"translation":[0.5,0.1875,0.375],"name":"bone2","children":[4,6]},{"children":[7]}],"animations":[{"name":"reload","samplers":[{"input":0,"output":1,"interpolation":"LINEAR"},{"input":2,"output":3,"interpolation":"LINEAR"},{"input":4,"output":5,"interpolation":"LINEAR"},{"input":6,"output":7,"interpolation":"LINEAR"},{"input":8,"output":9,"interpolation":"LINEAR"},{"input":10,"output":11,"interpolation":"LINEAR"},{"input":12,"output":13,"interpolation":"LINEAR"},{"input":14,"output":15,"interpolation":"LINEAR"},{"input":16,"output":17,"interpolation":"LINEAR"},{"input":18,"output":19,"interpolation":"LINEAR"}],"channels":[{"sampler":0,"target":{"node":6,"path":"rotation"}},{"sampler":1,"target":{"node":6,"path":"translation"}},{"sampler":2,"target":{"node":6,"path":"scale"}},{"sampler":3,"target":{"node":1,"path":"rotation"}},{"sampler":4,"target":{"node":1,"path":"translation"}},{"sampler":5,"target":{"node":1,"path":"scale"}},{"sampler":6,"target":{"node":7,"path":"rotation"}},{"sampler":7,"target":{"node":7,"path":"translation"}},{"sampler":8,"target":{"node":2,"path":"rotation"}},{"sampler":9,"target":{"node":2,"path":"translation"}}]}],"bufferViews":[{"buffer":0,"byteOffset":0,"byteLength":172},{"buffer":0,"byteOffset":172,"byteLength":688},{"buffer":0,"byteOffset":860,"byteLength":184},{"buffer":0,"byteOffset":1044,"byteLength":552},{"buffer":0,"byteOffset":1596,"byteLength":4},{"buffer":0,"byteOffset":1600,"byteLength":12},{"buffer":0,"byteOffset":1612,"byteLength":20},{"buffer":0,"byteOffset":1632,"byteLength":80},{"buffer":0,"byteOffset":1712,"byteLength":20},{"buffer":0,"byteOffset":1732,"byteLength":60},{"buffer":0,"byteOffset":1792,"byteLength":4},{"buffer":0,"byteOffset":1796,"byteLength":12},{"buffer":0,"byteOffset":1808,"byteLength":248},{"buffer":0,"byteOffset":2056,"byteLength":992},{"buffer":0,"byteOffset":3048,"byteLength":260},{"buffer":0,"byteOffset":3308,"byteLength":780},{"buffer":0,"byteOffset":4088,"byteLength":128},{"buffer":0,"byteOffset":4216,"byteLength":512},{"buffer":0,"byteOffset":4728,"byteLength":144},{"buffer":0,"byteOffset":4872,"byteLength":432}],"buffers":[{"byteLength":5304,"uri":"data:application/octet-stream;base64,"}],"accessors":[{"bufferView":0,"componentType":5126,"count":43,"max":[3.1500000953674316],"min":[0],"type":"SCALAR"},{"bufferView":1,"componentType":5126,"count":43,"max":[0.7270469665527344,0.8357455730438232,0.0623038075864315,0.8133066892623901],"min":[-0.30429545044898987,0.27115991711616516,-0.6443042159080505,-0.21062666177749634],"type":"VEC4"},{"bufferView":2,"componentType":5126,"count":46,"max":[3.1500000953674316],"min":[0],"type":"SCALAR"},{"bufferView":3,"componentType":5126,"count":46,"max":[0.05624999850988388,0.49730709195137024,1.1566975116729736],"min":[-1.0964672565460205,-0.2621312439441681,-1.0981249809265137],"type":"VEC3"},{"bufferView":4,"componentType":5126,"count":1,"max":[0],"min":[0],"type":"SCALAR"},{"bufferView":5,"componentType":5126,"count":1,"max":[1,1.5,1],"min":[1,1.5,1],"type":"VEC3"},{"bufferView":6,"componentType":5126,"count":5,"max":[3.4000000953674316],"min":[0],"type":"SCALAR"},{"bufferView":7,"componentType":5126,"count":5,"max":[-0.07803507894277573,0.7290781736373901,-0.6622680425643921,-0.08294698596000671],"min":[-0.1488606482744217,0.7167574763298035,-0.6761797070503235,-0.15413154661655426],"type":"VEC4"},{"bufferView":8,"componentType":5126,"count":5,"max":[3.4000000953674316],"min":[0],"type":"SCALAR"},{"bufferView":9,"componentType":5126,"count":5,"max":[0.06171000003814697,-0.05079999938607216,0.044187501072883606],"min":[0.05000000074505806,-0.0625,0],"type":"VEC3"},{"bufferView":10,"componentType":5126,"count":1,"max":[0],"min":[0],"type":"SCALAR"},{"bufferView":11,"componentType":5126,"count":1,"max":[1,1.5,1],"min":[1,1.5,1],"type":"VEC3"},{"bufferView":12,"componentType":5126,"count":62,"max":[4.050000190734863],"min":[0],"type":"SCALAR"},{"bufferView":13,"componentType":5126,"count":62,"max":[0.38675612211227417,0.27720674872398376,0.050102729350328445,1],"min":[-0.04333025589585304,-0.007098435424268246,-0.12388645857572556,0.8723495602607727],"type":"VEC4"},{"bufferView":14,"componentType":5126,"count":65,"max":[4.050000190734863],"min":[0],"type":"SCALAR"},{"bufferView":15,"componentType":5126,"count":65,"max":[0.518750011920929,0.2068749964237213,0.479807585477829],"min":[0.44163572788238525,-0.14218750596046448,0.31837403774261475],"type":"VEC3"},{"bufferView":16,"componentType":5126,"count":32,"max":[2.5],"min":[0],"type":"SCALAR"},{"bufferView":17,"componentType":5126,"count":32,"max":[0.2597724199295044,0.012525128200650215,0,1],"min":[-0.0908190906047821,-0.3138834238052368,-0.4738405644893646,0.8490995764732361],"type":"VEC4"},{"bufferView":18,"componentType":5126,"count":36,"max":[2.5],"min":[0],"type":"SCALAR"},{"bufferView":19,"componentType":5126,"count":36,"max":[0.13394813239574432,0.47362378239631653,2.2290844917297363],"min":[-1.155918836593628,-0.6358031034469604,-1.8214073181152344],"type":"VEC3"}]}