{"asset":{"version":"2.0","generator":"Blockbench 4.2.4 glTF exporter"},"scenes":[{"nodes":[10],"name":"blockbench_export"}],"scene":0,"nodes":[{"translation":[-0.5,-0.5,-0.5],"name":"bolt"},{"translation":[0,-0.03749999999999998,-0.7124999999999999],"name":"rpk_bolt","children":[0]},{"translation":[0,-0.2875,-0.3999999999999999],"name":"rpk_standard_mag"},{"translation":[0,0.1875,0],"name":"rpk","children":[1,2]},{"translation":[-0.375,-0.6875,0],"name":"LeftHand"},{"translation":[0.375,0.65,-0.7124999999999999],"name":"l","children":[4]},{"name":"bone","children":[3,5]},{"translation":[0.375,-0.6875,0],"name":"RightHand"},{"translation":[-0.375,0.65,-0.7124999999999999],"name":"R","children":[7]},{"translation":[0.5,0.5375,1.2125],"name":"bone2","children":[6,8]},{"children":[9]}],"animations":[{"name":"reload_norm","samplers":[{"input":0,"output":1,"interpolation":"LINEAR"},{"input":2,"output":3,"interpolation":"LINEAR"},{"input":4,"output":5,"interpolation":"LINEAR"},{"input":6,"output":7,"interpolation":"LINEAR"},{"input":8,"output":9,"interpolation":"LINEAR"},{"input":10,"output":11,"interpolation":"LINEAR"},{"input":12,"output":13,"interpolation":"LINEAR"},{"input":14,"output":15,"interpolation":"LINEAR"},{"input":16,"output":17,"interpolation":"LINEAR"},{"input":18,"output":19,"interpolation":"LINEAR"},{"input":20,"output":21,"interpolation":"LINEAR"}],"channels":[{"sampler":0,"target":{"node":9,"path":"rotation"}},{"sampler":1,"target":{"node":9,"path":"translation"}},{"sampler":2,"target":{"node":9,"path":"scale"}},{"sampler":3,"target":{"node":5,"path":"rotation"}},{"sampler":4,"target":{"node":5,"path":"translation"}},{"sampler":5,"target":{"node":5,"path":"scale"}},{"sampler":6,"target":{"node":8,"path":"rotation"}},{"sampler":7,"target":{"node":8,"path":"translation"}},{"sampler":8,"target":{"node":8,"path":"scale"}},{"sampler":9,"target":{"node":2,"path":"rotation"}},{"sampler":10,"target":{"node":2,"path":"translation"}}]}],"bufferViews":[{"buffer":0,"byteOffset":0,"byteLength":220},{"buffer":0,"byteOffset":220,"byteLength":880},{"buffer":0,"byteOffset":1100,"byteLength":220},{"buffer":0,"byteOffset":1320,"byteLength":660},{"buffer":0,"byteOffset":1980,"byteLength":8},{"buffer":0,"byteOffset":1988,"byteLength":24},{"buffer":0,"byteOffset":2012,"byteLength":164},{"buffer":0,"byteOffset":2176,"byteLength":656},{"buffer":0,"byteOffset":2832,"byteLength":192},{"buffer":0,"byteOffset":3024,"byteLength":576},{"buffer":0,"byteOffset":3600,"byteLength":4},{"buffer":0,"byteOffset":3604,"byteLength":12},{"buffer":0,"byteOffset":3616,"byteLength":4},{"buffer":0,"byteOffset":3620,"byteLength":16},{"buffer":0,"byteOffset":3636,"byteLength":4},{"buffer":0,"byteOffset":3640,"byteLength":12},{"buffer":0,"byteOffset":3652,"byteLength":4},{"buffer":0,"byteOffset":3656,"byteLength":12},{"buffer":0,"byteOffset":3668,"byteLength":136},{"buffer":0,"byteOffset":3804,"byteLength":544},{"buffer":0,"byteOffset":4348,"byteLength":136},{"buffer":0,"byteOffset":4484,"byteLength":408}],"buffers":[{"byteLength":4892,"uri":"data:application/octet-stream;base64,"}],"accessors":[{"bufferView":0,"componentType":5126,"count":55,"max":[3.549999952316284],"min":[0],"type":"SCALAR"},{"bufferView":1,"componentType":5126,"count":55,"max":[0.10022975504398346,0.025476615875959396,0.00349062355235219,1],"min":[0,-0.003476242534816265,-0.18684490025043488,0.9771345257759094],"type":"VEC4"},{"bufferView":2,"componentType":5126,"count":55,"max":[3.5999999046325684],"min":[0],"type":"SCALAR"},{"bufferView":3,"componentType":5126,"count":55,"max":[0.5071874856948853,0.5375000238418579,1.3010159730911255],"min":[0.4825925827026367,0.47968751192092896,1.154687523841858],"type":"VEC3"},{"bufferView":4,"componentType":5126,"count":2,"max":[3.3499999046325684],"min":[0],"type":"SCALAR"},{"bufferView":5,"componentType":5126,"count":2,"max":[1,1,1],"min":[1,1,1],"type":"VEC3"},{"bufferView":6,"componentType":5126,"count":41,"max":[3.200000047683716],"min":[0],"type":"SCALAR"},{"bufferView":7,"componentType":5126,"count":41,"max":[0.15564626455307007,-0.6694468855857849,0.6312257051467896,0.35711318254470825],"min":[-0.514081597328186,-0.9756507277488708,0.1398935467004776,-0.5226772427558899],"type":"VEC4"},{"bufferView":8,"componentType":5126,"count":48,"max":[3.4000000953674316],"min":[0],"type":"SCALAR"},{"bufferView":9,"componentType":5126,"count":48,"max":[-0.03500000014901161,0.05509379506111145,-0.028750000521540642],"min":[-0.5971875190734863,-1.0731250047683716,-0.9046875238418579],"type":"VEC3"},{"bufferView":10,"componentType":5126,"count":1,"max":[0],"min":[0],"type":"SCALAR"},{"bufferView":11,"componentType":5126,"count":1,"max":[1,1.5,1],"min":[1,1.5,1],"type":"VEC3"},{"bufferView":12,"componentType":5126,"count":1,"max":[0],"min":[0],"type":"SCALAR"},{"bufferView":13,"componentType":5126,"count":1,"max":[-4.441636958098618e-17,0.7253744006156921,-0.6883545517921448,4.214956052162341e-17],"min":[-4.441636958098618e-17,0.7253744006156921,-0.6883545517921448,4.214956052162341e-17],"type":"VEC4"},{"bufferView":14,"componentType":5126,"count":1,"max":[0],"min":[0],"type":"SCALAR"},{"bufferView":15,"componentType":5126,"count":1,"max":[0.012500000186264515,-0.05000000074505806,-0.02500000037252903],"min":[0.012500000186264515,-0.05000000074505806,-0.02500000037252903],"type":"VEC3"},{"bufferView":16,"componentType":5126,"count":1,"max":[0],"min":[0],"type":"SCALAR"},{"bufferView":17,"componentType":5126,"count":1,"max":[1,1.5,1],"min":[1,1.5,1],"type":"VEC3"},{"bufferView":18,"componentType":5126,"count":34,"max":[2.700000047683716],"min":[0],"type":"SCALAR"},{"bufferView":19,"componentType":5126,"count":34,"max":[0.36176198720932007,0.1521490216255188,0,1],"min":[-0.04879153147339821,-0.25532266497612,-0.5322310924530029,0.7896515130996704],"type":"VEC4"},{"bufferView":20,"componentType":5126,"count":34,"max":[2.700000047683716],"min":[0],"type":"SCALAR"},{"bufferView":21,"componentType":5126,"count":34,"max":[0,-0.2874999940395355,0.017500000074505806],"min":[-0.5621874928474426,-1.243749976158142,-0.53125],"type":"VEC3"}]}