{"asset":{"version":"2.0","generator":"Blockbench 4.7.0 glTF exporter"},"scenes":[{"nodes":[12],"name":"blockbench_export"}],"scene":0,"nodes":[{"name":"de54801b-3e1f-64d6-b3f3-7ac1562deef1"},{"translation":[-0.010756874999999999,0.13220187499999997,-0.46418812499999995],"name":"2nd_pull_handle"},{"translation":[0.05260187500000002,0.34498750000000006,0.1526050000000001],"name":"pull_handle"},{"translation":[-0.0057812500000000155,-0.092839375,-0.54453125],"name":"bolt"},{"translation":[0,-0.31667375,-0.43517375],"name":"magazine"},{"name":"sig_mcx_spear","children":[1,2,3,4]},{"translation":[0.375,-0.6875,0],"name":"RightHand"},{"translation":[-0.375,0.7625,-0.5625],"name":"R","children":[6]},{"name":"bone","children":[5,7]},{"translation":[-0.375,-0.6875,0],"name":"LeftHand"},{"translation":[0.375,0.7625,-0.5625],"name":"l","children":[9]},{"translation":[0.5,0.425,1.0625],"name":"bone2","children":[8,10]},{"children":[0,11]}],"animations":[{"name":"draw","samplers":[{"input":0,"output":1,"interpolation":"LINEAR"},{"input":2,"output":3,"interpolation":"LINEAR"},{"input":4,"output":5,"interpolation":"LINEAR"},{"input":6,"output":7,"interpolation":"LINEAR"},{"input":8,"output":9,"interpolation":"LINEAR"},{"input":10,"output":11,"interpolation":"LINEAR"},{"input":12,"output":13,"interpolation":"LINEAR"},{"input":14,"output":15,"interpolation":"LINEAR"}],"channels":[{"sampler":0,"target":{"node":11,"path":"rotation"}},{"sampler":1,"target":{"node":11,"path":"translation"}},{"sampler":2,"target":{"node":7,"path":"rotation"}},{"sampler":3,"target":{"node":7,"path":"translation"}},{"sampler":4,"target":{"node":7,"path":"scale"}},{"sampler":5,"target":{"node":10,"path":"rotation"}},{"sampler":6,"target":{"node":10,"path":"translation"}},{"sampler":7,"target":{"node":10,"path":"scale"}}]}],"bufferViews":[{"buffer":0,"byteOffset":0,"byteLength":52},{"buffer":0,"byteOffset":52,"byteLength":208},{"buffer":0,"byteOffset":260,"byteLength":56},{"buffer":0,"byteOffset":316,"byteLength":168},{"buffer":0,"byteOffset":484,"byteLength":4},{"buffer":0,"byteOffset":488,"byteLength":16},{"buffer":0,"byteOffset":504,"byteLength":4},{"buffer":0,"byteOffset":508,"byteLength":12},{"buffer":0,"byteOffset":520,"byteLength":4},{"buffer":0,"byteOffset":524,"byteLength":12},{"buffer":0,"byteOffset":536,"byteLength":4},{"buffer":0,"byteOffset":540,"byteLength":16},{"buffer":0,"byteOffset":556,"byteLength":4},{"buffer":0,"byteOffset":560,"byteLength":12},{"buffer":0,"byteOffset":572,"byteLength":4},{"buffer":0,"byteOffset":576,"byteLength":12}],"buffers":[{"byteLength":588,"uri":"data:application/octet-stream;base64,"}],"accessors":[{"bufferView":0,"componentType":5126,"count":13,"max":[0.7599999904632568],"min":[0],"type":"SCALAR"},{"bufferView":1,"componentType":5126,"count":13,"max":[0.00016261081327684224,0.3766167461872101,0.3941556215286255,1],"min":[-0.14940835535526276,-0.0006095947464928031,-0.010907676070928574,0.8249111175537109],"type":"VEC4"},{"bufferView":2,"componentType":5126,"count":14,"max":[0.7200000286102295],"min":[0],"type":"SCALAR"},{"bufferView":3,"componentType":5126,"count":14,"max":[0.5393750071525574,0.4333485960960388,1.0662356615066528],"min":[0.49687498807907104,-0.20812499523162842,0.8812500238418579],"type":"VEC3"},{"bufferView":4,"componentType":5126,"count":1,"max":[0],"min":[0],"type":"SCALAR"},{"bufferView":5,"componentType":5126,"count":1,"max":[-4.51452149623189e-17,-0.7372773289680481,0.6755902171134949,4.1367970795711857e-17],"min":[-4.51452149623189e-17,-0.7372773289680481,0.6755902171134949,4.1367970795711857e-17],"type":"VEC4"},{"bufferView":6,"componentType":5126,"count":1,"max":[0],"min":[0],"type":"SCALAR"},{"bufferView":7,"componentType":5126,"count":1,"max":[0.02500000037252903,-0.11874999850988388,0],"min":[0.02500000037252903,-0.11874999850988388,0],"type":"VEC3"},{"bufferView":8,"componentType":5126,"count":1,"max":[0],"min":[0],"type":"SCALAR"},{"bufferView":9,"componentType":5126,"count":1,"max":[1,1.5,1],"min":[1,1.5,1],"type":"VEC3"},{"bufferView":10,"componentType":5126,"count":1,"max":[0],"min":[0],"type":"SCALAR"},{"bufferView":11,"componentType":5126,"count":1,"max":[-0.1370624601840973,0.676522433757782,-0.5470348596572876,0.4735864996910095],"min":[-0.1370624601840973,0.676522433757782,-0.5470348596572876,0.4735864996910095],"type":"VEC4"},{"bufferView":12,"componentType":5126,"count":1,"max":[0],"min":[0],"type":"SCALAR"},{"bufferView":13,"componentType":5126,"count":1,"max":[-0.09375,0.11249999701976776,-0.7875000238418579],"min":[-0.09375,0.11249999701976776,-0.7875000238418579],"type":"VEC3"},{"bufferView":14,"componentType":5126,"count":1,"max":[0],"min":[0],"type":"SCALAR"},{"bufferView":15,"componentType":5126,"count":1,"max":[1,1.5,1],"min":[1,1.5,1],"type":"VEC3"}]}