{"asset":{"version":"2.0","generator":"Blockbench 4.7.0 glTF exporter"},"scenes":[{"nodes":[12],"name":"blockbench_export"}],"scene":0,"nodes":[{"name":"de54801b-3e1f-64d6-b3f3-7ac1562deef1"},{"translation":[-0.010756874999999999,0.13220187499999997,-0.46418812499999995],"name":"2nd_pull_handle"},{"translation":[0.05260187500000002,0.34498750000000006,0.1526050000000001],"name":"pull_handle"},{"translation":[-0.0057812500000000155,-0.092839375,-0.54453125],"name":"bolt"},{"translation":[0,-0.31667375,-0.43517375],"name":"magazine"},{"name":"sig_mcx_spear","children":[1,2,3,4]},{"translation":[0.375,-0.6875,0],"name":"RightHand"},{"translation":[-0.375,0.7625,-0.5625],"name":"R","children":[6]},{"name":"bone","children":[5,7]},{"translation":[-0.375,-0.6875,0],"name":"LeftHand"},{"translation":[0.375,0.7625,-0.5625],"name":"l","children":[9]},{"translation":[0.5,0.425,1.0625],"name":"bone2","children":[8,10]},{"children":[0,11]}],"animations":[{"name":"reload_empty","samplers":[{"input":0,"output":1,"interpolation":"LINEAR"},{"input":2,"output":3,"interpolation":"LINEAR"},{"input":4,"output":5,"interpolation":"LINEAR"},{"input":6,"output":7,"interpolation":"LINEAR"},{"input":8,"output":9,"interpolation":"LINEAR"},{"input":10,"output":11,"interpolation":"LINEAR"},{"input":12,"output":13,"interpolation":"LINEAR"},{"input":14,"output":15,"interpolation":"LINEAR"},{"input":16,"output":17,"interpolation":"LINEAR"},{"input":18,"output":19,"interpolation":"LINEAR"},{"input":20,"output":21,"interpolation":"LINEAR"}],"channels":[{"sampler":0,"target":{"node":11,"path":"rotation"}},{"sampler":1,"target":{"node":11,"path":"translation"}},{"sampler":2,"target":{"node":4,"path":"rotation"}},{"sampler":3,"target":{"node":4,"path":"translation"}},{"sampler":4,"target":{"node":7,"path":"rotation"}},{"sampler":5,"target":{"node":7,"path":"translation"}},{"sampler":6,"target":{"node":7,"path":"scale"}},{"sampler":7,"target":{"node":10,"path":"rotation"}},{"sampler":8,"target":{"node":10,"path":"translation"}},{"sampler":9,"target":{"node":10,"path":"scale"}},{"sampler":10,"target":{"node":3,"path":"translation"}}]}],"bufferViews":[{"buffer":0,"byteOffset":0,"byteLength":224},{"buffer":0,"byteOffset":224,"byteLength":896},{"buffer":0,"byteOffset":1120,"byteLength":216},{"buffer":0,"byteOffset":1336,"byteLength":648},{"buffer":0,"byteOffset":1984,"byteLength":96},{"buffer":0,"byteOffset":2080,"byteLength":384},{"buffer":0,"byteOffset":2464,"byteLength":104},{"buffer":0,"byteOffset":2568,"byteLength":312},{"buffer":0,"byteOffset":2880,"byteLength":4},{"buffer":0,"byteOffset":2884,"byteLength":16},{"buffer":0,"byteOffset":2900,"byteLength":4},{"buffer":0,"byteOffset":2904,"byteLength":12},{"buffer":0,"byteOffset":2916,"byteLength":4},{"buffer":0,"byteOffset":2920,"byteLength":12},{"buffer":0,"byteOffset":2932,"byteLength":160},{"buffer":0,"byteOffset":3092,"byteLength":640},{"buffer":0,"byteOffset":3732,"byteLength":168},{"buffer":0,"byteOffset":3900,"byteLength":504},{"buffer":0,"byteOffset":4404,"byteLength":4},{"buffer":0,"byteOffset":4408,"byteLength":12},{"buffer":0,"byteOffset":4420,"byteLength":12},{"buffer":0,"byteOffset":4432,"byteLength":36}],"buffers":[{"byteLength":4468,"uri":"data:application/octet-stream;base64,"}],"accessors":[{"bufferView":0,"componentType":5126,"count":56,"max":[3.559999942779541],"min":[0],"type":"SCALAR"},{"bufferView":1,"componentType":5126,"count":56,"max":[0.0992131382226944,0.04591784253716469,0.45922642946243286,1],"min":[-0.0009531234973110259,-0.031744666397571564,-0.31804054975509644,0.8827299475669861],"type":"VEC4"},{"bufferView":2,"componentType":5126,"count":54,"max":[3.5199999809265137],"min":[0],"type":"SCALAR"},{"bufferView":3,"componentType":5126,"count":54,"max":[0.5140625238418579,0.4937500059604645,1.0741604566574097],"min":[0.4211549460887909,0.3243750035762787,0.875],"type":"VEC3"},{"bufferView":4,"componentType":5126,"count":24,"max":[1.8799999952316284],"min":[0],"type":"SCALAR"},{"bufferView":5,"componentType":5126,"count":24,"max":[0.26400095224380493,0.06408493965864182,0.04361938685178757,1],"min":[-0.02736019715666771,-0.14081916213035583,-0.2039162665605545,0.9518744945526123],"type":"VEC4"},{"bufferView":6,"componentType":5126,"count":26,"max":[1.8799999952316284],"min":[0],"type":"SCALAR"},{"bufferView":7,"componentType":5126,"count":26,"max":[0.0012499999720603228,-0.31667375564575195,-0.22954875230789185],"min":[-0.6612499952316284,-1.3347986936569214,-0.5864031314849854],"type":"VEC3"},{"bufferView":8,"componentType":5126,"count":1,"max":[0],"min":[0],"type":"SCALAR"},{"bufferView":9,"componentType":5126,"count":1,"max":[-4.51452149623189e-17,-0.7372773289680481,0.6755902171134949,4.1367970795711857e-17],"min":[-4.51452149623189e-17,-0.7372773289680481,0.6755902171134949,4.1367970795711857e-17],"type":"VEC4"},{"bufferView":10,"componentType":5126,"count":1,"max":[0],"min":[0],"type":"SCALAR"},{"bufferView":11,"componentType":5126,"count":1,"max":[0.02500000037252903,-0.11874999850988388,0],"min":[0.02500000037252903,-0.11874999850988388,0],"type":"VEC3"},{"bufferView":12,"componentType":5126,"count":1,"max":[0],"min":[0],"type":"SCALAR"},{"bufferView":13,"componentType":5126,"count":1,"max":[1,1.5,1],"min":[1,1.5,1],"type":"VEC3"},{"bufferView":14,"componentType":5126,"count":40,"max":[3.1600000858306885],"min":[0.03999999910593033],"type":"SCALAR"},{"bufferView":15,"componentType":5126,"count":40,"max":[0.4315720200538635,0.9071626663208008,-0.40371787548065186,0.4735864996910095],"min":[-0.1370624601840973,0.3930608332157135,-0.806336522102356,-0.19315262138843536],"type":"VEC4"},{"bufferView":16,"componentType":5126,"count":42,"max":[3.1600000858306885],"min":[0],"type":"SCALAR"},{"bufferView":17,"componentType":5126,"count":42,"max":[-0.010625000111758709,0.11249999701976776,0.23992577195167542],"min":[-0.8249003887176514,-1.3025453090667725,-0.7875000238418579],"type":"VEC3"},{"bufferView":18,"componentType":5126,"count":1,"max":[0],"min":[0],"type":"SCALAR"},{"bufferView":19,"componentType":5126,"count":1,"max":[1,1.5,1],"min":[1,1.5,1],"type":"VEC3"},{"bufferView":20,"componentType":5126,"count":3,"max":[2.559999942779541],"min":[0],"type":"SCALAR"},{"bufferView":21,"componentType":5126,"count":3,"max":[-0.005781250074505806,-0.09283937513828278,-0.2945312559604645],"min":[-0.005781250074505806,-0.09283937513828278,-0.5445312261581421],"type":"VEC3"}]}