{"asset":{"version":"2.0","generator":"Blockbench 4.7.0 glTF exporter"},"scenes":[{"nodes":[12],"name":"blockbench_export"}],"scene":0,"nodes":[{"name":"de54801b-3e1f-64d6-b3f3-7ac1562deef1"},{"translation":[-0.010756874999999999,0.13220187499999997,-0.46418812499999995],"name":"2nd_pull_handle"},{"translation":[0.05260187500000002,0.34498750000000006,0.1526050000000001],"name":"pull_handle"},{"translation":[-0.0057812500000000155,-0.092839375,-0.54453125],"name":"bolt"},{"translation":[0,-0.31667375,-0.43517375],"name":"magazine"},{"name":"sig_mcx_spear","children":[1,2,3,4]},{"translation":[0.375,-0.6875,0],"name":"RightHand"},{"translation":[-0.375,0.7625,-0.5625],"name":"R","children":[6]},{"name":"bone","children":[5,7]},{"translation":[-0.375,-0.6875,0],"name":"LeftHand"},{"translation":[0.375,0.7625,-0.5625],"name":"l","children":[9]},{"translation":[0.5,0.425,1.0625],"name":"bone2","children":[8,10]},{"children":[0,11]}],"animations":[{"name":"inspect","samplers":[{"input":0,"output":1,"interpolation":"LINEAR"},{"input":2,"output":3,"interpolation":"LINEAR"},{"input":4,"output":5,"interpolation":"LINEAR"},{"input":6,"output":7,"interpolation":"LINEAR"},{"input":8,"output":9,"interpolation":"LINEAR"},{"input":10,"output":11,"interpolation":"LINEAR"},{"input":12,"output":13,"interpolation":"LINEAR"},{"input":14,"output":15,"interpolation":"LINEAR"}],"channels":[{"sampler":0,"target":{"node":11,"path":"rotation"}},{"sampler":1,"target":{"node":11,"path":"translation"}},{"sampler":2,"target":{"node":7,"path":"rotation"}},{"sampler":3,"target":{"node":7,"path":"translation"}},{"sampler":4,"target":{"node":7,"path":"scale"}},{"sampler":5,"target":{"node":10,"path":"rotation"}},{"sampler":6,"target":{"node":10,"path":"translation"}},{"sampler":7,"target":{"node":10,"path":"scale"}}]}],"bufferViews":[{"buffer":0,"byteOffset":0,"byteLength":344},{"buffer":0,"byteOffset":344,"byteLength":1376},{"buffer":0,"byteOffset":1720,"byteLength":352},{"buffer":0,"byteOffset":2072,"byteLength":1056},{"buffer":0,"byteOffset":3128,"byteLength":4},{"buffer":0,"byteOffset":3132,"byteLength":16},{"buffer":0,"byteOffset":3148,"byteLength":4},{"buffer":0,"byteOffset":3152,"byteLength":12},{"buffer":0,"byteOffset":3164,"byteLength":4},{"buffer":0,"byteOffset":3168,"byteLength":12},{"buffer":0,"byteOffset":3180,"byteLength":220},{"buffer":0,"byteOffset":3400,"byteLength":880},{"buffer":0,"byteOffset":4280,"byteLength":212},{"buffer":0,"byteOffset":4492,"byteLength":636},{"buffer":0,"byteOffset":5128,"byteLength":4},{"buffer":0,"byteOffset":5132,"byteLength":12}],"buffers":[{"byteLength":5144,"uri":"data:application/octet-stream;base64,"}],"accessors":[{"bufferView":0,"componentType":5126,"count":86,"max":[5.480000019073486],"min":[0],"type":"SCALAR"},{"bufferView":1,"componentType":5126,"count":86,"max":[0.19483007490634918,0.13831575214862823,0.5420637726783752,1],"min":[-0.01341529656201601,-0.0031979603227227926,-0.4372584819793701,0.8188781142234802],"type":"VEC4"},{"bufferView":2,"componentType":5126,"count":88,"max":[5.480000019073486],"min":[0],"type":"SCALAR"},{"bufferView":3,"componentType":5126,"count":88,"max":[0.5006250143051147,0.4831250011920929,1.087539553642273],"min":[0.404744416475296,0.36540091037750244,0.9987499713897705],"type":"VEC3"},{"bufferView":4,"componentType":5126,"count":1,"max":[0],"min":[0],"type":"SCALAR"},{"bufferView":5,"componentType":5126,"count":1,"max":[-4.51452149623189e-17,-0.7372773289680481,0.6755902171134949,4.1367970795711857e-17],"min":[-4.51452149623189e-17,-0.7372773289680481,0.6755902171134949,4.1367970795711857e-17],"type":"VEC4"},{"bufferView":6,"componentType":5126,"count":1,"max":[0],"min":[0],"type":"SCALAR"},{"bufferView":7,"componentType":5126,"count":1,"max":[0.02500000037252903,-0.11874999850988388,0],"min":[0.02500000037252903,-0.11874999850988388,0],"type":"VEC3"},{"bufferView":8,"componentType":5126,"count":1,"max":[0],"min":[0],"type":"SCALAR"},{"bufferView":9,"componentType":5126,"count":1,"max":[1,1.5,1],"min":[1,1.5,1],"type":"VEC3"},{"bufferView":10,"componentType":5126,"count":55,"max":[5.039999961853027],"min":[0],"type":"SCALAR"},{"bufferView":11,"componentType":5126,"count":55,"max":[0.17964507639408112,0.7419766187667847,-0.547026515007019,0.4736233949661255],"min":[-0.1370300054550171,0.634635329246521,-0.7036857604980469,0.05777238681912422],"type":"VEC4"},{"bufferView":12,"componentType":5126,"count":53,"max":[5.039999961853027],"min":[0],"type":"SCALAR"},{"bufferView":13,"componentType":5126,"count":53,"max":[0.1565180867910385,0.11249999701976776,0.14153693616390228],"min":[-0.23820437490940094,-1.0017181634902954,-0.7875000238418579],"type":"VEC3"},{"bufferView":14,"componentType":5126,"count":1,"max":[0],"min":[0],"type":"SCALAR"},{"bufferView":15,"componentType":5126,"count":1,"max":[1,1.5,1],"min":[1,1.5,1],"type":"VEC3"}]}