{"asset":{"version":"2.0","generator":"Blockbench 4.7.0 glTF exporter"},"scenes":[{"nodes":[12],"name":"blockbench_export"}],"scene":0,"nodes":[{"name":"de54801b-3e1f-64d6-b3f3-7ac1562deef1"},{"translation":[-0.010756874999999999,0.13220187499999997,-0.46418812499999995],"name":"2nd_pull_handle"},{"translation":[0.05260187500000002,0.34498750000000006,0.1526050000000001],"name":"pull_handle"},{"translation":[-0.0057812500000000155,-0.092839375,-0.54453125],"name":"bolt"},{"translation":[0,-0.31667375,-0.43517375],"name":"magazine"},{"name":"sig_mcx_spear","children":[1,2,3,4]},{"translation":[0.375,-0.6875,0],"name":"RightHand"},{"translation":[-0.375,0.7625,-0.5625],"name":"R","children":[6]},{"name":"bone","children":[5,7]},{"translation":[-0.375,-0.6875,0],"name":"LeftHand"},{"translation":[0.375,0.7625,-0.5625],"name":"l","children":[9]},{"translation":[0.5,0.425,1.0625],"name":"bone2","children":[8,10]},{"children":[0,11]}],"animations":[{"name":"reload_norm","samplers":[{"input":0,"output":1,"interpolation":"LINEAR"},{"input":2,"output":3,"interpolation":"LINEAR"},{"input":4,"output":5,"interpolation":"LINEAR"},{"input":6,"output":7,"interpolation":"LINEAR"},{"input":8,"output":9,"interpolation":"LINEAR"},{"input":10,"output":11,"interpolation":"LINEAR"},{"input":12,"output":13,"interpolation":"LINEAR"},{"input":14,"output":15,"interpolation":"LINEAR"},{"input":16,"output":17,"interpolation":"LINEAR"},{"input":18,"output":19,"interpolation":"LINEAR"}],"channels":[{"sampler":0,"target":{"node":11,"path":"rotation"}},{"sampler":1,"target":{"node":11,"path":"translation"}},{"sampler":2,"target":{"node":4,"path":"rotation"}},{"sampler":3,"target":{"node":4,"path":"translation"}},{"sampler":4,"target":{"node":7,"path":"rotation"}},{"sampler":5,"target":{"node":7,"path":"translation"}},{"sampler":6,"target":{"node":7,"path":"scale"}},{"sampler":7,"target":{"node":10,"path":"rotation"}},{"sampler":8,"target":{"node":10,"path":"translation"}},{"sampler":9,"target":{"node":10,"path":"scale"}}]}],"bufferViews":[{"buffer":0,"byteOffset":0,"byteLength":168},{"buffer":0,"byteOffset":168,"byteLength":672},{"buffer":0,"byteOffset":840,"byteLength":180},{"buffer":0,"byteOffset":1020,"byteLength":540},{"buffer":0,"byteOffset":1560,"byteLength":44},{"buffer":0,"byteOffset":1604,"byteLength":176},{"buffer":0,"byteOffset":1780,"byteLength":52},{"buffer":0,"byteOffset":1832,"byteLength":156},{"buffer":0,"byteOffset":1988,"byteLength":24},{"buffer":0,"byteOffset":2012,"byteLength":96},{"buffer":0,"byteOffset":2108,"byteLength":20},{"buffer":0,"byteOffset":2128,"byteLength":60},{"buffer":0,"byteOffset":2188,"byteLength":8},{"buffer":0,"byteOffset":2196,"byteLength":24},{"buffer":0,"byteOffset":2220,"byteLength":132},{"buffer":0,"byteOffset":2352,"byteLength":528},{"buffer":0,"byteOffset":2880,"byteLength":152},{"buffer":0,"byteOffset":3032,"byteLength":456},{"buffer":0,"byteOffset":3488,"byteLength":4},{"buffer":0,"byteOffset":3492,"byteLength":12}],"buffers":[{"byteLength":3504,"uri":"data:application/octet-stream;base64,"}],"accessors":[{"bufferView":0,"componentType":5126,"count":42,"max":[2.680000066757202],"min":[0.03999999910593033],"type":"SCALAR"},{"bufferView":1,"componentType":5126,"count":42,"max":[0.14432105422019958,0.03403244540095329,0.008731021545827389,1],"min":[-0.01530841737985611,-0.014515284448862076,-0.29357045888900757,0.945548415184021],"type":"VEC4"},{"bufferView":2,"componentType":5126,"count":45,"max":[2.7200000286102295],"min":[0.03999999910593033],"type":"SCALAR"},{"bufferView":3,"componentType":5126,"count":45,"max":[0.5193750262260437,0.47437500953674316,1.09375],"min":[0.4906249940395355,0.3375000059604645,0.9756735563278198],"type":"VEC3"},{"bufferView":4,"componentType":5126,"count":11,"max":[1.9199999570846558],"min":[0.5600000023841858],"type":"SCALAR"},{"bufferView":5,"componentType":5126,"count":11,"max":[0.028226511552929878,0.0012174126459285617,0.14775876700878143,1],"min":[-0.1809498816728592,-0.10113508254289627,-0.41544753313064575,0.8856817483901978],"type":"VEC4"},{"bufferView":6,"componentType":5126,"count":13,"max":[1.9199999570846558],"min":[0.3199999928474426],"type":"SCALAR"},{"bufferView":7,"componentType":5126,"count":13,"max":[0.39093688130378723,-0.31667375564575195,0.15508311986923218],"min":[-0.5703593492507935,-1.6463512182235718,-0.5186650156974792],"type":"VEC3"},{"bufferView":8,"componentType":5126,"count":6,"max":[1.6399999856948853],"min":[0],"type":"SCALAR"},{"bufferView":9,"componentType":5126,"count":6,"max":[0.004419256001710892,-0.737088143825531,0.6755902171134949,0.01770821399986744],"min":[-0.016179218888282776,-0.7372954487800598,0.6753708124160767,-0.004821986425668001],"type":"VEC4"},{"bufferView":10,"componentType":5126,"count":5,"max":[1.6399999856948853],"min":[0],"type":"SCALAR"},{"bufferView":11,"componentType":5126,"count":5,"max":[0.04062499850988388,-0.11874999850988388,0],"min":[0.02500000037252903,-0.11874999850988388,0],"type":"VEC3"},{"bufferView":12,"componentType":5126,"count":2,"max":[1.6399999856948853],"min":[0],"type":"SCALAR"},{"bufferView":13,"componentType":5126,"count":2,"max":[1,1.5,1],"min":[1,1.5,1],"type":"VEC3"},{"bufferView":14,"componentType":5126,"count":33,"max":[2.319999933242798],"min":[0.03999999910593033],"type":"SCALAR"},{"bufferView":15,"componentType":5126,"count":33,"max":[0.4835967719554901,0.746579647064209,-0.5470348596572876,0.5748997330665588],"min":[-0.28794071078300476,0.5178221464157104,-0.7158071994781494,-0.19811461865901947],"type":"VEC4"},{"bufferView":16,"componentType":5126,"count":38,"max":[2.319999933242798],"min":[0.03999999910593033],"type":"SCALAR"},{"bufferView":17,"componentType":5126,"count":38,"max":[-0.020625000819563866,0.11249999701976776,0.21754354238510132],"min":[-0.5757371187210083,-1.4960317611694336,-0.7875000238418579],"type":"VEC3"},{"bufferView":18,"componentType":5126,"count":1,"max":[0.03999999910593033],"min":[0.03999999910593033],"type":"SCALAR"},{"bufferView":19,"componentType":5126,"count":1,"max":[1,1.5,1],"min":[1,1.5,1],"type":"VEC3"}]}