{"asset":{"version":"2.0","generator":"Blockbench 4.7.2 glTF exporter"},"scenes":[{"nodes":[16],"name":"blockbench_export"}],"scene":0,"nodes":[{"translation":[0.046875,0.27368187499999996,-0.11303687500000004],"name":"9mm2"},{"translation":[-0.0625,0.052734375,-0.03125],"name":"magazine4","children":[0]},{"translation":[0.015625,-0.3125,0.3125],"name":"magazine3","children":[1]},{"translation":[0.046875,0.27368187499999996,-0.11303687500000004],"name":"9mm"},{"translation":[-0.0625,0.052734375,-0.03125],"name":"magazine","children":[3]},{"translation":[0.015625,-0.3125,0.3125],"name":"magazine2","children":[4]},{"translation":[-0.00390625,0.050289999999999946,0.358219375],"name":"hammer"},{"name":"slide"},{"name":"main","children":[6,7]},{"name":"bone2","children":[2,5,8]},{"translation":[0.375,-0.6875,0],"name":"RightHand"},{"translation":[-0.375,0.6875,0],"name":"r","children":[10]},{"name":"body","children":[9,11]},{"translation":[-0.375,-0.6875,0],"name":"LeftHand"},{"translation":[0.375,0.6875,0],"name":"l","children":[13]},{"translation":[0.5,0.5,0.5],"name":"bone","children":[12,14]},{"children":[15]}],"animations":[{"name":"inspect","samplers":[{"input":0,"output":1,"interpolation":"LINEAR"},{"input":2,"output":3,"interpolation":"LINEAR"},{"input":4,"output":5,"interpolation":"LINEAR"},{"input":6,"output":7,"interpolation":"LINEAR"},{"input":8,"output":9,"interpolation":"LINEAR"},{"input":10,"output":11,"interpolation":"LINEAR"},{"input":12,"output":13,"interpolation":"LINEAR"},{"input":14,"output":15,"interpolation":"LINEAR"},{"input":16,"output":17,"interpolation":"LINEAR"},{"input":18,"output":19,"interpolation":"LINEAR"},{"input":20,"output":21,"interpolation":"LINEAR"},{"input":22,"output":23,"interpolation":"LINEAR"}],"channels":[{"sampler":0,"target":{"node":11,"path":"rotation"}},{"sampler":1,"target":{"node":11,"path":"translation"}},{"sampler":2,"target":{"node":11,"path":"scale"}},{"sampler":3,"target":{"node":14,"path":"rotation"}},{"sampler":4,"target":{"node":14,"path":"translation"}},{"sampler":5,"target":{"node":14,"path":"scale"}},{"sampler":6,"target":{"node":15,"path":"rotation"}},{"sampler":7,"target":{"node":15,"path":"translation"}},{"sampler":8,"target":{"node":3,"path":"rotation"}},{"sampler":9,"target":{"node":3,"path":"translation"}},{"sampler":10,"target":{"node":7,"path":"translation"}},{"sampler":11,"target":{"node":2,"path":"translation"}}]}],"bufferViews":[{"buffer":0,"byteOffset":0,"byteLength":28},{"buffer":0,"byteOffset":28,"byteLength":112},{"buffer":0,"byteOffset":140,"byteLength":28},{"buffer":0,"byteOffset":168,"byteLength":84},{"buffer":0,"byteOffset":252,"byteLength":4},{"buffer":0,"byteOffset":256,"byteLength":12},{"buffer":0,"byteOffset":268,"byteLength":252},{"buffer":0,"byteOffset":520,"byteLength":1008},{"buffer":0,"byteOffset":1528,"byteLength":236},{"buffer":0,"byteOffset":1764,"byteLength":708},{"buffer":0,"byteOffset":2472,"byteLength":4},{"buffer":0,"byteOffset":2476,"byteLength":12},{"buffer":0,"byteOffset":2488,"byteLength":244},{"buffer":0,"byteOffset":2732,"byteLength":976},{"buffer":0,"byteOffset":3708,"byteLength":252},{"buffer":0,"byteOffset":3960,"byteLength":756},{"buffer":0,"byteOffset":4716,"byteLength":4},{"buffer":0,"byteOffset":4720,"byteLength":16},{"buffer":0,"byteOffset":4736,"byteLength":20},{"buffer":0,"byteOffset":4756,"byteLength":60},{"buffer":0,"byteOffset":4816,"byteLength":20},{"buffer":0,"byteOffset":4836,"byteLength":60},{"buffer":0,"byteOffset":4896,"byteLength":4},{"buffer":0,"byteOffset":4900,"byteLength":12}],"buffers":[{"byteLength":4912,"uri":"data:application/octet-stream;base64,"}],"accessors":[{"bufferView":0,"componentType":5126,"count":7,"max":[3.450000047683716],"min":[0],"type":"SCALAR"},{"bufferView":1,"componentType":5126,"count":7,"max":[-0.08567772805690765,0.9947250485420227,-0.053550124168395996,0.11713477969169617],"min":[-0.22785231471061707,0.7226852178573608,-0.6744807362556458,-0.02929695136845112],"type":"VEC4"},{"bufferView":2,"componentType":5126,"count":7,"max":[3.450000047683716],"min":[0],"type":"SCALAR"},{"bufferView":3,"componentType":5126,"count":7,"max":[0.21875,0.0062500000931322575,0.23749999701976776],"min":[0.05000000074505806,-0.26249998807907104,0.08749999850988388],"type":"VEC3"},{"bufferView":4,"componentType":5126,"count":1,"max":[0],"min":[0],"type":"SCALAR"},{"bufferView":5,"componentType":5126,"count":1,"max":[1.75,2,1.75],"min":[1.75,2,1.75],"type":"VEC3"},{"bufferView":6,"componentType":5126,"count":63,"max":[3.8499999046325684],"min":[0],"type":"SCALAR"},{"bufferView":7,"componentType":5126,"count":63,"max":[0.22993256151676178,-0.5913328528404236,0.7032841444015503,-0.26297858357429504],"min":[-0.06520404666662216,-0.6573335528373718,0.5086961388587952,-0.58196622133255],"type":"VEC4"},{"bufferView":8,"componentType":5126,"count":59,"max":[3.8499999046325684],"min":[0],"type":"SCALAR"},{"bufferView":9,"componentType":5126,"count":59,"max":[-0.09751062840223312,0.9900575280189514,1.8805899620056152],"min":[-2.0005886554718018,-2.2886950969696045,-0.05058562383055687],"type":"VEC3"},{"bufferView":10,"componentType":5126,"count":1,"max":[0],"min":[0],"type":"SCALAR"},{"bufferView":11,"componentType":5126,"count":1,"max":[1.75,2,1.75],"min":[1.75,2,1.75],"type":"VEC3"},{"bufferView":12,"componentType":5126,"count":61,"max":[4.050000190734863],"min":[0],"type":"SCALAR"},{"bufferView":13,"componentType":5126,"count":61,"max":[0.3305027186870575,0.3497355282306671,0.28741660714149475,1],"min":[-0.0036970688961446285,-0.042017120867967606,-0.48627349734306335,0.7770131826400757],"type":"VEC4"},{"bufferView":14,"componentType":5126,"count":63,"max":[4.099999904632568],"min":[0],"type":"SCALAR"},{"bufferView":15,"componentType":5126,"count":63,"max":[0.5062500238418579,0.9746618270874023,1.037083387374878],"min":[0.2512499988079071,0.36125001311302185,0.4929741621017456],"type":"VEC3"},{"bufferView":16,"componentType":5126,"count":1,"max":[2.299999952316284],"min":[2.299999952316284],"type":"SCALAR"},{"bufferView":17,"componentType":5126,"count":1,"max":[0,0,0,1],"min":[0,0,0,1],"type":"VEC4"},{"bufferView":18,"componentType":5126,"count":5,"max":[3.450000047683716],"min":[2.299999952316284],"type":"SCALAR"},{"bufferView":19,"componentType":5126,"count":5,"max":[0.046875,0.38618186116218567,-0.1130368784070015],"min":[0.046875,0.2736818790435791,-0.3380368649959564],"type":"VEC3"},{"bufferView":20,"componentType":5126,"count":5,"max":[3.3499999046325684],"min":[0],"type":"SCALAR"},{"bufferView":21,"componentType":5126,"count":5,"max":[0,0,0.125],"min":[0,0,0],"type":"VEC3"},{"bufferView":22,"componentType":5126,"count":1,"max":[0],"min":[0],"type":"SCALAR"},{"bufferView":23,"componentType":5126,"count":1,"max":[0.015625,-0.4375,2.5],"min":[0.015625,-0.4375,2.5],"type":"VEC3"}]}