{"asset":{"version":"2.0","generator":"Blockbench 4.7.1 glTF exporter"},"scenes":[{"nodes":[14],"name":"blockbench_export"}],"scene":0,"nodes":[{"translation":[-0.015625,0.32641624999999996,-0.14428687500000004],"name":"9mm2"},{"translation":[0.015625,-0.3125,0.3125],"name":"magazine3","children":[0]},{"translation":[-0.015625,0.32641624999999996,-0.14428687500000004],"name":"9mm"},{"translation":[0.015625,-0.3125,0.3125],"name":"magazine2","children":[2]},{"translation":[-0.00390625,0.050289999999999946,0.358219375],"name":"hammer"},{"name":"slide"},{"name":"main","children":[4,5]},{"name":"bone2","children":[1,3,6]},{"translation":[0.375,-0.6875,0],"name":"RightHand"},{"translation":[-0.375,0.6875,0],"name":"r","children":[8]},{"name":"body","children":[7,9]},{"translation":[-0.375,-0.6875,0],"name":"LeftHand"},{"translation":[0.375,0.6875,0],"name":"l","children":[11]},{"translation":[0.5,0.5,0.5],"name":"bone","children":[10,12]},{"children":[13]}],"animations":[{"name":"draw","samplers":[{"input":0,"output":1,"interpolation":"LINEAR"},{"input":2,"output":3,"interpolation":"LINEAR"},{"input":4,"output":5,"interpolation":"LINEAR"},{"input":6,"output":7,"interpolation":"LINEAR"},{"input":8,"output":9,"interpolation":"LINEAR"},{"input":10,"output":11,"interpolation":"LINEAR"},{"input":12,"output":13,"interpolation":"LINEAR"},{"input":14,"output":15,"interpolation":"LINEAR"},{"input":16,"output":17,"interpolation":"LINEAR"}],"channels":[{"sampler":0,"target":{"node":9,"path":"rotation"}},{"sampler":1,"target":{"node":9,"path":"translation"}},{"sampler":2,"target":{"node":9,"path":"scale"}},{"sampler":3,"target":{"node":12,"path":"rotation"}},{"sampler":4,"target":{"node":12,"path":"translation"}},{"sampler":5,"target":{"node":12,"path":"scale"}},{"sampler":6,"target":{"node":13,"path":"rotation"}},{"sampler":7,"target":{"node":13,"path":"translation"}},{"sampler":8,"target":{"node":1,"path":"translation"}}]}],"bufferViews":[{"buffer":0,"byteOffset":0,"byteLength":4},{"buffer":0,"byteOffset":4,"byteLength":16},{"buffer":0,"byteOffset":20,"byteLength":4},{"buffer":0,"byteOffset":24,"byteLength":12},{"buffer":0,"byteOffset":36,"byteLength":4},{"buffer":0,"byteOffset":40,"byteLength":12},{"buffer":0,"byteOffset":52,"byteLength":8},{"buffer":0,"byteOffset":60,"byteLength":32},{"buffer":0,"byteOffset":92,"byteLength":8},{"buffer":0,"byteOffset":100,"byteLength":24},{"buffer":0,"byteOffset":124,"byteLength":4},{"buffer":0,"byteOffset":128,"byteLength":12},{"buffer":0,"byteOffset":140,"byteLength":32},{"buffer":0,"byteOffset":172,"byteLength":128},{"buffer":0,"byteOffset":300,"byteLength":36},{"buffer":0,"byteOffset":336,"byteLength":108},{"buffer":0,"byteOffset":444,"byteLength":4},{"buffer":0,"byteOffset":448,"byteLength":12}],"buffers":[{"byteLength":460,"uri":"data:application/octet-stream;base64,"}],"accessors":[{"bufferView":0,"componentType":5126,"count":1,"max":[0],"min":[0],"type":"SCALAR"},{"bufferView":1,"componentType":5126,"count":1,"max":[-0.09530092775821686,0.7315502762794495,-0.6744590401649475,-0.02927265129983425],"min":[-0.09530092775821686,0.7315502762794495,-0.6744590401649475,-0.02927265129983425],"type":"VEC4"},{"bufferView":2,"componentType":5126,"count":1,"max":[0],"min":[0],"type":"SCALAR"},{"bufferView":3,"componentType":5126,"count":1,"max":[0.05000000074505806,-0.26249998807907104,0.13750000298023224],"min":[0.05000000074505806,-0.26249998807907104,0.13750000298023224],"type":"VEC3"},{"bufferView":4,"componentType":5126,"count":1,"max":[0],"min":[0],"type":"SCALAR"},{"bufferView":5,"componentType":5126,"count":1,"max":[1.75,2,1.75],"min":[1.75,2,1.75],"type":"VEC3"},{"bufferView":6,"componentType":5126,"count":2,"max":[0.3499999940395355],"min":[0],"type":"SCALAR"},{"bufferView":7,"componentType":5126,"count":2,"max":[0.22993256151676178,-0.5913328528404236,0.7071067690849304,4.329780301713277e-17],"min":[-4.329780301713277e-17,-0.7071067690849304,0.5086961388587952,-0.58196622133255],"type":"VEC4"},{"bufferView":8,"componentType":5126,"count":2,"max":[0.3499999940395355],"min":[0],"type":"SCALAR"},{"bufferView":9,"componentType":5126,"count":2,"max":[-0.10625000298023224,-0.35624998807907104,0.03125],"min":[-1.6875,-2.0625,-0.1875],"type":"VEC3"},{"bufferView":10,"componentType":5126,"count":1,"max":[0],"min":[0],"type":"SCALAR"},{"bufferView":11,"componentType":5126,"count":1,"max":[1.75,2,1.75],"min":[1.75,2,1.75],"type":"VEC3"},{"bufferView":12,"componentType":5126,"count":8,"max":[0.6000000238418579],"min":[0],"type":"SCALAR"},{"bufferView":13,"componentType":5126,"count":8,"max":[0.007346293423324823,0.26811543107032776,0.25082844495773315,1],"min":[-0.08051475882530212,-0.0019014133140444756,-0.03271028399467468,0.9266695976257324],"type":"VEC4"},{"bufferView":14,"componentType":5126,"count":9,"max":[0.6000000238418579],"min":[0],"type":"SCALAR"},{"bufferView":15,"componentType":5126,"count":9,"max":[0.504072368144989,0.5093878507614136,1.0047489404678345],"min":[0.046875,-1.046875,0.38749998807907104],"type":"VEC3"},{"bufferView":16,"componentType":5126,"count":1,"max":[0],"min":[0],"type":"SCALAR"},{"bufferView":17,"componentType":5126,"count":1,"max":[0.015625,-0.4375,2.5],"min":[0.015625,-0.4375,2.5],"type":"VEC3"}]}