{"asset":{"version":"2.0","generator":"Blockbench 4.8.1 glTF exporter"},"scenes":[{"nodes":[10],"name":"blockbench_export"}],"scene":0,"nodes":[{"translation":[-0.5,-0.5,-0.5],"name":"9mm2"},{"translation":[0,0.1875,-0.375],"name":"mb","children":[0]},{"translation":[0,0.1875,0],"name":"BOLT"},{"name":"tec9","children":[1,2]},{"translation":[0.375,-0.6875,0],"name":"RightHand"},{"translation":[-0.375,0.875,-0.375],"name":"R","children":[4]},{"name":"bone","children":[3,5]},{"translation":[-0.375,-0.6875,0],"name":"LeftHand"},{"translation":[0.375,0.875,-0.375],"name":"l","children":[7]},{"translation":[0.5,0.3125,0.875],"name":"bone2","children":[6,8]},{"children":[9]}],"animations":[{"name":"draw","samplers":[{"input":0,"output":1,"interpolation":"LINEAR"},{"input":2,"output":3,"interpolation":"LINEAR"},{"input":4,"output":5,"interpolation":"LINEAR"},{"input":6,"output":7,"interpolation":"LINEAR"},{"input":8,"output":9,"interpolation":"LINEAR"},{"input":10,"output":11,"interpolation":"LINEAR"},{"input":12,"output":13,"interpolation":"LINEAR"},{"input":14,"output":15,"interpolation":"LINEAR"}],"channels":[{"sampler":0,"target":{"node":8,"path":"rotation"}},{"sampler":1,"target":{"node":8,"path":"translation"}},{"sampler":2,"target":{"node":8,"path":"scale"}},{"sampler":3,"target":{"node":5,"path":"rotation"}},{"sampler":4,"target":{"node":5,"path":"translation"}},{"sampler":5,"target":{"node":5,"path":"scale"}},{"sampler":6,"target":{"node":9,"path":"rotation"}},{"sampler":7,"target":{"node":9,"path":"translation"}}]}],"bufferViews":[{"buffer":0,"byteOffset":0,"byteLength":12},{"buffer":0,"byteOffset":12,"byteLength":48},{"buffer":0,"byteOffset":60,"byteLength":16},{"buffer":0,"byteOffset":76,"byteLength":48},{"buffer":0,"byteOffset":124,"byteLength":4},{"buffer":0,"byteOffset":128,"byteLength":12},{"buffer":0,"byteOffset":140,"byteLength":4},{"buffer":0,"byteOffset":144,"byteLength":16},{"buffer":0,"byteOffset":160,"byteLength":4},{"buffer":0,"byteOffset":164,"byteLength":12},{"buffer":0,"byteOffset":176,"byteLength":4},{"buffer":0,"byteOffset":180,"byteLength":12},{"buffer":0,"byteOffset":192,"byteLength":36},{"buffer":0,"byteOffset":228,"byteLength":144},{"buffer":0,"byteOffset":372,"byteLength":40},{"buffer":0,"byteOffset":412,"byteLength":120}],"buffers":[{"byteLength":532,"uri":"data:application/octet-stream;base64,"}],"accessors":[{"bufferView":0,"componentType":5126,"count":3,"max":[0.4000000059604645],"min":[0],"type":"SCALAR"},{"bufferView":1,"componentType":5126,"count":3,"max":[0.275321900844574,0.8447378277778625,-0.472923219203949,-0.055738627910614014],"min":[0.23350918292999268,0.834766149520874,-0.4783417582511902,-0.06088428571820259],"type":"VEC4"},{"bufferView":2,"componentType":5126,"count":4,"max":[0.4000000059604645],"min":[0],"type":"SCALAR"},{"bufferView":3,"componentType":5126,"count":4,"max":[-0.08124999701976776,-0.02500000037252903,-0.45641061663627625],"min":[-0.7606250047683716,-0.6081249713897705,-0.731249988079071],"type":"VEC3"},{"bufferView":4,"componentType":5126,"count":1,"max":[0],"min":[0],"type":"SCALAR"},{"bufferView":5,"componentType":5126,"count":1,"max":[1.75,2,1.75],"min":[1.75,2,1.75],"type":"VEC3"},{"bufferView":6,"componentType":5126,"count":1,"max":[0],"min":[0],"type":"SCALAR"},{"bufferView":7,"componentType":5126,"count":1,"max":[-4.423203734456241e-17,0.7223639488220215,-0.6915130615234375,4.234296196628321e-17],"min":[-4.423203734456241e-17,0.7223639488220215,-0.6915130615234375,4.234296196628321e-17],"type":"VEC4"},{"bufferView":8,"componentType":5126,"count":1,"max":[0],"min":[0],"type":"SCALAR"},{"bufferView":9,"componentType":5126,"count":1,"max":[0.0625,-0.11249999701976776,-0.0625],"min":[0.0625,-0.11249999701976776,-0.0625],"type":"VEC3"},{"bufferView":10,"componentType":5126,"count":1,"max":[0],"min":[0],"type":"SCALAR"},{"bufferView":11,"componentType":5126,"count":1,"max":[1.75,2,1.75],"min":[1.75,2,1.75],"type":"VEC3"},{"bufferView":12,"componentType":5126,"count":9,"max":[0.6000000238418579],"min":[0],"type":"SCALAR"},{"bufferView":13,"componentType":5126,"count":9,"max":[0.00023215729743242264,0.00963447242975235,0.1548353135585785,1],"min":[-0.11136046051979065,-0.004231775179505348,-0.0052132150158286095,0.9816348552703857],"type":"VEC4"},{"bufferView":14,"componentType":5126,"count":10,"max":[0.6000000238418579],"min":[0],"type":"SCALAR"},{"bufferView":15,"componentType":5126,"count":10,"max":[1.1193749904632568,0.35291069746017456,0.90625],"min":[0.4550497233867645,-1.183750033378601,0.5899999737739563],"type":"VEC3"}]}