{"asset":{"version":"2.0","generator":"Blockbench 4.8.1 glTF exporter"},"scenes":[{"nodes":[10],"name":"blockbench_export"}],"scene":0,"nodes":[{"translation":[-0.5,-0.5,-0.5],"name":"9mm2"},{"translation":[0,0.1875,-0.375],"name":"mb","children":[0]},{"translation":[0,0.1875,0],"name":"BOLT"},{"name":"tec9","children":[1,2]},{"translation":[0.375,-0.6875,0],"name":"RightHand"},{"translation":[-0.375,0.875,-0.375],"name":"R","children":[4]},{"name":"bone","children":[3,5]},{"translation":[-0.375,-0.6875,0],"name":"LeftHand"},{"translation":[0.375,0.875,-0.375],"name":"l","children":[7]},{"translation":[0.5,0.3125,0.875],"name":"bone2","children":[6,8]},{"children":[9]}],"animations":[{"name":"empty","samplers":[{"input":0,"output":1,"interpolation":"LINEAR"},{"input":2,"output":3,"interpolation":"LINEAR"},{"input":4,"output":5,"interpolation":"LINEAR"},{"input":6,"output":7,"interpolation":"LINEAR"},{"input":8,"output":9,"interpolation":"LINEAR"},{"input":10,"output":11,"interpolation":"LINEAR"},{"input":12,"output":13,"interpolation":"LINEAR"},{"input":14,"output":15,"interpolation":"LINEAR"},{"input":16,"output":17,"interpolation":"LINEAR"},{"input":18,"output":19,"interpolation":"LINEAR"},{"input":20,"output":21,"interpolation":"LINEAR"},{"input":22,"output":23,"interpolation":"LINEAR"}],"channels":[{"sampler":0,"target":{"node":8,"path":"rotation"}},{"sampler":1,"target":{"node":8,"path":"translation"}},{"sampler":2,"target":{"node":8,"path":"scale"}},{"sampler":3,"target":{"node":5,"path":"rotation"}},{"sampler":4,"target":{"node":5,"path":"translation"}},{"sampler":5,"target":{"node":5,"path":"scale"}},{"sampler":6,"target":{"node":9,"path":"rotation"}},{"sampler":7,"target":{"node":9,"path":"translation"}},{"sampler":8,"target":{"node":1,"path":"rotation"}},{"sampler":9,"target":{"node":1,"path":"translation"}},{"sampler":10,"target":{"node":2,"path":"translation"}},{"sampler":11,"target":{"node":0,"path":"translation"}}]}],"bufferViews":[{"buffer":0,"byteOffset":0,"byteLength":88},{"buffer":0,"byteOffset":88,"byteLength":352},{"buffer":0,"byteOffset":440,"byteLength":88},{"buffer":0,"byteOffset":528,"byteLength":264},{"buffer":0,"byteOffset":792,"byteLength":4},{"buffer":0,"byteOffset":796,"byteLength":12},{"buffer":0,"byteOffset":808,"byteLength":4},{"buffer":0,"byteOffset":812,"byteLength":16},{"buffer":0,"byteOffset":828,"byteLength":4},{"buffer":0,"byteOffset":832,"byteLength":12},{"buffer":0,"byteOffset":844,"byteLength":4},{"buffer":0,"byteOffset":848,"byteLength":12},{"buffer":0,"byteOffset":860,"byteLength":180},{"buffer":0,"byteOffset":1040,"byteLength":720},{"buffer":0,"byteOffset":1760,"byteLength":164},{"buffer":0,"byteOffset":1924,"byteLength":492},{"buffer":0,"byteOffset":2416,"byteLength":24},{"buffer":0,"byteOffset":2440,"byteLength":96},{"buffer":0,"byteOffset":2536,"byteLength":36},{"buffer":0,"byteOffset":2572,"byteLength":108},{"buffer":0,"byteOffset":2680,"byteLength":16},{"buffer":0,"byteOffset":2696,"byteLength":48},{"buffer":0,"byteOffset":2744,"byteLength":8},{"buffer":0,"byteOffset":2752,"byteLength":24}],"buffers":[{"byteLength":2776,"uri":"data:application/octet-stream;base64,"}],"accessors":[{"bufferView":0,"componentType":5126,"count":22,"max":[2.450000047683716],"min":[0],"type":"SCALAR"},{"bufferView":1,"componentType":5126,"count":22,"max":[0.5005836486816406,0.8629501461982727,-0.08749178797006607,0.13515417277812958],"min":[0.1725272685289383,0.5505253672599792,-0.5735765099525452,-0.6149260997772217],"type":"VEC4"},{"bufferView":2,"componentType":5126,"count":22,"max":[2.450000047683716],"min":[0],"type":"SCALAR"},{"bufferView":3,"componentType":5126,"count":22,"max":[-0.08124999701976776,0.3843750059604645,0.22122187912464142],"min":[-1.1273943185806274,-1.832965612411499,-0.800000011920929],"type":"VEC3"},{"bufferView":4,"componentType":5126,"count":1,"max":[0],"min":[0],"type":"SCALAR"},{"bufferView":5,"componentType":5126,"count":1,"max":[1.75,2,1.75],"min":[1.75,2,1.75],"type":"VEC3"},{"bufferView":6,"componentType":5126,"count":1,"max":[0],"min":[0],"type":"SCALAR"},{"bufferView":7,"componentType":5126,"count":1,"max":[-4.423203734456241e-17,0.7223639488220215,-0.6915130615234375,4.234296196628321e-17],"min":[-4.423203734456241e-17,0.7223639488220215,-0.6915130615234375,4.234296196628321e-17],"type":"VEC4"},{"bufferView":8,"componentType":5126,"count":1,"max":[0],"min":[0],"type":"SCALAR"},{"bufferView":9,"componentType":5126,"count":1,"max":[0.0625,-0.11249999701976776,-0.0625],"min":[0.0625,-0.11249999701976776,-0.0625],"type":"VEC3"},{"bufferView":10,"componentType":5126,"count":1,"max":[0],"min":[0],"type":"SCALAR"},{"bufferView":11,"componentType":5126,"count":1,"max":[1.75,2,1.75],"min":[1.75,2,1.75],"type":"VEC3"},{"bufferView":12,"componentType":5126,"count":45,"max":[2.700000047683716],"min":[0],"type":"SCALAR"},{"bufferView":13,"componentType":5126,"count":45,"max":[0.22607041895389557,0.08133208006620407,0.09109149128198624,1],"min":[-0.0009239001083187759,0,-0.28805825114250183,0.9288084506988525],"type":"VEC4"},{"bufferView":14,"componentType":5126,"count":41,"max":[2.6500000953674316],"min":[0],"type":"SCALAR"},{"bufferView":15,"componentType":5126,"count":41,"max":[0.6237499713897705,0.39250001311302185,0.9676440358161926],"min":[0.4874154031276703,0.20906206965446472,0.7737500071525574],"type":"VEC3"},{"bufferView":16,"componentType":5126,"count":6,"max":[1.5],"min":[0.5],"type":"SCALAR"},{"bufferView":17,"componentType":5126,"count":6,"max":[0,0,0,1],"min":[0,0,-0.3214394748210907,0.9469301104545593],"type":"VEC4"},{"bufferView":18,"componentType":5126,"count":9,"max":[1.5499999523162842],"min":[0.5],"type":"SCALAR"},{"bufferView":19,"componentType":5126,"count":9,"max":[0,0.1875,0.5004043579101562],"min":[-0.8236374855041504,-1.4243874549865723,-0.375],"type":"VEC3"},{"bufferView":20,"componentType":5126,"count":4,"max":[2.1500000953674316],"min":[1.899999976158142],"type":"SCALAR"},{"bufferView":21,"componentType":5126,"count":4,"max":[0,0.1875,0],"min":[0,0.1875,-0.25],"type":"VEC3"},{"bufferView":22,"componentType":5126,"count":2,"max":[1],"min":[0.949999988079071],"type":"SCALAR"},{"bufferView":23,"componentType":5126,"count":2,"max":[-0.5,-0.4375,-0.5],"min":[-0.5,-0.5,-0.5],"type":"VEC3"}]}