{"asset":{"version":"2.0","generator":"Blockbench 4.8.1 glTF exporter"},"scenes":[{"nodes":[10],"name":"blockbench_export"}],"scene":0,"nodes":[{"translation":[-0.5,-0.5,-0.5],"name":"9mm2"},{"translation":[0,0.1875,-0.375],"name":"mb","children":[0]},{"translation":[0,0.1875,0],"name":"BOLT"},{"name":"tec9","children":[1,2]},{"translation":[0.375,-0.6875,0],"name":"RightHand"},{"translation":[-0.375,0.875,-0.375],"name":"R","children":[4]},{"name":"bone","children":[3,5]},{"translation":[-0.375,-0.6875,0],"name":"LeftHand"},{"translation":[0.375,0.875,-0.375],"name":"l","children":[7]},{"translation":[0.5,0.3125,0.875],"name":"bone2","children":[6,8]},{"children":[9]}],"animations":[{"name":"inspect","samplers":[{"input":0,"output":1,"interpolation":"LINEAR"},{"input":2,"output":3,"interpolation":"LINEAR"},{"input":4,"output":5,"interpolation":"LINEAR"},{"input":6,"output":7,"interpolation":"LINEAR"},{"input":8,"output":9,"interpolation":"LINEAR"},{"input":10,"output":11,"interpolation":"LINEAR"},{"input":12,"output":13,"interpolation":"LINEAR"},{"input":14,"output":15,"interpolation":"LINEAR"}],"channels":[{"sampler":0,"target":{"node":8,"path":"rotation"}},{"sampler":1,"target":{"node":8,"path":"translation"}},{"sampler":2,"target":{"node":8,"path":"scale"}},{"sampler":3,"target":{"node":5,"path":"rotation"}},{"sampler":4,"target":{"node":5,"path":"translation"}},{"sampler":5,"target":{"node":5,"path":"scale"}},{"sampler":6,"target":{"node":9,"path":"rotation"}},{"sampler":7,"target":{"node":9,"path":"translation"}}]}],"bufferViews":[{"buffer":0,"byteOffset":0,"byteLength":32},{"buffer":0,"byteOffset":32,"byteLength":128},{"buffer":0,"byteOffset":160,"byteLength":48},{"buffer":0,"byteOffset":208,"byteLength":144},{"buffer":0,"byteOffset":352,"byteLength":4},{"buffer":0,"byteOffset":356,"byteLength":12},{"buffer":0,"byteOffset":368,"byteLength":4},{"buffer":0,"byteOffset":372,"byteLength":16},{"buffer":0,"byteOffset":388,"byteLength":4},{"buffer":0,"byteOffset":392,"byteLength":12},{"buffer":0,"byteOffset":404,"byteLength":4},{"buffer":0,"byteOffset":408,"byteLength":12},{"buffer":0,"byteOffset":420,"byteLength":268},{"buffer":0,"byteOffset":688,"byteLength":1072},{"buffer":0,"byteOffset":1760,"byteLength":272},{"buffer":0,"byteOffset":2032,"byteLength":816}],"buffers":[{"byteLength":2848,"uri":"data:application/octet-stream;base64,"}],"accessors":[{"bufferView":0,"componentType":5126,"count":8,"max":[4],"min":[0],"type":"SCALAR"},{"bufferView":1,"componentType":5126,"count":8,"max":[0.4886610209941864,0.8447378277778625,-0.4783143699169159,0.10058102011680603],"min":[0.22825637459754944,0.4864618480205536,-0.5324609279632568,-0.49096906185150146],"type":"VEC4"},{"bufferView":2,"componentType":5126,"count":12,"max":[4],"min":[0],"type":"SCALAR"},{"bufferView":3,"componentType":5126,"count":12,"max":[-0.08124999701976776,0.1546006202697754,1.748050570487976],"min":[-2.1019487380981445,-1.8093324899673462,-1.0120043754577637],"type":"VEC3"},{"bufferView":4,"componentType":5126,"count":1,"max":[0],"min":[0],"type":"SCALAR"},{"bufferView":5,"componentType":5126,"count":1,"max":[1.75,2,1.75],"min":[1.75,2,1.75],"type":"VEC3"},{"bufferView":6,"componentType":5126,"count":1,"max":[0],"min":[0],"type":"SCALAR"},{"bufferView":7,"componentType":5126,"count":1,"max":[-4.423203734456241e-17,0.7223639488220215,-0.6915130615234375,4.234296196628321e-17],"min":[-4.423203734456241e-17,0.7223639488220215,-0.6915130615234375,4.234296196628321e-17],"type":"VEC4"},{"bufferView":8,"componentType":5126,"count":1,"max":[0],"min":[0],"type":"SCALAR"},{"bufferView":9,"componentType":5126,"count":1,"max":[0.0625,-0.11249999701976776,-0.0625],"min":[0.0625,-0.11249999701976776,-0.0625],"type":"VEC3"},{"bufferView":10,"componentType":5126,"count":1,"max":[0],"min":[0],"type":"SCALAR"},{"bufferView":11,"componentType":5126,"count":1,"max":[1.75,2,1.75],"min":[1.75,2,1.75],"type":"VEC3"},{"bufferView":12,"componentType":5126,"count":67,"max":[4.25],"min":[0],"type":"SCALAR"},{"bufferView":13,"componentType":5126,"count":67,"max":[0.47228527069091797,0.3714861571788788,0.519447922706604,1],"min":[0,-0.17000159621238708,-0.3146235942840576,0.694442868232727],"type":"VEC4"},{"bufferView":14,"componentType":5126,"count":68,"max":[4.349999904632568],"min":[0],"type":"SCALAR"},{"bufferView":15,"componentType":5126,"count":68,"max":[0.7181249856948853,0.6362500190734863,0.9125000238418579],"min":[0.37924396991729736,0.22750000655651093,0.8187500238418579],"type":"VEC3"}]}