{"asset":{"version":"2.0","generator":"Blockbench 4.8.1 glTF exporter"},"scenes":[{"nodes":[10],"name":"blockbench_export"}],"scene":0,"nodes":[{"translation":[-0.5,-0.5,-0.5],"name":"9mm2"},{"translation":[0,0.1875,-0.375],"name":"mb","children":[0]},{"translation":[0,0.1875,0],"name":"BOLT"},{"name":"tec9","children":[1,2]},{"translation":[0.375,-0.6875,0],"name":"RightHand"},{"translation":[-0.375,0.875,-0.375],"name":"R","children":[4]},{"name":"bone","children":[3,5]},{"translation":[-0.375,-0.6875,0],"name":"LeftHand"},{"translation":[0.375,0.875,-0.375],"name":"l","children":[7]},{"translation":[0.5,0.3125,0.875],"name":"bone2","children":[6,8]},{"children":[9]}],"animations":[{"name":"norm","samplers":[{"input":0,"output":1,"interpolation":"LINEAR"},{"input":2,"output":3,"interpolation":"LINEAR"},{"input":4,"output":5,"interpolation":"LINEAR"},{"input":6,"output":7,"interpolation":"LINEAR"},{"input":8,"output":9,"interpolation":"LINEAR"},{"input":10,"output":11,"interpolation":"LINEAR"},{"input":12,"output":13,"interpolation":"LINEAR"},{"input":14,"output":15,"interpolation":"LINEAR"},{"input":16,"output":17,"interpolation":"LINEAR"},{"input":18,"output":19,"interpolation":"LINEAR"},{"input":20,"output":21,"interpolation":"LINEAR"}],"channels":[{"sampler":0,"target":{"node":8,"path":"rotation"}},{"sampler":1,"target":{"node":8,"path":"translation"}},{"sampler":2,"target":{"node":8,"path":"scale"}},{"sampler":3,"target":{"node":5,"path":"rotation"}},{"sampler":4,"target":{"node":5,"path":"translation"}},{"sampler":5,"target":{"node":5,"path":"scale"}},{"sampler":6,"target":{"node":9,"path":"rotation"}},{"sampler":7,"target":{"node":9,"path":"translation"}},{"sampler":8,"target":{"node":1,"path":"rotation"}},{"sampler":9,"target":{"node":1,"path":"translation"}},{"sampler":10,"target":{"node":0,"path":"translation"}}]}],"bufferViews":[{"buffer":0,"byteOffset":0,"byteLength":64},{"buffer":0,"byteOffset":64,"byteLength":256},{"buffer":0,"byteOffset":320,"byteLength":64},{"buffer":0,"byteOffset":384,"byteLength":192},{"buffer":0,"byteOffset":576,"byteLength":4},{"buffer":0,"byteOffset":580,"byteLength":12},{"buffer":0,"byteOffset":592,"byteLength":4},{"buffer":0,"byteOffset":596,"byteLength":16},{"buffer":0,"byteOffset":612,"byteLength":4},{"buffer":0,"byteOffset":616,"byteLength":12},{"buffer":0,"byteOffset":628,"byteLength":4},{"buffer":0,"byteOffset":632,"byteLength":12},{"buffer":0,"byteOffset":644,"byteLength":128},{"buffer":0,"byteOffset":772,"byteLength":512},{"buffer":0,"byteOffset":1284,"byteLength":128},{"buffer":0,"byteOffset":1412,"byteLength":384},{"buffer":0,"byteOffset":1796,"byteLength":36},{"buffer":0,"byteOffset":1832,"byteLength":144},{"buffer":0,"byteOffset":1976,"byteLength":40},{"buffer":0,"byteOffset":2016,"byteLength":120},{"buffer":0,"byteOffset":2136,"byteLength":4},{"buffer":0,"byteOffset":2140,"byteLength":12}],"buffers":[{"byteLength":2152,"uri":"data:application/octet-stream;base64,"}],"accessors":[{"bufferView":0,"componentType":5126,"count":16,"max":[1.7999999523162842],"min":[0],"type":"SCALAR"},{"bufferView":1,"componentType":5126,"count":16,"max":[0.3484678864479065,0.8629501461982727,-0.44193601608276367,0.13515417277812958],"min":[0.11738869547843933,0.759209394454956,-0.6020482182502747,-0.22835786640644073],"type":"VEC4"},{"bufferView":2,"componentType":5126,"count":16,"max":[1.7999999523162842],"min":[0],"type":"SCALAR"},{"bufferView":3,"componentType":5126,"count":16,"max":[-0.08124999701976776,-0.02500000037252903,-0.4957199990749359],"min":[-0.9958762526512146,-1.91050124168396,-0.7562500238418579],"type":"VEC3"},{"bufferView":4,"componentType":5126,"count":1,"max":[0],"min":[0],"type":"SCALAR"},{"bufferView":5,"componentType":5126,"count":1,"max":[1.75,2,1.75],"min":[1.75,2,1.75],"type":"VEC3"},{"bufferView":6,"componentType":5126,"count":1,"max":[0],"min":[0],"type":"SCALAR"},{"bufferView":7,"componentType":5126,"count":1,"max":[-4.423203734456241e-17,0.7223639488220215,-0.6915130615234375,4.234296196628321e-17],"min":[-4.423203734456241e-17,0.7223639488220215,-0.6915130615234375,4.234296196628321e-17],"type":"VEC4"},{"bufferView":8,"componentType":5126,"count":1,"max":[0],"min":[0],"type":"SCALAR"},{"bufferView":9,"componentType":5126,"count":1,"max":[0.0625,-0.11249999701976776,-0.0625],"min":[0.0625,-0.11249999701976776,-0.0625],"type":"VEC3"},{"bufferView":10,"componentType":5126,"count":1,"max":[0],"min":[0],"type":"SCALAR"},{"bufferView":11,"componentType":5126,"count":1,"max":[1.75,2,1.75],"min":[1.75,2,1.75],"type":"VEC3"},{"bufferView":12,"componentType":5126,"count":32,"max":[2.0999999046325684],"min":[0],"type":"SCALAR"},{"bufferView":13,"componentType":5126,"count":32,"max":[0.180947944521904,0.10826018452644348,0.00701948581263423,1],"min":[-0.0022567580454051495,-0.008507808670401573,-0.3214256465435028,0.9281381368637085],"type":"VEC4"},{"bufferView":14,"componentType":5126,"count":32,"max":[2.0999999046325684],"min":[0],"type":"SCALAR"},{"bufferView":15,"componentType":5126,"count":32,"max":[0.5606250166893005,0.4749999940395355,1.0258573293685913],"min":[0.46812498569488525,0.2762500047683716,0.794011116027832],"type":"VEC3"},{"bufferView":16,"componentType":5126,"count":9,"max":[1.4500000476837158],"min":[0.3499999940395355],"type":"SCALAR"},{"bufferView":17,"componentType":5126,"count":9,"max":[0,0,0,1],"min":[-0.0022636642679572105,-0.06100655719637871,-0.3867109715938568,0.9222009778022766],"type":"VEC4"},{"bufferView":18,"componentType":5126,"count":10,"max":[1.5],"min":[0.3499999940395355],"type":"SCALAR"},{"bufferView":19,"componentType":5126,"count":10,"max":[0,0.1875,-0.1988449990749359],"min":[-0.5177294015884399,-1.4703974723815918,-0.375],"type":"VEC3"},{"bufferView":20,"componentType":5126,"count":1,"max":[0],"min":[0],"type":"SCALAR"},{"bufferView":21,"componentType":5126,"count":1,"max":[-0.5,-0.4375,-0.5],"min":[-0.5,-0.4375,-0.5],"type":"VEC3"}]}