{"asset":{"version":"2.0","generator":"Blockbench 4.7.1 glTF exporter"},"scenes":[{"nodes":[14],"name":"blockbench_export"}],"scene":0,"nodes":[{"translation":[-0.015625,0.32641624999999996,-0.14428687500000004],"name":"9mm2"},{"translation":[0.015625,-0.3125,0.3125],"name":"magazine3","children":[0]},{"translation":[-0.015625,0.32641624999999996,-0.14428687500000004],"name":"9mm"},{"translation":[0.015625,-0.3125,0.3125],"name":"magazine2","children":[2]},{"translation":[-0.00390625,0.050289999999999946,0.358219375],"name":"hammer"},{"name":"slide"},{"name":"main","children":[4,5]},{"name":"bone2","children":[1,3,6]},{"translation":[0.375,-0.6875,0],"name":"RightHand"},{"translation":[-0.375,0.6875,0],"name":"r","children":[8]},{"name":"body","children":[7,9]},{"translation":[-0.375,-0.6875,0],"name":"LeftHand"},{"translation":[0.375,0.6875,0],"name":"l","children":[11]},{"translation":[0.5,0.5,0.5],"name":"bone","children":[10,12]},{"children":[13]}],"animations":[{"name":"inspect2(just for fun","samplers":[{"input":0,"output":1,"interpolation":"LINEAR"},{"input":2,"output":3,"interpolation":"LINEAR"},{"input":4,"output":5,"interpolation":"LINEAR"},{"input":6,"output":7,"interpolation":"LINEAR"},{"input":8,"output":9,"interpolation":"LINEAR"},{"input":10,"output":11,"interpolation":"LINEAR"},{"input":12,"output":13,"interpolation":"LINEAR"},{"input":14,"output":15,"interpolation":"LINEAR"},{"input":16,"output":17,"interpolation":"LINEAR"},{"input":18,"output":19,"interpolation":"LINEAR"},{"input":20,"output":21,"interpolation":"LINEAR"},{"input":22,"output":23,"interpolation":"LINEAR"},{"input":24,"output":25,"interpolation":"LINEAR"}],"channels":[{"sampler":0,"target":{"node":9,"path":"rotation"}},{"sampler":1,"target":{"node":9,"path":"translation"}},{"sampler":2,"target":{"node":9,"path":"scale"}},{"sampler":3,"target":{"node":12,"path":"rotation"}},{"sampler":4,"target":{"node":12,"path":"translation"}},{"sampler":5,"target":{"node":12,"path":"scale"}},{"sampler":6,"target":{"node":13,"path":"rotation"}},{"sampler":7,"target":{"node":13,"path":"translation"}},{"sampler":8,"target":{"node":5,"path":"translation"}},{"sampler":9,"target":{"node":3,"path":"rotation"}},{"sampler":10,"target":{"node":3,"path":"translation"}},{"sampler":11,"target":{"node":4,"path":"rotation"}},{"sampler":12,"target":{"node":1,"path":"translation"}}]}],"bufferViews":[{"buffer":0,"byteOffset":0,"byteLength":4},{"buffer":0,"byteOffset":4,"byteLength":16},{"buffer":0,"byteOffset":20,"byteLength":4},{"buffer":0,"byteOffset":24,"byteLength":12},{"buffer":0,"byteOffset":36,"byteLength":4},{"buffer":0,"byteOffset":40,"byteLength":12},{"buffer":0,"byteOffset":52,"byteLength":480},{"buffer":0,"byteOffset":532,"byteLength":1920},{"buffer":0,"byteOffset":2452,"byteLength":464},{"buffer":0,"byteOffset":2916,"byteLength":1392},{"buffer":0,"byteOffset":4308,"byteLength":4},{"buffer":0,"byteOffset":4312,"byteLength":12},{"buffer":0,"byteOffset":4324,"byteLength":528},{"buffer":0,"byteOffset":4852,"byteLength":2112},{"buffer":0,"byteOffset":6964,"byteLength":544},{"buffer":0,"byteOffset":7508,"byteLength":1632},{"buffer":0,"byteOffset":9140,"byteLength":48},{"buffer":0,"byteOffset":9188,"byteLength":144},{"buffer":0,"byteOffset":9332,"byteLength":96},{"buffer":0,"byteOffset":9428,"byteLength":384},{"buffer":0,"byteOffset":9812,"byteLength":100},{"buffer":0,"byteOffset":9912,"byteLength":300},{"buffer":0,"byteOffset":10212,"byteLength":16},{"buffer":0,"byteOffset":10228,"byteLength":64},{"buffer":0,"byteOffset":10292,"byteLength":8},{"buffer":0,"byteOffset":10300,"byteLength":24}],"buffers":[{"byteLength":10324,"uri":"data:application/octet-stream;base64,"}],"accessors":[{"bufferView":0,"componentType":5126,"count":1,"max":[0],"min":[0],"type":"SCALAR"},{"bufferView":1,"componentType":5126,"count":1,"max":[-0.09530092775821686,0.7315502762794495,-0.6744590401649475,-0.02927265129983425],"min":[-0.09530092775821686,0.7315502762794495,-0.6744590401649475,-0.02927265129983425],"type":"VEC4"},{"bufferView":2,"componentType":5126,"count":1,"max":[0],"min":[0],"type":"SCALAR"},{"bufferView":3,"componentType":5126,"count":1,"max":[0.05000000074505806,-0.26249998807907104,0.13750000298023224],"min":[0.05000000074505806,-0.26249998807907104,0.13750000298023224],"type":"VEC3"},{"bufferView":4,"componentType":5126,"count":1,"max":[0],"min":[0],"type":"SCALAR"},{"bufferView":5,"componentType":5126,"count":1,"max":[1.75,2,1.75],"min":[1.75,2,1.75],"type":"VEC3"},{"bufferView":6,"componentType":5126,"count":120,"max":[7.550000190734863],"min":[0],"type":"SCALAR"},{"bufferView":7,"componentType":5126,"count":120,"max":[0.4792829155921936,-0.3138086795806885,0.6793089509010315,0.32407474517822266],"min":[-0.6755833029747009,-0.8356978893280029,0.1725718080997467,-0.7674264311790466],"type":"VEC4"},{"bufferView":8,"componentType":5126,"count":116,"max":[7.550000190734863],"min":[0],"type":"SCALAR"},{"bufferView":9,"componentType":5126,"count":116,"max":[0.49433374404907227,0.09062500298023224,1.8805899620056152],"min":[-1.8168275356292725,-2.520270586013794,-0.13890625536441803],"type":"VEC3"},{"bufferView":10,"componentType":5126,"count":1,"max":[0],"min":[0],"type":"SCALAR"},{"bufferView":11,"componentType":5126,"count":1,"max":[1.75,2,1.75],"min":[1.75,2,1.75],"type":"VEC3"},{"bufferView":12,"componentType":5126,"count":132,"max":[7.849999904632568],"min":[0],"type":"SCALAR"},{"bufferView":13,"componentType":5126,"count":132,"max":[0.25924453139305115,0.2731309235095978,0.34654441475868225,1],"min":[-0.10586635768413544,-0.0021816599182784557,-0.4806523621082306,0.8213509321212769],"type":"VEC4"},{"bufferView":14,"componentType":5126,"count":136,"max":[7.849999904632568],"min":[0],"type":"SCALAR"},{"bufferView":15,"componentType":5126,"count":136,"max":[0.5885156393051147,1.0443757772445679,1.1675000190734863],"min":[0.13562500476837158,0.16246338188648224,0.5],"type":"VEC3"},{"bufferView":16,"componentType":5126,"count":12,"max":[7.050000190734863],"min":[0],"type":"SCALAR"},{"bufferView":17,"componentType":5126,"count":12,"max":[0,0,0.0625],"min":[0,0,-0.21875],"type":"VEC3"},{"bufferView":18,"componentType":5126,"count":24,"max":[4.949999809265137],"min":[0],"type":"SCALAR"},{"bufferView":19,"componentType":5126,"count":24,"max":[0.12191332876682281,0.03625169023871422,0.2928125858306885,1],"min":[-0.0062387241050601006,-0.08752527832984924,-0.12915508449077606,0.9445654153823853],"type":"VEC4"},{"bufferView":20,"componentType":5126,"count":25,"max":[4.949999809265137],"min":[0],"type":"SCALAR"},{"bufferView":21,"componentType":5126,"count":25,"max":[0.05333875119686127,-0.3125,0.574999988079071],"min":[-0.42165324091911316,-1.081874966621399,0.14909186959266663],"type":"VEC3"},{"bufferView":22,"componentType":5126,"count":4,"max":[7.050000190734863],"min":[6],"type":"SCALAR"},{"bufferView":23,"componentType":5126,"count":4,"max":[0,0,0,1],"min":[-0.5,0,0,0.8660253882408142],"type":"VEC4"},{"bufferView":24,"componentType":5126,"count":2,"max":[0],"min":[0],"type":"SCALAR"},{"bufferView":25,"componentType":5126,"count":2,"max":[0.015625,-0.3125,2.5],"min":[-0.046875,-0.4375,-0.08749999850988388],"type":"VEC3"}]}