{"asset":{"version":"2.0","generator":"Blockbench 4.7.1 glTF exporter"},"scenes":[{"nodes":[14],"name":"blockbench_export"}],"scene":0,"nodes":[{"translation":[-0.015625,0.32641624999999996,-0.14428687500000004],"name":"9mm2"},{"translation":[0.015625,-0.3125,0.3125],"name":"magazine3","children":[0]},{"translation":[-0.015625,0.32641624999999996,-0.14428687500000004],"name":"9mm"},{"translation":[0.015625,-0.3125,0.3125],"name":"magazine2","children":[2]},{"translation":[-0.00390625,0.050289999999999946,0.358219375],"name":"hammer"},{"name":"slide"},{"name":"main","children":[4,5]},{"name":"bone2","children":[1,3,6]},{"translation":[0.375,-0.6875,0],"name":"RightHand"},{"translation":[-0.375,0.6875,0],"name":"r","children":[8]},{"name":"body","children":[7,9]},{"translation":[-0.375,-0.6875,0],"name":"LeftHand"},{"translation":[0.375,0.6875,0],"name":"l","children":[11]},{"translation":[0.5,0.5,0.5],"name":"bone","children":[10,12]},{"children":[13]}],"animations":[{"name":"static_state","samplers":[{"input":0,"output":1,"interpolation":"LINEAR"},{"input":2,"output":3,"interpolation":"LINEAR"},{"input":4,"output":5,"interpolation":"LINEAR"},{"input":6,"output":7,"interpolation":"LINEAR"},{"input":8,"output":9,"interpolation":"LINEAR"},{"input":10,"output":11,"interpolation":"LINEAR"},{"input":12,"output":13,"interpolation":"LINEAR"}],"channels":[{"sampler":0,"target":{"node":9,"path":"rotation"}},{"sampler":1,"target":{"node":9,"path":"translation"}},{"sampler":2,"target":{"node":9,"path":"scale"}},{"sampler":3,"target":{"node":12,"path":"rotation"}},{"sampler":4,"target":{"node":12,"path":"translation"}},{"sampler":5,"target":{"node":12,"path":"scale"}},{"sampler":6,"target":{"node":1,"path":"translation"}}]}],"bufferViews":[{"buffer":0,"byteOffset":0,"byteLength":4},{"buffer":0,"byteOffset":4,"byteLength":16},{"buffer":0,"byteOffset":20,"byteLength":4},{"buffer":0,"byteOffset":24,"byteLength":12},{"buffer":0,"byteOffset":36,"byteLength":4},{"buffer":0,"byteOffset":40,"byteLength":12},{"buffer":0,"byteOffset":52,"byteLength":4},{"buffer":0,"byteOffset":56,"byteLength":16},{"buffer":0,"byteOffset":72,"byteLength":8},{"buffer":0,"byteOffset":80,"byteLength":24},{"buffer":0,"byteOffset":104,"byteLength":4},{"buffer":0,"byteOffset":108,"byteLength":12},{"buffer":0,"byteOffset":120,"byteLength":4},{"buffer":0,"byteOffset":124,"byteLength":12}],"buffers":[{"byteLength":136,"uri":"data:application/octet-stream;base64,"}],"accessors":[{"bufferView":0,"componentType":5126,"count":1,"max":[0],"min":[0],"type":"SCALAR"},{"bufferView":1,"componentType":5126,"count":1,"max":[-0.09530092775821686,0.7315502762794495,-0.6744590401649475,-0.02927265129983425],"min":[-0.09530092775821686,0.7315502762794495,-0.6744590401649475,-0.02927265129983425],"type":"VEC4"},{"bufferView":2,"componentType":5126,"count":1,"max":[0],"min":[0],"type":"SCALAR"},{"bufferView":3,"componentType":5126,"count":1,"max":[0.05000000074505806,-0.26249998807907104,0.13750000298023224],"min":[0.05000000074505806,-0.26249998807907104,0.13750000298023224],"type":"VEC3"},{"bufferView":4,"componentType":5126,"count":1,"max":[0],"min":[0],"type":"SCALAR"},{"bufferView":5,"componentType":5126,"count":1,"max":[1.75,2,1.75],"min":[1.75,2,1.75],"type":"VEC3"},{"bufferView":6,"componentType":5126,"count":1,"max":[0],"min":[0],"type":"SCALAR"},{"bufferView":7,"componentType":5126,"count":1,"max":[0.22993256151676178,-0.5913328528404236,0.5086961388587952,-0.58196622133255],"min":[0.22993256151676178,-0.5913328528404236,0.5086961388587952,-0.58196622133255],"type":"VEC4"},{"bufferView":8,"componentType":5126,"count":2,"max":[0],"min":[0],"type":"SCALAR"},{"bufferView":9,"componentType":5126,"count":2,"max":[0.3125,0.6875,0.03125],"min":[-0.10625000298023224,-0.35624998807907104,-0.4000000059604645],"type":"VEC3"},{"bufferView":10,"componentType":5126,"count":1,"max":[0],"min":[0],"type":"SCALAR"},{"bufferView":11,"componentType":5126,"count":1,"max":[1.75,2,1.75],"min":[1.75,2,1.75],"type":"VEC3"},{"bufferView":12,"componentType":5126,"count":1,"max":[0],"min":[0],"type":"SCALAR"},{"bufferView":13,"componentType":5126,"count":1,"max":[0.015625,-0.4375,2.5],"min":[0.015625,-0.4375,2.5],"type":"VEC3"}]}