{"asset":{"version":"2.0","generator":"Blockbench 4.7.1 glTF exporter"},"scenes":[{"nodes":[14],"name":"blockbench_export"}],"scene":0,"nodes":[{"translation":[-0.015625,0.32641624999999996,-0.14428687500000004],"name":"9mm2"},{"translation":[0.015625,-0.3125,0.3125],"name":"magazine3","children":[0]},{"translation":[-0.015625,0.32641624999999996,-0.14428687500000004],"name":"9mm"},{"translation":[0.015625,-0.3125,0.3125],"name":"magazine2","children":[2]},{"translation":[-0.00390625,0.050289999999999946,0.358219375],"name":"hammer"},{"name":"slide"},{"name":"main","children":[4,5]},{"name":"bone2","children":[1,3,6]},{"translation":[0.375,-0.6875,0],"name":"RightHand"},{"translation":[-0.375,0.6875,0],"name":"r","children":[8]},{"name":"body","children":[7,9]},{"translation":[-0.375,-0.6875,0],"name":"LeftHand"},{"translation":[0.375,0.6875,0],"name":"l","children":[11]},{"translation":[0.5,0.5,0.5],"name":"bone","children":[10,12]},{"children":[13]}],"animations":[{"name":"reload_empty","samplers":[{"input":0,"output":1,"interpolation":"LINEAR"},{"input":2,"output":3,"interpolation":"LINEAR"},{"input":4,"output":5,"interpolation":"LINEAR"},{"input":6,"output":7,"interpolation":"LINEAR"},{"input":8,"output":9,"interpolation":"LINEAR"},{"input":10,"output":11,"interpolation":"LINEAR"},{"input":12,"output":13,"interpolation":"LINEAR"},{"input":14,"output":15,"interpolation":"LINEAR"},{"input":16,"output":17,"interpolation":"LINEAR"},{"input":18,"output":19,"interpolation":"LINEAR"},{"input":20,"output":21,"interpolation":"STEP"},{"input":22,"output":23,"interpolation":"LINEAR"},{"input":24,"output":25,"interpolation":"LINEAR"}],"channels":[{"sampler":0,"target":{"node":9,"path":"rotation"}},{"sampler":1,"target":{"node":9,"path":"translation"}},{"sampler":2,"target":{"node":9,"path":"scale"}},{"sampler":3,"target":{"node":12,"path":"rotation"}},{"sampler":4,"target":{"node":12,"path":"translation"}},{"sampler":5,"target":{"node":12,"path":"scale"}},{"sampler":6,"target":{"node":13,"path":"rotation"}},{"sampler":7,"target":{"node":13,"path":"translation"}},{"sampler":8,"target":{"node":3,"path":"rotation"}},{"sampler":9,"target":{"node":3,"path":"translation"}},{"sampler":10,"target":{"node":2,"path":"translation"}},{"sampler":11,"target":{"node":5,"path":"translation"}},{"sampler":12,"target":{"node":1,"path":"translation"}}]}],"bufferViews":[{"buffer":0,"byteOffset":0,"byteLength":4},{"buffer":0,"byteOffset":4,"byteLength":16},{"buffer":0,"byteOffset":20,"byteLength":4},{"buffer":0,"byteOffset":24,"byteLength":12},{"buffer":0,"byteOffset":36,"byteLength":4},{"buffer":0,"byteOffset":40,"byteLength":12},{"buffer":0,"byteOffset":52,"byteLength":128},{"buffer":0,"byteOffset":180,"byteLength":512},{"buffer":0,"byteOffset":692,"byteLength":112},{"buffer":0,"byteOffset":804,"byteLength":336},{"buffer":0,"byteOffset":1140,"byteLength":4},{"buffer":0,"byteOffset":1144,"byteLength":12},{"buffer":0,"byteOffset":1156,"byteLength":164},{"buffer":0,"byteOffset":1320,"byteLength":656},{"buffer":0,"byteOffset":1976,"byteLength":144},{"buffer":0,"byteOffset":2120,"byteLength":432},{"buffer":0,"byteOffset":2552,"byteLength":60},{"buffer":0,"byteOffset":2612,"byteLength":240},{"buffer":0,"byteOffset":2852,"byteLength":84},{"buffer":0,"byteOffset":2936,"byteLength":252},{"buffer":0,"byteOffset":3188,"byteLength":8},{"buffer":0,"byteOffset":3196,"byteLength":24},{"buffer":0,"byteOffset":3220,"byteLength":16},{"buffer":0,"byteOffset":3236,"byteLength":48},{"buffer":0,"byteOffset":3284,"byteLength":4},{"buffer":0,"byteOffset":3288,"byteLength":12}],"buffers":[{"byteLength":3300,"uri":"data:application/octet-stream;base64,"}],"accessors":[{"bufferView":0,"componentType":5126,"count":1,"max":[0],"min":[0],"type":"SCALAR"},{"bufferView":1,"componentType":5126,"count":1,"max":[-0.09530092775821686,0.7315502762794495,-0.6744590401649475,-0.02927265129983425],"min":[-0.09530092775821686,0.7315502762794495,-0.6744590401649475,-0.02927265129983425],"type":"VEC4"},{"bufferView":2,"componentType":5126,"count":1,"max":[0],"min":[0],"type":"SCALAR"},{"bufferView":3,"componentType":5126,"count":1,"max":[0.05000000074505806,-0.26249998807907104,0.13750000298023224],"min":[0.05000000074505806,-0.26249998807907104,0.13750000298023224],"type":"VEC3"},{"bufferView":4,"componentType":5126,"count":1,"max":[0],"min":[0],"type":"SCALAR"},{"bufferView":5,"componentType":5126,"count":1,"max":[1.75,2,1.75],"min":[1.75,2,1.75],"type":"VEC3"},{"bufferView":6,"componentType":5126,"count":32,"max":[2.25],"min":[0],"type":"SCALAR"},{"bufferView":7,"componentType":5126,"count":32,"max":[0.22993256151676178,-0.5913328528404236,0.7406467199325562,0.12278780341148376],"min":[-0.6963642239570618,-0.9301831126213074,0.12278780341148376,-0.58196622133255],"type":"VEC4"},{"bufferView":8,"componentType":5126,"count":28,"max":[2.25],"min":[0],"type":"SCALAR"},{"bufferView":9,"componentType":5126,"count":28,"max":[1.984375,0.11825955659151077,1.3952274322509766],"min":[-2.873134136199951,-2.6974849700927734,0.03125],"type":"VEC3"},{"bufferView":10,"componentType":5126,"count":1,"max":[0],"min":[0],"type":"SCALAR"},{"bufferView":11,"componentType":5126,"count":1,"max":[1.75,2,1.75],"min":[1.75,2,1.75],"type":"VEC3"},{"bufferView":12,"componentType":5126,"count":41,"max":[2.5],"min":[0],"type":"SCALAR"},{"bufferView":13,"componentType":5126,"count":41,"max":[0.3131282925605774,0.21879704296588898,0.44785076379776,1],"min":[-0.0013804967748001218,-0.14458467066287994,-0.4406827688217163,0.8261036276817322],"type":"VEC4"},{"bufferView":14,"componentType":5126,"count":36,"max":[2.3499999046325684],"min":[0],"type":"SCALAR"},{"bufferView":15,"componentType":5126,"count":36,"max":[0.9537500143051147,1.078125,0.9624999761581421],"min":[0.38057905435562134,0.45625001192092896,0.5],"type":"VEC3"},{"bufferView":16,"componentType":5126,"count":15,"max":[1.350000023841858],"min":[0],"type":"SCALAR"},{"bufferView":17,"componentType":5126,"count":15,"max":[0.36951306462287903,0.0030036738608032465,0.2164396196603775,1],"min":[0,-0.10607586055994034,-0.14383848011493683,0.911876380443573],"type":"VEC4"},{"bufferView":18,"componentType":5126,"count":21,"max":[1.5499999523162842],"min":[0],"type":"SCALAR"},{"bufferView":19,"componentType":5126,"count":21,"max":[1.890625,-0.3125,2.508469343185425],"min":[-0.09457437694072723,-4.540448188781738,0.3125],"type":"VEC3"},{"bufferView":20,"componentType":5126,"count":2,"max":[0.8500000238418579],"min":[0],"type":"SCALAR"},{"bufferView":21,"componentType":5126,"count":2,"max":[-0.015625,0.3889162540435791,-0.1442868709564209],"min":[-0.015625,0.3264162540435791,-0.1677243709564209],"type":"VEC3"},{"bufferView":22,"componentType":5126,"count":4,"max":[1.9500000476837158],"min":[0],"type":"SCALAR"},{"bufferView":23,"componentType":5126,"count":4,"max":[0,0,0.34375],"min":[0,0,0],"type":"VEC3"},{"bufferView":24,"componentType":5126,"count":1,"max":[0],"min":[0],"type":"SCALAR"},{"bufferView":25,"componentType":5126,"count":1,"max":[0.015625,-0.4375,2.5],"min":[0.015625,-0.4375,2.5],"type":"VEC3"}]}