{"asset":{"version":"2.0","generator":"Blockbench 4.7.1 glTF exporter"},"scenes":[{"nodes":[14],"name":"blockbench_export"}],"scene":0,"nodes":[{"translation":[-0.015625,0.32641624999999996,-0.14428687500000004],"name":"9mm2"},{"translation":[0.015625,-0.3125,0.3125],"name":"magazine3","children":[0]},{"translation":[-0.015625,0.32641624999999996,-0.14428687500000004],"name":"9mm"},{"translation":[0.015625,-0.3125,0.3125],"name":"magazine2","children":[2]},{"translation":[-0.00390625,0.050289999999999946,0.358219375],"name":"hammer"},{"name":"slide"},{"name":"main","children":[4,5]},{"name":"bone2","children":[1,3,6]},{"translation":[0.375,-0.6875,0],"name":"RightHand"},{"translation":[-0.375,0.6875,0],"name":"r","children":[8]},{"name":"body","children":[7,9]},{"translation":[-0.375,-0.6875,0],"name":"LeftHand"},{"translation":[0.375,0.6875,0],"name":"l","children":[11]},{"translation":[0.5,0.5,0.5],"name":"bone","children":[10,12]},{"children":[13]}],"animations":[{"name":"reload_norm","samplers":[{"input":0,"output":1,"interpolation":"LINEAR"},{"input":2,"output":3,"interpolation":"LINEAR"},{"input":4,"output":5,"interpolation":"LINEAR"},{"input":6,"output":7,"interpolation":"LINEAR"},{"input":8,"output":9,"interpolation":"LINEAR"},{"input":10,"output":11,"interpolation":"LINEAR"},{"input":12,"output":13,"interpolation":"LINEAR"},{"input":14,"output":15,"interpolation":"LINEAR"},{"input":16,"output":17,"interpolation":"LINEAR"},{"input":18,"output":19,"interpolation":"LINEAR"},{"input":20,"output":21,"interpolation":"LINEAR"},{"input":22,"output":23,"interpolation":"LINEAR"},{"input":24,"output":25,"interpolation":"LINEAR"},{"input":26,"output":27,"interpolation":"LINEAR"}],"channels":[{"sampler":0,"target":{"node":9,"path":"rotation"}},{"sampler":1,"target":{"node":9,"path":"translation"}},{"sampler":2,"target":{"node":9,"path":"scale"}},{"sampler":3,"target":{"node":12,"path":"rotation"}},{"sampler":4,"target":{"node":12,"path":"translation"}},{"sampler":5,"target":{"node":12,"path":"scale"}},{"sampler":6,"target":{"node":13,"path":"rotation"}},{"sampler":7,"target":{"node":13,"path":"translation"}},{"sampler":8,"target":{"node":3,"path":"rotation"}},{"sampler":9,"target":{"node":3,"path":"translation"}},{"sampler":10,"target":{"node":2,"path":"translation"}},{"sampler":11,"target":{"node":1,"path":"rotation"}},{"sampler":12,"target":{"node":1,"path":"translation"}},{"sampler":13,"target":{"node":0,"path":"translation"}}]}],"bufferViews":[{"buffer":0,"byteOffset":0,"byteLength":4},{"buffer":0,"byteOffset":4,"byteLength":16},{"buffer":0,"byteOffset":20,"byteLength":4},{"buffer":0,"byteOffset":24,"byteLength":12},{"buffer":0,"byteOffset":36,"byteLength":4},{"buffer":0,"byteOffset":40,"byteLength":12},{"buffer":0,"byteOffset":52,"byteLength":108},{"buffer":0,"byteOffset":160,"byteLength":432},{"buffer":0,"byteOffset":592,"byteLength":112},{"buffer":0,"byteOffset":704,"byteLength":336},{"buffer":0,"byteOffset":1040,"byteLength":4},{"buffer":0,"byteOffset":1044,"byteLength":12},{"buffer":0,"byteOffset":1056,"byteLength":120},{"buffer":0,"byteOffset":1176,"byteLength":480},{"buffer":0,"byteOffset":1656,"byteLength":112},{"buffer":0,"byteOffset":1768,"byteLength":336},{"buffer":0,"byteOffset":2104,"byteLength":24},{"buffer":0,"byteOffset":2128,"byteLength":96},{"buffer":0,"byteOffset":2224,"byteLength":56},{"buffer":0,"byteOffset":2280,"byteLength":168},{"buffer":0,"byteOffset":2448,"byteLength":16},{"buffer":0,"byteOffset":2464,"byteLength":48},{"buffer":0,"byteOffset":2512,"byteLength":44},{"buffer":0,"byteOffset":2556,"byteLength":176},{"buffer":0,"byteOffset":2732,"byteLength":52},{"buffer":0,"byteOffset":2784,"byteLength":156},{"buffer":0,"byteOffset":2940,"byteLength":16},{"buffer":0,"byteOffset":2956,"byteLength":48}],"buffers":[{"byteLength":3004,"uri":"data:application/octet-stream;base64,"}],"accessors":[{"bufferView":0,"componentType":5126,"count":1,"max":[0],"min":[0],"type":"SCALAR"},{"bufferView":1,"componentType":5126,"count":1,"max":[-0.09530092775821686,0.7315502762794495,-0.6744590401649475,-0.02927265129983425],"min":[-0.09530092775821686,0.7315502762794495,-0.6744590401649475,-0.02927265129983425],"type":"VEC4"},{"bufferView":2,"componentType":5126,"count":1,"max":[0],"min":[0],"type":"SCALAR"},{"bufferView":3,"componentType":5126,"count":1,"max":[0.05000000074505806,-0.26249998807907104,0.13750000298023224],"min":[0.05000000074505806,-0.26249998807907104,0.13750000298023224],"type":"VEC3"},{"bufferView":4,"componentType":5126,"count":1,"max":[0],"min":[0],"type":"SCALAR"},{"bufferView":5,"componentType":5126,"count":1,"max":[1.75,2,1.75],"min":[1.75,2,1.75],"type":"VEC3"},{"bufferView":6,"componentType":5126,"count":27,"max":[1.75],"min":[0],"type":"SCALAR"},{"bufferView":7,"componentType":5126,"count":27,"max":[0.48850491642951965,-0.25410881638526917,0.772538423538208,-0.5179363489151001],"min":[0.01011658739298582,-0.6581786870956421,0.1270645707845688,-0.8548765182495117],"type":"VEC4"},{"bufferView":8,"componentType":5126,"count":28,"max":[1.75],"min":[0],"type":"SCALAR"},{"bufferView":9,"componentType":5126,"count":28,"max":[0.10870370268821716,-0.35624998807907104,1.9255181550979614],"min":[-1.6862499713897705,-1.7532700300216675,0.0066224997863173485],"type":"VEC3"},{"bufferView":10,"componentType":5126,"count":1,"max":[0],"min":[0],"type":"SCALAR"},{"bufferView":11,"componentType":5126,"count":1,"max":[1.75,2,1.75],"min":[1.75,2,1.75],"type":"VEC3"},{"bufferView":12,"componentType":5126,"count":30,"max":[1.850000023841858],"min":[0],"type":"SCALAR"},{"bufferView":13,"componentType":5126,"count":30,"max":[0.2739607095718384,0.23673678934574127,0.11259220540523529,1],"min":[-0.00652465783059597,-0.02962779998779297,-0.47785434126853943,0.8049446940422058],"type":"VEC4"},{"bufferView":14,"componentType":5126,"count":28,"max":[1.850000023841858],"min":[0],"type":"SCALAR"},{"bufferView":15,"componentType":5126,"count":28,"max":[0.8151757717132568,1.032812476158142,0.996874988079071],"min":[0.4982638955116272,0.4962962865829468,0.4914351999759674],"type":"VEC3"},{"bufferView":16,"componentType":5126,"count":6,"max":[1.149999976158142],"min":[0],"type":"SCALAR"},{"bufferView":17,"componentType":5126,"count":6,"max":[0.4353654384613037,0.15478546917438507,0.16504760086536407,1],"min":[0,0,-0.19797851145267487,0.8644668459892273],"type":"VEC4"},{"bufferView":18,"componentType":5126,"count":14,"max":[1.149999976158142],"min":[0],"type":"SCALAR"},{"bufferView":19,"componentType":5126,"count":14,"max":[0.4170224666595459,-0.3125,1.318750023841858],"min":[-0.953125,-2.0562500953674316,0.3125],"type":"VEC3"},{"bufferView":20,"componentType":5126,"count":4,"max":[1.7000000476837158],"min":[0],"type":"SCALAR"},{"bufferView":21,"componentType":5126,"count":4,"max":[-0.015625,0.3889162540435791,-0.1442868709564209],"min":[-0.015625,0.3264162540435791,-0.1677243709564209],"type":"VEC3"},{"bufferView":22,"componentType":5126,"count":11,"max":[1.399999976158142],"min":[0],"type":"SCALAR"},{"bufferView":23,"componentType":5126,"count":11,"max":[0.1388753056526184,0.02213427796959877,0.16898028552532196,1],"min":[-0.26467934250831604,-0.5803345441818237,-0.2864217162132263,0.7453194856643677],"type":"VEC4"},{"bufferView":24,"componentType":5126,"count":13,"max":[1.4500000476837158],"min":[0],"type":"SCALAR"},{"bufferView":25,"componentType":5126,"count":13,"max":[0.017935527488589287,-0.3125,2.0317680835723877],"min":[-1.2093937397003174,-1.5220199823379517,0.15518374741077423],"type":"VEC3"},{"bufferView":26,"componentType":5126,"count":4,"max":[1.7000000476837158],"min":[0],"type":"SCALAR"},{"bufferView":27,"componentType":5126,"count":4,"max":[-0.015625,0.3889162540435791,-0.1442868709564209],"min":[-0.015625,0.3264162540435791,-0.1677243709564209],"type":"VEC3"}]}