{"asset":{"version":"2.0","generator":"Blockbench 4.7.1 glTF exporter"},"scenes":[{"nodes":[11],"name":"blockbench_export"}],"scene":0,"nodes":[{"translation":[0.375,-0.6875,0],"name":"RightHand"},{"translation":[-0.375,0.80625,-0.21875],"name":"R","children":[0]},{"translation":[-0.02734375,0.3375,0.51171875],"name":"udp_charge"},{"translation":[0,0.11875000000000002,-0.21875],"name":"udp_bolt"},{"translation":[-0.5,-0.15625,-0.475],"name":"9mm2"},{"translation":[0,-0.22499999999999998,-0.24375000000000002],"name":"mb","children":[4]},{"name":"UDP","children":[2,3,5]},{"name":"bone3","children":[1,6]},{"translation":[-0.375,-0.6875,0],"name":"LeftHand"},{"translation":[0.375,0.80625,-0.21875],"name":"l","children":[8]},{"translation":[0.5,0.38125,0.71875],"name":"bone2","children":[7,9]},{"children":[10]}],"animations":[{"name":"inspect","samplers":[{"input":0,"output":1,"interpolation":"LINEAR"},{"input":2,"output":3,"interpolation":"LINEAR"},{"input":4,"output":5,"interpolation":"LINEAR"},{"input":6,"output":7,"interpolation":"LINEAR"},{"input":8,"output":9,"interpolation":"LINEAR"},{"input":10,"output":11,"interpolation":"LINEAR"},{"input":12,"output":13,"interpolation":"LINEAR"},{"input":14,"output":15,"interpolation":"LINEAR"}],"channels":[{"sampler":0,"target":{"node":10,"path":"rotation"}},{"sampler":1,"target":{"node":10,"path":"translation"}},{"sampler":2,"target":{"node":1,"path":"rotation"}},{"sampler":3,"target":{"node":1,"path":"translation"}},{"sampler":4,"target":{"node":1,"path":"scale"}},{"sampler":5,"target":{"node":9,"path":"rotation"}},{"sampler":6,"target":{"node":9,"path":"translation"}},{"sampler":7,"target":{"node":9,"path":"scale"}}]}],"bufferViews":[{"buffer":0,"byteOffset":0,"byteLength":404},{"buffer":0,"byteOffset":404,"byteLength":1616},{"buffer":0,"byteOffset":2020,"byteLength":412},{"buffer":0,"byteOffset":2432,"byteLength":1236},{"buffer":0,"byteOffset":3668,"byteLength":4},{"buffer":0,"byteOffset":3672,"byteLength":16},{"buffer":0,"byteOffset":3688,"byteLength":4},{"buffer":0,"byteOffset":3692,"byteLength":12},{"buffer":0,"byteOffset":3704,"byteLength":4},{"buffer":0,"byteOffset":3708,"byteLength":12},{"buffer":0,"byteOffset":3720,"byteLength":240},{"buffer":0,"byteOffset":3960,"byteLength":960},{"buffer":0,"byteOffset":4920,"byteLength":236},{"buffer":0,"byteOffset":5156,"byteLength":708},{"buffer":0,"byteOffset":5864,"byteLength":4},{"buffer":0,"byteOffset":5868,"byteLength":12}],"buffers":[{"byteLength":5880,"uri":"data:application/octet-stream;base64,"}],"accessors":[{"bufferView":0,"componentType":5126,"count":101,"max":[6.150000095367432],"min":[0],"type":"SCALAR"},{"bufferView":1,"componentType":5126,"count":101,"max":[0.41163352131843567,0.3421645760536194,0.5667096972465515,1],"min":[-0.02368922531604767,-0.016555972397327423,-0.44148728251457214,0.7150644659996033],"type":"VEC4"},{"bufferView":2,"componentType":5126,"count":103,"max":[6.150000095367432],"min":[0],"type":"SCALAR"},{"bufferView":3,"componentType":5126,"count":103,"max":[0.510937511920929,0.4959374964237213,0.7456862926483154],"min":[0.47163906693458557,0.3302380442619324,0.47823619842529297],"type":"VEC3"},{"bufferView":4,"componentType":5126,"count":1,"max":[0],"min":[0],"type":"SCALAR"},{"bufferView":5,"componentType":5126,"count":1,"max":[-0.08007342368364334,0.761847972869873,-0.639266312122345,-0.06718958914279938],"min":[-0.08007342368364334,0.761847972869873,-0.639266312122345,-0.06718958914279938],"type":"VEC4"},{"bufferView":6,"componentType":5126,"count":1,"max":[0],"min":[0],"type":"SCALAR"},{"bufferView":7,"componentType":5126,"count":1,"max":[0.03750000149011612,-0.05000000074505806,-0.03125],"min":[0.03750000149011612,-0.05000000074505806,-0.03125],"type":"VEC3"},{"bufferView":8,"componentType":5126,"count":1,"max":[0],"min":[0],"type":"SCALAR"},{"bufferView":9,"componentType":5126,"count":1,"max":[1,1.5,1],"min":[1,1.5,1],"type":"VEC3"},{"bufferView":10,"componentType":5126,"count":60,"max":[5.650000095367432],"min":[0],"type":"SCALAR"},{"bufferView":11,"componentType":5126,"count":60,"max":[0.09819478541612625,-0.47191330790519714,0.7778216004371643,-0.27406367659568787],"min":[-0.12227581441402435,-0.6745795607566833,0.43933776021003723,-0.6010991930961609],"type":"VEC4"},{"bufferView":12,"componentType":5126,"count":59,"max":[5.650000095367432],"min":[0],"type":"SCALAR"},{"bufferView":13,"componentType":5126,"count":59,"max":[-0.05000000074505806,0.14421124756336212,0.5231992602348328],"min":[-0.3408956229686737,-0.9184720516204834,-0.643750011920929],"type":"VEC3"},{"bufferView":14,"componentType":5126,"count":1,"max":[0],"min":[0],"type":"SCALAR"},{"bufferView":15,"componentType":5126,"count":1,"max":[1,1.5,1],"min":[1,1.5,1],"type":"VEC3"}]}