{"asset":{"version":"2.0","generator":"Blockbench 4.7.1 glTF exporter"},"scenes":[{"nodes":[11],"name":"blockbench_export"}],"scene":0,"nodes":[{"translation":[0.375,-0.6875,0],"name":"RightHand"},{"translation":[-0.375,0.80625,-0.21875],"name":"R","children":[0]},{"translation":[-0.02734375,0.3375,0.51171875],"name":"udp_charge"},{"translation":[0,0.11875000000000002,-0.21875],"name":"udp_bolt"},{"translation":[-0.5,-0.15625,-0.475],"name":"9mm2"},{"translation":[0,-0.22499999999999998,-0.24375000000000002],"name":"mb","children":[4]},{"name":"UDP","children":[2,3,5]},{"name":"bone3","children":[1,6]},{"translation":[-0.375,-0.6875,0],"name":"LeftHand"},{"translation":[0.375,0.80625,-0.21875],"name":"l","children":[8]},{"translation":[0.5,0.38125,0.71875],"name":"bone2","children":[7,9]},{"children":[10]}],"animations":[{"name":"reload_norm","samplers":[{"input":0,"output":1,"interpolation":"LINEAR"},{"input":2,"output":3,"interpolation":"LINEAR"},{"input":4,"output":5,"interpolation":"LINEAR"},{"input":6,"output":7,"interpolation":"LINEAR"},{"input":8,"output":9,"interpolation":"LINEAR"},{"input":10,"output":11,"interpolation":"LINEAR"},{"input":12,"output":13,"interpolation":"LINEAR"},{"input":14,"output":15,"interpolation":"LINEAR"},{"input":16,"output":17,"interpolation":"LINEAR"},{"input":18,"output":19,"interpolation":"LINEAR"},{"input":20,"output":21,"interpolation":"LINEAR"}],"channels":[{"sampler":0,"target":{"node":9,"path":"rotation"}},{"sampler":1,"target":{"node":9,"path":"translation"}},{"sampler":2,"target":{"node":9,"path":"scale"}},{"sampler":3,"target":{"node":1,"path":"rotation"}},{"sampler":4,"target":{"node":1,"path":"translation"}},{"sampler":5,"target":{"node":1,"path":"scale"}},{"sampler":6,"target":{"node":10,"path":"rotation"}},{"sampler":7,"target":{"node":10,"path":"translation"}},{"sampler":8,"target":{"node":5,"path":"rotation"}},{"sampler":9,"target":{"node":5,"path":"translation"}},{"sampler":10,"target":{"node":4,"path":"translation"}}]}],"bufferViews":[{"buffer":0,"byteOffset":0,"byteLength":84},{"buffer":0,"byteOffset":84,"byteLength":336},{"buffer":0,"byteOffset":420,"byteLength":68},{"buffer":0,"byteOffset":488,"byteLength":204},{"buffer":0,"byteOffset":692,"byteLength":4},{"buffer":0,"byteOffset":696,"byteLength":12},{"buffer":0,"byteOffset":708,"byteLength":136},{"buffer":0,"byteOffset":844,"byteLength":544},{"buffer":0,"byteOffset":1388,"byteLength":136},{"buffer":0,"byteOffset":1524,"byteLength":408},{"buffer":0,"byteOffset":1932,"byteLength":4},{"buffer":0,"byteOffset":1936,"byteLength":12},{"buffer":0,"byteOffset":1948,"byteLength":152},{"buffer":0,"byteOffset":2100,"byteLength":608},{"buffer":0,"byteOffset":2708,"byteLength":148},{"buffer":0,"byteOffset":2856,"byteLength":444},{"buffer":0,"byteOffset":3300,"byteLength":56},{"buffer":0,"byteOffset":3356,"byteLength":224},{"buffer":0,"byteOffset":3580,"byteLength":96},{"buffer":0,"byteOffset":3676,"byteLength":288},{"buffer":0,"byteOffset":3964,"byteLength":16},{"buffer":0,"byteOffset":3980,"byteLength":48}],"buffers":[{"byteLength":4028,"uri":"data:application/octet-stream;base64,"}],"accessors":[{"bufferView":0,"componentType":5126,"count":21,"max":[2.1500000953674316],"min":[0],"type":"SCALAR"},{"bufferView":1,"componentType":5126,"count":21,"max":[0.07187601923942566,-0.6124227643013,0.687451183795929,-0.3375643789768219],"min":[-0.12592700123786926,-0.6542336344718933,0.46909093856811523,-0.5888683199882507],"type":"VEC4"},{"bufferView":2,"componentType":5126,"count":17,"max":[2.1500000953674316],"min":[0],"type":"SCALAR"},{"bufferView":3,"componentType":5126,"count":17,"max":[-0.05000000074505806,0.14641395211219788,-0.6389381289482117],"min":[-0.08929125219583511,0.10625000298023224,-0.6472107172012329],"type":"VEC3"},{"bufferView":4,"componentType":5126,"count":1,"max":[0],"min":[0],"type":"SCALAR"},{"bufferView":5,"componentType":5126,"count":1,"max":[1,1.5,1],"min":[1,1.5,1],"type":"VEC3"},{"bufferView":6,"componentType":5126,"count":34,"max":[2.049999952316284],"min":[0],"type":"SCALAR"},{"bufferView":7,"componentType":5126,"count":34,"max":[-0.07142117619514465,0.8708232641220093,-0.2960518002510071,0.19793982803821564],"min":[-0.6771359443664551,0.6454287171363831,-0.739387035369873,-0.08034574240446091],"type":"VEC4"},{"bufferView":8,"componentType":5126,"count":34,"max":[2.049999952316284],"min":[0],"type":"SCALAR"},{"bufferView":9,"componentType":5126,"count":34,"max":[0.22806061804294586,-0.02968749962747097,1.0159549713134766],"min":[-0.27415749430656433,-0.6821731328964233,-0.32407623529434204],"type":"VEC3"},{"bufferView":10,"componentType":5126,"count":1,"max":[0],"min":[0],"type":"SCALAR"},{"bufferView":11,"componentType":5126,"count":1,"max":[1,1.5,1],"min":[1,1.5,1],"type":"VEC3"},{"bufferView":12,"componentType":5126,"count":38,"max":[2.450000047683716],"min":[0],"type":"SCALAR"},{"bufferView":13,"componentType":5126,"count":38,"max":[0.27687397599220276,0.04454855993390083,0.4855820834636688,1],"min":[-0.03578885272145271,-0.026806961745023727,-0.004363309126347303,0.8288432359695435],"type":"VEC4"},{"bufferView":14,"componentType":5126,"count":37,"max":[2.450000047683716],"min":[0],"type":"SCALAR"},{"bufferView":15,"componentType":5126,"count":37,"max":[0.5015624761581421,0.4215624928474426,0.721875011920929],"min":[0.3409374952316284,0.31468749046325684,0.5068749785423279],"type":"VEC3"},{"bufferView":16,"componentType":5126,"count":14,"max":[1.649999976158142],"min":[0.3499999940395355],"type":"SCALAR"},{"bufferView":17,"componentType":5126,"count":14,"max":[0.5733004212379456,0.207916721701622,0.6583484411239624,1],"min":[-0.3257649838924408,-0.3002925217151642,0,0.47941872477531433],"type":"VEC4"},{"bufferView":18,"componentType":5126,"count":24,"max":[1.649999976158142],"min":[0],"type":"SCALAR"},{"bufferView":19,"componentType":5126,"count":24,"max":[0.125,-0.22499999403953552,1.0237674713134766],"min":[-0.4085325002670288,-0.7306106090545654,-0.26875001192092896],"type":"VEC3"},{"bufferView":20,"componentType":5126,"count":4,"max":[1.75],"min":[0.44999998807907104],"type":"SCALAR"},{"bufferView":21,"componentType":5126,"count":4,"max":[-0.5,-0.13437500596046448,-0.4749999940395355],"min":[-0.5,-0.15625,-0.4749999940395355],"type":"VEC3"}]}