{"asset":{"version":"2.0","generator":"Blockbench 4.7.1 glTF exporter"},"scenes":[{"nodes":[11],"name":"blockbench_export"}],"scene":0,"nodes":[{"translation":[0.375,-0.6875,0],"name":"RightHand"},{"translation":[-0.375,0.80625,-0.21875],"name":"R","children":[0]},{"translation":[-0.02734375,0.3375,0.51171875],"name":"udp_charge"},{"translation":[0,0.11875000000000002,-0.21875],"name":"udp_bolt"},{"translation":[-0.5,-0.15625,-0.475],"name":"9mm2"},{"translation":[0,-0.22499999999999998,-0.24375000000000002],"name":"mb","children":[4]},{"name":"UDP","children":[2,3,5]},{"name":"bone3","children":[1,6]},{"translation":[-0.375,-0.6875,0],"name":"LeftHand"},{"translation":[0.375,0.80625,-0.21875],"name":"l","children":[8]},{"translation":[0.5,0.38125,0.71875],"name":"bone2","children":[7,9]},{"children":[10]}],"animations":[{"name":"reload_Emp","samplers":[{"input":0,"output":1,"interpolation":"LINEAR"},{"input":2,"output":3,"interpolation":"LINEAR"},{"input":4,"output":5,"interpolation":"LINEAR"},{"input":6,"output":7,"interpolation":"LINEAR"},{"input":8,"output":9,"interpolation":"LINEAR"},{"input":10,"output":11,"interpolation":"LINEAR"},{"input":12,"output":13,"interpolation":"LINEAR"},{"input":14,"output":15,"interpolation":"LINEAR"},{"input":16,"output":17,"interpolation":"LINEAR"},{"input":18,"output":19,"interpolation":"LINEAR"},{"input":20,"output":21,"interpolation":"LINEAR"},{"input":22,"output":23,"interpolation":"LINEAR"},{"input":24,"output":25,"interpolation":"LINEAR"}],"channels":[{"sampler":0,"target":{"node":9,"path":"rotation"}},{"sampler":1,"target":{"node":9,"path":"translation"}},{"sampler":2,"target":{"node":9,"path":"scale"}},{"sampler":3,"target":{"node":1,"path":"rotation"}},{"sampler":4,"target":{"node":1,"path":"translation"}},{"sampler":5,"target":{"node":1,"path":"scale"}},{"sampler":6,"target":{"node":10,"path":"rotation"}},{"sampler":7,"target":{"node":10,"path":"translation"}},{"sampler":8,"target":{"node":5,"path":"rotation"}},{"sampler":9,"target":{"node":5,"path":"translation"}},{"sampler":10,"target":{"node":2,"path":"translation"}},{"sampler":11,"target":{"node":3,"path":"translation"}},{"sampler":12,"target":{"node":4,"path":"translation"}}]}],"bufferViews":[{"buffer":0,"byteOffset":0,"byteLength":184},{"buffer":0,"byteOffset":184,"byteLength":736},{"buffer":0,"byteOffset":920,"byteLength":68},{"buffer":0,"byteOffset":988,"byteLength":204},{"buffer":0,"byteOffset":1192,"byteLength":4},{"buffer":0,"byteOffset":1196,"byteLength":12},{"buffer":0,"byteOffset":1208,"byteLength":156},{"buffer":0,"byteOffset":1364,"byteLength":624},{"buffer":0,"byteOffset":1988,"byteLength":172},{"buffer":0,"byteOffset":2160,"byteLength":516},{"buffer":0,"byteOffset":2676,"byteLength":4},{"buffer":0,"byteOffset":2680,"byteLength":12},{"buffer":0,"byteOffset":2692,"byteLength":192},{"buffer":0,"byteOffset":2884,"byteLength":768},{"buffer":0,"byteOffset":3652,"byteLength":184},{"buffer":0,"byteOffset":3836,"byteLength":552},{"buffer":0,"byteOffset":4388,"byteLength":56},{"buffer":0,"byteOffset":4444,"byteLength":224},{"buffer":0,"byteOffset":4668,"byteLength":96},{"buffer":0,"byteOffset":4764,"byteLength":288},{"buffer":0,"byteOffset":5052,"byteLength":24},{"buffer":0,"byteOffset":5076,"byteLength":72},{"buffer":0,"byteOffset":5148,"byteLength":16},{"buffer":0,"byteOffset":5164,"byteLength":48},{"buffer":0,"byteOffset":5212,"byteLength":16},{"buffer":0,"byteOffset":5228,"byteLength":48}],"buffers":[{"byteLength":5276,"uri":"data:application/octet-stream;base64,"}],"accessors":[{"bufferView":0,"componentType":5126,"count":46,"max":[2.5999999046325684],"min":[0],"type":"SCALAR"},{"bufferView":1,"componentType":5126,"count":46,"max":[0.07187601923942566,-0.6124231219291687,0.6874581575393677,-0.3375643789768219],"min":[-0.12592700123786926,-0.7084713578224182,0.46909093856811523,-0.5888683199882507],"type":"VEC4"},{"bufferView":2,"componentType":5126,"count":17,"max":[2.5],"min":[0],"type":"SCALAR"},{"bufferView":3,"componentType":5126,"count":17,"max":[-0.05000000074505806,0.14641395211219788,-0.6389381289482117],"min":[-0.08929125219583511,0.10625000298023224,-0.6472107172012329],"type":"VEC3"},{"bufferView":4,"componentType":5126,"count":1,"max":[0],"min":[0],"type":"SCALAR"},{"bufferView":5,"componentType":5126,"count":1,"max":[1,1.5,1],"min":[1,1.5,1],"type":"VEC3"},{"bufferView":6,"componentType":5126,"count":39,"max":[2.3499999046325684],"min":[0],"type":"SCALAR"},{"bufferView":7,"componentType":5126,"count":39,"max":[-0.047123827040195465,0.8708232641220093,-0.22397077083587646,0.48691526055336],"min":[-0.6771359443664551,0.39580798149108887,-0.7221386432647705,-0.11954160779714584],"type":"VEC4"},{"bufferView":8,"componentType":5126,"count":43,"max":[2.450000047683716],"min":[0],"type":"SCALAR"},{"bufferView":9,"componentType":5126,"count":43,"max":[0.3791131377220154,0.19875000417232513,0.4462825059890747],"min":[-0.06420301645994186,-0.9242975115776062,-0.32407623529434204],"type":"VEC3"},{"bufferView":10,"componentType":5126,"count":1,"max":[0],"min":[0],"type":"SCALAR"},{"bufferView":11,"componentType":5126,"count":1,"max":[1,1.5,1],"min":[1,1.5,1],"type":"VEC3"},{"bufferView":12,"componentType":5126,"count":48,"max":[2.9000000953674316],"min":[0],"type":"SCALAR"},{"bufferView":13,"componentType":5126,"count":48,"max":[0.27687397599220276,0.1511629968881607,0.4855820834636688,1],"min":[-0.03989306464791298,-0.006947935558855534,-0.013447356410324574,0.8288432359695435],"type":"VEC4"},{"bufferView":14,"componentType":5126,"count":46,"max":[2.9000000953674316],"min":[0],"type":"SCALAR"},{"bufferView":15,"componentType":5126,"count":46,"max":[0.5015624761581421,0.4215624928474426,0.721875011920929],"min":[0.3409374952316284,0.31031250953674316,0.5065624713897705],"type":"VEC3"},{"bufferView":16,"componentType":5126,"count":14,"max":[1.7000000476837158],"min":[0.3499999940395355],"type":"SCALAR"},{"bufferView":17,"componentType":5126,"count":14,"max":[0.5733004212379456,0.207916721701622,0.9330378770828247,1],"min":[-0.3430725932121277,-0.21412889659404755,0,-0.000054367985285352916],"type":"VEC4"},{"bufferView":18,"componentType":5126,"count":24,"max":[1.7000000476837158],"min":[0],"type":"SCALAR"},{"bufferView":19,"componentType":5126,"count":24,"max":[0.44892188906669617,-0.22499999403953552,1.2271981239318848],"min":[-0.14851562678813934,-2.7135725021362305,-0.2671875059604645],"type":"VEC3"},{"bufferView":20,"componentType":5126,"count":6,"max":[2.25],"min":[1.9500000476837158],"type":"SCALAR"},{"bufferView":21,"componentType":5126,"count":6,"max":[-0.02734375,0.3375000059604645,0.69921875],"min":[-0.02734375,0.3375000059604645,0.51171875],"type":"VEC3"},{"bufferView":22,"componentType":5126,"count":4,"max":[2.200000047683716],"min":[1.9500000476837158],"type":"SCALAR"},{"bufferView":23,"componentType":5126,"count":4,"max":[0,0.11874999850988388,-0.03125],"min":[0,0.11874999850988388,-0.21875],"type":"VEC3"},{"bufferView":24,"componentType":5126,"count":4,"max":[2.4000000953674316],"min":[1.100000023841858],"type":"SCALAR"},{"bufferView":25,"componentType":5126,"count":4,"max":[-0.5,-0.13437500596046448,-0.4749999940395355],"min":[-0.5,-0.15625,-0.4749999940395355],"type":"VEC3"}]}