{"asset":{"version":"2.0","generator":"Blockbench 4.7.1 glTF exporter"},"scenes":[{"nodes":[11],"name":"blockbench_export"}],"scene":0,"nodes":[{"translation":[0.375,-0.6875,0],"name":"RightHand"},{"translation":[-0.375,0.80625,-0.21875],"name":"R","children":[0]},{"translation":[-0.02734375,0.3375,0.51171875],"name":"udp_charge"},{"translation":[0,0.11875000000000002,-0.21875],"name":"udp_bolt"},{"translation":[-0.5,-0.15625,-0.475],"name":"9mm2"},{"translation":[0,-0.22499999999999998,-0.24375000000000002],"name":"mb","children":[4]},{"name":"UDP","children":[2,3,5]},{"name":"bone3","children":[1,6]},{"translation":[-0.375,-0.6875,0],"name":"LeftHand"},{"translation":[0.375,0.80625,-0.21875],"name":"l","children":[8]},{"translation":[0.5,0.38125,0.71875],"name":"bone2","children":[7,9]},{"children":[10]}],"animations":[{"name":"draw","samplers":[{"input":0,"output":1,"interpolation":"LINEAR"},{"input":2,"output":3,"interpolation":"LINEAR"},{"input":4,"output":5,"interpolation":"LINEAR"},{"input":6,"output":7,"interpolation":"LINEAR"},{"input":8,"output":9,"interpolation":"LINEAR"},{"input":10,"output":11,"interpolation":"LINEAR"},{"input":12,"output":13,"interpolation":"LINEAR"},{"input":14,"output":15,"interpolation":"LINEAR"}],"channels":[{"sampler":0,"target":{"node":9,"path":"rotation"}},{"sampler":1,"target":{"node":9,"path":"translation"}},{"sampler":2,"target":{"node":9,"path":"scale"}},{"sampler":3,"target":{"node":1,"path":"rotation"}},{"sampler":4,"target":{"node":1,"path":"translation"}},{"sampler":5,"target":{"node":1,"path":"scale"}},{"sampler":6,"target":{"node":10,"path":"rotation"}},{"sampler":7,"target":{"node":10,"path":"translation"}}]}],"bufferViews":[{"buffer":0,"byteOffset":0,"byteLength":28},{"buffer":0,"byteOffset":28,"byteLength":112},{"buffer":0,"byteOffset":140,"byteLength":28},{"buffer":0,"byteOffset":168,"byteLength":84},{"buffer":0,"byteOffset":252,"byteLength":4},{"buffer":0,"byteOffset":256,"byteLength":12},{"buffer":0,"byteOffset":268,"byteLength":4},{"buffer":0,"byteOffset":272,"byteLength":16},{"buffer":0,"byteOffset":288,"byteLength":4},{"buffer":0,"byteOffset":292,"byteLength":12},{"buffer":0,"byteOffset":304,"byteLength":4},{"buffer":0,"byteOffset":308,"byteLength":12},{"buffer":0,"byteOffset":320,"byteLength":52},{"buffer":0,"byteOffset":372,"byteLength":208},{"buffer":0,"byteOffset":580,"byteLength":44},{"buffer":0,"byteOffset":624,"byteLength":132}],"buffers":[{"byteLength":756,"uri":"data:application/octet-stream;base64,"}],"accessors":[{"bufferView":0,"componentType":5126,"count":7,"max":[0.3499999940395355],"min":[0],"type":"SCALAR"},{"bufferView":1,"componentType":5126,"count":7,"max":[0.07187601923942566,-0.6108542680740356,0.5271445512771606,-0.4885092079639435],"min":[-0.063116155564785,-0.6971525549888611,0.46909093856811523,-0.5928812026977539],"type":"VEC4"},{"bufferView":2,"componentType":5126,"count":7,"max":[0.3499999940395355],"min":[0],"type":"SCALAR"},{"bufferView":3,"componentType":5126,"count":7,"max":[-0.05000000074505806,0.10625000298023224,-0.01875000074505806],"min":[-0.4515624940395355,-0.33125001192092896,-0.6572723984718323],"type":"VEC3"},{"bufferView":4,"componentType":5126,"count":1,"max":[0],"min":[0],"type":"SCALAR"},{"bufferView":5,"componentType":5126,"count":1,"max":[1,1.5,1],"min":[1,1.5,1],"type":"VEC3"},{"bufferView":6,"componentType":5126,"count":1,"max":[0],"min":[0],"type":"SCALAR"},{"bufferView":7,"componentType":5126,"count":1,"max":[-0.08007342368364334,0.761847972869873,-0.639266312122345,-0.06718958914279938],"min":[-0.08007342368364334,0.761847972869873,-0.639266312122345,-0.06718958914279938],"type":"VEC4"},{"bufferView":8,"componentType":5126,"count":1,"max":[0],"min":[0],"type":"SCALAR"},{"bufferView":9,"componentType":5126,"count":1,"max":[0.03750000149011612,-0.05000000074505806,-0.03125],"min":[0.03750000149011612,-0.05000000074505806,-0.03125],"type":"VEC3"},{"bufferView":10,"componentType":5126,"count":1,"max":[0],"min":[0],"type":"SCALAR"},{"bufferView":11,"componentType":5126,"count":1,"max":[1,1.5,1],"min":[1,1.5,1],"type":"VEC3"},{"bufferView":12,"componentType":5126,"count":13,"max":[0.800000011920929],"min":[0],"type":"SCALAR"},{"bufferView":13,"componentType":5126,"count":13,"max":[0.00013628961460199207,0.26680228114128113,0.28211989998817444,1],"min":[-0.08855564147233963,-0.0023722026962786913,-0.008590317331254482,0.917269229888916],"type":"VEC4"},{"bufferView":14,"componentType":5126,"count":11,"max":[0.75],"min":[0],"type":"SCALAR"},{"bufferView":15,"componentType":5126,"count":11,"max":[0.6987500190734863,0.38374999165534973,1.03125],"min":[0.5,0.17000000178813934,0.6875],"type":"VEC3"}]}