{"asset":{"version":"2.0","generator":"Blockbench 4.7.2 glTF exporter"},"scenes":[{"nodes":[12],"name":"blockbench_export"}],"scene":0,"nodes":[{"translation":[-0.03125,0.171875,-0.21875],"name":"pull"},{"translation":[0.041015625,0.35862375,0.11051937499999998],"name":"bolt"},{"translation":[-0.375,-0.6875,0],"name":"LeftHand"},{"translation":[0.375,0.8125,-0.1875],"name":"l","children":[2]},{"translation":[-0.5,-0.10625,-0.6625],"name":"9mm"},{"translation":[0,-0.26875,-0.025000000000000022],"name":"mb","children":[4]},{"translation":[-0.5,-0.10625,-0.6625],"name":"9mm2"},{"translation":[0,-0.26875,-0.025000000000000022],"name":"mb2","children":[6]},{"name":"uzi","children":[0,1,3,5,7]},{"translation":[0.375,-0.6875,0],"name":"RightHand"},{"translation":[-0.375,0.8125,-0.1875],"name":"R","children":[9]},{"translation":[0.5,0.375,0.6875],"name":"bone","children":[8,10]},{"children":[11]}],"animations":[{"name":"inspect","samplers":[{"input":0,"output":1,"interpolation":"LINEAR"},{"input":2,"output":3,"interpolation":"LINEAR"},{"input":4,"output":5,"interpolation":"LINEAR"},{"input":6,"output":7,"interpolation":"LINEAR"},{"input":8,"output":9,"interpolation":"LINEAR"},{"input":10,"output":11,"interpolation":"LINEAR"},{"input":12,"output":13,"interpolation":"LINEAR"},{"input":14,"output":15,"interpolation":"LINEAR"},{"input":16,"output":17,"interpolation":"LINEAR"},{"input":18,"output":19,"interpolation":"LINEAR"}],"channels":[{"sampler":0,"target":{"node":3,"path":"rotation"}},{"sampler":1,"target":{"node":3,"path":"translation"}},{"sampler":2,"target":{"node":3,"path":"scale"}},{"sampler":3,"target":{"node":10,"path":"rotation"}},{"sampler":4,"target":{"node":10,"path":"translation"}},{"sampler":5,"target":{"node":10,"path":"scale"}},{"sampler":6,"target":{"node":11,"path":"rotation"}},{"sampler":7,"target":{"node":11,"path":"translation"}},{"sampler":8,"target":{"node":4,"path":"rotation"}},{"sampler":9,"target":{"node":4,"path":"translation"}}]}],"bufferViews":[{"buffer":0,"byteOffset":0,"byteLength":96},{"buffer":0,"byteOffset":96,"byteLength":384},{"buffer":0,"byteOffset":480,"byteLength":92},{"buffer":0,"byteOffset":572,"byteLength":276},{"buffer":0,"byteOffset":848,"byteLength":4},{"buffer":0,"byteOffset":852,"byteLength":12},{"buffer":0,"byteOffset":864,"byteLength":4},{"buffer":0,"byteOffset":868,"byteLength":16},{"buffer":0,"byteOffset":884,"byteLength":4},{"buffer":0,"byteOffset":888,"byteLength":12},{"buffer":0,"byteOffset":900,"byteLength":4},{"buffer":0,"byteOffset":904,"byteLength":12},{"buffer":0,"byteOffset":916,"byteLength":280},{"buffer":0,"byteOffset":1196,"byteLength":1120},{"buffer":0,"byteOffset":2316,"byteLength":268},{"buffer":0,"byteOffset":2584,"byteLength":804},{"buffer":0,"byteOffset":3388,"byteLength":4},{"buffer":0,"byteOffset":3392,"byteLength":16},{"buffer":0,"byteOffset":3408,"byteLength":16},{"buffer":0,"byteOffset":3424,"byteLength":48}],"buffers":[{"byteLength":3472,"uri":"data:application/octet-stream;base64,"}],"accessors":[{"bufferView":0,"componentType":5126,"count":24,"max":[3.950000047683716],"min":[0],"type":"SCALAR"},{"bufferView":1,"componentType":5126,"count":24,"max":[0.10259649902582169,-0.49097663164138794,0.8254290223121643,-0.0439748652279377],"min":[-0.5683121681213379,-0.8872796893119812,0.29051798582077026,-0.584299623966217],"type":"VEC4"},{"bufferView":2,"componentType":5126,"count":23,"max":[3.950000047683716],"min":[0],"type":"SCALAR"},{"bufferView":3,"componentType":5126,"count":23,"max":[-0.06875000149011612,0.2279130220413208,0.030047500506043434],"min":[-0.5540912747383118,-1.0636918544769287,-0.40625],"type":"VEC3"},{"bufferView":4,"componentType":5126,"count":1,"max":[0],"min":[0],"type":"SCALAR"},{"bufferView":5,"componentType":5126,"count":1,"max":[1,1.5,1],"min":[1,1.5,1],"type":"VEC3"},{"bufferView":6,"componentType":5126,"count":1,"max":[0],"min":[0],"type":"SCALAR"},{"bufferView":7,"componentType":5126,"count":1,"max":[-0.08007342368364334,0.761847972869873,-0.639266312122345,-0.06718958914279938],"min":[-0.08007342368364334,0.761847972869873,-0.639266312122345,-0.06718958914279938],"type":"VEC4"},{"bufferView":8,"componentType":5126,"count":1,"max":[0],"min":[0],"type":"SCALAR"},{"bufferView":9,"componentType":5126,"count":1,"max":[0.03750000149011612,-0.07500000298023224,-0.05000000074505806],"min":[0.03750000149011612,-0.07500000298023224,-0.05000000074505806],"type":"VEC3"},{"bufferView":10,"componentType":5126,"count":1,"max":[0],"min":[0],"type":"SCALAR"},{"bufferView":11,"componentType":5126,"count":1,"max":[1,1.5,1],"min":[1,1.5,1],"type":"VEC3"},{"bufferView":12,"componentType":5126,"count":70,"max":[4.400000095367432],"min":[0],"type":"SCALAR"},{"bufferView":13,"componentType":5126,"count":70,"max":[0.4721262454986572,0.369926780462265,0.5506768822669983,1],"min":[-0.0005169539363123477,-0.19656799733638763,-0.31188270449638367,0.6643676161766052],"type":"VEC4"},{"bufferView":14,"componentType":5126,"count":67,"max":[4.400000095367432],"min":[0],"type":"SCALAR"},{"bufferView":15,"componentType":5126,"count":67,"max":[0.7181249856948853,0.6987500190734863,0.7155320644378662],"min":[0.37924396991729736,0.37060287594795227,0.6156250238418579],"type":"VEC3"},{"bufferView":16,"componentType":5126,"count":1,"max":[0],"min":[0],"type":"SCALAR"},{"bufferView":17,"componentType":5126,"count":1,"max":[0,0,0,1],"min":[0,0,0,1],"type":"VEC4"},{"bufferView":18,"componentType":5126,"count":4,"max":[4.25],"min":[0],"type":"SCALAR"},{"bufferView":19,"componentType":5126,"count":4,"max":[-0.5,-0.04531250149011612,-0.6625000238418579],"min":[-0.5,-0.10625000298023224,-0.6625000238418579],"type":"VEC3"}]}