{"asset":{"version":"2.0","generator":"Blockbench 4.7.2 glTF exporter"},"scenes":[{"nodes":[12],"name":"blockbench_export"}],"scene":0,"nodes":[{"translation":[-0.03125,0.171875,-0.21875],"name":"pull"},{"translation":[0.041015625,0.35862375,0.11051937499999998],"name":"bolt"},{"translation":[-0.375,-0.6875,0],"name":"LeftHand"},{"translation":[0.375,0.8125,-0.1875],"name":"l","children":[2]},{"translation":[-0.5,-0.10625,-0.6625],"name":"9mm"},{"translation":[0,-0.26875,-0.025000000000000022],"name":"mb","children":[4]},{"translation":[-0.5,-0.10625,-0.6625],"name":"9mm2"},{"translation":[0,-0.26875,-0.025000000000000022],"name":"mb2","children":[6]},{"name":"uzi","children":[0,1,3,5,7]},{"translation":[0.375,-0.6875,0],"name":"RightHand"},{"translation":[-0.375,0.8125,-0.1875],"name":"R","children":[9]},{"translation":[0.5,0.375,0.6875],"name":"bone","children":[8,10]},{"children":[11]}],"animations":[{"name":"reload","samplers":[{"input":0,"output":1,"interpolation":"LINEAR"},{"input":2,"output":3,"interpolation":"LINEAR"},{"input":4,"output":5,"interpolation":"LINEAR"},{"input":6,"output":7,"interpolation":"LINEAR"},{"input":8,"output":9,"interpolation":"LINEAR"},{"input":10,"output":11,"interpolation":"LINEAR"},{"input":12,"output":13,"interpolation":"LINEAR"},{"input":14,"output":15,"interpolation":"LINEAR"},{"input":16,"output":17,"interpolation":"LINEAR"},{"input":18,"output":19,"interpolation":"LINEAR"},{"input":20,"output":21,"interpolation":"LINEAR"},{"input":22,"output":23,"interpolation":"LINEAR"},{"input":24,"output":25,"interpolation":"LINEAR"},{"input":26,"output":27,"interpolation":"LINEAR"}],"channels":[{"sampler":0,"target":{"node":5,"path":"rotation"}},{"sampler":1,"target":{"node":5,"path":"translation"}},{"sampler":2,"target":{"node":4,"path":"translation"}},{"sampler":3,"target":{"node":11,"path":"rotation"}},{"sampler":4,"target":{"node":11,"path":"translation"}},{"sampler":5,"target":{"node":3,"path":"rotation"}},{"sampler":6,"target":{"node":3,"path":"translation"}},{"sampler":7,"target":{"node":3,"path":"scale"}},{"sampler":8,"target":{"node":10,"path":"rotation"}},{"sampler":9,"target":{"node":10,"path":"translation"}},{"sampler":10,"target":{"node":10,"path":"scale"}},{"sampler":11,"target":{"node":7,"path":"rotation"}},{"sampler":12,"target":{"node":7,"path":"translation"}},{"sampler":13,"target":{"node":6,"path":"translation"}}]}],"bufferViews":[{"buffer":0,"byteOffset":0,"byteLength":40},{"buffer":0,"byteOffset":40,"byteLength":160},{"buffer":0,"byteOffset":200,"byteLength":36},{"buffer":0,"byteOffset":236,"byteLength":108},{"buffer":0,"byteOffset":344,"byteLength":8},{"buffer":0,"byteOffset":352,"byteLength":24},{"buffer":0,"byteOffset":376,"byteLength":136},{"buffer":0,"byteOffset":512,"byteLength":544},{"buffer":0,"byteOffset":1056,"byteLength":140},{"buffer":0,"byteOffset":1196,"byteLength":420},{"buffer":0,"byteOffset":1616,"byteLength":128},{"buffer":0,"byteOffset":1744,"byteLength":512},{"buffer":0,"byteOffset":2256,"byteLength":120},{"buffer":0,"byteOffset":2376,"byteLength":360},{"buffer":0,"byteOffset":2736,"byteLength":4},{"buffer":0,"byteOffset":2740,"byteLength":12},{"buffer":0,"byteOffset":2752,"byteLength":4},{"buffer":0,"byteOffset":2756,"byteLength":16},{"buffer":0,"byteOffset":2772,"byteLength":4},{"buffer":0,"byteOffset":2776,"byteLength":12},{"buffer":0,"byteOffset":2788,"byteLength":4},{"buffer":0,"byteOffset":2792,"byteLength":12},{"buffer":0,"byteOffset":2804,"byteLength":44},{"buffer":0,"byteOffset":2848,"byteLength":176},{"buffer":0,"byteOffset":3024,"byteLength":44},{"buffer":0,"byteOffset":3068,"byteLength":132},{"buffer":0,"byteOffset":3200,"byteLength":8},{"buffer":0,"byteOffset":3208,"byteLength":24}],"buffers":[{"byteLength":3232,"uri":"data:application/octet-stream;base64,"}],"accessors":[{"bufferView":0,"componentType":5126,"count":10,"max":[1.2000000476837158],"min":[0],"type":"SCALAR"},{"bufferView":1,"componentType":5126,"count":10,"max":[0.011998850852251053,0,0.20530349016189575,1],"min":[-0.6130273938179016,-0.2536710202693939,0,0.719512939453125],"type":"VEC4"},{"bufferView":2,"componentType":5126,"count":9,"max":[1.2999999523162842],"min":[0.25],"type":"SCALAR"},{"bufferView":3,"componentType":5126,"count":9,"max":[0,-0.26875001192092896,1.181249976158142],"min":[-0.07374999672174454,-1.5125000476837158,-0.02500000037252903],"type":"VEC3"},{"bufferView":4,"componentType":5126,"count":2,"max":[2.1500000953674316],"min":[0],"type":"SCALAR"},{"bufferView":5,"componentType":5126,"count":2,"max":[-0.5,-0.04374999925494194,-0.6625000238418579],"min":[-0.5,-0.04374999925494194,-0.6625000238418579],"type":"VEC3"},{"bufferView":6,"componentType":5126,"count":34,"max":[2.200000047683716],"min":[0],"type":"SCALAR"},{"bufferView":7,"componentType":5126,"count":34,"max":[0.3159419596195221,0.2110682874917984,0.010884878225624561,1],"min":[0,0,-0.46663743257522583,0.8127442002296448],"type":"VEC4"},{"bufferView":8,"componentType":5126,"count":35,"max":[2.200000047683716],"min":[0],"type":"SCALAR"},{"bufferView":9,"componentType":5126,"count":35,"max":[0.6524999737739563,0.46927735209465027,0.7729352116584778],"min":[0.5,0.3218750059604645,0.6075000166893005],"type":"VEC3"},{"bufferView":10,"componentType":5126,"count":32,"max":[2],"min":[0],"type":"SCALAR"},{"bufferView":11,"componentType":5126,"count":32,"max":[0.3968557119369507,-0.5744218230247498,0.6301938891410828,-0.3397068679332733],"min":[0.05672716349363327,-0.6942355632781982,0.37683308124542236,-0.610473096370697],"type":"VEC4"},{"bufferView":12,"componentType":5126,"count":30,"max":[2],"min":[0],"type":"SCALAR"},{"bufferView":13,"componentType":5126,"count":30,"max":[-0.012500000186264515,0.01875000074505806,0.6725000143051147],"min":[-0.4768981337547302,-1.064897894859314,-0.40625],"type":"VEC3"},{"bufferView":14,"componentType":5126,"count":1,"max":[0],"min":[0],"type":"SCALAR"},{"bufferView":15,"componentType":5126,"count":1,"max":[1,1.5,1],"min":[1,1.5,1],"type":"VEC3"},{"bufferView":16,"componentType":5126,"count":1,"max":[0],"min":[0],"type":"SCALAR"},{"bufferView":17,"componentType":5126,"count":1,"max":[-0.08007342368364334,0.761847972869873,-0.639266312122345,-0.06718958914279938],"min":[-0.08007342368364334,0.761847972869873,-0.639266312122345,-0.06718958914279938],"type":"VEC4"},{"bufferView":18,"componentType":5126,"count":1,"max":[0],"min":[0],"type":"SCALAR"},{"bufferView":19,"componentType":5126,"count":1,"max":[0.03750000149011612,-0.07500000298023224,-0.05000000074505806],"min":[0.03750000149011612,-0.07500000298023224,-0.05000000074505806],"type":"VEC3"},{"bufferView":20,"componentType":5126,"count":1,"max":[0],"min":[0],"type":"SCALAR"},{"bufferView":21,"componentType":5126,"count":1,"max":[1,1.5,1],"min":[1,1.5,1],"type":"VEC3"},{"bufferView":22,"componentType":5126,"count":11,"max":[1.5],"min":[0],"type":"SCALAR"},{"bufferView":23,"componentType":5126,"count":11,"max":[0.7169063091278076,0.17211392521858215,0,1],"min":[0,0,-0.17721238732337952,0.6569235920906067],"type":"VEC4"},{"bufferView":24,"componentType":5126,"count":11,"max":[2],"min":[0.550000011920929],"type":"SCALAR"},{"bufferView":25,"componentType":5126,"count":11,"max":[0.08124999701976776,-0.26875001192092896,2.2874999046325684],"min":[-0.3088631331920624,-1.0146056413650513,-0.02500000037252903],"type":"VEC3"},{"bufferView":26,"componentType":5126,"count":2,"max":[2.1500000953674316],"min":[0],"type":"SCALAR"},{"bufferView":27,"componentType":5126,"count":2,"max":[-0.5,-0.04374999925494194,-0.6625000238418579],"min":[-0.5,-0.04374999925494194,-0.6625000238418579],"type":"VEC3"}]}