{"asset":{"version":"2.0","generator":"Blockbench 4.7.2 glTF exporter"},"scenes":[{"nodes":[12],"name":"blockbench_export"}],"scene":0,"nodes":[{"translation":[-0.03125,0.171875,-0.21875],"name":"pull"},{"translation":[0.041015625,0.35862375,0.11051937499999998],"name":"bolt"},{"translation":[-0.375,-0.6875,0],"name":"LeftHand"},{"translation":[0.375,0.8125,-0.1875],"name":"l","children":[2]},{"translation":[-0.5,-0.10625,-0.6625],"name":"9mm"},{"translation":[0,-0.26875,-0.025000000000000022],"name":"mb","children":[4]},{"translation":[-0.5,-0.10625,-0.6625],"name":"9mm2"},{"translation":[0,-0.26875,-0.025000000000000022],"name":"mb2","children":[6]},{"name":"uzi","children":[0,1,3,5,7]},{"translation":[0.375,-0.6875,0],"name":"RightHand"},{"translation":[-0.375,0.8125,-0.1875],"name":"R","children":[9]},{"translation":[0.5,0.375,0.6875],"name":"bone","children":[8,10]},{"children":[11]}],"animations":[{"name":"reload_empty","samplers":[{"input":0,"output":1,"interpolation":"LINEAR"},{"input":2,"output":3,"interpolation":"LINEAR"},{"input":4,"output":5,"interpolation":"LINEAR"},{"input":6,"output":7,"interpolation":"LINEAR"},{"input":8,"output":9,"interpolation":"LINEAR"},{"input":10,"output":11,"interpolation":"LINEAR"},{"input":12,"output":13,"interpolation":"LINEAR"},{"input":14,"output":15,"interpolation":"LINEAR"},{"input":16,"output":17,"interpolation":"LINEAR"},{"input":18,"output":19,"interpolation":"LINEAR"},{"input":20,"output":21,"interpolation":"LINEAR"},{"input":22,"output":23,"interpolation":"LINEAR"},{"input":24,"output":25,"interpolation":"LINEAR"},{"input":26,"output":27,"interpolation":"LINEAR"}],"channels":[{"sampler":0,"target":{"node":3,"path":"rotation"}},{"sampler":1,"target":{"node":3,"path":"translation"}},{"sampler":2,"target":{"node":3,"path":"scale"}},{"sampler":3,"target":{"node":10,"path":"rotation"}},{"sampler":4,"target":{"node":10,"path":"translation"}},{"sampler":5,"target":{"node":10,"path":"scale"}},{"sampler":6,"target":{"node":11,"path":"rotation"}},{"sampler":7,"target":{"node":11,"path":"translation"}},{"sampler":8,"target":{"node":0,"path":"translation"}},{"sampler":9,"target":{"node":1,"path":"translation"}},{"sampler":10,"target":{"node":7,"path":"translation"}},{"sampler":11,"target":{"node":5,"path":"rotation"}},{"sampler":12,"target":{"node":5,"path":"translation"}},{"sampler":13,"target":{"node":4,"path":"translation"}}]}],"bufferViews":[{"buffer":0,"byteOffset":0,"byteLength":176},{"buffer":0,"byteOffset":176,"byteLength":704},{"buffer":0,"byteOffset":880,"byteLength":156},{"buffer":0,"byteOffset":1036,"byteLength":468},{"buffer":0,"byteOffset":1504,"byteLength":4},{"buffer":0,"byteOffset":1508,"byteLength":12},{"buffer":0,"byteOffset":1520,"byteLength":4},{"buffer":0,"byteOffset":1524,"byteLength":16},{"buffer":0,"byteOffset":1540,"byteLength":4},{"buffer":0,"byteOffset":1544,"byteLength":12},{"buffer":0,"byteOffset":1556,"byteLength":4},{"buffer":0,"byteOffset":1560,"byteLength":12},{"buffer":0,"byteOffset":1572,"byteLength":184},{"buffer":0,"byteOffset":1756,"byteLength":736},{"buffer":0,"byteOffset":2492,"byteLength":184},{"buffer":0,"byteOffset":2676,"byteLength":552},{"buffer":0,"byteOffset":3228,"byteLength":16},{"buffer":0,"byteOffset":3244,"byteLength":48},{"buffer":0,"byteOffset":3292,"byteLength":8},{"buffer":0,"byteOffset":3300,"byteLength":24},{"buffer":0,"byteOffset":3324,"byteLength":4},{"buffer":0,"byteOffset":3328,"byteLength":12},{"buffer":0,"byteOffset":3340,"byteLength":40},{"buffer":0,"byteOffset":3380,"byteLength":160},{"buffer":0,"byteOffset":3540,"byteLength":60},{"buffer":0,"byteOffset":3600,"byteLength":180},{"buffer":0,"byteOffset":3780,"byteLength":12},{"buffer":0,"byteOffset":3792,"byteLength":36}],"buffers":[{"byteLength":3828,"uri":"data:application/octet-stream;base64,"}],"accessors":[{"bufferView":0,"componentType":5126,"count":44,"max":[2.75],"min":[0],"type":"SCALAR"},{"bufferView":1,"componentType":5126,"count":44,"max":[0.11110588908195496,-0.6320708394050598,0.668277382850647,0.11395831406116486],"min":[-0.42957061529159546,-0.7817327976226807,0.4226624369621277,-0.5900467038154602],"type":"VEC4"},{"bufferView":2,"componentType":5126,"count":39,"max":[2.6500000953674316],"min":[0],"type":"SCALAR"},{"bufferView":3,"componentType":5126,"count":39,"max":[0.047238126397132874,0.18125000596046448,0.21632006764411926],"min":[-1.0131605863571167,-1.785963773727417,-0.4437499940395355],"type":"VEC3"},{"bufferView":4,"componentType":5126,"count":1,"max":[0],"min":[0],"type":"SCALAR"},{"bufferView":5,"componentType":5126,"count":1,"max":[1,1.5,1],"min":[1,1.5,1],"type":"VEC3"},{"bufferView":6,"componentType":5126,"count":1,"max":[0],"min":[0],"type":"SCALAR"},{"bufferView":7,"componentType":5126,"count":1,"max":[-0.08007342368364334,0.761847972869873,-0.639266312122345,-0.06718958914279938],"min":[-0.08007342368364334,0.761847972869873,-0.639266312122345,-0.06718958914279938],"type":"VEC4"},{"bufferView":8,"componentType":5126,"count":1,"max":[0],"min":[0],"type":"SCALAR"},{"bufferView":9,"componentType":5126,"count":1,"max":[0.03750000149011612,-0.07500000298023224,-0.05000000074505806],"min":[0.03750000149011612,-0.07500000298023224,-0.05000000074505806],"type":"VEC3"},{"bufferView":10,"componentType":5126,"count":1,"max":[0],"min":[0],"type":"SCALAR"},{"bufferView":11,"componentType":5126,"count":1,"max":[1,1.5,1],"min":[1,1.5,1],"type":"VEC3"},{"bufferView":12,"componentType":5126,"count":46,"max":[2.9000000953674316],"min":[0],"type":"SCALAR"},{"bufferView":13,"componentType":5126,"count":46,"max":[0.21313698589801788,0.2244587391614914,0.4579859673976898,1],"min":[0,-0.006891870405524969,-0.4300527572631836,0.8503937125205994],"type":"VEC4"},{"bufferView":14,"componentType":5126,"count":46,"max":[2.9000000953674316],"min":[0],"type":"SCALAR"},{"bufferView":15,"componentType":5126,"count":46,"max":[0.6168749928474426,0.5056250095367432,0.8921874761581421],"min":[0.4712499976158142,0.265625,0.612500011920929],"type":"VEC3"},{"bufferView":16,"componentType":5126,"count":4,"max":[2.3499999046325684],"min":[2],"type":"SCALAR"},{"bufferView":17,"componentType":5126,"count":4,"max":[-0.03125,0.171875,-0.0062500000931322575],"min":[-0.03125,0.171875,-0.21875],"type":"VEC3"},{"bufferView":18,"componentType":5126,"count":2,"max":[2.049999952316284],"min":[2],"type":"SCALAR"},{"bufferView":19,"componentType":5126,"count":2,"max":[0.041015625,0.358623743057251,0.11051937192678452],"min":[0.041015625,0.358623743057251,-0.06448062509298325],"type":"VEC3"},{"bufferView":20,"componentType":5126,"count":1,"max":[0.05000000074505806],"min":[0.05000000074505806],"type":"SCALAR"},{"bufferView":21,"componentType":5126,"count":1,"max":[0,-0.668749988079071,1.0187499523162842],"min":[0,-0.668749988079071,1.0187499523162842],"type":"VEC3"},{"bufferView":22,"componentType":5126,"count":10,"max":[1.600000023841858],"min":[0.4000000059604645],"type":"SCALAR"},{"bufferView":23,"componentType":5126,"count":10,"max":[0,0,0.10033179074525833,1],"min":[-0.09535761922597885,-0.009660853073000908,-0.18223552405834198,0.9832549095153809],"type":"VEC4"},{"bufferView":24,"componentType":5126,"count":15,"max":[1.600000023841858],"min":[0],"type":"SCALAR"},{"bufferView":25,"componentType":5126,"count":15,"max":[0.15558937191963196,-0.26875001192092896,0.3060193657875061],"min":[-0.3062500059604645,-1.698463797569275,-0.02500000037252903],"type":"VEC3"},{"bufferView":26,"componentType":5126,"count":3,"max":[2.6500000953674316],"min":[0.550000011920929],"type":"SCALAR"},{"bufferView":27,"componentType":5126,"count":3,"max":[-0.5,-0.04374999925494194,-0.6625000238418579],"min":[-0.5,-0.10625000298023224,-0.6625000238418579],"type":"VEC3"}]}